<svg width="16" height="16" viewBox="0 0 16 16" fill="none" xmlns="http://www.w3.org/2000/svg">
<path opacity="0.4" d="M14.6663 7.99992C14.6663 11.6826 11.6817 14.6666 7.99967 14.6666C4.31767 14.6666 1.33301 11.6826 1.33301 7.99992C1.33301 4.31859 4.31767 1.33325 7.99967 1.33325C11.6817 1.33325 14.6663 4.31859 14.6663 7.99992Z" fill="#EA3A31"/>
<path fill-rule="evenodd" clip-rule="evenodd" d="M8.57975 8.42038C8.57975 8.74171 8.31775 9.00371 7.99642 9.00371C7.67509 9.00371 7.41309 8.74171 7.41309 8.42038V5.47371C7.41309 5.15238 7.67509 4.89038 7.99642 4.89038C8.31775 4.89038 8.57975 5.15238 8.57975 5.47371V8.42038ZM7.41646 10.5356C7.41646 10.2143 7.67712 9.95226 7.99646 9.95226C8.32512 9.95226 8.58646 10.2143 8.58646 10.5356C8.58646 10.8569 8.32512 11.1189 8.00312 11.1189C7.67979 11.1189 7.41646 10.8569 7.41646 10.5356Z" fill="#EA3A31"/>
</svg>
