<svg width="62" height="62" viewBox="0 0 62 62" fill="none" xmlns="http://www.w3.org/2000/svg">
<path fill-rule="evenodd" clip-rule="evenodd" d="M35.2222 28.1667L39.1657 28.1667H41.8333H46.5V32.8333L39.1657 32.8781L35.2222 32.8333V28.1667ZM15 30.4527C15 24.6673 19.8914 20 25.8343 20C30.5314 20 34.56 22.9873 36 27.1873H33.7943V33.8127H36C34.56 37.9181 30.5314 41 25.8343 41C19.8914 41.0056 15 36.2437 15 30.4527Z" fill="url(#paint0_linear)"/>
<g filter="url(#filter0_d)">
<path d="M30.449 31.0316C29.8594 30.5184 29.0847 30.2105 28.1249 30.1077V30.0771C28.8894 29.8924 29.5231 29.5561 30.0269 29.0685C30.5303 28.581 30.7822 28.0137 30.7822 27.3671C30.7822 26.4946 30.3764 25.8117 29.5646 25.3191C28.8881 24.9086 27.9724 24.6697 26.819 24.6013V22.3335H24.2178V24.5799H20.8335V36.5055H24.2178V38.6668H26.8192V36.4946C28.1417 36.4358 29.2026 36.1205 30.0003 35.547C30.889 34.9079 31.3335 34.0469 31.3335 32.9641C31.3335 32.189 31.0387 31.5447 30.449 31.0316ZM23.3897 26.4738H26.0151C27.5556 26.4738 28.0747 26.9308 28.0747 27.8444C28.0747 28.3423 27.8822 28.7298 27.4971 29.0069C27.1119 29.2841 26.5846 29.4227 25.9149 29.4227H23.3897V26.4738ZM27.8739 34.1649C27.4562 34.4628 26.8769 34.6116 26.1364 34.6116H23.5153V31.3396H26.1096C26.874 31.3396 27.4635 31.4782 27.8783 31.7554C28.293 32.0325 28.5005 32.4226 28.5005 32.9255C28.5005 33.4542 28.2915 33.8674 27.8739 34.1649Z" fill="url(#paint1_radial)" shape-rendering="crispEdges"/>
</g>
<defs>
<filter id="filter0_d" x="19.8335" y="22.3335" width="12.5" height="18.3333" filterUnits="userSpaceOnUse" color-interpolation-filters="sRGB">
<feFlood flood-opacity="0" result="BackgroundImageFix"/>
<feColorMatrix in="SourceAlpha" type="matrix" values="0 0 0 0 0 0 0 0 0 0 0 0 0 0 0 0 0 0 127 0" result="hardAlpha"/>
<feOffset dy="1"/>
<feGaussianBlur stdDeviation="0.5"/>
<feComposite in2="hardAlpha" operator="out"/>
<feColorMatrix type="matrix" values="0 0 0 0 0.901961 0 0 0 0 0.47451 0 0 0 0 0.317647 0 0 0 1 0"/>
<feBlend mode="normal" in2="BackgroundImageFix" result="effect1_dropShadow"/>
<feBlend mode="normal" in="SourceGraphic" in2="effect1_dropShadow" result="shape"/>
</filter>
<linearGradient id="paint0_linear" x1="30.75" y1="20" x2="30.75" y2="41" gradientUnits="userSpaceOnUse">
<stop stop-color="#F8AB69"/>
<stop offset="1" stop-color="#FE725C"/>
</linearGradient>
<radialGradient id="paint1_radial" cx="0" cy="0" r="1" gradientUnits="userSpaceOnUse" gradientTransform="translate(24.7965 25.5315) rotate(75.332) scale(19.7977 13.3985)">
<stop offset="0.192708" stop-color="white"/>
<stop offset="1" stop-color="white" stop-opacity="0.13"/>
</radialGradient>
</defs>
</svg>
