<svg width="904" height="155" viewBox="0 0 904 155" fill="none" xmlns="http://www.w3.org/2000/svg">
<path d="M266.388 120.688C267.636 120.688 268.596 120.508 269.268 120.148C269.964 119.788 270.312 119.236 270.312 118.492C270.312 118.06 270.18 117.688 269.916 117.376C269.676 117.064 269.34 116.8 268.908 116.584C268.5 116.344 268.032 116.14 267.504 115.972C267 115.78 266.496 115.6 265.992 115.432C265.104 115.144 264.252 114.832 263.436 114.496C262.644 114.136 261.948 113.704 261.348 113.2C260.748 112.696 260.268 112.108 259.908 111.436C259.548 110.74 259.368 109.912 259.368 108.952C259.368 108.16 259.548 107.428 259.908 106.756C260.292 106.084 260.82 105.496 261.492 104.992C262.164 104.488 262.956 104.104 263.868 103.84C264.804 103.552 265.824 103.408 266.928 103.408C268.464 103.408 269.808 103.576 270.96 103.912C272.136 104.248 273.228 104.68 274.236 105.208L273.012 108.52C272.076 108.016 271.128 107.668 270.168 107.476C269.232 107.26 268.224 107.152 267.144 107.152C266.232 107.152 265.464 107.296 264.84 107.584C264.216 107.848 263.904 108.292 263.904 108.916C263.904 109.612 264.3 110.164 265.092 110.572C265.884 110.956 266.916 111.364 268.188 111.796C269.196 112.132 270.108 112.492 270.924 112.876C271.74 113.26 272.436 113.716 273.012 114.244C273.612 114.748 274.068 115.36 274.38 116.08C274.692 116.776 274.848 117.604 274.848 118.564C274.848 119.428 274.68 120.22 274.344 120.94C274.008 121.636 273.504 122.248 272.832 122.776C272.16 123.304 271.32 123.712 270.312 124C269.304 124.288 268.116 124.432 266.748 124.432C265.308 124.432 263.964 124.288 262.716 124C261.492 123.688 260.4 123.256 259.44 122.704L260.556 119.14C261.444 119.62 262.38 120.004 263.364 120.292C264.348 120.556 265.356 120.688 266.388 120.688ZM269.153 96.964C269.153 97.516 269.429 97.792 269.981 97.792H279.197V101.32H268.901C268.325 101.32 267.797 101.248 267.317 101.104C266.813 100.96 266.381 100.732 266.021 100.42C265.661 100.084 265.373 99.664 265.157 99.16C264.941 98.632 264.833 97.984 264.833 97.216V95.416H269.153V96.964ZM287.513 124.432C284.705 124.432 282.521 123.76 280.961 122.416C279.401 121.072 278.621 119.044 278.621 116.332V103.84H283.301V116.332C283.301 117.724 283.673 118.804 284.417 119.572C285.161 120.316 286.193 120.688 287.513 120.688C288.833 120.688 289.865 120.316 290.609 119.572C291.353 118.804 291.725 117.724 291.725 116.332V103.84H296.405V116.332C296.405 119.044 295.625 121.072 294.065 122.416C292.505 123.76 290.321 124.432 287.513 124.432ZM313.29 124V115.18H308.898C307.554 115.18 306.474 115.384 305.658 115.792C304.866 116.176 304.47 116.896 304.47 117.952C304.47 118.816 304.746 119.5 305.298 120.004C305.85 120.484 306.534 120.724 307.35 120.724C307.782 120.724 308.226 120.688 308.682 120.616C309.162 120.52 309.642 120.352 310.122 120.112L310.878 123.532C310.254 123.82 309.606 124.024 308.934 124.144C308.286 124.264 307.59 124.324 306.846 124.324C305.862 124.324 304.95 124.192 304.11 123.928C303.27 123.664 302.538 123.268 301.914 122.74C301.29 122.212 300.798 121.552 300.438 120.76C300.078 119.968 299.898 119.044 299.898 117.988C299.898 115.756 300.666 114.136 302.202 113.128C303.762 112.096 306.114 111.58 309.258 111.58H313.29V110.896C313.29 110.392 313.206 109.912 313.038 109.456C312.87 108.976 312.618 108.556 312.282 108.196C311.946 107.836 311.514 107.548 310.986 107.332C310.482 107.116 309.882 107.008 309.186 107.008C307.698 107.008 306.39 107.224 305.262 107.656C304.158 108.088 303.126 108.652 302.166 109.348L300.69 106.108C301.626 105.412 302.838 104.788 304.326 104.236C305.838 103.684 307.53 103.408 309.402 103.408C309.954 103.408 310.494 103.456 311.022 103.552C311.574 103.648 312.054 103.78 312.462 103.948L313.686 102.436H318.834L315.882 105.964C316.506 106.636 316.986 107.392 317.322 108.232C317.682 109.072 317.862 109.96 317.862 110.896V124H313.29ZM313.351 101.32V94.336H317.671V101.32H313.351ZM322.171 118.96C322.987 119.44 323.875 119.848 324.835 120.184C325.819 120.52 326.815 120.688 327.823 120.688C329.551 120.688 330.859 120.124 331.747 118.996C332.659 117.844 333.115 116.152 333.115 113.92C333.115 111.592 332.635 109.888 331.675 108.808C330.739 107.704 329.443 107.152 327.787 107.152C326.779 107.152 325.807 107.32 324.871 107.656C323.959 107.992 323.059 108.472 322.171 109.096L321.091 105.568C322.075 104.92 323.191 104.404 324.439 104.02C325.687 103.612 326.959 103.408 328.255 103.408C331.279 103.408 333.619 104.296 335.275 106.072C336.955 107.848 337.795 110.38 337.795 113.668C337.795 117.268 336.943 119.968 335.239 121.768C333.559 123.544 331.219 124.432 328.219 124.432C326.779 124.432 325.435 124.276 324.187 123.964C322.963 123.652 321.931 123.196 321.091 122.596L322.171 118.96ZM346.266 116.908C346.266 118.276 346.554 119.248 347.13 119.824C347.706 120.4 348.522 120.688 349.578 120.688C350.61 120.688 351.57 120.388 352.458 119.788C353.37 119.164 354.054 118.372 354.51 117.412V103.84H359.19V124H355.014L354.51 121.516C354.246 121.876 353.898 122.236 353.466 122.596C353.058 122.932 352.59 123.244 352.062 123.532C351.558 123.796 350.994 124.012 350.37 124.18C349.746 124.348 349.098 124.432 348.426 124.432C346.29 124.432 344.61 123.844 343.386 122.668C342.186 121.492 341.586 119.644 341.586 117.124V103.84H346.266V116.908ZM368.733 103.84V124H364.053V103.84H368.733ZM376.941 103.84V124H372.261V103.84H376.941ZM390.627 124.432C387.819 124.432 385.635 123.76 384.075 122.416C382.515 121.072 381.735 119.044 381.735 116.332V103.84H386.415V116.332C386.415 117.724 386.787 118.804 387.531 119.572C388.275 120.316 389.307 120.688 390.627 120.688C391.947 120.688 392.979 120.316 393.723 119.572C394.467 118.804 394.839 117.724 394.839 116.332V103.84H399.519V116.332C399.519 119.044 398.739 121.072 397.179 122.416C395.619 123.76 393.435 124.432 390.627 124.432ZM395.019 101.32V94.336H399.339V101.32H395.019ZM407.943 124L401.859 103.84H406.467L411.399 120.256H411.795C412.371 120.256 412.923 120.088 413.451 119.752C413.979 119.416 414.447 118.948 414.855 118.348C415.287 117.724 415.623 116.98 415.863 116.116C416.103 115.228 416.223 114.256 416.223 113.2C416.223 111.016 415.863 109.468 415.143 108.556C414.447 107.62 413.547 107.152 412.443 107.152C411.699 107.152 410.895 107.308 410.031 107.62L409.347 104.2C409.827 103.936 410.403 103.744 411.075 103.624C411.771 103.48 412.491 103.408 413.235 103.408C414.315 103.408 415.323 103.624 416.259 104.056C417.195 104.488 417.999 105.124 418.671 105.964C419.367 106.804 419.907 107.836 420.291 109.06C420.699 110.26 420.903 111.64 420.903 113.2C420.903 114.88 420.675 116.392 420.219 117.736C419.763 119.056 419.115 120.184 418.275 121.12C417.459 122.056 416.487 122.776 415.359 123.28C414.231 123.76 412.995 124 411.651 124H407.943ZM430.673 120.688C431.921 120.688 432.881 120.508 433.553 120.148C434.249 119.788 434.597 119.236 434.597 118.492C434.597 118.06 434.465 117.688 434.201 117.376C433.961 117.064 433.625 116.8 433.193 116.584C432.785 116.344 432.317 116.14 431.789 115.972C431.285 115.78 430.781 115.6 430.277 115.432C429.389 115.144 428.537 114.832 427.721 114.496C426.929 114.136 426.233 113.704 425.633 113.2C425.033 112.696 424.553 112.108 424.193 111.436C423.833 110.74 423.653 109.912 423.653 108.952C423.653 108.16 423.833 107.428 424.193 106.756C424.577 106.084 425.105 105.496 425.777 104.992C426.449 104.488 427.241 104.104 428.153 103.84C429.089 103.552 430.109 103.408 431.213 103.408C432.749 103.408 434.093 103.576 435.245 103.912C436.421 104.248 437.513 104.68 438.521 105.208L437.297 108.52C436.361 108.016 435.413 107.668 434.453 107.476C433.517 107.26 432.509 107.152 431.429 107.152C430.517 107.152 429.749 107.296 429.125 107.584C428.501 107.848 428.189 108.292 428.189 108.916C428.189 109.612 428.585 110.164 429.377 110.572C430.169 110.956 431.201 111.364 432.473 111.796C433.481 112.132 434.393 112.492 435.209 112.876C436.025 113.26 436.721 113.716 437.297 114.244C437.897 114.748 438.353 115.36 438.665 116.08C438.977 116.776 439.133 117.604 439.133 118.564C439.133 119.428 438.965 120.22 438.629 120.94C438.293 121.636 437.789 122.248 437.117 122.776C436.445 123.304 435.605 123.712 434.597 124C433.589 124.288 432.401 124.432 431.033 124.432C429.593 124.432 428.249 124.288 427.001 124C425.777 123.688 424.685 123.256 423.725 122.704L424.841 119.14C425.729 119.62 426.665 120.004 427.649 120.292C428.633 120.556 429.641 120.688 430.673 120.688ZM451.114 124V111.04C451.114 108.448 450.034 107.152 447.874 107.152C446.794 107.152 445.726 107.344 444.67 107.728C443.638 108.112 442.714 108.568 441.898 109.096L440.71 105.748C441.694 105.1 442.834 104.548 444.13 104.092C445.45 103.636 446.83 103.408 448.27 103.408C450.742 103.408 452.614 104.104 453.886 105.496C455.158 106.888 455.794 108.784 455.794 111.184V124H451.114ZM472.833 103.84H477.513V116.224C477.513 117.448 477.333 118.564 476.973 119.572C476.613 120.58 476.049 121.444 475.281 122.164C474.513 122.884 473.517 123.448 472.293 123.856C471.069 124.24 469.593 124.432 467.865 124.432C466.641 124.432 465.525 124.288 464.517 124C463.509 123.736 462.633 123.328 461.889 122.776C461.169 122.2 460.605 121.492 460.197 120.652C459.789 119.788 459.585 118.792 459.585 117.664C459.585 116.512 459.921 115.528 460.593 114.712C461.289 113.872 462.165 113.356 463.221 113.164C462.765 113.068 462.321 112.876 461.889 112.588C461.457 112.276 461.061 111.916 460.701 111.508C460.365 111.076 460.089 110.596 459.873 110.068C459.681 109.516 459.585 108.952 459.585 108.376C459.585 107.704 459.705 107.08 459.945 106.504C460.209 105.904 460.569 105.388 461.025 104.956C461.505 104.524 462.081 104.188 462.753 103.948C463.449 103.684 464.229 103.552 465.093 103.552C466.005 103.552 466.797 103.624 467.469 103.768C468.165 103.888 468.765 104.068 469.269 104.308L468.801 107.8C468.393 107.632 467.997 107.512 467.613 107.44C467.229 107.368 466.869 107.332 466.533 107.332C465.741 107.332 465.129 107.5 464.697 107.836C464.289 108.148 464.085 108.58 464.085 109.132C464.085 109.828 464.349 110.368 464.877 110.752C465.405 111.112 465.981 111.292 466.605 111.292H469.341L469.737 114.892H467.289C466.305 114.892 465.537 115.132 464.985 115.612C464.457 116.092 464.193 116.752 464.193 117.592C464.193 118.576 464.553 119.344 465.273 119.896C465.993 120.424 466.893 120.688 467.973 120.688C469.581 120.688 470.793 120.28 471.609 119.464C472.425 118.648 472.833 117.556 472.833 116.188V103.84ZM483.544 124V100.996C483.544 99.412 483.808 98.08 484.336 97C484.888 95.92 485.704 95.104 486.784 94.552H479.836V90.844H491.68V94.228C490.48 94.756 489.604 95.584 489.052 96.712C488.524 97.84 488.26 99.16 488.26 100.672V124H483.544ZM506.935 124V111.796C506.935 110.38 506.515 109.252 505.675 108.412C504.859 107.572 503.731 107.152 502.291 107.152C500.539 107.152 499.183 107.788 498.223 109.06C497.287 110.308 496.819 112.012 496.819 114.172C496.819 115.372 496.939 116.38 497.179 117.196C497.443 117.988 497.779 118.636 498.187 119.14C498.595 119.644 499.039 120.004 499.519 120.22C500.023 120.436 500.515 120.544 500.995 120.544C501.475 120.544 501.919 120.508 502.327 120.436C502.759 120.364 503.215 120.22 503.695 120.004L504.523 123.388C504.019 123.7 503.455 123.928 502.831 124.072C502.231 124.216 501.475 124.288 500.563 124.288C499.483 124.288 498.439 124.096 497.431 123.712C496.423 123.304 495.523 122.692 494.731 121.876C493.939 121.036 493.303 119.98 492.823 118.708C492.367 117.436 492.139 115.924 492.139 114.172C492.139 112.66 492.355 111.256 492.787 109.96C493.243 108.64 493.891 107.5 494.731 106.54C495.571 105.556 496.615 104.788 497.863 104.236C499.111 103.684 500.551 103.408 502.183 103.408C503.719 103.408 505.075 103.624 506.251 104.056C507.427 104.488 508.411 105.088 509.203 105.856C509.995 106.6 510.595 107.488 511.003 108.52C511.411 109.552 511.615 110.656 511.615 111.832V124H506.935ZM507.097 101.104C506.689 101.104 506.329 100.96 506.017 100.672C505.705 100.384 505.549 100 505.549 99.52V98.512C505.549 98.248 505.513 98.068 505.441 97.972C505.369 97.852 505.189 97.792 504.901 97.792H502.993V95.272H505.945C506.617 95.272 507.157 95.416 507.565 95.704C507.949 95.992 508.141 96.448 508.141 97.072V97.972C508.141 98.164 508.189 98.32 508.285 98.44C508.357 98.536 508.525 98.584 508.789 98.584H513.649V101.104H507.097Z" fill="#414B5A"/>
<path d="M557.829 124V108.32H550.021C547.631 108.32 545.711 108.683 544.261 109.408C542.853 110.091 542.149 111.371 542.149 113.248C542.149 114.784 542.639 116 543.621 116.896C544.602 117.749 545.818 118.176 547.269 118.176C548.037 118.176 548.826 118.112 549.637 117.984C550.49 117.813 551.343 117.515 552.197 117.088L553.541 123.168C552.431 123.68 551.279 124.043 550.085 124.256C548.933 124.469 547.695 124.576 546.373 124.576C544.623 124.576 543.002 124.341 541.509 123.872C540.015 123.403 538.714 122.699 537.605 121.76C536.495 120.821 535.621 119.648 534.981 118.24C534.341 116.832 534.021 115.189 534.021 113.312C534.021 109.344 535.386 106.464 538.117 104.672C540.89 102.837 545.071 101.92 550.661 101.92H557.829V100.704C557.829 99.808 557.679 98.9547 557.381 98.144C557.082 97.2907 556.634 96.544 556.037 95.904C555.439 95.264 554.671 94.752 553.733 94.368C552.837 93.984 551.77 93.792 550.533 93.792C547.887 93.792 545.562 94.176 543.557 94.944C541.594 95.712 539.759 96.7147 538.053 97.952L535.429 92.192C537.093 90.9547 539.247 89.8453 541.893 88.864C544.581 87.8827 547.589 87.392 550.917 87.392C551.898 87.392 552.858 87.4773 553.797 87.648C554.778 87.8187 555.631 88.0533 556.357 88.352L558.533 85.664H567.685L562.437 91.936C563.546 93.1307 564.399 94.4747 564.997 95.968C565.637 97.4613 565.957 99.04 565.957 100.704V124H557.829ZM556.338 142.56C553.266 142.56 550.919 141.877 549.298 140.512C547.676 139.189 546.866 137.461 546.866 135.328V133.984H543.154V128.16H554.034V135.328C554.034 136.053 554.268 136.565 554.738 136.864C555.207 137.205 555.74 137.376 556.338 137.376C556.978 137.376 557.532 137.205 558.002 136.864C558.428 136.565 558.642 136.053 558.642 135.328V128.16H565.938V135.328C565.938 137.461 565.106 139.189 563.442 140.512C561.778 141.877 559.41 142.56 556.338 142.56ZM580.914 124L570.098 88.16H578.29L587.058 117.344H587.762C588.786 117.344 589.767 117.045 590.706 116.448C591.644 115.851 592.476 115.019 593.202 113.952C593.97 112.843 594.567 111.52 594.994 109.984C595.42 108.405 595.634 106.677 595.634 104.8C595.634 100.917 594.994 98.1653 593.714 96.544C592.476 94.88 590.876 94.048 588.914 94.048C587.591 94.048 586.162 94.3253 584.626 94.88L583.41 88.8C584.263 88.3307 585.287 87.9893 586.482 87.776C587.719 87.52 588.999 87.392 590.322 87.392C592.242 87.392 594.034 87.776 595.698 88.544C597.362 89.312 598.791 90.4427 599.986 91.936C601.223 93.4293 602.183 95.264 602.866 97.44C603.591 99.5733 603.954 102.027 603.954 104.8C603.954 107.787 603.548 110.475 602.738 112.864C601.927 115.211 600.775 117.216 599.282 118.88C597.831 120.544 596.103 121.824 594.098 122.72C592.092 123.573 589.895 124 587.506 124H580.914ZM632.266 124V108.32H624.458C622.069 108.32 620.149 108.683 618.698 109.408C617.29 110.091 616.586 111.371 616.586 113.248C616.586 114.784 617.077 116 618.058 116.896C619.039 117.749 620.255 118.176 621.706 118.176C622.474 118.176 623.263 118.112 624.074 117.984C624.927 117.813 625.781 117.515 626.634 117.088L627.978 123.168C626.869 123.68 625.717 124.043 624.522 124.256C623.37 124.469 622.133 124.576 620.81 124.576C619.061 124.576 617.439 124.341 615.946 123.872C614.453 123.403 613.151 122.699 612.042 121.76C610.933 120.821 610.058 119.648 609.418 118.24C608.778 116.832 608.458 115.189 608.458 113.312C608.458 109.344 609.823 106.464 612.554 104.672C615.327 102.837 619.509 101.92 625.098 101.92H632.266V100.704C632.266 99.808 632.117 98.9547 631.818 98.144C631.519 97.2907 631.071 96.544 630.474 95.904C629.877 95.264 629.109 94.752 628.17 94.368C627.274 93.984 626.207 93.792 624.97 93.792C622.325 93.792 619.999 94.176 617.994 94.944C616.031 95.712 614.197 96.7147 612.49 97.952L609.866 92.192C611.53 90.9547 613.685 89.8453 616.33 88.864C619.018 87.8827 622.026 87.392 625.354 87.392C626.335 87.392 627.295 87.4773 628.234 87.648C629.215 87.8187 630.069 88.0533 630.794 88.352L632.97 85.664H642.122L636.874 91.936C637.983 93.1307 638.837 94.4747 639.434 95.968C640.074 97.4613 640.394 99.04 640.394 100.704V124H632.266ZM632.823 135.84C632.823 134.816 632.311 134.304 631.287 134.304H628.855V128.16H634.231C636.322 128.16 637.879 128.608 638.903 129.504C639.884 130.4 640.375 131.893 640.375 133.984V141.984H632.823V135.84ZM673.399 124V102.304C673.399 99.7867 672.652 97.7813 671.159 96.288C669.708 94.7947 667.703 94.048 665.143 94.048C662.028 94.048 659.618 95.1787 657.911 97.44C656.247 99.6587 655.415 102.688 655.415 106.528C655.415 108.661 655.628 110.453 656.055 111.904C656.524 113.312 657.122 114.464 657.847 115.36C658.572 116.256 659.362 116.896 660.215 117.28C661.111 117.664 661.986 117.856 662.839 117.856C663.692 117.856 664.482 117.792 665.207 117.664C665.975 117.536 666.786 117.28 667.639 116.896L669.111 122.912C668.215 123.467 667.212 123.872 666.103 124.128C665.036 124.384 663.692 124.512 662.071 124.512C660.151 124.512 658.295 124.171 656.503 123.488C654.711 122.763 653.111 121.675 651.703 120.224C650.295 118.731 649.164 116.853 648.311 114.592C647.5 112.331 647.095 109.643 647.095 106.528C647.095 103.84 647.479 101.344 648.247 99.04C649.058 96.6933 650.21 94.6667 651.703 92.96C653.196 91.2107 655.052 89.8453 657.271 88.864C659.49 87.8827 662.05 87.392 664.951 87.392C667.682 87.392 670.092 87.776 672.183 88.544C674.274 89.312 676.023 90.3787 677.431 91.744C678.839 93.0667 679.906 94.6453 680.631 96.48C681.356 98.3147 681.719 100.277 681.719 102.368V124H673.399ZM698.454 116.448C698.454 117.131 698.774 117.472 699.414 117.472H703.126V124H697.494C695.019 124 693.163 123.381 691.926 122.144C690.731 120.864 690.134 119.136 690.134 116.96V109.024C690.134 107.659 690.454 106.443 691.094 105.376C691.734 104.309 692.545 103.477 693.526 102.88L688.342 98.656C688.769 97.2053 689.494 95.8187 690.518 94.496C691.585 93.1307 692.865 91.936 694.358 90.912C695.851 89.8453 697.558 88.992 699.478 88.352C701.398 87.712 703.467 87.392 705.686 87.392C708.246 87.392 710.507 87.7547 712.47 88.48C714.475 89.1627 716.139 90.144 717.462 91.424C718.827 92.6613 719.851 94.176 720.534 95.968C721.259 97.7173 721.622 99.6373 721.622 101.728V124H713.302V101.728C713.302 99.168 712.598 97.248 711.19 95.968C709.782 94.688 707.883 94.048 705.494 94.048C704.598 94.048 703.702 94.176 702.806 94.432C701.953 94.6453 701.142 94.9653 700.374 95.392C699.649 95.776 698.987 96.2453 698.39 96.8C697.835 97.312 697.409 97.8453 697.11 98.4L702.486 102.944C701.163 103.413 700.161 104.139 699.478 105.12C698.795 106.059 698.454 107.339 698.454 108.96V116.448ZM692.505 83.68V77.408H710.105C710.105 75.4453 710.745 73.8453 712.025 72.608C713.305 71.328 714.862 70.688 716.697 70.688C718.532 70.688 720.089 71.3067 721.369 72.544C722.649 73.7813 723.289 75.3387 723.289 77.216C723.289 79.0507 722.649 80.5867 721.369 81.824C720.089 83.0613 718.532 83.68 716.697 83.68H692.505ZM716.697 79.456C717.337 79.456 717.87 79.2427 718.297 78.816C718.724 78.3467 718.937 77.792 718.937 77.152C718.937 76.4693 718.724 75.9147 718.297 75.488C717.87 75.0613 717.337 74.848 716.697 74.848C716.1 74.848 715.588 75.0613 715.161 75.488C714.692 75.9147 714.457 76.4693 714.457 77.152C714.457 77.792 714.692 78.3467 715.161 78.816C715.588 79.2427 716.1 79.456 716.697 79.456ZM736.601 124L725.785 88.16H733.977L742.745 117.344H743.449C744.473 117.344 745.454 117.045 746.393 116.448C747.332 115.851 748.164 115.019 748.889 113.952C749.657 112.843 750.254 111.52 750.681 109.984C751.108 108.405 751.321 106.677 751.321 104.8C751.321 100.917 750.681 98.1653 749.401 96.544C748.164 94.88 746.564 94.048 744.601 94.048C743.278 94.048 741.849 94.3253 740.313 94.88L739.097 88.8C739.95 88.3307 740.974 87.9893 742.169 87.776C743.406 87.52 744.686 87.392 746.009 87.392C747.929 87.392 749.721 87.776 751.385 88.544C753.049 89.312 754.478 90.4427 755.673 91.936C756.91 93.4293 757.87 95.264 758.553 97.44C759.278 99.5733 759.641 102.027 759.641 104.8C759.641 107.787 759.236 110.475 758.425 112.864C757.614 115.211 756.462 117.216 754.969 118.88C753.518 120.544 751.79 121.824 749.785 122.72C747.78 123.573 745.582 124 743.193 124H736.601ZM793.488 117.984C794.896 117.984 796.112 117.792 797.136 117.408C798.16 117.024 799.013 116.491 799.696 115.808C800.421 115.125 800.954 114.357 801.296 113.504C801.637 112.608 801.808 111.669 801.808 110.688C801.808 108.512 801.168 106.848 799.888 105.696C798.65 104.501 796.602 103.904 793.744 103.904H782.224V98.976L783.888 82.4H807.696V89.568H790.8L790.224 96.736H793.808C799.141 96.736 803.194 97.952 805.968 100.384C808.741 102.816 810.128 106.229 810.128 110.624C810.128 112.757 809.744 114.699 808.976 116.448C808.208 118.197 807.098 119.691 805.648 120.928C804.24 122.165 802.512 123.125 800.464 123.808C798.416 124.448 796.112 124.768 793.552 124.768C790.608 124.768 788.005 124.491 785.744 123.936C783.482 123.381 781.584 122.613 780.048 121.632L782.16 115.168C783.61 115.979 785.274 116.661 787.152 117.216C789.072 117.728 791.184 117.984 793.488 117.984ZM831.238 117.984C832.646 117.984 833.862 117.792 834.886 117.408C835.91 117.024 836.763 116.491 837.446 115.808C838.171 115.125 838.704 114.357 839.046 113.504C839.387 112.608 839.558 111.669 839.558 110.688C839.558 108.512 838.918 106.848 837.638 105.696C836.4 104.501 834.352 103.904 831.494 103.904H819.974V98.976L821.638 82.4H845.446V89.568H828.55L827.974 96.736H831.558C836.891 96.736 840.944 97.952 843.718 100.384C846.491 102.816 847.878 106.229 847.878 110.624C847.878 112.757 847.494 114.699 846.726 116.448C845.958 118.197 844.848 119.691 843.398 120.928C841.99 122.165 840.262 123.125 838.214 123.808C836.166 124.448 833.862 124.768 831.302 124.768C828.358 124.768 825.755 124.491 823.494 123.936C821.232 123.381 819.334 122.613 817.798 121.632L819.91 115.168C821.36 115.979 823.024 116.661 824.902 117.216C826.822 117.728 828.934 117.984 831.238 117.984ZM885.628 81.76H893.244L869.756 124H862.14L885.628 81.76ZM860.796 92.96C860.796 94.752 861.052 96.2667 861.564 97.504C862.118 98.6987 862.886 99.296 863.868 99.296C864.849 99.296 865.596 98.6987 866.108 97.504C866.662 96.2667 866.94 94.752 866.94 92.96C866.94 91.168 866.662 89.6747 866.108 88.48C865.596 87.2427 864.849 86.624 863.868 86.624C862.886 86.624 862.118 87.2427 861.564 88.48C861.052 89.6747 860.796 91.168 860.796 92.96ZM854.268 92.96C854.268 91.424 854.481 89.9733 854.908 88.608C855.377 87.2427 856.017 86.048 856.828 85.024C857.681 83.9573 858.684 83.1253 859.836 82.528C861.03 81.9307 862.374 81.632 863.868 81.632C865.361 81.632 866.684 81.9307 867.836 82.528C869.03 83.1253 870.033 83.9573 870.844 85.024C871.697 86.048 872.337 87.2427 872.764 88.608C873.233 89.9733 873.468 91.424 873.468 92.96C873.468 94.496 873.233 95.9467 872.764 97.312C872.337 98.6773 871.697 99.8933 870.844 100.96C870.033 101.984 869.03 102.795 867.836 103.392C866.684 103.989 865.361 104.288 863.868 104.288C862.374 104.288 861.03 103.989 859.836 103.392C858.684 102.795 857.681 101.984 856.828 100.96C856.017 99.8933 855.377 98.6773 854.908 97.312C854.481 95.9467 854.268 94.496 854.268 92.96ZM888.444 113.44C888.444 115.232 888.7 116.747 889.212 117.984C889.766 119.179 890.534 119.776 891.516 119.776C892.497 119.776 893.244 119.179 893.756 117.984C894.31 116.747 894.588 115.232 894.588 113.44C894.588 111.648 894.31 110.155 893.756 108.96C893.244 107.723 892.497 107.104 891.516 107.104C890.534 107.104 889.766 107.723 889.212 108.96C888.7 110.155 888.444 111.648 888.444 113.44ZM881.916 113.44C881.916 111.904 882.129 110.453 882.556 109.088C883.025 107.723 883.665 106.528 884.476 105.504C885.329 104.437 886.332 103.605 887.484 103.008C888.678 102.411 890.022 102.112 891.516 102.112C893.009 102.112 894.332 102.411 895.484 103.008C896.678 103.605 897.681 104.437 898.492 105.504C899.345 106.528 899.985 107.723 900.412 109.088C900.881 110.453 901.116 111.904 901.116 113.44C901.116 114.976 900.881 116.427 900.412 117.792C899.985 119.157 899.345 120.373 898.492 121.44C897.681 122.464 896.678 123.275 895.484 123.872C894.332 124.469 893.009 124.768 891.516 124.768C890.022 124.768 888.678 124.469 887.484 123.872C886.332 123.275 885.329 122.464 884.476 121.44C883.665 120.373 883.025 119.157 882.556 117.792C882.129 116.427 881.916 114.976 881.916 113.44Z" fill="#EE5B47"/>
<path d="M4.744 53V30.86C4.744 29.756 4.564 28.796 4.204 27.98C3.868 27.164 3.472 26.48 3.016 25.928C2.56 25.352 2.104 24.92 1.648 24.632C1.216 24.32 0.904 24.128 0.712 24.056L0.64 23.408C1.024 22.736 1.504 22.148 2.08 21.644C2.68 21.116 3.34 20.684 4.06 20.348C4.804 19.988 5.596 19.724 6.436 19.556C7.3 19.388 8.188 19.304 9.1 19.304C10.564 19.304 11.74 19.4 12.628 19.592C13.516 19.76 14.32 19.988 15.04 20.276L14.572 23.012C13.876 22.628 13.06 22.352 12.124 22.184C11.212 22.016 10.3 21.932 9.388 21.932C8.236 21.932 7.18 22.064 6.22 22.328C5.284 22.592 4.6 23 4.168 23.552C5.368 24.2 6.28 25.22 6.904 26.612C7.528 27.98 7.84 29.492 7.84 31.148V53H4.744ZM21.7509 50.696C23.4789 50.696 24.7509 50.24 25.5669 49.328C26.4069 48.416 26.8269 47.168 26.8269 45.584V26H29.9229V45.584C29.9229 48.08 29.2269 50 27.8349 51.344C26.4429 52.688 24.4149 53.36 21.7509 53.36C19.0869 53.36 17.0589 52.688 15.6669 51.344C14.2749 50 13.5789 48.08 13.5789 45.584V32.84H16.6749V45.584C16.6749 47.168 17.0829 48.416 17.8989 49.328C18.7389 50.24 20.0229 50.696 21.7509 50.696ZM40.7055 50.732C42.3375 50.732 43.5735 50.42 44.4135 49.796C45.2535 49.148 45.6735 48.416 45.6735 47.6C45.6735 47.096 45.5175 46.652 45.2055 46.268C44.9175 45.884 44.5215 45.548 44.0175 45.26C43.5375 44.948 42.9855 44.684 42.3615 44.468C41.7615 44.252 41.1495 44.048 40.5255 43.856C39.6135 43.592 38.7615 43.304 37.9695 42.992C37.2015 42.656 36.5295 42.26 35.9535 41.804C35.4015 41.324 34.9695 40.772 34.6575 40.148C34.3455 39.5 34.1895 38.732 34.1895 37.844C34.1895 36.14 34.8615 34.82 36.2055 33.884C37.5735 32.948 39.4215 32.48 41.7495 32.48C42.8775 32.48 43.9815 32.6 45.0615 32.84C46.1415 33.056 47.1015 33.38 47.9415 33.812L47.1495 36.26C45.6855 35.492 43.9815 35.108 42.0375 35.108C40.5255 35.108 39.3375 35.372 38.4735 35.9C37.6335 36.428 37.2135 37.076 37.2135 37.844C37.2135 38.276 37.3335 38.66 37.5735 38.996C37.8135 39.332 38.1375 39.632 38.5455 39.896C38.9535 40.136 39.4215 40.364 39.9495 40.58C40.4775 40.772 41.0415 40.964 41.6415 41.156C42.7695 41.516 43.7655 41.9 44.6295 42.308C45.5175 42.692 46.2615 43.136 46.8615 43.64C47.4615 44.144 47.9175 44.72 48.2295 45.368C48.5415 46.016 48.6975 46.784 48.6975 47.672C48.6975 49.376 48.0495 50.756 46.7535 51.812C45.4815 52.844 43.5135 53.36 40.8495 53.36C39.5295 53.36 38.3055 53.24 37.1775 53C36.0735 52.76 35.1375 52.412 34.3695 51.956L35.1255 49.544C35.8695 49.904 36.7215 50.192 37.6815 50.408C38.6415 50.624 39.6495 50.732 40.7055 50.732ZM53.1674 53V32.84H56.1914V53H53.1674ZM60.2234 53V32.84H63.2474V53H60.2234ZM81.9871 53V40.292C81.9871 38.564 81.5431 37.28 80.6551 36.44C79.7671 35.576 78.4951 35.144 76.8391 35.144C75.4711 35.144 74.2591 35.444 73.2031 36.044C72.1471 36.62 71.4271 37.388 71.0431 38.348L73.7791 40.868C73.1311 41.204 72.6511 41.624 72.3391 42.128C72.0271 42.608 71.8711 43.232 71.8711 44V53H68.7751V44.432C68.7751 43.736 68.9431 43.076 69.2791 42.452C69.6151 41.828 70.0951 41.36 70.7191 41.048L67.7671 38.528C67.9591 37.76 68.3191 37.016 68.8471 36.296C69.3991 35.552 70.0711 34.904 70.8631 34.352C71.6551 33.776 72.5551 33.32 73.5631 32.984C74.5951 32.648 75.6871 32.48 76.8391 32.48C78.2071 32.48 79.4071 32.672 80.4391 33.056C81.4711 33.44 82.3231 33.98 82.9951 34.676C83.6911 35.372 84.2071 36.2 84.5431 37.16C84.9031 38.096 85.0831 39.14 85.0831 40.292V53H81.9871ZM95.8656 50.732C97.4976 50.732 98.7336 50.42 99.5736 49.796C100.414 49.148 100.834 48.416 100.834 47.6C100.834 47.096 100.678 46.652 100.366 46.268C100.078 45.884 99.6816 45.548 99.1776 45.26C98.6976 44.948 98.1456 44.684 97.5216 44.468C96.9216 44.252 96.3096 44.048 95.6856 43.856C94.7736 43.592 93.9216 43.304 93.1296 42.992C92.3616 42.656 91.6896 42.26 91.1136 41.804C90.5616 41.324 90.1296 40.772 89.8176 40.148C89.5056 39.5 89.3496 38.732 89.3496 37.844C89.3496 36.14 90.0216 34.82 91.3656 33.884C92.7336 32.948 94.5816 32.48 96.9096 32.48C98.0376 32.48 99.1416 32.6 100.222 32.84C101.302 33.056 102.262 33.38 103.102 33.812L102.31 36.26C100.846 35.492 99.1416 35.108 97.1976 35.108C95.6856 35.108 94.4976 35.372 93.6336 35.9C92.7936 36.428 92.3736 37.076 92.3736 37.844C92.3736 38.276 92.4936 38.66 92.7336 38.996C92.9736 39.332 93.2976 39.632 93.7056 39.896C94.1136 40.136 94.5816 40.364 95.1096 40.58C95.6376 40.772 96.2016 40.964 96.8016 41.156C97.9296 41.516 98.9256 41.9 99.7896 42.308C100.678 42.692 101.422 43.136 102.022 43.64C102.622 44.144 103.078 44.72 103.39 45.368C103.702 46.016 103.858 46.784 103.858 47.672C103.858 49.376 103.21 50.756 101.914 51.812C100.642 52.844 98.6736 53.36 96.0096 53.36C94.6896 53.36 93.4656 53.24 92.3376 53C91.2336 52.76 90.2976 52.412 89.5296 51.956L90.2856 49.544C91.0296 49.904 91.8816 50.192 92.8416 50.408C93.8016 50.624 94.8096 50.732 95.8656 50.732ZM121.54 32.84H124.636V45.476C124.636 47.9 124.06 49.82 122.908 51.236C121.756 52.652 119.992 53.36 117.616 53.36C116.176 53.36 114.952 53.06 113.944 52.46C112.936 51.86 112.084 51.056 111.388 50.048L111.208 53H108.292V32.84H111.388V46.592C111.628 47.144 111.952 47.672 112.36 48.176C112.792 48.656 113.272 49.088 113.8 49.472C114.328 49.856 114.88 50.156 115.456 50.372C116.056 50.588 116.656 50.696 117.256 50.696C118.768 50.696 119.86 50.252 120.532 49.364C121.204 48.452 121.54 47.144 121.54 45.44V32.84ZM140.096 36.944C139.952 38.144 139.772 39.188 139.556 40.076C139.364 40.964 139.136 41.828 138.872 42.668L135.416 53H131.996L128.648 32.84H131.78L133.616 44.288C133.688 44.792 133.748 45.248 133.796 45.656C133.868 46.04 133.916 46.436 133.94 46.844C133.988 47.228 134.024 47.648 134.048 48.104C134.096 48.56 134.132 49.112 134.156 49.76H134.264C134.456 48.56 134.648 47.504 134.84 46.592C135.032 45.68 135.26 44.768 135.524 43.856L138.8 33.848H141.464L144.74 43.856C145.004 44.768 145.232 45.68 145.424 46.592C145.616 47.504 145.808 48.56 146 49.76H146.108C146.132 49.112 146.156 48.56 146.18 48.104C146.228 47.648 146.264 47.228 146.288 46.844C146.336 46.436 146.384 46.04 146.432 45.656C146.504 45.248 146.576 44.792 146.648 44.288L148.484 32.84H151.616L148.268 53H144.848L141.392 42.668C141.128 41.828 140.888 40.964 140.672 40.076C140.48 39.188 140.312 38.144 140.168 36.944H140.096ZM146.214 30.104C143.79 30.104 142.578 29.024 142.578 26.864V25.424H145.53V26.504C145.53 27.224 145.866 27.584 146.538 27.584H155.034V30.104H146.214ZM158.706 45.8C158.706 47.504 159.042 48.752 159.714 49.544C160.386 50.312 161.478 50.696 162.99 50.696C163.59 50.696 164.178 50.588 164.754 50.372C165.354 50.156 165.918 49.856 166.446 49.472C166.974 49.088 167.442 48.656 167.85 48.176C168.258 47.672 168.594 47.144 168.858 46.592V32.84H171.954V53H169.038L168.858 50.048C168.162 51.056 167.298 51.86 166.266 52.46C165.234 53.06 163.902 53.36 162.27 53.36C160.062 53.36 158.394 52.724 157.266 51.452C156.162 50.156 155.61 48.284 155.61 45.836V32.84H158.706V45.8ZM192.958 47.384C192.958 48.56 192.802 49.532 192.49 50.3C192.178 51.068 191.686 51.68 191.014 52.136C190.366 52.568 189.514 52.868 188.458 53.036C187.426 53.228 186.19 53.324 184.75 53.324C183.286 53.324 182.038 53.216 181.006 53C179.974 52.784 179.122 52.436 178.45 51.956C177.802 51.476 177.322 50.84 177.01 50.048C176.698 49.232 176.542 48.236 176.542 47.06V44.792H179.53V47.06C179.53 47.804 179.626 48.416 179.818 48.896C180.01 49.376 180.31 49.76 180.718 50.048C181.126 50.312 181.666 50.504 182.338 50.624C183.01 50.72 183.814 50.768 184.75 50.768C185.71 50.768 186.526 50.732 187.198 50.66C187.87 50.564 188.41 50.396 188.818 50.156C189.226 49.892 189.514 49.544 189.682 49.112C189.874 48.68 189.97 48.104 189.97 47.384V45.62C189.97 44.972 189.802 44.492 189.466 44.18C189.13 43.868 188.65 43.664 188.026 43.568L181.006 42.596C179.638 42.404 178.522 41.936 177.658 41.192C176.818 40.424 176.398 39.296 176.398 37.808C176.398 36.224 177.118 34.94 178.558 33.956C179.998 32.972 182.026 32.48 184.642 32.48C187.522 32.48 189.982 33.008 192.022 34.064L191.41 36.548C190.498 36.068 189.466 35.696 188.314 35.432C187.162 35.168 185.962 35.036 184.714 35.036C182.914 35.036 181.57 35.3 180.682 35.828C179.818 36.356 179.386 37.016 179.386 37.808C179.386 38.48 179.566 38.972 179.926 39.284C180.31 39.572 180.778 39.764 181.33 39.86L188.35 40.868C189.814 41.084 190.942 41.576 191.734 42.344C192.55 43.088 192.958 44.192 192.958 45.656V47.384ZM210.766 32.84H213.862V45.476C213.862 47.9 213.286 49.82 212.134 51.236C210.982 52.652 209.218 53.36 206.842 53.36C205.402 53.36 204.178 53.06 203.17 52.46C202.162 51.86 201.31 51.056 200.614 50.048L200.434 53H197.518V32.84H200.614V46.592C200.854 47.144 201.178 47.672 201.586 48.176C202.018 48.656 202.498 49.088 203.026 49.472C203.554 49.856 204.106 50.156 204.682 50.372C205.282 50.588 205.882 50.696 206.482 50.696C207.994 50.696 209.086 50.252 209.758 49.364C210.43 48.452 210.766 47.144 210.766 45.44V32.84ZM198.434 30.104V27.584H213.878V30.104H198.434ZM225.974 35.396C224.702 35.66 223.634 36.428 222.77 37.7C221.906 38.972 221.474 40.724 221.474 42.956C221.474 44.396 221.63 45.596 221.942 46.556C222.278 47.516 222.698 48.296 223.202 48.896C223.73 49.496 224.306 49.928 224.93 50.192C225.554 50.432 226.178 50.552 226.802 50.552C227.306 50.552 227.738 50.516 228.098 50.444C228.482 50.372 228.866 50.264 229.25 50.12L229.826 52.568C229.418 52.76 228.938 52.916 228.386 53.036C227.834 53.156 227.258 53.216 226.658 53.216C225.506 53.216 224.426 53.024 223.418 52.64C222.434 52.256 221.558 51.656 220.79 50.84C220.046 50 219.458 48.932 219.026 47.636C218.594 46.34 218.378 44.78 218.378 42.956C218.378 41.54 218.558 40.232 218.918 39.032C219.278 37.832 219.782 36.788 220.43 35.9C221.102 34.988 221.894 34.244 222.806 33.668C223.718 33.092 224.714 32.696 225.794 32.48L228.818 34.748L231.914 32.48C233.522 32.816 234.746 33.56 235.586 34.712C236.45 35.864 236.882 37.328 236.882 39.104V53H233.786V38.888C233.786 37.976 233.606 37.232 233.246 36.656C232.886 36.08 232.382 35.66 231.734 35.396L228.818 37.232L225.974 35.396ZM247.67 50.732C249.302 50.732 250.538 50.42 251.378 49.796C252.218 49.148 252.638 48.416 252.638 47.6C252.638 47.096 252.482 46.652 252.17 46.268C251.882 45.884 251.486 45.548 250.982 45.26C250.502 44.948 249.95 44.684 249.326 44.468C248.726 44.252 248.114 44.048 247.49 43.856C246.578 43.592 245.726 43.304 244.934 42.992C244.166 42.656 243.494 42.26 242.918 41.804C242.366 41.324 241.934 40.772 241.622 40.148C241.31 39.5 241.154 38.732 241.154 37.844C241.154 36.14 241.826 34.82 243.17 33.884C244.538 32.948 246.386 32.48 248.714 32.48C249.842 32.48 250.946 32.6 252.026 32.84C253.106 33.056 254.066 33.38 254.906 33.812L254.114 36.26C252.65 35.492 250.946 35.108 249.002 35.108C247.49 35.108 246.302 35.372 245.438 35.9C244.598 36.428 244.178 37.076 244.178 37.844C244.178 38.276 244.298 38.66 244.538 38.996C244.778 39.332 245.102 39.632 245.51 39.896C245.918 40.136 246.386 40.364 246.914 40.58C247.442 40.772 248.006 40.964 248.606 41.156C249.734 41.516 250.73 41.9 251.594 42.308C252.482 42.692 253.226 43.136 253.826 43.64C254.426 44.144 254.882 44.72 255.194 45.368C255.506 46.016 255.662 46.784 255.662 47.672C255.662 49.376 255.014 50.756 253.718 51.812C252.446 52.844 250.478 53.36 247.814 53.36C246.494 53.36 245.27 53.24 244.142 53C243.038 52.76 242.102 52.412 241.334 51.956L242.09 49.544C242.834 49.904 243.686 50.192 244.646 50.408C245.606 50.624 246.614 50.732 247.67 50.732Z" fill="#414B5A"/>
<path d="M311.836 17.5593C311.836 14.3624 312.699 11.9672 314.425 10.377C316.151 8.7851 318.623 7.98999 321.842 7.98999C323.263 7.98999 324.47 8.07577 325.464 8.24733C326.458 8.41889 327.269 8.66798 327.901 8.99625C328.531 9.32452 328.992 9.73197 329.282 10.217C329.571 10.7019 329.717 11.2513 329.717 11.8649C329.717 13.1648 329.26 14.1133 328.346 14.7121C327.433 15.3109 326.121 15.6112 324.41 15.6112C323.815 15.6112 323.322 15.786 322.93 16.1357C322.538 16.4854 322.342 17.01 322.342 17.7094V20.2135H325.931C326.424 20.2135 326.867 20.3026 327.259 20.4808C327.651 20.6589 327.976 20.9064 328.237 21.2198C328.499 21.5332 328.698 21.9011 328.836 22.3217C328.973 22.7424 329.042 23.196 329.042 23.681C329.042 24.166 328.973 24.6196 328.836 25.0403C328.698 25.4609 328.499 25.8288 328.237 26.1422C327.976 26.4556 327.649 26.7031 327.259 26.8812C326.867 27.0594 326.424 27.1485 325.931 27.1485H322.342V46.8876C322.342 48.7286 321.886 50.045 320.971 50.8384C320.056 51.6319 318.759 52.0261 317.078 52.0261C315.395 52.0261 314.101 51.6302 313.195 50.8384C312.288 50.0466 311.836 48.7286 311.836 46.8876V27.1501H310.683C310.175 27.1501 309.729 27.061 309.345 26.8829C308.962 26.7047 308.638 26.4589 308.377 26.1439C308.115 25.8304 307.916 25.4626 307.778 25.0419C307.641 24.6213 307.572 24.1676 307.572 23.6827C307.572 23.1977 307.641 22.744 307.778 22.3234C307.916 21.9027 308.115 21.5349 308.377 21.2215C308.638 20.908 308.96 20.6606 309.345 20.4824C309.729 20.3043 310.175 20.2152 310.683 20.2152H311.836V17.5593Z" fill="#FE976E"/>
<path d="M334.675 17.5593C334.675 14.3624 335.538 11.9672 337.263 10.377C338.989 8.7851 341.461 7.98999 344.68 7.98999C346.101 7.98999 347.308 8.07577 348.302 8.24733C349.296 8.41889 350.107 8.66798 350.738 8.99625C351.369 9.32452 351.829 9.73197 352.119 10.217C352.409 10.7019 352.555 11.2513 352.555 11.8649C352.555 13.1648 352.098 14.1133 351.184 14.7121C350.271 15.3109 348.959 15.6112 347.248 15.6112C346.653 15.6112 346.16 15.786 345.768 16.1357C345.376 16.4854 345.18 17.01 345.18 17.7094V20.2135H348.769C349.262 20.2135 349.704 20.3026 350.097 20.4808C350.489 20.6589 350.814 20.9064 351.075 21.2198C351.337 21.5332 351.536 21.9011 351.674 22.3217C351.811 22.7424 351.88 23.196 351.88 23.681C351.88 24.166 351.811 24.6196 351.674 25.0403C351.536 25.4609 351.337 25.8288 351.075 26.1422C350.814 26.4556 350.487 26.7031 350.097 26.8812C349.704 27.0594 349.262 27.1485 348.769 27.1485H345.18V46.8876C345.18 48.7286 344.724 50.045 343.809 50.8384C342.894 51.6319 341.597 52.0261 339.916 52.0261C338.233 52.0261 336.939 51.6302 336.033 50.8384C335.126 50.0466 334.674 48.7286 334.674 46.8876V27.1501H333.521C333.013 27.1501 332.567 27.061 332.183 26.8829C331.799 26.7047 331.476 26.4589 331.215 26.1439C330.953 25.8304 330.754 25.4626 330.616 25.0419C330.479 24.6213 330.41 24.1676 330.41 23.6827C330.41 23.1977 330.479 22.744 330.616 22.3234C330.754 21.9027 330.953 21.5349 331.215 21.2215C331.476 20.908 331.798 20.6606 332.183 20.4824C332.567 20.3043 333.013 20.2152 333.521 20.2152H334.674V17.5593H334.675Z" fill="#FE976E"/>
<path d="M354.269 24.9231C354.269 24.0389 354.4 23.2752 354.661 22.6318C354.923 21.9901 355.285 21.4573 355.749 21.0366C356.213 20.616 356.771 20.3009 357.423 20.0947C358.075 19.8885 358.786 19.7846 359.555 19.7846C360.322 19.7846 361.03 19.8885 361.675 20.0947C362.32 20.3026 362.875 20.616 363.339 21.0366C363.803 21.4573 364.165 21.9901 364.426 22.6318C364.688 23.2735 364.819 24.0373 364.819 24.9231V46.9107C364.819 47.7965 364.688 48.5586 364.426 49.202C364.165 49.8437 363.803 50.3765 363.339 50.7971C362.875 51.2178 362.32 51.5329 361.675 51.7391C361.03 51.9453 360.322 52.0492 359.555 52.0492C358.786 52.0492 358.075 51.9453 357.423 51.7391C356.771 51.5329 356.211 51.2178 355.749 50.7971C355.285 50.3765 354.923 49.8437 354.661 49.202C354.4 48.5603 354.269 47.7965 354.269 46.9107V24.9231ZM354.4 12.848C354.4 12.1486 354.534 11.4887 354.802 10.8668C355.07 10.2466 355.435 9.71048 355.901 9.26178C356.366 8.81144 356.909 8.45513 357.532 8.19119C358.155 7.92726 358.829 7.79529 359.555 7.79529C360.265 7.79529 360.936 7.92726 361.567 8.19119C362.198 8.45513 362.742 8.81144 363.198 9.26178C363.656 9.71213 364.018 10.2466 364.286 10.8668C364.554 11.4871 364.688 12.1486 364.688 12.848C364.688 13.5623 364.554 14.2254 364.286 14.8391C364.018 15.4527 363.656 15.9889 363.198 16.4442C362.741 16.9011 362.198 17.2607 361.567 17.5263C360.937 17.7902 360.265 17.9222 359.555 17.9222C358.829 17.9222 358.155 17.7902 357.532 17.5263C356.909 17.2624 356.364 16.9027 355.901 16.4442C355.437 15.9872 355.072 15.4527 354.802 14.8391C354.532 14.2271 354.4 13.5623 354.4 12.848Z" fill="#FE976E"/>
<path d="M368.471 12.9124C368.471 12.0282 368.601 11.2645 368.863 10.6211C369.124 9.97944 369.486 9.44662 369.951 9.02597C370.415 8.60533 370.973 8.29025 371.625 8.08405C372.277 7.87785 372.987 7.77393 373.756 7.77393C374.524 7.77393 375.231 7.87785 375.876 8.08405C376.522 8.2919 377.076 8.60533 377.541 9.02597C378.005 9.44662 378.367 9.97944 378.628 10.6211C378.89 11.2628 379.02 12.0266 379.02 12.9124V46.9107C379.02 47.7966 378.89 48.5587 378.628 49.202C378.367 49.8437 378.005 50.3766 377.541 50.7972C377.076 51.2178 376.522 51.5329 375.876 51.7391C375.231 51.9453 374.524 52.0492 373.756 52.0492C372.987 52.0492 372.277 51.9453 371.625 51.7391C370.973 51.5329 370.413 51.2178 369.951 50.7972C369.486 50.3766 369.124 49.8437 368.863 49.202C368.601 48.5603 368.471 47.7966 368.471 46.9107V12.9124Z" fill="#FE976E"/>
<path d="M382.494 24.9231C382.494 24.0389 382.625 23.2752 382.886 22.6318C383.148 21.9901 383.51 21.4573 383.974 21.0366C384.438 20.616 384.996 20.3009 385.648 20.0947C386.3 19.8885 387.011 19.7846 387.78 19.7846C388.547 19.7846 389.255 19.8885 389.9 20.0947C390.545 20.3026 391.1 20.616 391.564 21.0366C392.028 21.4573 392.39 21.9901 392.652 22.6318C392.913 23.2735 393.044 24.0373 393.044 24.9231V46.9107C393.044 47.7965 392.913 48.5586 392.652 49.202C392.39 49.8437 392.028 50.3765 391.564 50.7971C391.1 51.2178 390.545 51.5329 389.9 51.7391C389.255 51.9453 388.547 52.0492 387.78 52.0492C387.011 52.0492 386.3 51.9453 385.648 51.7391C384.996 51.5329 384.436 51.2178 383.974 50.7971C383.51 50.3765 383.148 49.8437 382.886 49.202C382.625 48.5603 382.494 47.7965 382.494 46.9107V24.9231ZM382.625 12.848C382.625 12.1486 382.759 11.4887 383.027 10.8668C383.295 10.2466 383.661 9.71048 384.126 9.26178C384.591 8.81144 385.134 8.45513 385.757 8.19119C386.38 7.92726 387.054 7.79529 387.78 7.79529C388.49 7.79529 389.161 7.92726 389.793 8.19119C390.423 8.45513 390.967 8.81144 391.423 9.26178C391.881 9.71213 392.243 10.2466 392.511 10.8668C392.779 11.4871 392.913 12.1486 392.913 12.848C392.913 13.5623 392.779 14.2254 392.511 14.8391C392.243 15.4527 391.881 15.9889 391.423 16.4442C390.966 16.9011 390.423 17.2607 389.793 17.5263C389.162 17.7902 388.49 17.9222 387.78 17.9222C387.054 17.9222 386.38 17.7902 385.757 17.5263C385.134 17.2624 384.589 16.9027 384.126 16.4442C383.662 15.9872 383.297 15.4527 383.027 14.8391C382.757 14.2271 382.625 13.5623 382.625 12.848Z" fill="#FE976E"/>
<path d="M305.619 26.8632C304.238 24.6115 302.041 22.2988 298.555 20.8702C294.764 19.3163 290.526 19.2981 286.716 20.8059C282.247 22.5742 276.852 26.7807 277.003 36.7724C277.003 36.7724 277.296 43.7931 283.48 48.1662C285.979 49.9329 288.955 50.8534 291.994 50.9243C294.516 50.9837 297.9 50.6884 299.775 48.9646C299.775 50.6686 301.131 52.051 302.801 52.051H304.89C306.56 52.051 307.916 50.6686 307.916 48.9646V35.2036C307.916 32.2607 307.149 29.359 305.619 26.8632ZM292.458 41.7261C288.937 41.7261 286.083 38.8162 286.083 35.2267C286.083 31.6371 288.937 28.7273 292.458 28.7273C295.979 28.7273 298.833 31.6371 298.833 35.2267C298.833 38.8162 295.979 41.7261 292.458 41.7261Z" fill="#FE976E"/>
<path d="M488.527 44.7678C488.527 45.5596 488.28 46.3795 487.786 47.2257C487.292 48.0736 486.491 48.844 485.383 49.5385C484.275 50.233 482.835 50.8021 481.064 51.2475C479.293 51.6912 477.131 51.9139 474.577 51.9139C472.122 51.9139 469.859 51.5939 467.793 50.9555C465.725 50.3171 463.94 49.3405 462.437 48.0274C460.934 46.7144 459.759 45.0483 458.912 43.0275C458.066 41.0067 457.642 38.6066 457.642 35.8286C457.642 33.0639 458.051 30.672 458.87 28.6512C459.688 26.6305 460.828 24.9627 462.289 23.6513C463.749 22.3382 465.489 21.3666 467.508 20.7348C469.526 20.103 471.728 19.7863 474.113 19.7863C476.159 19.7863 477.972 20.0123 479.552 20.4642C481.133 20.9162 482.515 21.5167 483.702 22.2673C484.887 23.0178 485.882 23.8723 486.687 24.8307C487.491 25.7892 488.143 26.7756 488.644 27.7901C489.145 28.8046 489.505 29.801 489.723 30.7809C489.941 31.7607 490.052 32.6466 490.052 33.4367C490.052 34.2005 489.963 34.8884 489.787 35.5004C489.611 36.1124 489.335 36.632 488.961 37.0625C488.587 37.4931 488.114 37.8263 487.543 38.0622C486.972 38.2981 486.291 38.4169 485.5 38.4169H467.655C467.825 39.5287 468.131 40.4475 468.575 41.1783C469.02 41.9074 469.559 42.4947 470.194 42.9384C470.83 43.3838 471.532 43.6956 472.301 43.8754C473.07 44.0569 473.871 44.1459 474.704 44.1459C476.073 44.1459 477.347 43.9348 478.525 43.5108C479.703 43.0869 480.716 42.5557 481.563 41.9173C482.014 41.5841 482.502 41.3367 483.025 41.1783C483.546 41.0183 484.076 40.9391 484.612 40.9391C485.133 40.9391 485.631 41.0298 486.103 41.2096C486.576 41.3911 486.993 41.6435 487.352 41.9701C487.712 42.2967 487.997 42.6959 488.21 43.1677C488.421 43.6362 488.527 44.1707 488.527 44.7678ZM474.133 26.6618C473.357 26.6618 472.604 26.769 471.879 26.9851C471.151 27.2012 470.493 27.5509 469.899 28.0376C469.306 28.5242 468.812 29.1593 468.418 29.9445C468.022 30.7297 467.769 31.6848 467.655 32.8099H480.715C480.659 31.6436 480.444 30.667 480.07 29.8818C479.697 29.0966 479.212 28.4648 478.621 27.9864C478.027 27.508 477.344 27.1666 476.568 26.9653C475.79 26.7624 474.979 26.6618 474.133 26.6618Z" fill="#FE976E"/>
<path d="M519.003 19.5125C517.564 19.5174 517.26 20.8437 517.26 20.8437L515.201 27.3596C514.765 29.2468 513.29 29.0505 513.29 29.0505H507.731C507.731 29.0505 505.092 29.0505 503.553 29.0505C502.015 29.0505 501.799 30.253 501.799 30.253L500.265 34.7564C500.265 34.7564 498.95 38.6198 498.94 38.6478C498.723 39.2829 498.46 39.7052 498.209 39.9873C497.756 40.4377 497.202 40.5218 496.932 40.5333H494.783L494.792 40.5366C494.374 40.5152 493.233 40.5696 492.97 41.7689C492.97 41.7689 492.734 42.7026 493.595 43.3525C493.719 43.4399 494.075 43.6494 494.639 43.6494C496.652 43.6494 498.757 43.6478 499.399 43.6461C500.734 43.6428 501.068 42.6201 501.068 42.6201L501.375 41.7046L503.679 34.834L504.198 33.2982C504.646 31.9768 505.97 32.1253 505.97 32.1253H512.501C512.501 32.1253 514.217 32.1319 515.556 32.1253C516.893 32.1187 517.225 31.2015 517.225 31.2015L517.446 30.5318L519.863 23.2785L520.35 21.7807C520.902 19.5289 519.003 19.5125 519.003 19.5125Z" fill="#FFE598"/>
<path fill-rule="evenodd" clip-rule="evenodd" d="M492.83 2.50753C493.311 1.01465 494.719 0 496.311 0H504.527C507.02 0 508.782 2.40672 507.989 4.73592C507.989 4.73604 507.989 4.73616 507.989 4.73628L505.621 11.6924H513.044C515.456 11.6924 517.159 14.0164 516.402 16.2692L513.713 24.2467C513.232 25.6698 511.881 26.6315 510.356 26.6315H500.641L497.53 35.7185C497.009 37.2365 495.564 38.2595 493.934 38.2595H492.344C491.682 38.2595 491.145 37.731 491.145 37.0791C491.145 36.4271 491.682 35.8986 492.344 35.8986H493.934C494.533 35.8986 495.066 35.523 495.258 34.9627C495.258 34.9626 495.258 34.9624 495.258 34.9623L498.643 25.0741C498.808 24.594 499.265 24.2706 499.78 24.2706H510.356C510.846 24.2706 511.281 23.9621 511.437 23.5013L514.125 15.5271C514.369 14.8008 513.82 14.0533 513.044 14.0533H503.954C503.568 14.0533 503.206 13.8705 502.981 13.5623C502.756 13.254 502.695 12.8579 502.817 12.4978L505.715 3.98583L505.715 3.98546C505.987 3.18712 505.383 2.36088 504.527 2.36088H496.311C495.764 2.36088 495.281 2.70871 495.116 3.22162C495.116 3.22169 495.116 3.22176 495.116 3.22183L491.87 13.2941C491.712 13.7844 491.249 14.1176 490.727 14.1176H480.06C479.549 14.1176 479.097 14.4411 478.939 14.9173L478.358 16.6709L478.033 17.7204C477.84 18.344 477.169 18.6955 476.536 18.5054C475.902 18.3153 475.545 17.6557 475.738 17.0321L476.067 15.9714C476.069 15.9639 476.072 15.9565 476.074 15.9492L476.659 14.1869C476.659 14.1867 476.659 14.1865 476.659 14.1863C477.138 12.7361 478.513 11.7567 480.06 11.7567H489.849L492.83 2.50753Z" fill="#FE976E"/>
<path d="M438.434 13.4304C438.434 11.4773 438.918 10.0454 439.888 9.1365C440.857 8.22757 442.234 7.77393 444.019 7.77393C445.789 7.77393 447.162 8.22757 448.139 9.1365C449.116 10.0454 449.605 11.4773 449.605 13.4304V18.338H453.436C453.959 18.338 454.425 18.437 454.832 18.6333C455.239 18.8296 455.583 19.0918 455.859 19.4168C456.136 19.7434 456.344 20.1294 456.483 20.5748C456.622 21.0219 456.691 21.4953 456.691 21.9951C456.691 22.495 456.622 22.9717 456.483 23.427C456.344 23.8806 456.136 24.2782 455.859 24.6197C455.583 24.9611 455.239 25.23 454.832 25.4263C454.425 25.6226 453.959 25.7216 453.436 25.7216H449.605V41.3747C449.605 42.1467 449.819 42.7224 450.25 43.1018C450.681 43.4812 451.219 43.6693 451.866 43.6693C452.942 43.6693 453.838 43.7567 454.554 43.9299C455.269 44.1048 455.834 44.3621 456.25 44.7019C456.665 45.0434 456.957 45.4558 457.126 45.9391C457.296 46.4241 457.379 46.9767 457.379 47.597C457.379 48.143 457.264 48.6758 457.032 49.1987C456.801 49.7217 456.379 50.1836 455.764 50.5844C455.149 50.9853 454.302 51.3086 453.225 51.5494C452.147 51.7919 450.755 51.9123 449.047 51.9123C445.631 51.9123 443.007 51.071 441.177 49.3901C439.345 47.7091 438.43 45.1721 438.43 41.7788V25.7167H436.352C435.829 25.7167 435.363 25.6177 434.956 25.4214C434.549 25.2251 434.205 24.9562 433.929 24.6147C433.652 24.2732 433.445 23.8757 433.305 23.4221C433.166 22.9668 433.098 22.49 433.098 21.9902C433.098 21.4904 433.166 21.0169 433.305 20.5699C433.445 20.1228 433.652 19.7368 433.929 19.4119C434.205 19.0869 434.549 18.8246 434.956 18.6283C435.363 18.432 435.829 18.333 436.352 18.333H438.43V13.4304H438.434Z" fill="#FE976E"/>
<path d="M434.671 39.5865C433.655 33.9977 430.27 30.258 424.817 28.3742C424.349 28.2125 424.078 27.9783 423.952 27.5197C424.884 27.4653 425.805 27.5593 426.724 27.4438C429.243 27.1271 430.806 24.2172 429.643 21.9968C428.872 20.5254 427.629 19.8078 425.97 19.7946C424.116 19.7798 422.263 19.788 420.409 19.7897V19.7963H404.891C404.264 19.8474 402.89 20.1179 401.991 21.469C401.993 21.469 401.996 21.469 401.998 21.469C401.091 22.942 401.11 24.3805 401.99 25.8305C401.239 25.8305 400.542 25.8124 399.848 25.8338C398.127 25.8866 396.863 26.6702 396.174 28.229C395.511 29.7318 395.893 31.3286 397.143 32.5163C397.347 32.7093 397.267 32.777 397.113 32.9238C395.454 34.4926 395.444 36.9637 397.098 38.5159C397.304 38.7089 397.306 38.7881 397.098 38.9828C395.457 40.5202 395.45 43.0128 397.084 44.5436C397.309 44.7531 397.297 44.8356 397.081 45.0385C395.579 46.4456 395.46 48.7022 396.789 50.2644C397.621 51.2426 398.703 51.6649 399.975 51.6666C403.143 51.6682 406.31 51.6699 409.477 51.6616C409.722 51.6616 409.901 51.7227 410.074 51.8959C410.9 52.7289 411.814 53.458 412.826 54.0634C416.087 56.0133 419.601 56.6286 423.33 55.8896C426.439 55.2726 429.077 53.7764 431.182 51.429C434.233 48.0259 435.479 44.0289 434.671 39.5865ZM405.01 21.4855C405.15 21.469 405.293 21.469 405.435 21.469C412.264 21.469 419.092 21.4673 425.921 21.469C427.086 21.469 427.939 22.0447 428.235 23.0163C428.648 24.3673 427.689 25.7249 426.246 25.8173C425.807 25.8453 425.366 25.8289 424.926 25.8289C421.83 25.8289 418.737 25.8289 415.641 25.8289C412.234 25.8289 408.827 25.8305 405.42 25.8272C404.282 25.8256 403.433 25.2531 403.133 24.2997C402.719 22.9882 403.614 21.6422 405.01 21.4855ZM397.718 28.9483C398.035 28.0954 398.686 27.6352 399.595 27.523C399.762 27.5015 399.935 27.5081 400.104 27.5081C406.846 27.5081 413.587 27.5081 420.329 27.5065C420.642 27.5065 420.952 27.518 421.257 27.5956C421.326 27.6286 421.395 27.6632 421.582 27.7539C421.274 27.7457 421.09 27.7704 420.912 27.688C416.999 27.617 413.565 28.8295 410.661 31.4309C410.319 31.7377 409.985 31.8862 409.503 31.8829C406.295 31.8582 403.087 31.8779 399.88 31.8664C398.241 31.8598 397.175 30.4114 397.718 28.9483ZM399.757 33.5556C402.71 33.5341 405.663 33.549 408.706 33.549C408.031 34.4909 407.48 35.413 407.069 36.4094C406.898 36.8218 406.744 37.2408 406.603 37.6648C406.54 37.8545 406.446 37.9155 406.241 37.9138C404.096 37.9056 401.951 37.9221 399.808 37.9023C398.541 37.8907 397.575 36.929 397.574 35.7298C397.57 34.5487 398.519 33.5655 399.757 33.5556ZM399.662 39.6047C401.732 39.5634 403.803 39.5931 405.874 39.5799C406.173 39.5783 406.106 39.7465 406.082 39.9C405.976 40.5911 405.928 41.2873 405.923 41.9867C405.918 42.6301 405.992 43.2684 406.06 43.9382C403.892 43.9382 401.763 43.9695 399.638 43.9266C398.472 43.9035 397.577 42.9105 397.572 41.7772C397.567 40.6291 398.475 39.6294 399.662 39.6047ZM408.105 49.9856C405.38 49.9889 402.655 49.9906 399.93 49.9856C398.826 49.984 397.979 49.405 397.679 48.468C397.255 47.1401 398.169 45.7033 399.586 45.6571C401.799 45.5845 404.014 45.6307 406.228 45.6241C406.36 45.6241 406.429 45.6604 406.468 45.7923C406.898 47.2704 407.553 48.6478 408.42 49.9229C408.299 50.0236 408.197 49.9856 408.105 49.9856ZM420.399 54.5154C413.365 54.5006 407.614 48.8293 407.629 41.9224C407.644 35.0006 413.409 29.3376 420.423 29.3524C427.456 29.3672 433.208 35.0402 433.193 41.9455C433.178 48.8705 427.416 54.5303 420.399 54.5154Z" fill="#FE976E"/>
<path fill-rule="evenodd" clip-rule="evenodd" d="M421.643 19.5253C423.085 19.5229 424.529 19.5205 425.972 19.532C426.84 19.539 427.615 19.7307 428.277 20.124C428.94 20.5176 429.475 21.104 429.88 21.8765C431.129 24.2599 429.459 27.3646 426.757 27.7043C426.28 27.7643 425.804 27.7695 425.341 27.7672C425.261 27.7668 425.181 27.7662 425.102 27.7656C424.849 27.7637 424.601 27.7617 424.352 27.767C424.38 27.8052 424.41 27.8392 424.442 27.8701C424.547 27.9705 424.693 28.053 424.905 28.1264C430.444 30.04 433.9 33.8536 434.933 39.5403C435.756 44.0665 434.484 48.1434 431.381 51.6028C429.238 53.9931 426.548 55.5187 423.383 56.1469C419.588 56.8991 416.005 56.2716 412.687 54.2879C411.654 53.6701 410.724 52.9269 409.883 52.0793C409.768 51.9642 409.661 51.9242 409.477 51.9242C406.31 51.9324 403.143 51.9308 399.977 51.9291H399.975C398.635 51.9274 397.473 51.4787 396.585 50.433C395.166 48.7655 395.293 46.3517 396.897 44.8483C396.923 44.824 396.942 44.8047 396.956 44.7893C396.943 44.7749 396.925 44.7567 396.901 44.7342L396.9 44.7338C395.155 43.0986 395.163 40.4326 396.914 38.7926C396.931 38.7761 396.946 38.7618 396.958 38.7493C396.946 38.7369 396.931 38.7227 396.914 38.7062L396.913 38.706C395.148 37.0488 395.161 34.4052 396.928 32.7346C396.931 32.7311 396.935 32.7278 396.938 32.7246C396.945 32.7178 396.952 32.7116 396.958 32.7057L396.958 32.7053C395.635 31.4492 395.217 29.7375 395.93 28.1243C396.292 27.3044 396.811 26.6759 397.478 26.2469C398.143 25.8184 398.939 25.599 399.839 25.5714C400.317 25.5566 400.799 25.5604 401.293 25.5643C401.375 25.5649 401.457 25.5656 401.539 25.5661C401.223 24.938 401.058 24.3027 401.057 23.6588C401.056 22.895 401.285 22.1373 401.739 21.3834C401.746 21.3632 401.756 21.3436 401.768 21.3252C402.731 19.8761 404.205 19.5887 404.868 19.5346C404.876 19.534 404.883 19.5337 404.89 19.5337H420.349C420.368 19.5294 420.388 19.5271 420.409 19.5271C420.82 19.5267 421.232 19.526 421.643 19.5253ZM420.469 20.0522C420.45 20.0565 420.43 20.0588 420.409 20.0588H404.902C404.314 20.1086 403.074 20.3609 402.245 21.5668C402.24 21.5799 402.234 21.5927 402.226 21.605C401.794 22.3075 401.589 22.9888 401.59 23.6579C401.592 24.3274 401.798 25.0036 402.218 25.6959C402.268 25.777 402.269 25.8779 402.221 25.9601C402.174 26.0423 402.085 26.0931 401.989 26.0931C401.745 26.0931 401.508 26.0912 401.276 26.0894C400.788 26.0855 400.323 26.0818 399.856 26.0962C399.035 26.1214 398.339 26.3202 397.77 26.6864C397.202 27.052 396.745 27.5948 396.419 28.3337M420.469 20.0522C420.861 20.0518 421.254 20.0511 421.646 20.0505C423.087 20.048 424.527 20.0456 425.967 20.0572C426.758 20.0634 427.435 20.2371 428.002 20.5737C428.568 20.9101 429.04 21.4182 429.406 22.1172C430.484 24.1745 429.026 26.8896 426.69 27.1834C426.249 27.2387 425.804 27.2443 425.344 27.2421C425.267 27.2417 425.19 27.2411 425.112 27.2405C424.728 27.2375 424.332 27.2344 423.936 27.2576C423.856 27.2623 423.782 27.3022 423.735 27.3663C423.688 27.4304 423.673 27.5118 423.694 27.5881C423.767 27.8548 423.888 28.0721 424.07 28.2464C424.249 28.4183 424.473 28.5337 424.728 28.6219C430.095 30.476 433.41 34.1417 434.408 39.6328C435.201 43.9913 433.983 47.9084 430.981 51.2553C428.915 53.5597 426.329 55.0265 423.277 55.6322C419.615 56.358 416.169 55.7549 412.964 53.839C411.972 53.2459 411.077 52.531 410.265 51.7124L410.264 51.712C410.034 51.481 409.782 51.3991 409.477 51.3991L409.477 51.3991C406.31 51.4073 403.143 51.4057 399.975 51.404C398.771 51.4024 397.768 51.0065 396.994 50.0959C395.754 48.6391 395.866 46.5394 397.265 45.2286L397.265 45.2285C397.322 45.175 397.379 45.1171 397.423 45.0551C397.468 44.9913 397.512 44.9058 397.514 44.8002C397.517 44.6933 397.477 44.6045 397.431 44.536C397.387 44.4705 397.328 44.4098 397.268 44.3534C395.745 42.9269 395.75 40.6078 397.281 39.173C397.337 39.1206 397.393 39.0634 397.436 39.0014C397.48 38.937 397.52 38.8518 397.52 38.7479C397.519 38.6442 397.478 38.5594 397.435 38.4956C397.392 38.4342 397.337 38.3776 397.282 38.3258C397.282 38.3258 397.282 38.3258 397.282 38.3258L397.098 38.5159L397.281 38.3257C397.281 38.3257 397.282 38.3258 397.282 38.3258M397.328 32.3273C396.15 31.2079 395.804 29.7261 396.419 28.3337L397.328 32.3273ZM397.328 32.3273C397.328 32.3273 397.328 32.3274 397.328 32.3274L397.143 32.5163L397.327 32.3268C397.328 32.327 397.328 32.3271 397.328 32.3273ZM412.264 21.7311C409.988 21.7313 407.712 21.7315 405.435 21.7315C405.29 21.7315 405.163 21.7318 405.041 21.7462L405.04 21.7463C403.808 21.8845 403.023 23.0689 403.387 24.2218L403.387 24.222C403.648 25.05 404.382 25.5631 405.42 25.5646C407.976 25.5671 410.531 25.5668 413.087 25.5665C413.938 25.5664 414.79 25.5663 415.641 25.5663H424.925C425.051 25.5663 425.174 25.5675 425.295 25.5687C425.613 25.572 425.919 25.5751 426.229 25.5553C427.502 25.4738 428.342 24.2799 427.98 23.0918C427.722 22.2481 426.987 21.7315 425.921 21.7315C421.368 21.7304 416.816 21.7308 412.264 21.7311ZM425.921 21.2064C427.184 21.2064 428.155 21.8412 428.491 22.9407C428.953 24.4546 427.876 25.9761 426.263 26.0793C425.932 26.1005 425.596 26.0971 425.271 26.0938C425.154 26.0926 425.039 26.0914 424.925 26.0914H415.641C414.79 26.0914 413.939 26.0915 413.087 26.0916C410.532 26.0919 407.976 26.0922 405.42 26.0898C404.183 26.088 403.217 25.4564 402.878 24.3776M425.921 21.2064C421.368 21.2053 416.816 21.2056 412.264 21.206L425.921 21.2064ZM412.264 21.206C409.988 21.2062 407.711 21.2064 405.435 21.2064L412.264 21.206ZM405.435 21.2064L405.428 21.2064L405.435 21.2064ZM405.428 21.2064C405.29 21.2064 405.135 21.2064 404.978 21.2246L405.428 21.2064ZM404.978 21.2246C403.418 21.4002 402.414 22.9077 402.878 24.3773L404.978 21.2246ZM400.112 27.7707H400.104C400.067 27.7707 400.032 27.7705 399.997 27.7702C399.861 27.7693 399.745 27.7685 399.629 27.7834L399.628 27.7835C399.211 27.835 398.867 27.9644 398.595 28.1672C398.324 28.3691 398.111 28.6539 397.968 29.0383M400.112 27.7707C405.811 27.7707 411.508 27.7707 417.206 27.7697L400.112 27.7707ZM420.856 27.9496C420.969 27.9922 421.079 28.0059 421.185 28.011C421.245 28.014 421.309 28.0142 421.372 28.0143L421.383 28.0143C421.444 28.0144 421.506 28.0146 421.575 28.0164C421.7 28.0198 421.811 27.9367 421.841 27.8168C421.871 27.6969 421.812 27.5727 421.7 27.5183C421.596 27.468 421.525 27.4334 421.471 27.4071C421.432 27.3878 421.402 27.3729 421.374 27.3596C421.358 27.3519 421.341 27.3457 421.324 27.3413C420.984 27.2551 420.646 27.2439 420.329 27.2439C413.592 27.2456 406.856 27.2456 400.119 27.2456H400.104C400.076 27.2456 400.047 27.2453 400.017 27.2451C399.878 27.244 399.716 27.2427 399.561 27.2625C399.07 27.3233 398.633 27.48 398.273 27.7486C397.912 28.018 397.641 28.3897 397.467 28.8581C396.856 30.504 398.068 32.1217 399.878 32.129C401.206 32.1337 402.532 32.1332 403.857 32.1326C405.738 32.1318 407.618 32.1309 409.5 32.1454L409.501 32.1454C410.058 32.1493 410.455 31.9706 410.84 31.6251C413.679 29.082 417.029 27.8913 420.856 27.9496ZM417.206 27.7697C414.729 28.3007 412.481 29.4454 410.481 31.2367L410.481 31.2369C410.182 31.5049 409.912 31.6231 409.504 31.6203C407.621 31.6058 405.736 31.6066 403.852 31.6074C402.527 31.608 401.203 31.6086 399.881 31.6038C398.413 31.5979 397.493 30.3188 397.968 29.0383M420.422 29.615C413.556 29.6004 407.91 35.1456 407.895 41.9229C407.881 48.6842 413.513 54.2383 420.399 54.2529C427.268 54.2674 432.911 48.7255 432.926 41.9449C432.941 35.1853 427.309 29.6295 420.422 29.615ZM407.362 41.9218C407.377 34.8557 413.261 29.0747 420.423 29.0898C427.603 29.105 433.475 34.8952 433.459 41.946C433.444 49.0155 427.563 54.7932 420.398 54.778C413.218 54.7628 407.347 48.9743 407.362 41.9218ZM406.059 33.809C403.937 33.806 401.848 33.803 399.759 33.8181L399.757 33.5556L399.759 33.8181C399.759 33.8181 399.759 33.8181 399.759 33.8181C398.671 33.8269 397.837 34.6893 397.84 35.729L397.84 35.7294C397.842 36.7816 398.686 37.6295 399.81 37.6397C401.084 37.6515 402.356 37.6504 403.629 37.6494C404.499 37.6486 405.37 37.6479 406.242 37.6513L406.243 37.6513C406.291 37.6517 406.314 37.6471 406.322 37.6447C406.321 37.646 406.321 37.6469 406.32 37.6475C406.321 37.6469 406.322 37.646 406.323 37.6451C406.324 37.6443 406.325 37.6438 406.326 37.6435C406.325 37.6438 406.324 37.6442 406.322 37.6447C406.327 37.6379 406.337 37.6204 406.35 37.5826C406.35 37.5828 406.35 37.583 406.35 37.5832L406.603 37.6647L406.35 37.5824C406.35 37.5824 406.35 37.5825 406.35 37.5826C406.492 37.1536 406.648 36.7289 406.822 36.3103C406.822 36.3104 406.822 36.3106 406.822 36.3107L407.069 36.4094L406.822 36.3103C406.822 36.3103 406.822 36.3103 406.822 36.3103M406.059 33.809C406.768 33.81 407.481 33.8111 408.199 33.8114L406.059 33.809ZM406.062 33.2839C406.937 33.2852 407.818 33.2864 408.706 33.2864C408.806 33.2864 408.897 33.3411 408.943 33.4282C408.989 33.5153 408.982 33.6203 408.924 33.7004C408.257 34.6314 407.717 35.5357 407.316 36.5081L407.316 36.5086C407.148 36.9145 406.996 37.3276 406.857 37.7463L406.856 37.7471C406.816 37.8668 406.752 37.9918 406.627 38.077C406.503 38.1608 406.364 38.1773 406.24 38.1764C405.373 38.1731 404.505 38.1738 403.635 38.1745C402.358 38.1756 401.08 38.1766 399.805 38.1648C398.395 38.152 397.309 37.0765 397.307 35.7303C397.307 35.7302 397.307 35.7302 397.307 35.7301L397.574 35.7298L397.307 35.7305C397.307 35.7304 397.307 35.7304 397.307 35.7303C397.303 34.408 398.367 33.3041 399.755 33.293L399.755 33.293C401.847 33.2778 403.939 33.2808 406.062 33.2839ZM405.821 39.8428C405.054 39.8474 404.29 39.8463 403.527 39.8452C402.239 39.8434 400.955 39.8415 399.667 39.8672L399.662 39.6047L399.667 39.8672C399.667 39.8672 399.667 39.8672 399.667 39.8672C398.638 39.8888 397.834 40.7597 397.839 41.7761C397.843 42.7816 398.636 43.6442 399.644 43.6641C401.132 43.6942 402.62 43.6877 404.126 43.6812C404.67 43.6788 405.216 43.6765 405.765 43.6758C405.768 43.7086 405.772 43.7415 405.775 43.7744C405.782 43.8377 405.788 43.9011 405.795 43.9646L406.06 43.9382V43.6756C405.962 43.6756 405.863 43.6757 405.765 43.6758C405.706 43.1104 405.652 42.5497 405.656 41.9848C405.656 41.9848 405.656 41.9849 405.656 41.9848M406.346 39.939C406.348 39.9262 406.35 39.9132 406.353 39.896L406.355 39.8882C406.358 39.8689 406.362 39.8443 406.366 39.8188C406.372 39.7724 406.379 39.6935 406.355 39.6101C406.327 39.5122 406.261 39.4267 406.158 39.3744C406.068 39.3287 405.967 39.3168 405.873 39.3174L405.872 39.3174C405.097 39.3223 404.318 39.3212 403.538 39.3201C402.245 39.3183 400.948 39.3164 399.656 39.3422L399.656 39.3422C398.312 39.3702 397.299 40.4985 397.305 41.7783C397.311 43.0394 398.307 44.1629 399.633 44.1891C399.633 44.1891 399.633 44.1891 399.633 44.1891M404.177 45.8827C402.646 45.8761 401.121 45.8694 399.595 45.9195C398.376 45.9592 397.556 47.2059 397.934 48.3893C398.195 49.2044 398.928 49.7216 399.93 49.7231C402.61 49.7279 405.29 49.7264 407.97 49.7232C407.205 48.5299 406.617 47.2505 406.217 45.8867C405.536 45.8887 404.856 45.8857 404.177 45.8827ZM404.191 45.3576C404.871 45.3606 405.55 45.3635 406.227 45.3615L406.228 45.3615C406.312 45.3615 406.427 45.3715 406.532 45.441C406.642 45.5143 406.695 45.6222 406.724 45.7198C407.147 47.1711 407.79 48.5239 408.641 49.777C408.717 49.8879 408.696 50.037 408.592 50.1233C408.384 50.2971 408.132 50.253 408.107 50.2485C408.106 50.2483 408.105 50.2482 408.105 50.2482C405.38 50.2515 402.655 50.2531 399.929 50.2482M404.191 45.3576C402.655 45.3509 401.114 45.3442 399.577 45.3946L404.191 45.3576Z" fill="#FE976E"/>
<path d="M423.98 39.187C423.985 39.6786 423.673 40.0498 423.223 40.0927C422.711 40.1405 422.344 39.8436 422.287 39.2844C422.21 38.5321 421.805 38.0472 421.098 37.8063C420.357 37.5539 419.66 37.6628 419.066 38.1742C418.592 38.5833 418.396 39.1112 418.617 39.7215C418.875 40.4292 419.438 40.7756 420.167 40.8416C421.037 40.9208 421.882 41.0395 422.604 41.5856C423.635 42.3642 424.139 43.3787 423.921 44.6522C423.698 45.952 422.864 46.7802 421.62 47.2107C421.361 47.2998 421.247 47.3872 421.243 47.6874C421.238 48.1889 420.87 48.5172 420.412 48.5205C419.938 48.5254 419.569 48.1823 419.567 47.6577C419.566 47.3724 419.452 47.2899 419.205 47.2156C417.893 46.8181 416.935 45.6551 416.842 44.38C416.797 43.7713 417.094 43.3688 417.615 43.3292C418.119 43.2896 418.46 43.6129 418.537 44.2084C418.642 45.0068 419.212 45.5809 420.023 45.7079C420.94 45.8514 421.808 45.4506 422.142 44.733C422.569 43.8109 421.91 42.7782 420.782 42.5918C420.28 42.5077 419.77 42.5225 419.271 42.3708C417.853 41.9386 416.846 40.6882 416.831 39.2827C416.816 37.9366 417.789 36.6516 419.18 36.226C419.477 36.1353 419.567 36.0099 419.566 35.708C419.562 35.1934 419.936 34.8304 420.399 34.8255C420.856 34.8205 421.265 35.1884 421.243 35.6948C421.227 36.0759 421.413 36.1468 421.704 36.2408C422.991 36.6532 423.968 37.935 423.98 39.187Z" fill="#FE976E"/>
<path fill-rule="evenodd" clip-rule="evenodd" d="M420.977 35.6838C420.992 35.3351 420.714 35.085 420.402 35.0884L420.402 35.0884C420.094 35.0917 419.83 35.3291 419.833 35.7067L419.833 35.707C419.834 35.8773 419.81 36.0528 419.701 36.2011C419.591 36.3497 419.428 36.4257 419.26 36.4771C417.974 36.8704 417.084 38.0573 417.098 39.2802L417.098 39.2803C417.111 40.5617 418.033 41.7187 419.35 42.1202C419.574 42.1883 419.805 42.2205 420.053 42.2458C420.112 42.2519 420.173 42.2576 420.236 42.2634C420.427 42.2813 420.629 42.3002 420.827 42.3333C422.086 42.5416 422.901 43.7272 422.384 44.8423L422.384 44.8426C421.991 45.6883 420.992 46.1257 419.982 45.9676L419.982 45.9676C419.055 45.8224 418.393 45.1574 418.272 44.2427L418.272 44.242C418.239 43.9835 418.152 43.8164 418.051 43.7197C417.955 43.628 417.822 43.5767 417.636 43.5913L417.636 43.5913C417.445 43.6058 417.316 43.6823 417.233 43.7955C417.145 43.9141 417.089 44.1003 417.109 44.3612L417.109 44.3617C417.193 45.5229 418.071 46.5977 419.284 46.9651C419.412 47.0037 419.565 47.0595 419.677 47.183C419.798 47.316 419.833 47.4826 419.834 47.6566L419.834 47.6573C419.836 48.0419 420.089 48.2616 420.409 48.2583L420.41 48.2583C420.726 48.256 420.973 48.0399 420.977 47.6852L420.977 47.6849C420.979 47.5054 421.014 47.3365 421.133 47.1994C421.244 47.0717 421.399 47.0092 421.532 46.9633C422.7 46.559 423.454 45.7994 423.658 44.6089C423.857 43.4466 423.408 42.5237 422.442 41.7942L422.442 41.7942C421.786 41.2984 421.012 41.1825 420.143 41.1034C419.743 41.0672 419.373 40.9525 419.062 40.7371C418.75 40.5204 418.512 40.2112 418.366 39.8106L418.366 39.8101C418.238 39.4567 418.227 39.1141 418.326 38.7959C418.424 38.4801 418.625 38.2064 418.891 37.9771L418.891 37.977C419.561 37.399 420.36 37.2776 421.185 37.5586C421.577 37.6919 421.901 37.8987 422.137 38.1899C422.374 38.4814 422.51 38.841 422.553 39.2584L422.553 39.2585C422.576 39.4873 422.659 39.633 422.759 39.7177C422.857 39.8013 423.001 39.85 423.197 39.8317C423.49 39.8037 423.717 39.5661 423.713 39.19L423.713 39.1898C423.703 38.0572 422.806 36.8705 421.622 36.4909L421.621 36.4907C421.618 36.4896 421.614 36.4885 421.611 36.4874C421.48 36.4451 421.302 36.388 421.173 36.2644C421.018 36.1167 420.967 35.9182 420.977 35.6841M420.396 34.5633C420.999 34.5568 421.539 35.0423 421.51 35.7063L421.51 35.7065C421.504 35.8496 421.535 35.8793 421.543 35.8867C421.544 35.8869 421.544 35.8871 421.544 35.8873C421.573 35.9146 421.628 35.9403 421.787 35.9916C423.177 36.4369 424.234 37.8136 424.247 39.185L423.98 39.1874L424.247 39.1848C424.247 39.1848 424.247 39.1849 424.247 39.185C424.253 39.7919 423.857 40.2965 423.248 40.3544L423.248 40.3544C422.933 40.3839 422.638 40.3081 422.411 40.1154C422.185 39.9238 422.056 39.6415 422.022 39.3111L422.288 39.2847L422.022 39.3109C422.022 39.311 422.022 39.311 422.022 39.3111C421.988 38.9762 421.883 38.7172 421.721 38.518C421.558 38.3184 421.326 38.1623 421.01 38.0548L421.01 38.0548C420.353 37.8309 419.758 37.9274 419.242 38.372L419.067 38.1745L419.242 38.3721C419.242 38.3721 419.242 38.372 419.242 38.372C419.034 38.5518 418.899 38.7466 418.836 38.9496C418.774 39.1501 418.775 39.3766 418.869 39.6335C418.869 39.6334 418.868 39.6333 418.868 39.6332L418.617 39.7219L418.869 39.6336C418.869 39.6336 418.869 39.6335 418.869 39.6335C418.981 39.9403 419.154 40.1582 419.37 40.3079C419.588 40.4592 419.863 40.5507 420.192 40.5805L420.192 40.5805C421.063 40.6597 421.978 40.7814 422.767 41.3777C422.767 41.3777 422.767 41.3776 422.767 41.3776L422.604 41.5859L422.767 41.3777C423.862 42.2054 424.421 43.3115 424.185 44.6961L424.185 44.6962C423.943 46.1055 423.028 47.002 421.709 47.4588L421.708 47.459C421.582 47.5022 421.55 47.528 421.538 47.5411L421.538 47.5413C421.534 47.5458 421.512 47.5717 421.51 47.6905C421.51 47.6905 421.51 47.6904 421.51 47.6904L421.243 47.6878L421.51 47.6907C421.51 47.6906 421.51 47.6906 421.51 47.6905M420.415 48.7834C420.414 48.7834 420.414 48.7834 420.414 48.7834L420.412 48.5208L420.415 48.7834C420.415 48.7834 420.415 48.7834 420.415 48.7834ZM420.415 48.7834C419.787 48.7897 419.303 48.3235 419.301 47.6593C419.301 47.6594 419.301 47.6595 419.301 47.6596L419.568 47.6581L419.301 47.6589C419.301 47.659 419.301 47.6592 419.301 47.6593C419.301 47.6041 419.295 47.5717 419.289 47.5537C419.285 47.5385 419.281 47.5342 419.279 47.5329L419.279 47.5328C419.273 47.5252 419.246 47.5027 419.128 47.4671L419.127 47.467C417.715 47.0393 416.677 45.7882 416.577 44.3992C416.577 44.3993 416.577 44.3994 416.577 44.3995L416.843 44.3803L416.577 44.399C416.577 44.3991 416.577 44.3991 416.577 44.3992C416.551 44.0515 416.62 43.7323 416.8 43.4875C416.984 43.2375 417.264 43.093 417.594 43.0678C417.594 43.0678 417.594 43.0678 417.594 43.0678L417.615 43.3295L417.595 43.0678C417.595 43.0678 417.594 43.0678 417.594 43.0678C417.913 43.0428 418.203 43.1334 418.422 43.3424C418.636 43.5461 418.758 43.8383 418.801 44.1752C418.801 44.1751 418.801 44.175 418.801 44.1749L418.537 44.2088L418.802 44.1756C418.802 44.1755 418.802 44.1753 418.801 44.1752C418.892 44.8572 419.37 45.3401 420.065 45.449L420.023 45.7083L420.065 45.449C420.065 45.449 420.065 45.449 420.065 45.449C420.889 45.5778 421.625 45.2136 421.899 44.6241C421.899 44.6242 421.899 44.6243 421.899 44.6244L422.142 44.7334L421.899 44.6241C422.237 43.8952 421.735 43.0159 420.738 42.8511L420.738 42.851C420.561 42.8214 420.387 42.8051 420.201 42.7878C420.135 42.7816 420.068 42.7753 419.998 42.7682C419.741 42.742 419.468 42.7057 419.192 42.622L419.192 42.6219C417.674 42.159 416.581 40.8153 416.564 39.286L416.831 39.2831L416.564 39.2858C416.548 37.8166 417.605 36.4335 419.101 35.9756L419.101 35.9756C419.23 35.9363 419.26 35.9042 419.269 35.892C419.279 35.8795 419.3 35.8414 419.299 35.7099C419.295 35.0583 419.779 34.5699 420.396 34.5633" fill="#FE976E"/>
<path d="M431.482 41.3136C431.472 43.4762 431.064 45.1703 430.247 46.7655C430.004 47.2406 429.561 47.4369 429.13 47.262C428.668 47.074 428.468 46.5824 428.705 46.0727C429.117 45.1835 429.479 44.2829 429.632 43.3079C430.159 39.9197 429.079 37.1005 426.538 34.7976C425.963 34.2764 425.304 33.864 424.604 33.5192C424.225 33.3311 423.95 33.059 423.996 32.6037C424.053 32.0164 424.661 31.6914 425.239 31.9603C426.39 32.4948 427.413 33.219 428.298 34.118C430.374 36.2262 431.42 38.76 431.482 41.3136Z" fill="#FE976E"/>
<path fill-rule="evenodd" clip-rule="evenodd" d="M425.125 32.1978C424.698 31.9991 424.299 32.2398 424.261 32.6287L424.261 32.6293C424.245 32.7942 424.285 32.9114 424.356 33.0066C424.432 33.1087 424.555 33.2005 424.724 33.2846C425.44 33.6372 426.121 34.0625 426.719 34.6045C429.321 36.9637 430.437 39.8689 429.895 43.3478L429.895 43.348C429.737 44.3593 429.363 45.2865 428.948 46.1817C428.855 46.3812 428.855 46.5598 428.906 46.6978C428.957 46.8354 429.067 46.952 429.232 47.0194C429.381 47.0799 429.523 47.0743 429.649 47.0183C429.779 46.9607 429.909 46.8416 430.008 46.6475L430.009 46.6473C430.805 45.0935 431.205 43.4413 431.215 41.3162C431.154 38.8327 430.137 36.3626 428.106 34.3008L428.106 34.3008C427.243 33.4241 426.247 32.7186 425.125 32.1979L425.125 32.1978ZM425.353 31.7229C424.624 31.384 423.807 31.7931 423.73 32.5785C423.701 32.8688 423.776 33.1151 423.926 33.3168C424.07 33.5116 424.275 33.6498 424.484 33.7537L424.485 33.7541C425.169 34.091 425.806 34.4904 426.357 34.9908L426.357 34.9909C428.836 37.2374 429.882 39.9704 429.368 43.268C429.221 44.2065 428.872 45.0807 428.462 45.9637L428.462 45.9637C428.318 46.274 428.3 46.5961 428.405 46.8783C428.51 47.1609 428.732 47.3841 429.029 47.5048L429.029 47.5048C429.311 47.6192 429.605 47.614 429.869 47.4969C430.129 47.3812 430.341 47.1647 430.485 46.8839C431.323 45.2482 431.738 43.5132 431.749 41.3148C431.749 41.3123 431.749 41.3098 431.749 41.3074C431.685 38.685 430.61 36.0889 428.489 33.9354C427.582 33.014 426.534 32.2712 425.353 31.723" fill="#FE976E"/>
<path d="M411.378 36.2212C411.951 36.2261 412.331 36.7392 412.164 37.2885C412.001 37.823 411.71 38.3046 411.529 38.8342C409.972 43.3838 412.261 48.062 416.163 49.9871C416.476 50.1422 416.751 50.3385 416.809 50.708C416.86 51.0214 416.759 51.2903 416.508 51.4899C416.211 51.7241 415.883 51.7274 415.551 51.5674C414.16 50.8911 412.946 49.9822 411.956 48.8077C409.895 46.3629 409.052 43.5471 409.424 40.3963C409.575 39.1146 409.982 37.8972 410.58 36.7458C410.748 36.4208 410.994 36.2212 411.378 36.2212Z" fill="#FE976E"/>
<path fill-rule="evenodd" clip-rule="evenodd" d="M411.051 36.5764C410.966 36.6353 410.888 36.7281 410.818 36.8647L410.817 36.8654C410.231 37.9929 409.835 39.1802 409.688 40.4267L409.688 40.4268C409.325 43.5066 410.146 46.2508 412.161 48.6401C413.125 49.7837 414.308 50.6704 415.668 51.3319C415.802 51.3967 415.921 51.4212 416.025 51.4146C416.126 51.4082 416.231 51.3715 416.34 51.2854C416.515 51.1467 416.581 50.9726 416.546 50.7491L416.545 50.7487C416.508 50.5126 416.34 50.3692 416.043 50.222C412.029 48.2416 409.674 43.431 411.276 38.7505C411.364 38.492 411.477 38.2453 411.584 38.0125C411.592 37.9934 411.601 37.9744 411.61 37.9556C411.726 37.7015 411.832 37.4619 411.908 37.2133L411.908 37.2131C412.026 36.8279 411.767 36.4879 411.376 36.4839C411.235 36.4841 411.133 36.5198 411.051 36.5764ZM410.744 36.1471C410.923 36.0228 411.135 35.9587 411.378 35.9587H411.38L411.38 35.9588C412.135 35.9653 412.636 36.6509 412.419 37.3639C412.332 37.6498 412.212 37.9183 412.096 38.171C412.088 38.1887 412.08 38.2063 412.072 38.2238C411.963 38.4614 411.861 38.6853 411.781 38.918L411.781 38.9181C410.269 43.3368 412.492 47.8827 416.282 49.7525L416.282 49.7526C416.611 49.9155 416.993 50.1647 417.073 50.6674C417.137 51.0705 417.003 51.434 416.675 51.6944L416.674 51.6948C416.487 51.8429 416.279 51.9248 416.059 51.9387C415.842 51.9523 415.63 51.8985 415.433 51.8034L415.432 51.803C414.011 51.1118 412.767 50.1807 411.75 48.9755L411.75 48.9755C409.642 46.4753 408.778 43.5879 409.158 40.3662M410.744 36.1471C410.568 36.2691 410.439 36.4384 410.342 36.6267L410.744 36.1471ZM410.342 36.6267C409.732 37.8019 409.313 39.0492 409.158 40.3661L410.342 36.6267Z" fill="#FE976E"/>
<path d="M422.583 31.7114C422.576 32.1684 422.165 32.5494 421.689 32.5362C421.23 32.523 420.845 32.1502 420.838 31.7098C420.831 31.2594 421.24 30.8619 421.713 30.8635C422.187 30.8635 422.589 31.2545 422.583 31.7114Z" fill="#FE976E"/>
<path fill-rule="evenodd" clip-rule="evenodd" d="M421.105 31.7057C421.1 31.4089 421.382 31.1248 421.712 31.126L421.105 31.7057ZM421.105 31.7058C421.109 31.9986 421.373 32.2642 421.697 32.2736C422.029 32.2828 422.312 32.0131 422.316 31.7075C422.32 31.4033 422.045 31.126 421.713 31.126H421.712V31.126M421.713 30.6008C421.099 30.599 420.562 31.1098 420.571 31.7135L420.571 31.7136C420.58 32.3015 421.087 32.7815 421.682 32.7986L421.682 32.7986C422.302 32.8157 422.841 32.3233 422.849 31.7151C422.858 31.1056 422.33 30.6011 421.713 30.6008Z" fill="#FE976E"/>
<path d="M419.976 51.8479C419.964 52.3032 419.545 52.6842 419.076 52.6677C418.597 52.6496 418.212 52.2504 418.233 51.7935C418.255 51.353 418.651 50.9918 419.11 50.9934C419.581 50.9967 419.986 51.3959 419.976 51.8479Z" fill="#FE976E"/>
<path fill-rule="evenodd" clip-rule="evenodd" d="M419.109 51.2561C418.787 51.2552 418.515 51.5117 418.5 51.8061C418.486 52.1089 418.747 52.3924 419.087 52.4055C419.412 52.4167 419.702 52.1466 419.71 51.8418C419.717 51.5435 419.438 51.2587 419.109 51.2561ZM417.968 51.7808C417.997 51.1946 418.515 50.7288 419.111 50.731L419.112 50.731V50.731C419.725 50.7353 420.257 51.2484 420.244 51.8538L420.244 51.8547C420.228 52.4602 419.681 52.9518 419.067 52.9303L419.067 52.9303C418.448 52.9068 417.938 52.3922 417.967 51.7813L417.968 51.7808Z" fill="#FE976E"/>
</svg>
