<svg width="16" height="15" viewBox="0 0 16 15" fill="none" xmlns="http://www.w3.org/2000/svg">
<path d="M15.3958 2.89592L10.5852 7.44119L15.3958 11.9865C15.5803 12.1438 15.729 12.3349 15.8328 12.5482C15.9365 12.7616 15.9932 12.9927 15.9994 13.2274C16.0056 13.4621 15.9612 13.6956 15.8688 13.9135C15.7764 14.1315 15.638 14.3294 15.462 14.4952C15.2861 14.661 15.0762 14.7912 14.8453 14.8778C14.6143 14.9645 14.3671 15.0059 14.1187 14.9993C13.8703 14.9928 13.6259 14.9386 13.4004 14.8399C13.1749 14.7413 12.973 14.6003 12.8071 14.4255L7.99647 9.88023L3.18587 14.4255C3.01917 14.599 2.81688 14.7387 2.5913 14.8361C2.36571 14.9335 2.12153 14.9866 1.87357 14.9921C1.62562 14.9976 1.37906 14.9555 1.14887 14.8682C0.91868 14.781 0.709661 14.6504 0.534502 14.4845C0.359343 14.3186 0.221698 14.1208 0.129923 13.9031C0.0381474 13.6853 -0.00584302 13.4523 0.000621989 13.218C0.00708699 12.9837 0.0638726 12.7532 0.167531 12.5403C0.27119 12.3274 0.419559 12.1366 0.603632 11.9795L5.41424 7.43426L0.603632 2.88899C0.292141 2.55914 0.126147 2.12913 0.139743 1.68726C0.153339 1.24539 0.345493 0.825211 0.676738 0.513025C1.00798 0.200838 1.45317 0.0203438 1.92087 0.00861281C2.38857 -0.00311817 2.84326 0.154805 3.19157 0.449946L8.00218 4.99522L12.8128 0.449946C13.1611 0.150676 13.6181 -0.0102854 14.0887 0.000509928C14.5594 0.0113053 15.0075 0.193027 15.3401 0.507914C15.6726 0.822801 15.8639 1.24664 15.8743 1.69136C15.8847 2.13608 15.7133 2.56748 15.3958 2.89592Z" fill="white"/>
</svg>
