<svg width="13" height="13" viewBox="0 0 13 13" fill="none" xmlns="http://www.w3.org/2000/svg">
<path d="M6.11914 6.3646C4.73283 6.50177 3.44531 7.14373 2.50146 8.16834C1.55762 9.19294 1.02316 10.5287 1 11.9216C1.00679 12.1256 1.09433 12.3186 1.24316 12.4582C1.392 12.5979 1.58994 12.6728 1.79395 12.6666H11.209C11.4981 12.6755 11.7787 12.5695 11.9897 12.3717C12.2008 12.174 12.325 11.9007 12.335 11.6116C12.3051 10.8468 12.1162 10.0966 11.7803 9.40894C11.4444 8.72123 10.9686 8.11109 10.3838 7.6174C9.79893 7.12372 9.11764 6.75733 8.3833 6.54163C7.64896 6.32593 6.87808 6.26564 6.11914 6.3646Z" fill="#9D1300"/>
<path d="M6.70605 6.33154C7.57312 6.35798 8.4154 6.03974 9.04834 5.44653C9.68128 4.85333 10.0533 4.03349 10.083 3.16653C10.0533 2.29957 9.68128 1.47974 9.04834 0.886536C8.4154 0.293331 7.57312 -0.0249109 6.70605 0.00152586C5.83879 -0.0249187 4.99654 0.293262 4.36328 0.886414C3.73002 1.47957 3.35742 2.2994 3.32715 3.16653C3.35742 4.03367 3.73002 4.8535 4.36328 5.44666C4.99654 6.03981 5.83879 6.35799 6.70605 6.33154Z" fill="#9D1300"/>
</svg>
