<svg width="224" height="52" viewBox="0 0 224 52" fill="none" xmlns="http://www.w3.org/2000/svg">
<g clip-path="url(#clip0)">
<path d="M32.0517 16.1739C32.0517 13.2292 32.8458 11.0229 34.434 9.55808C36.0222 8.09177 38.2966 7.35938 41.2588 7.35938C42.5663 7.35938 43.6766 7.43839 44.5909 7.59642C45.5053 7.75444 46.2516 7.98389 46.833 8.28626C47.4127 8.58864 47.8368 8.96396 48.1035 9.41069C48.3703 9.85742 48.5045 10.3634 48.5045 10.9287C48.5045 12.126 48.0835 12.9997 47.2431 13.5513C46.4028 14.1029 45.1954 14.3794 43.621 14.3794C43.0736 14.3794 42.6203 14.5405 42.2595 14.8626C41.8987 15.1848 41.7183 15.6679 41.7183 16.3122V18.6188H45.0212C45.4745 18.6188 45.8816 18.7009 46.2424 18.865C46.6032 19.0291 46.9024 19.257 47.1429 19.5457C47.3834 19.8344 47.5669 20.1732 47.6934 20.5607C47.8198 20.9482 47.883 21.366 47.883 21.8128C47.883 22.2595 47.8198 22.6774 47.6934 23.0648C47.5669 23.4523 47.3834 23.7911 47.1429 24.0798C46.9024 24.3686 46.6017 24.5965 46.2424 24.7606C45.8816 24.9247 45.4745 25.0067 45.0212 25.0067H41.7183V43.189C41.7183 44.8847 41.2988 46.0973 40.4569 46.8281C39.615 47.559 38.4215 47.9222 36.8749 47.9222C35.3268 47.9222 34.1364 47.5575 33.3022 46.8281C32.468 46.0988 32.0517 44.8847 32.0517 43.189V25.0083H30.9908C30.5236 25.0083 30.1134 24.9262 29.7603 24.7621C29.4072 24.598 29.1096 24.3716 28.8691 24.0814C28.6285 23.7927 28.445 23.4538 28.3186 23.0663C28.1921 22.6789 28.1289 22.261 28.1289 21.8143C28.1289 21.3676 28.1921 20.9497 28.3186 20.5622C28.445 20.1748 28.6285 19.8359 28.8691 19.5472C29.1096 19.2585 29.4057 19.0306 29.7603 18.8665C30.1134 18.7024 30.5236 18.6203 30.9908 18.6203H32.0517V16.1739Z" fill="white"/>
<path d="M53.0669 16.1739C53.0669 13.2292 53.861 11.0229 55.4477 9.55808C57.0359 8.09177 59.3103 7.35938 62.2724 7.35938C63.58 7.35938 64.6902 7.43839 65.6046 7.59642C66.519 7.75444 67.2653 7.98389 67.8467 8.28626C68.4264 8.58864 68.8505 8.96396 69.1172 9.41069C69.384 9.85742 69.5181 10.3634 69.5181 10.9287C69.5181 12.126 69.0972 12.9997 68.2568 13.5513C67.4164 14.1029 66.2091 14.3794 64.6347 14.3794C64.0873 14.3794 63.634 14.5405 63.2732 14.8626C62.9124 15.1848 62.7319 15.6679 62.7319 16.3122V18.6188H66.0348C66.4882 18.6188 66.8953 18.7009 67.2561 18.865C67.6169 19.0291 67.916 19.257 68.1566 19.5457C68.3971 19.8344 68.5806 20.1732 68.7071 20.5607C68.8335 20.9482 68.8967 21.366 68.8967 21.8128C68.8967 22.2595 68.8335 22.6774 68.7071 23.0648C68.5806 23.4523 68.3971 23.7911 68.1566 24.0798C67.916 24.3686 67.6154 24.5965 67.2561 24.7606C66.8953 24.9247 66.4882 25.0067 66.0348 25.0067H62.7319V43.189C62.7319 44.8847 62.3125 46.0973 61.4706 46.8281C60.6287 47.559 59.4352 47.9222 57.8886 47.9222C56.3405 47.9222 55.1501 47.5575 54.3159 46.8281C53.4817 46.0988 53.0653 44.8847 53.0653 43.189V25.0083H52.0045C51.5373 25.0083 51.1271 24.9262 50.774 24.7621C50.4209 24.598 50.1233 24.3716 49.8827 24.0814C49.6422 23.7927 49.4587 23.4538 49.3322 23.0663C49.2058 22.6789 49.1426 22.261 49.1426 21.8143C49.1426 21.3676 49.2058 20.9497 49.3322 20.5622C49.4587 20.1748 49.6422 19.8359 49.8827 19.5472C50.1233 19.2585 50.4193 19.0306 50.774 18.8665C51.1271 18.7024 51.5373 18.6203 52.0045 18.6203H53.0653V16.1739H53.0669Z" fill="white"/>
<path d="M71.0957 22.9566C71.0957 22.1421 71.216 21.4386 71.4565 20.846C71.6971 20.2549 72.0301 19.7641 72.4573 19.3766C72.8844 18.9892 73.3979 18.6989 73.9977 18.509C74.5975 18.3191 75.2513 18.2233 75.9591 18.2233C76.6653 18.2233 77.316 18.3191 77.9097 18.509C78.5033 18.7005 79.0137 18.9892 79.4408 19.3766C79.868 19.7641 80.201 20.2549 80.4416 20.846C80.6821 21.4371 80.8024 22.1406 80.8024 22.9566V43.2099C80.8024 44.0258 80.6821 44.7278 80.4416 45.3204C80.201 45.9115 79.868 46.4023 79.4408 46.7898C79.0137 47.1772 78.5033 47.4675 77.9097 47.6574C77.316 47.8473 76.6653 47.9431 75.9591 47.9431C75.2513 47.9431 74.5975 47.8473 73.9977 47.6574C73.3979 47.4675 72.8828 47.1772 72.4573 46.7898C72.0301 46.4023 71.6971 45.9115 71.4565 45.3204C71.216 44.7293 71.0957 44.0258 71.0957 43.2099V22.9566ZM71.216 11.8339C71.216 11.1896 71.3393 10.5818 71.586 10.009C71.8328 9.43765 72.1689 8.94382 72.5976 8.53051C73.0247 8.11569 73.5243 7.78748 74.0979 7.54437C74.6715 7.30125 75.2914 7.17969 75.9591 7.17969C76.6129 7.17969 77.2296 7.30125 77.811 7.54437C78.3907 7.78748 78.8919 8.11569 79.3113 8.53051C79.7323 8.94534 80.0653 9.43765 80.312 10.009C80.5588 10.5803 80.6821 11.1896 80.6821 11.8339C80.6821 12.4918 80.5588 13.1027 80.312 13.6679C80.0653 14.2332 79.7323 14.727 79.3113 15.1464C78.8903 15.5673 78.3907 15.8985 77.811 16.1432C77.2312 16.3863 76.6129 16.5078 75.9591 16.5078C75.2914 16.5078 74.6715 16.3863 74.0979 16.1432C73.5243 15.9 73.0232 15.5688 72.5976 15.1464C72.1705 14.7255 71.8343 14.2332 71.586 13.6679C71.3378 13.1042 71.216 12.4918 71.216 11.8339Z" fill="white"/>
<path d="M84.1621 11.8924C84.1621 11.0779 84.2824 10.3744 84.5229 9.78182C84.7635 9.19074 85.0965 8.69994 85.5237 8.31247C85.9508 7.925 86.4643 7.63478 87.0641 7.44484C87.6639 7.25491 88.3177 7.15918 89.0255 7.15918C89.7317 7.15918 90.3824 7.25491 90.9761 7.44484C91.5697 7.6363 92.0801 7.925 92.5072 8.31247C92.9343 8.69994 93.2674 9.19074 93.508 9.78182C93.7485 10.3729 93.8688 11.0764 93.8688 11.8924V43.2091C93.8688 44.0251 93.7485 44.7271 93.508 45.3197C93.2674 45.9107 92.9343 46.4015 92.5072 46.789C92.0801 47.1765 91.5697 47.4667 90.9761 47.6566C90.3824 47.8466 89.7317 47.9423 89.0255 47.9423C88.3177 47.9423 87.6639 47.8466 87.0641 47.6566C86.4643 47.4667 85.9492 47.1765 85.5237 46.789C85.0965 46.4015 84.7635 45.9107 84.5229 45.3197C84.2824 44.7286 84.1621 44.0251 84.1621 43.2091V11.8924Z" fill="white"/>
<path d="M97.0645 22.9566C97.0645 22.1421 97.1847 21.4386 97.4253 20.846C97.6658 20.2549 97.9989 19.7641 98.426 19.3766C98.8531 18.9892 99.3666 18.6989 99.9664 18.509C100.566 18.3191 101.22 18.2233 101.928 18.2233C102.634 18.2233 103.285 18.3191 103.878 18.509C104.472 18.7005 104.982 18.9892 105.41 19.3766C105.837 19.7641 106.17 20.2549 106.41 20.846C106.651 21.4371 106.771 22.1406 106.771 22.9566V43.2099C106.771 44.0258 106.651 44.7278 106.41 45.3204C106.17 45.9115 105.837 46.4023 105.41 46.7898C104.982 47.1772 104.472 47.4675 103.878 47.6574C103.285 47.8473 102.634 47.9431 101.928 47.9431C101.22 47.9431 100.566 47.8473 99.9664 47.6574C99.3666 47.4675 98.8516 47.1772 98.426 46.7898C97.9989 46.4023 97.6658 45.9115 97.4253 45.3204C97.1847 44.7293 97.0645 44.0258 97.0645 43.2099V22.9566ZM97.1847 11.8339C97.1847 11.1896 97.3081 10.5818 97.5548 10.009C97.8015 9.43765 98.1377 8.94382 98.5663 8.53051C98.9935 8.11569 99.4931 7.78748 100.067 7.54437C100.64 7.30125 101.26 7.17969 101.928 7.17969C102.582 7.17969 103.198 7.30125 103.78 7.54437C104.359 7.78748 104.861 8.11569 105.28 8.53051C105.701 8.94534 106.034 9.43765 106.281 10.009C106.528 10.5803 106.651 11.1896 106.651 11.8339C106.651 12.4918 106.528 13.1027 106.281 13.6679C106.034 14.2332 105.701 14.727 105.28 15.1464C104.859 15.5673 104.359 15.8985 103.78 16.1432C103.2 16.3863 102.582 16.5078 101.928 16.5078C101.26 16.5078 100.64 16.3863 100.067 16.1432C99.4931 15.9 98.9919 15.5688 98.5663 15.1464C98.1392 14.7255 97.8031 14.2332 97.5548 13.6679C97.3065 13.1042 97.1847 12.4918 97.1847 11.8339Z" fill="white"/>
<path d="M26.3319 24.7434C25.0613 22.6693 23.0398 20.539 19.8325 19.2231C16.3446 17.7918 12.445 17.7751 8.94008 19.1639C4.82766 20.7928 -0.135931 24.6675 0.00284605 33.871C0.00284605 33.871 0.27269 40.338 5.96255 44.3661C8.26162 45.9935 11.0002 46.8414 13.7957 46.9067C16.1164 46.9614 19.2296 46.6894 20.9551 45.1016C20.9551 46.6712 22.2025 47.9445 23.7399 47.9445H25.6612C27.1985 47.9445 28.446 46.6712 28.446 45.1016V32.426C28.446 29.7152 27.7397 27.0424 26.3319 24.7434ZM14.2229 38.434C10.9832 38.434 8.35722 35.7537 8.35722 32.4473C8.35722 29.1408 10.9832 26.4605 14.2229 26.4605C17.4625 26.4605 20.0885 29.1408 20.0885 32.4473C20.0885 35.7537 17.4625 38.434 14.2229 38.434Z" fill="white"/>
<path d="M194.626 41.2358C194.626 41.9651 194.399 42.7203 193.944 43.4998C193.489 44.2808 192.752 44.9904 191.733 45.6301C190.714 46.2698 189.389 46.7941 187.76 47.2043C186.13 47.6131 184.141 47.8182 181.791 47.8182C179.532 47.8182 177.45 47.5234 175.549 46.9354C173.646 46.3473 172.004 45.4478 170.621 44.2383C169.237 43.0288 168.156 41.4941 167.378 39.6327C166.599 37.7713 166.209 35.5605 166.209 33.0017C166.209 30.455 166.585 28.2517 167.339 26.3903C168.092 24.529 169.14 22.9928 170.485 21.7848C171.828 20.5753 173.428 19.6803 175.287 19.0983C177.143 18.5164 179.169 18.2246 181.363 18.2246C183.246 18.2246 184.915 18.4328 186.369 18.8491C187.823 19.2655 189.095 19.8186 190.187 20.5099C191.277 21.2013 192.193 21.9884 192.933 22.8712C193.673 23.754 194.273 24.6627 194.734 25.5972C195.195 26.5317 195.526 27.4494 195.727 28.352C195.927 29.2546 196.029 30.0706 196.029 30.7984C196.029 31.5019 195.947 32.1355 195.785 32.6993C195.624 33.263 195.369 33.7416 195.025 34.1382C194.681 34.5348 194.247 34.8418 193.721 35.059C193.195 35.2763 192.569 35.3857 191.841 35.3857H175.422C175.578 36.4099 175.86 37.2562 176.269 37.9294C176.677 38.601 177.174 39.1419 177.758 39.5507C178.343 39.9609 178.989 40.2481 179.697 40.4137C180.404 40.5809 181.141 40.6629 181.908 40.6629C183.168 40.6629 184.339 40.4684 185.423 40.0779C186.507 39.6874 187.439 39.1981 188.219 38.6101C188.634 38.3032 189.083 38.0752 189.564 37.9294C190.043 37.782 190.53 37.709 191.024 37.709C191.503 37.709 191.961 37.7926 192.396 37.9582C192.831 38.1254 193.215 38.3579 193.545 38.6587C193.877 38.9596 194.139 39.3273 194.334 39.7619C194.529 40.1934 194.626 40.6857 194.626 41.2358ZM181.382 24.5578C180.668 24.5578 179.976 24.6566 179.308 24.8557C178.639 25.0547 178.033 25.3769 177.487 25.8251C176.941 26.2734 176.486 26.8584 176.124 27.5816C175.76 28.3049 175.527 29.1847 175.422 30.221H187.439C187.386 29.1467 187.189 28.2472 186.845 27.5239C186.501 26.8006 186.056 26.2186 185.511 25.778C184.965 25.3373 184.336 25.0228 183.622 24.8374C182.907 24.6505 182.161 24.5578 181.382 24.5578Z" fill="white"/>
<path d="M222.667 17.9727C221.342 17.9772 221.063 19.1989 221.063 19.1989L219.168 25.2009C218.767 26.9392 217.41 26.7584 217.41 26.7584H212.295C212.295 26.7584 209.867 26.7584 208.451 26.7584C207.036 26.7584 206.837 27.8661 206.837 27.8661L205.426 32.0143C205.426 32.0143 204.216 35.5729 204.206 35.5987C204.007 36.1838 203.765 36.5727 203.534 36.8326C203.118 37.2474 202.607 37.3249 202.359 37.3355H200.382L200.39 37.3386C200.006 37.3188 198.956 37.369 198.714 38.4736C198.714 38.4736 198.496 39.3337 199.289 39.9323C199.403 40.0129 199.73 40.2058 200.25 40.2058C202.102 40.2058 204.038 40.2043 204.629 40.2028C205.858 40.1998 206.165 39.2577 206.165 39.2577L206.447 38.4144L208.567 32.0857L209.045 30.671C209.457 29.4539 210.675 29.5907 210.675 29.5907H216.684C216.684 29.5907 218.263 29.5968 219.495 29.5907C220.725 29.5846 221.031 28.7398 221.031 28.7398L221.234 28.1229L223.458 21.4417L223.906 20.062C224.414 17.9879 222.667 17.9727 222.667 17.9727Z" fill="#FFE598"/>
<path fill-rule="evenodd" clip-rule="evenodd" d="M198.584 2.30878C199.027 0.933642 200.322 -0.000976562 201.787 -0.000976562H209.347C211.641 -0.000976562 213.262 2.21592 212.532 4.3614C212.532 4.36151 212.532 4.36162 212.532 4.36173L210.354 10.7692H217.184C219.403 10.7692 220.97 12.9099 220.273 14.985L217.799 22.3333C217.356 23.6441 216.113 24.5299 214.71 24.5299H205.772L202.91 32.9002C202.43 34.2985 201.1 35.2408 199.601 35.2408H198.137C197.528 35.2408 197.034 34.754 197.034 34.1535C197.034 33.553 197.528 33.0662 198.137 33.0662H199.601C200.152 33.0662 200.642 32.7201 200.819 32.204C200.819 32.2039 200.819 32.2038 200.819 32.2037L203.933 23.0954C204.085 22.6531 204.505 22.3553 204.979 22.3553H214.71C215.161 22.3553 215.562 22.0711 215.705 21.6467L218.178 14.3015C218.403 13.6324 217.897 12.9438 217.184 12.9438H208.82C208.465 12.9438 208.132 12.7755 207.924 12.4916C207.717 12.2076 207.661 11.8427 207.774 11.511L210.44 3.67047L210.44 3.67013C210.69 2.93476 210.135 2.17369 209.347 2.17369H201.787C201.285 2.17369 200.84 2.49408 200.688 2.96654C200.688 2.96661 200.688 2.96667 200.688 2.96673L197.701 12.2445C197.556 12.6962 197.13 13.0031 196.649 13.0031H186.835C186.365 13.0031 185.949 13.3011 185.804 13.7397L185.269 15.355L184.97 16.3217C184.792 16.8962 184.175 17.2199 183.593 17.0448C183.01 16.8697 182.681 16.2621 182.859 15.6877L183.161 14.7106C183.163 14.7038 183.165 14.697 183.168 14.6902L183.705 13.0669C183.705 13.0668 183.705 13.0666 183.706 13.0664C184.147 11.7306 185.411 10.8284 186.835 10.8284H195.842L198.584 2.30878Z" fill="white"/>
<path d="M148.535 12.3695C148.535 10.5704 148.98 9.25152 149.873 8.41428C150.764 7.57704 152.032 7.15918 153.674 7.15918C155.302 7.15918 156.565 7.57704 157.464 8.41428C158.363 9.25152 158.813 10.5704 158.813 12.3695V16.89H162.338C162.819 16.89 163.248 16.9812 163.623 17.162C163.997 17.3428 164.314 17.5844 164.568 17.8837C164.822 18.1846 165.014 18.5402 165.142 18.9504C165.27 19.3622 165.333 19.7983 165.333 20.2587C165.333 20.7191 165.27 21.1582 165.142 21.5776C165.014 21.9955 164.822 22.3617 164.568 22.6762C164.314 22.9907 163.997 23.2384 163.623 23.4192C163.248 23.6001 162.819 23.6912 162.338 23.6912H158.813V38.1097C158.813 38.8208 159.011 39.3511 159.407 39.7006C159.803 40.0501 160.298 40.2233 160.893 40.2233C161.883 40.2233 162.708 40.3038 163.367 40.4634C164.025 40.6244 164.545 40.8615 164.927 41.1745C165.31 41.489 165.578 41.8689 165.734 42.3141C165.889 42.7608 165.967 43.2699 165.967 43.8412C165.967 44.3441 165.86 44.8349 165.647 45.3166C165.435 45.7983 165.046 46.2238 164.48 46.593C163.914 46.9622 163.135 47.26 162.144 47.4819C161.153 47.7053 159.871 47.8162 158.3 47.8162C155.157 47.8162 152.743 47.0412 151.059 45.4929C149.373 43.9445 148.532 41.6075 148.532 38.482V23.6867H146.619C146.138 23.6867 145.71 23.5955 145.335 23.4147C144.96 23.2339 144.644 22.9862 144.39 22.6717C144.135 22.3571 143.944 21.9909 143.816 21.5731C143.688 21.1537 143.625 20.7146 143.625 20.2541C143.625 19.7937 143.688 19.3576 143.816 18.9459C143.944 18.5341 144.135 18.1785 144.39 17.8792C144.644 17.5798 144.96 17.3382 145.335 17.1574C145.71 16.9766 146.138 16.8854 146.619 16.8854H148.532V12.3695H148.535Z" fill="white"/>
<path d="M145.073 36.4625C144.139 31.3145 141.024 27.8698 136.006 26.1345C135.576 25.9856 135.326 25.7699 135.211 25.3474C136.068 25.2973 136.916 25.3839 137.761 25.2775C140.079 24.9858 141.517 22.3054 140.447 20.2602C139.738 18.9048 138.594 18.2438 137.067 18.2317C135.362 18.218 133.656 18.2256 131.951 18.2271V18.2332H117.672C117.096 18.2803 115.831 18.5295 115.005 19.7739C115.006 19.7739 115.009 19.7739 115.011 19.7739C114.177 21.1309 114.194 22.4558 115.003 23.7915C114.312 23.7915 113.671 23.7748 113.033 23.7945C111.449 23.8431 110.286 24.5649 109.653 26.0008C109.042 27.3851 109.393 28.8559 110.544 29.95C110.732 30.1278 110.658 30.1901 110.516 30.3253C108.989 31.7703 108.98 34.0465 110.502 35.4764C110.692 35.6541 110.693 35.7271 110.502 35.9064C108.993 37.3225 108.986 39.6185 110.49 41.0286C110.696 41.2216 110.686 41.2975 110.487 41.4844C109.105 42.7806 108.996 44.8592 110.218 46.2982C110.983 47.1992 111.979 47.5882 113.15 47.5897C116.064 47.5913 118.978 47.5928 121.893 47.5852C122.118 47.5852 122.283 47.6414 122.442 47.801C123.202 48.5683 124.042 49.2399 124.974 49.7976C127.974 51.5936 131.208 52.1604 134.639 51.4796C137.499 50.9113 139.926 49.5332 141.863 47.3709C144.671 44.2362 145.816 40.5545 145.073 36.4625ZM117.782 19.7891C117.911 19.7739 118.042 19.7739 118.173 19.7739C124.457 19.7739 130.739 19.7724 137.022 19.7739C138.094 19.7739 138.879 20.3043 139.152 21.1992C139.531 22.4437 138.649 23.6942 137.322 23.7793C136.918 23.8052 136.512 23.79 136.107 23.79C133.258 23.79 130.412 23.79 127.564 23.79C124.429 23.79 121.294 23.7915 118.16 23.7884C117.113 23.7869 116.331 23.2597 116.055 22.3814C115.674 21.1734 116.497 19.9335 117.782 19.7891ZM111.073 26.6633C111.364 25.8777 111.964 25.4538 112.8 25.3505C112.954 25.3307 113.113 25.3368 113.268 25.3368C119.472 25.3368 125.674 25.3368 131.877 25.3353C132.165 25.3353 132.451 25.3459 132.731 25.4173C132.794 25.4477 132.858 25.4796 133.03 25.5632C132.747 25.5556 132.577 25.5784 132.413 25.5024C128.813 25.4371 125.654 26.5539 122.981 28.9502C122.667 29.2328 122.36 29.3695 121.916 29.3665C118.964 29.3437 116.013 29.3619 113.062 29.3513C111.554 29.3452 110.573 28.0111 111.073 26.6633ZM112.949 30.9073C115.666 30.8875 118.383 30.9012 121.183 30.9012C120.562 31.7688 120.055 32.6182 119.677 33.536C119.52 33.9158 119.378 34.3018 119.248 34.6923C119.19 34.867 119.103 34.9233 118.915 34.9217C116.941 34.9142 114.968 34.9293 112.996 34.9111C111.83 34.9005 110.942 34.0146 110.94 32.9099C110.937 31.822 111.81 30.9164 112.949 30.9073ZM112.861 36.4792C114.766 36.4412 116.672 36.4686 118.577 36.4564C118.852 36.4549 118.79 36.6099 118.769 36.7512C118.671 37.3879 118.627 38.0291 118.622 38.6734C118.618 39.266 118.685 39.854 118.749 40.4709C116.753 40.4709 114.795 40.4998 112.84 40.4603C111.767 40.439 110.943 39.5243 110.939 38.4804C110.934 37.4228 111.77 36.502 112.861 36.4792ZM120.63 46.0414C118.123 46.0444 115.615 46.0459 113.108 46.0414C112.092 46.0399 111.313 45.5065 111.037 44.6434C110.647 43.4203 111.487 42.0968 112.792 42.0542C114.827 41.9874 116.866 42.0299 118.903 42.0238C119.025 42.0238 119.088 42.0573 119.123 42.1788C119.52 43.5403 120.122 44.8091 120.92 45.9836C120.809 46.0763 120.715 46.0414 120.63 46.0414ZM131.942 50.2139C125.47 50.2002 120.178 44.9762 120.192 38.6141C120.206 32.2383 125.51 27.0219 131.963 27.0356C138.435 27.0493 143.727 32.2748 143.713 38.6354C143.699 45.0142 138.398 50.2276 131.942 50.2139Z" fill="white"/>
<path fill-rule="evenodd" clip-rule="evenodd" d="M133.086 17.9843C134.413 17.982 135.741 17.9798 137.069 17.9905C137.868 17.9968 138.58 18.1735 139.19 18.5358C139.8 18.8983 140.292 19.4384 140.665 20.15C141.814 22.3454 140.277 25.2052 137.792 25.5181C137.352 25.5734 136.915 25.5782 136.489 25.5761C136.415 25.5757 136.342 25.5751 136.269 25.5746C136.036 25.5728 135.807 25.571 135.579 25.5759C135.604 25.611 135.632 25.6424 135.661 25.6709C135.758 25.7633 135.892 25.8394 136.087 25.907C141.184 27.6696 144.363 31.1824 145.314 36.4205C146.071 40.5898 144.901 44.3451 142.046 47.5316C140.074 49.7334 137.599 51.1386 134.687 51.7174C131.195 52.4102 127.898 51.8322 124.846 50.0049C123.895 49.4359 123.039 48.7513 122.265 47.9705C122.16 47.8646 122.062 47.8277 121.892 47.8277C118.978 47.8353 116.064 47.8338 113.151 47.8322H113.149C111.916 47.8306 110.847 47.4174 110.03 46.4541C108.725 44.9181 108.841 42.6948 110.317 41.3099C110.341 41.2875 110.359 41.2697 110.372 41.2556C110.359 41.2423 110.343 41.2255 110.32 41.2048L110.32 41.2044C108.714 39.6982 108.722 37.2425 110.332 35.7319C110.349 35.7166 110.362 35.7034 110.373 35.692C110.362 35.6806 110.349 35.6674 110.332 35.6522L110.332 35.6521C108.708 34.1256 108.72 31.6905 110.345 30.1517C110.349 30.1485 110.352 30.1454 110.355 30.1425C110.362 30.1362 110.368 30.1305 110.373 30.125L110.373 30.1246C109.156 28.9677 108.771 27.3909 109.427 25.905C109.76 25.1498 110.238 24.5709 110.851 24.1757C111.464 23.781 112.196 23.5789 113.024 23.5534C113.464 23.5398 113.908 23.5433 114.362 23.5469C114.437 23.5475 114.513 23.5481 114.588 23.5486C114.298 22.9701 114.146 22.3849 114.145 21.7918C114.143 21.0882 114.355 20.3902 114.772 19.6958C114.779 19.6772 114.788 19.6591 114.799 19.6422C115.685 18.3074 117.041 18.0426 117.652 17.9928C117.658 17.9922 117.665 17.992 117.672 17.992H131.896C131.913 17.988 131.931 17.9859 131.95 17.9859C132.329 17.9856 132.707 17.9849 133.086 17.9843ZM132.006 18.4696C131.988 18.4736 131.969 18.4757 131.95 18.4757H117.682C117.142 18.5215 116 18.754 115.238 19.8647C115.233 19.8768 115.227 19.8886 115.22 19.8999C114.822 20.547 114.634 21.1746 114.636 21.7909C114.637 22.4075 114.827 23.0305 115.213 23.6681C115.259 23.7428 115.26 23.8358 115.216 23.9115C115.173 23.9872 115.091 24.034 115.003 24.034C114.777 24.034 114.559 24.0323 114.346 24.0306C113.897 24.027 113.469 24.0236 113.04 24.0369C112.284 24.0601 111.643 24.2432 111.12 24.5805C110.598 24.9173 110.178 25.4173 109.877 26.0979M132.006 18.4696C132.367 18.4692 132.728 18.4686 133.089 18.468C134.415 18.4658 135.74 18.4635 137.065 18.4742C137.792 18.48 138.415 18.6399 138.936 18.95C139.458 19.2598 139.892 19.7279 140.229 20.3717C141.22 22.2667 139.879 24.7677 137.729 25.0383C137.324 25.0893 136.915 25.0944 136.491 25.0924C136.42 25.092 136.349 25.0915 136.277 25.0909C135.924 25.0882 135.56 25.0853 135.196 25.1067C135.122 25.111 135.054 25.1477 135.011 25.2068C134.968 25.2658 134.954 25.3408 134.973 25.4111C135.04 25.6567 135.151 25.8569 135.319 26.0175C135.484 26.1758 135.69 26.2821 135.924 26.3634C140.863 28.0712 143.913 31.4478 144.831 36.5057C145.56 40.5205 144.44 44.1286 141.678 47.2115C139.777 49.3342 137.397 50.6853 134.59 51.2432C131.22 51.9118 128.049 51.3563 125.1 49.5915C124.188 49.0452 123.364 48.3866 122.617 47.6326L122.616 47.6322C122.404 47.4194 122.173 47.344 121.892 47.344L121.892 47.344C118.978 47.3516 116.064 47.3501 113.15 47.3485C112.041 47.3471 111.118 46.9824 110.406 46.1437C109.266 44.8017 109.368 42.8676 110.655 41.6602L110.656 41.6601C110.708 41.6109 110.761 41.5575 110.801 41.5004C110.843 41.4416 110.883 41.3629 110.885 41.2656C110.888 41.1672 110.851 41.0853 110.809 41.0222C110.768 40.9619 110.714 40.906 110.659 40.854C109.258 39.5401 109.262 37.4039 110.671 36.0822C110.722 36.034 110.774 35.9813 110.813 35.9242C110.853 35.8649 110.89 35.7864 110.89 35.6907C110.89 35.5951 110.852 35.517 110.812 35.4583C110.773 35.4017 110.722 35.3495 110.671 35.3019C110.671 35.3019 110.671 35.3019 110.671 35.3019L110.502 35.477L110.671 35.3018C110.671 35.3018 110.671 35.3018 110.671 35.3019M110.714 29.7765C109.63 28.7454 109.311 27.3804 109.877 26.0979L110.714 29.7765ZM110.714 29.7765C110.714 29.7765 110.714 29.7766 110.714 29.7766L110.543 29.9506L110.713 29.7761C110.713 29.7762 110.713 29.7763 110.714 29.7765ZM124.456 20.0161C122.362 20.0163 120.268 20.0165 118.173 20.0165C118.039 20.0165 117.923 20.0167 117.81 20.03L117.809 20.0301C116.676 20.1574 115.954 21.2483 116.289 22.3103L116.289 22.3105C116.528 23.0732 117.204 23.5458 118.159 23.5472C120.511 23.5495 122.862 23.5492 125.213 23.5489C125.997 23.5488 126.78 23.5488 127.564 23.5488H136.106C136.221 23.5488 136.334 23.5499 136.446 23.551C136.738 23.554 137.02 23.5568 137.305 23.5386C138.476 23.4636 139.25 22.3639 138.916 21.2695C138.679 20.4923 138.003 20.0165 137.022 20.0165C132.833 20.0154 128.645 20.0158 124.456 20.0161ZM137.022 19.5327C138.185 19.5327 139.078 20.1175 139.386 21.1303C139.812 22.5248 138.821 23.9262 137.337 24.0213C137.032 24.0408 136.723 24.0377 136.424 24.0346C136.316 24.0335 136.21 24.0325 136.106 24.0325H127.564C126.78 24.0325 125.997 24.0326 125.214 24.0327C122.862 24.0329 120.511 24.0332 118.159 24.0309C117.021 24.0293 116.132 23.4475 115.82 22.4538M137.022 19.5327C132.833 19.5317 128.645 19.5321 124.456 19.5324L137.022 19.5327ZM124.456 19.5324C122.362 19.5326 120.267 19.5327 118.173 19.5327L124.456 19.5324ZM118.173 19.5327L118.167 19.5327L118.173 19.5327ZM118.167 19.5327C118.04 19.5327 117.897 19.5327 117.753 19.5496L118.167 19.5327ZM117.753 19.5496C116.317 19.7113 115.393 21.0998 115.82 22.4536L117.753 19.5496ZM113.275 25.5793H113.268C113.234 25.5793 113.201 25.5791 113.17 25.5789C113.045 25.578 112.937 25.5773 112.831 25.591L112.83 25.5911C112.446 25.6385 112.13 25.7577 111.88 25.9445C111.631 26.1305 111.434 26.3928 111.303 26.7469M113.275 25.5793C118.518 25.5793 123.761 25.5793 129.004 25.5784L113.275 25.5793ZM132.361 25.7441C132.465 25.7834 132.567 25.796 132.664 25.8007C132.72 25.8034 132.779 25.8036 132.836 25.8037L132.847 25.8037C132.903 25.8038 132.96 25.8039 133.023 25.8056C133.138 25.8087 133.24 25.7322 133.268 25.6218C133.296 25.5114 133.242 25.3969 133.138 25.3468C133.042 25.3005 132.977 25.2686 132.928 25.2444C132.892 25.2266 132.864 25.2129 132.838 25.2006C132.823 25.1935 132.808 25.1879 132.792 25.1838C132.48 25.1043 132.168 25.0941 131.876 25.0941C125.678 25.0956 119.481 25.0956 113.282 25.0956H113.268C113.242 25.0956 113.215 25.0954 113.187 25.0951C113.06 25.0941 112.911 25.0929 112.768 25.1112C112.316 25.1671 111.915 25.3116 111.583 25.5589C111.251 25.8071 111.002 26.1495 110.842 26.5809C110.28 28.097 111.394 29.5871 113.06 29.5938C114.282 29.5982 115.502 29.5977 116.721 29.5971C118.452 29.5964 120.181 29.5956 121.913 29.609L121.914 29.609C122.427 29.6125 122.792 29.4479 123.146 29.1297C125.758 26.7872 128.84 25.6904 132.361 25.7441ZM129.004 25.5784C126.725 26.0675 124.656 27.1219 122.816 28.7719L122.815 28.7721C122.541 29.0189 122.292 29.1278 121.917 29.1253C120.185 29.1119 118.45 29.1127 116.716 29.1134C115.497 29.1139 114.279 29.1145 113.062 29.1101C111.712 29.1046 110.866 27.9264 111.303 26.7469M131.962 27.2781C125.645 27.2647 120.45 32.3725 120.437 38.6153C120.423 44.8432 125.605 49.9593 131.942 49.9727C138.262 49.9861 143.454 44.8813 143.467 38.6355C143.481 32.409 138.299 27.2915 131.962 27.2781ZM119.946 38.6142C119.96 32.1054 125.374 26.7804 131.963 26.7944C138.57 26.8083 143.972 32.1418 143.958 38.6365C143.944 45.1484 138.533 50.4704 131.941 50.4564C125.334 50.4424 119.932 45.1105 119.946 38.6142ZM118.747 31.1414C116.794 31.1385 114.873 31.1358 112.951 31.1498L112.949 30.9079L112.951 31.1497C112.951 31.1497 112.951 31.1498 112.951 31.1498C111.949 31.1579 111.182 31.9521 111.185 32.9099L111.185 32.9103C111.186 33.8795 111.963 34.6605 112.997 34.6699C114.169 34.6807 115.34 34.6798 116.512 34.6788C117.312 34.6781 118.113 34.6774 118.916 34.6805L118.917 34.6805C118.961 34.6809 118.982 34.6767 118.989 34.6745C118.988 34.6757 118.988 34.6765 118.987 34.677C118.988 34.6765 118.989 34.6757 118.99 34.6748C118.991 34.6741 118.992 34.6736 118.993 34.6734C118.992 34.6736 118.991 34.674 118.989 34.6745C118.994 34.6682 119.003 34.6521 119.015 34.6173C119.015 34.6175 119.014 34.6176 119.014 34.6178L119.248 34.6929L119.015 34.6171C119.015 34.6171 119.015 34.6172 119.015 34.6173C119.146 34.2222 119.289 33.8309 119.449 33.4453C119.449 33.4455 119.449 33.4456 119.449 33.4457L119.676 33.5366L119.449 33.4453C119.449 33.4453 119.449 33.4454 119.449 33.4453M118.747 31.1414C119.399 31.1423 120.055 31.1432 120.716 31.1436L118.747 31.1414ZM118.75 30.6576C119.555 30.6588 120.366 30.66 121.183 30.66C121.275 30.66 121.359 30.7103 121.401 30.7905C121.443 30.8708 121.436 30.9675 121.383 31.0413C120.769 31.8989 120.272 32.7318 119.904 33.6275L119.904 33.628C119.749 34.0019 119.609 34.3824 119.481 34.7681L119.481 34.7688C119.444 34.8791 119.385 34.9942 119.269 35.0727C119.156 35.1499 119.027 35.1651 118.913 35.1642C118.116 35.1612 117.317 35.1618 116.517 35.1625C115.342 35.1635 114.166 35.1644 112.993 35.1536C111.695 35.1418 110.696 34.1511 110.694 32.9111C110.694 32.911 110.694 32.911 110.694 32.9109L110.94 32.9106L110.694 32.9113C110.694 32.9112 110.694 32.9111 110.694 32.9111C110.691 31.6931 111.669 30.6763 112.947 30.6661L112.947 30.666C114.871 30.6521 116.796 30.6548 118.75 30.6576ZM118.528 36.6992C117.823 36.7035 117.119 36.7025 116.418 36.7015C115.232 36.6998 114.051 36.698 112.866 36.7217L112.861 36.4799L112.866 36.7217C112.866 36.7217 112.866 36.7217 112.866 36.7217C111.919 36.7416 111.179 37.5438 111.183 38.48C111.188 39.4062 111.918 40.2008 112.844 40.2191C114.213 40.2468 115.583 40.2409 116.968 40.2348C117.469 40.2327 117.971 40.2305 118.476 40.2299C118.48 40.2601 118.483 40.2904 118.486 40.3207C118.492 40.379 118.498 40.4374 118.504 40.4959L118.748 40.4716V40.2297C118.657 40.2297 118.567 40.2298 118.476 40.2299C118.423 39.709 118.372 39.1926 118.376 38.6723C118.376 38.6723 118.376 38.6724 118.376 38.6723M119.011 36.7878C119.013 36.776 119.015 36.764 119.018 36.7482L119.019 36.7411C119.022 36.7233 119.026 36.7006 119.029 36.6771C119.035 36.6343 119.042 36.5617 119.02 36.4849C118.994 36.3947 118.933 36.316 118.838 36.2677C118.756 36.2256 118.662 36.2147 118.576 36.2152H118.575C117.861 36.2198 117.145 36.2188 116.428 36.2177C115.237 36.216 114.045 36.2144 112.856 36.2381L112.856 36.2381C111.619 36.2639 110.687 37.3032 110.693 38.4821C110.698 39.6437 111.615 40.6786 112.834 40.7027C112.834 40.7027 112.834 40.7027 112.834 40.7027M117.015 42.2627C115.607 42.2566 114.204 42.2505 112.8 42.2966C111.677 42.3332 110.923 43.4816 111.271 44.5716C111.511 45.3224 112.186 45.7988 113.108 45.8002C115.574 45.8047 118.039 45.8033 120.505 45.8003C119.801 44.7011 119.261 43.5226 118.893 42.2664C118.265 42.2682 117.64 42.2655 117.015 42.2627ZM117.028 41.779C117.654 41.7818 118.279 41.7845 118.902 41.7826L118.902 41.7826C118.98 41.7826 119.086 41.7918 119.182 41.8558C119.284 41.9234 119.332 42.0228 119.359 42.1127C119.748 43.4495 120.34 44.6956 121.123 45.8498C121.193 45.9521 121.173 46.0893 121.078 46.1688C120.886 46.3289 120.655 46.2883 120.631 46.2842C120.63 46.284 120.629 46.2839 120.629 46.2839C118.122 46.2869 115.615 46.2884 113.107 46.2839M117.028 41.779C115.615 41.7729 114.197 41.7667 112.783 41.8132L117.028 41.779Z" fill="white"/>
<path d="M135.236 36.0957C135.241 36.5485 134.954 36.8904 134.539 36.9299C134.069 36.974 133.731 36.7005 133.679 36.1854C133.608 35.4925 133.235 35.0457 132.584 34.8239C131.903 34.5914 131.261 34.6917 130.715 35.1627C130.279 35.5396 130.099 36.0258 130.302 36.588C130.54 37.2399 131.058 37.559 131.728 37.6197C132.529 37.6927 133.306 37.8021 133.97 38.305C134.919 39.0222 135.383 39.9567 135.182 41.1298C134.977 42.3271 134.209 43.0899 133.065 43.4865C132.826 43.5686 132.721 43.6491 132.718 43.9256C132.714 44.3876 132.375 44.6899 131.954 44.693C131.517 44.6975 131.178 44.3815 131.176 43.8983C131.175 43.6354 131.07 43.5594 130.843 43.4911C129.636 43.1249 128.754 42.0536 128.669 40.8791C128.628 40.3184 128.9 39.9476 129.38 39.9111C129.844 39.8747 130.157 40.1725 130.228 40.721C130.325 41.4565 130.85 41.9852 131.596 42.1022C132.439 42.2344 133.238 41.8652 133.545 41.2042C133.938 40.3548 133.332 39.4036 132.294 39.2319C131.832 39.1544 131.363 39.1681 130.903 39.0283C129.599 38.6302 128.672 37.4784 128.658 36.1838C128.644 34.9439 129.54 33.7602 130.82 33.3682C131.093 33.2846 131.176 33.1692 131.175 32.8911C131.172 32.417 131.516 32.0827 131.941 32.0782C132.362 32.0736 132.738 32.4125 132.718 32.8789C132.703 33.2299 132.874 33.2953 133.142 33.3819C134.327 33.7618 135.226 34.9424 135.236 36.0957Z" fill="white"/>
<path fill-rule="evenodd" clip-rule="evenodd" d="M132.473 32.8682C132.487 32.547 132.231 32.3166 131.944 32.3197L131.944 32.3197C131.661 32.3227 131.418 32.5414 131.421 32.8892L131.421 32.8894C131.421 33.0463 131.4 33.208 131.299 33.3446C131.198 33.4815 131.048 33.5515 130.893 33.5989C129.711 33.9611 128.891 35.0544 128.904 36.1808L128.904 36.1809C128.917 37.3613 129.765 38.427 130.976 38.7969C131.182 38.8596 131.395 38.8893 131.623 38.9126C131.678 38.9182 131.734 38.9234 131.792 38.9288C131.967 38.9452 132.154 38.9626 132.336 38.9932C133.494 39.185 134.244 40.2771 133.768 41.3043L133.768 41.3045C133.407 42.0835 132.487 42.4865 131.558 42.3408L131.558 42.3408C130.705 42.2071 130.096 41.5945 129.985 40.7519L129.985 40.7513C129.954 40.5132 129.875 40.3593 129.781 40.2701C129.693 40.1857 129.57 40.1385 129.4 40.1519L129.399 40.152C129.224 40.1653 129.105 40.2358 129.028 40.34C128.948 40.4492 128.896 40.6208 128.914 40.8611L128.914 40.8616C128.992 41.9312 129.8 42.9212 130.916 43.2596C131.034 43.2951 131.175 43.3466 131.278 43.4603C131.389 43.5829 131.421 43.7363 131.422 43.8966L131.422 43.8972C131.423 44.2515 131.657 44.4539 131.951 44.4508L131.952 44.4508C132.242 44.4487 132.47 44.2497 132.473 43.9229L132.473 43.9226C132.475 43.7573 132.508 43.6017 132.617 43.4754C132.72 43.3578 132.861 43.3002 132.984 43.258C134.059 42.8856 134.753 42.1858 134.941 41.0893C135.124 40.0186 134.71 39.1686 133.821 38.4966L133.821 38.4965C133.218 38.0399 132.506 37.9331 131.706 37.8603C131.338 37.8269 130.997 37.7213 130.712 37.5229C130.424 37.3232 130.206 37.0385 130.071 36.6694L130.071 36.669C129.953 36.3435 129.943 36.0279 130.034 35.7348C130.125 35.4439 130.309 35.1917 130.554 34.9805L130.554 34.9805C131.171 34.448 131.906 34.3363 132.665 34.595C133.025 34.7179 133.323 34.9083 133.541 35.1766C133.759 35.4451 133.884 35.7763 133.924 36.1607L133.924 36.1609C133.945 36.3716 134.021 36.5058 134.113 36.5838C134.204 36.6608 134.336 36.7057 134.516 36.6888C134.786 36.6631 134.995 36.4442 134.991 36.0978L134.991 36.0976C134.982 35.0543 134.157 33.9612 133.067 33.6115L133.066 33.6114C133.063 33.6104 133.06 33.6093 133.057 33.6083C132.936 33.5694 132.773 33.5168 132.654 33.4029C132.511 33.2669 132.464 33.084 132.473 32.8684M131.939 31.836C132.494 31.83 132.99 32.2772 132.964 32.8888L132.964 32.8891C132.958 33.0208 132.987 33.0482 132.995 33.055C132.995 33.0552 132.995 33.0554 132.995 33.0555C133.021 33.0807 133.072 33.1043 133.219 33.1516C134.497 33.5618 135.47 34.8299 135.482 36.0931L135.237 36.0954L135.482 36.0929C135.482 36.093 135.482 36.0931 135.482 36.0931C135.488 36.6522 135.123 37.117 134.563 37.1703L134.563 37.1703C134.273 37.1975 134.001 37.1276 133.793 36.9502C133.585 36.7737 133.466 36.5136 133.435 36.2093L133.679 36.185L133.435 36.2092C133.435 36.2092 133.435 36.2092 133.435 36.2093C133.404 35.9008 133.307 35.6623 133.158 35.4787C133.008 35.2949 132.795 35.1511 132.504 35.0521L132.504 35.0521C131.9 34.8459 131.352 34.9347 130.877 35.3443L130.716 35.1624L130.877 35.3444C130.877 35.3443 130.877 35.3443 130.877 35.3443C130.686 35.5099 130.562 35.6893 130.504 35.8763C130.446 36.061 130.448 36.2696 130.534 36.5062C130.533 36.5062 130.533 36.5061 130.533 36.506L130.302 36.5877L130.534 36.5064C130.534 36.5064 130.534 36.5063 130.534 36.5062C130.637 36.7889 130.796 36.9896 130.995 37.1275C131.195 37.2669 131.449 37.3512 131.751 37.3786L131.751 37.3786C132.552 37.4516 133.394 37.5636 134.12 38.1129C134.12 38.1129 134.12 38.1129 134.12 38.1128L133.971 38.3047L134.12 38.1129C135.128 38.8753 135.643 39.8942 135.425 41.1696L135.425 41.1697C135.202 42.4678 134.361 43.2936 133.147 43.7143L133.146 43.7146C133.03 43.7544 133.001 43.7781 132.99 43.7902L132.99 43.7903C132.986 43.7945 132.965 43.8184 132.964 43.9278C132.964 43.9278 132.964 43.9277 132.964 43.9277L132.719 43.9253L132.964 43.928C132.964 43.9279 132.964 43.9279 132.964 43.9278M131.956 44.9345C131.956 44.9345 131.956 44.9345 131.956 44.9345L131.954 44.6926L131.956 44.9345C131.956 44.9345 131.956 44.9345 131.956 44.9345ZM131.956 44.9345C131.378 44.9403 130.933 44.5108 130.931 43.8991C130.931 43.8992 130.931 43.8993 130.931 43.8994L131.177 43.898L130.931 43.8987C130.931 43.8988 130.931 43.8989 130.931 43.8991C130.931 43.8482 130.926 43.8184 130.921 43.8018C130.916 43.7878 130.913 43.7838 130.912 43.7826L130.912 43.7825C130.905 43.7756 130.881 43.7548 130.772 43.722L130.771 43.7219C129.473 43.3279 128.517 42.1755 128.425 40.8961C128.425 40.8962 128.425 40.8963 128.425 40.8964L128.669 40.8787L128.425 40.8959C128.425 40.896 128.425 40.896 128.425 40.8961C128.401 40.5758 128.465 40.2818 128.631 40.0563C128.8 39.826 129.057 39.6929 129.361 39.6697C129.361 39.6697 129.361 39.6697 129.361 39.6697L129.38 39.9108L129.361 39.6697C129.361 39.6697 129.361 39.6697 129.361 39.6697C129.655 39.6467 129.921 39.7302 130.123 39.9226C130.319 40.1103 130.432 40.3794 130.472 40.6898C130.472 40.6897 130.472 40.6896 130.472 40.6895L130.228 40.7207L130.472 40.6901C130.472 40.69 130.472 40.6899 130.472 40.6898C130.555 41.3179 130.995 41.7628 131.635 41.8631L131.596 42.1019L131.635 41.8631C131.635 41.8631 131.635 41.8631 131.635 41.8631C132.392 41.9818 133.07 41.6462 133.322 41.1033C133.322 41.1034 133.322 41.1034 133.322 41.1035L133.545 41.2039L133.322 41.1033C133.633 40.4318 133.171 39.6219 132.254 39.4701L132.254 39.47C132.091 39.4428 131.93 39.4277 131.76 39.4118C131.699 39.4061 131.637 39.4003 131.573 39.3937C131.336 39.3696 131.085 39.3362 130.831 39.2591L130.831 39.259C129.434 38.8326 128.428 37.5949 128.413 36.1862L128.659 36.1835L128.413 36.1861C128.398 34.8327 129.371 33.5587 130.748 33.1369L130.748 33.1369C130.866 33.1007 130.894 33.0712 130.902 33.0599C130.911 33.0484 130.93 33.0133 130.93 32.8922C130.926 32.292 131.371 31.8421 131.939 31.836" fill="white"/>
<path d="M142.139 38.0541C142.129 40.0462 141.755 41.6067 141.002 43.0761C140.779 43.5137 140.371 43.6945 139.975 43.5334C139.55 43.3602 139.366 42.9074 139.583 42.4379C139.963 41.6189 140.296 40.7892 140.436 39.8912C140.922 36.7702 139.927 34.1734 137.59 32.0521C137.061 31.572 136.455 31.1921 135.81 30.8745C135.462 30.7013 135.209 30.4506 135.251 30.0312C135.303 29.4903 135.863 29.1909 136.395 29.4386C137.454 29.9309 138.395 30.598 139.209 31.4261C141.119 33.368 142.081 35.702 142.139 38.0541Z" fill="white"/>
<path fill-rule="evenodd" clip-rule="evenodd" d="M136.29 29.6572C135.897 29.4742 135.53 29.6959 135.495 30.0541L135.495 30.0547C135.48 30.2066 135.517 30.3146 135.583 30.4023C135.652 30.4963 135.765 30.5809 135.921 30.6583C136.58 30.9831 137.206 31.3749 137.756 31.8742C140.151 34.0472 141.178 36.7233 140.679 39.9278L140.679 39.9279C140.534 40.8595 140.189 41.7136 139.807 42.5382C139.722 42.7219 139.722 42.8864 139.769 43.0135C139.816 43.1403 139.917 43.2477 140.069 43.3098C140.206 43.3655 140.337 43.3604 140.453 43.3087C140.572 43.2558 140.692 43.146 140.783 42.9672L140.783 42.967C141.516 41.5358 141.884 40.0139 141.893 38.0564C141.837 35.7688 140.901 33.4935 139.033 31.5944L139.033 31.5943C138.239 30.7868 137.322 30.137 136.29 29.6573L136.29 29.6572ZM136.5 29.2198C135.829 28.9076 135.077 29.2844 135.007 30.0079C134.98 30.2753 135.048 30.5022 135.186 30.688C135.32 30.8674 135.508 30.9947 135.7 31.0904L135.701 31.0908C136.331 31.4012 136.916 31.769 137.424 32.2299L137.424 32.23C139.704 34.2993 140.667 36.8168 140.194 39.8543C140.059 40.7187 139.737 41.524 139.361 42.3374L139.361 42.3374C139.228 42.6232 139.211 42.9199 139.308 43.1798C139.405 43.4402 139.609 43.6457 139.882 43.7569L139.882 43.7569C140.141 43.8623 140.412 43.8575 140.655 43.7496C140.894 43.6431 141.089 43.4437 141.222 43.1849C141.993 41.6783 142.375 40.0801 142.384 38.0552C142.384 38.0529 142.384 38.0506 142.384 38.0483C142.326 35.6327 141.337 33.2415 139.385 31.2578C138.551 30.4091 137.586 29.7248 136.5 29.2199" fill="white"/>
<path d="M123.641 33.3633C124.169 33.3678 124.519 33.8404 124.364 34.3464C124.215 34.8387 123.947 35.2824 123.78 35.7702C122.347 39.9609 124.454 44.2702 128.044 46.0434C128.332 46.1863 128.585 46.3671 128.639 46.7074C128.685 46.9961 128.592 47.2438 128.361 47.4277C128.088 47.6434 127.786 47.6465 127.481 47.4991C126.201 46.8761 125.084 46.0389 124.173 44.957C122.277 42.7051 121.501 40.1113 121.843 37.2091C121.982 36.0285 122.357 34.9071 122.907 33.8465C123.061 33.5471 123.288 33.3633 123.641 33.3633Z" fill="white"/>
<path fill-rule="evenodd" clip-rule="evenodd" d="M123.34 33.69C123.262 33.7443 123.19 33.8298 123.125 33.9556L123.125 33.9563C122.586 34.9948 122.221 36.0885 122.086 37.2366L122.086 37.2367C121.752 40.0736 122.508 42.6014 124.361 44.8022C125.249 45.8556 126.337 46.6724 127.588 47.2817C127.712 47.3414 127.821 47.3639 127.917 47.3579C128.01 47.352 128.106 47.3182 128.207 47.2389C128.367 47.1111 128.429 46.9507 128.396 46.7448L128.396 46.7445C128.361 46.527 128.207 46.3949 127.933 46.2593C124.24 44.4351 122.073 40.004 123.547 35.6926C123.628 35.4545 123.732 35.2273 123.83 35.0129C123.838 34.9953 123.846 34.9778 123.854 34.9604C123.961 34.7264 124.059 34.5057 124.129 34.2767L124.129 34.2765C124.237 33.9217 123.999 33.6085 123.639 33.6048C123.51 33.605 123.415 33.6379 123.34 33.69ZM123.058 33.2946C123.222 33.1801 123.418 33.1211 123.641 33.1211H123.643V33.1211C124.337 33.1271 124.799 33.7587 124.599 34.4154C124.519 34.6787 124.408 34.9261 124.302 35.1589C124.294 35.1752 124.287 35.1914 124.279 35.2075C124.179 35.4263 124.085 35.6326 124.012 35.8469L124.012 35.847C122.621 39.9172 124.666 44.1046 128.153 45.8269L128.153 45.827C128.456 45.977 128.807 46.2065 128.881 46.6696C128.94 47.041 128.816 47.3757 128.515 47.6156L128.514 47.616C128.342 47.7524 128.15 47.8279 127.948 47.8406C127.748 47.8532 127.554 47.8036 127.372 47.716L127.371 47.7156C126.063 47.0789 124.919 46.2213 123.984 45.1111L123.984 45.1111C122.044 42.8082 121.249 40.1485 121.599 37.181M123.058 33.2946C122.896 33.407 122.777 33.5629 122.688 33.7363L123.058 33.2946ZM122.688 33.7363C122.126 34.8189 121.741 35.9678 121.599 37.1809L122.688 33.7363Z" fill="white"/>
<path d="M133.951 29.2088C133.945 29.6297 133.567 29.9807 133.129 29.9685C132.707 29.9563 132.352 29.6129 132.346 29.2072C132.34 28.7924 132.716 28.4262 133.151 28.4277C133.587 28.4277 133.957 28.7879 133.951 29.2088Z" fill="white"/>
<path fill-rule="evenodd" clip-rule="evenodd" d="M132.591 29.2043C132.587 28.9309 132.845 28.6692 133.149 28.6702L132.591 29.2043ZM132.591 29.2043C132.595 29.4741 132.838 29.7187 133.135 29.7274C133.441 29.7359 133.701 29.4874 133.705 29.2059C133.709 28.9257 133.455 28.6702 133.15 28.6702H133.149V28.6702M133.15 28.1865C132.585 28.1848 132.091 28.6553 132.1 29.2114L132.1 29.2115C132.108 29.7531 132.574 30.1952 133.121 30.2109L133.122 30.2109C133.692 30.2267 134.188 29.7731 134.196 29.2129C134.204 28.6515 133.718 28.1868 133.15 28.1865Z" fill="white"/>
<path d="M131.553 47.7578C131.542 48.1772 131.156 48.5282 130.725 48.513C130.284 48.4963 129.929 48.1286 129.949 47.7077C129.969 47.302 130.333 46.9692 130.755 46.9707C131.189 46.9737 131.562 47.3415 131.553 47.7578Z" fill="white"/>
<path fill-rule="evenodd" clip-rule="evenodd" d="M130.755 47.2122C130.458 47.2114 130.208 47.4476 130.195 47.7189C130.181 47.9978 130.422 48.2589 130.734 48.271C131.033 48.2813 131.3 48.0325 131.308 47.7517C131.314 47.477 131.057 47.2146 130.755 47.2122ZM129.704 47.6956C129.731 47.1556 130.208 46.7265 130.757 46.7285L130.758 46.7285V46.7285C131.321 46.7325 131.811 47.2052 131.798 47.7628L131.798 47.7636C131.784 48.3213 131.281 48.7742 130.716 48.7544L130.716 48.7543C130.146 48.7328 129.677 48.2587 129.704 47.696L129.704 47.6956Z" fill="white"/>
</g>
<defs>
<clipPath id="clip0">
<rect width="224" height="52" fill="white"/>
</clipPath>
</defs>
</svg>
