<svg width="244" height="57" viewBox="0 0 244 57" fill="none" xmlns="http://www.w3.org/2000/svg">
<path d="M34.8357 17.5593C34.8357 14.3624 35.6988 11.9672 37.4249 10.377C39.1511 8.7851 41.623 7.98999 44.8423 7.98999C46.2634 7.98999 47.4701 8.07577 48.4639 8.24733C49.4577 8.41889 50.2688 8.66798 50.9006 8.99625C51.5307 9.32452 51.9916 9.73197 52.2815 10.217C52.5714 10.7019 52.7172 11.2513 52.7172 11.8649C52.7172 13.1648 52.2597 14.1133 51.3464 14.7121C50.433 15.3109 49.1208 15.6112 47.4097 15.6112C46.8148 15.6112 46.3221 15.786 45.93 16.1357C45.5378 16.4854 45.3417 17.01 45.3417 17.7094V20.2135H48.9314C49.4241 20.2135 49.8666 20.3026 50.2587 20.4808C50.6509 20.6589 50.976 20.9064 51.2374 21.2198C51.4989 21.5332 51.6983 21.9011 51.8357 22.3217C51.9731 22.7424 52.0419 23.196 52.0419 23.681C52.0419 24.166 51.9731 24.6196 51.8357 25.0403C51.6983 25.4609 51.4989 25.8288 51.2374 26.1422C50.976 26.4556 50.6492 26.7031 50.2587 26.8812C49.8666 27.0594 49.4241 27.1485 48.9314 27.1485H45.3417V46.8876C45.3417 48.7286 44.8859 50.045 43.9709 50.8384C43.0558 51.6319 41.7587 52.0261 40.0778 52.0261C38.3952 52.0261 37.1015 51.6302 36.1948 50.8384C35.2882 50.0466 34.8357 48.7286 34.8357 46.8876V27.1501H33.6827C33.1749 27.1501 32.7291 27.061 32.3453 26.8829C31.9616 26.7047 31.6381 26.4589 31.3767 26.1439C31.1152 25.8304 30.9158 25.4626 30.7784 25.0419C30.641 24.6213 30.5723 24.1676 30.5723 23.6827C30.5723 23.1977 30.641 22.744 30.7784 22.3234C30.9158 21.9027 31.1152 21.5349 31.3767 21.2215C31.6381 20.908 31.9599 20.6606 32.3453 20.4824C32.7291 20.3043 33.1749 20.2152 33.6827 20.2152H34.8357V17.5593Z" fill="#FE976E"/>
<path d="M57.6752 17.5593C57.6752 14.3624 58.5383 11.9672 60.2628 10.377C61.9889 8.7851 64.4609 7.98999 67.6802 7.98999C69.1014 7.98999 70.308 8.07577 71.3018 8.24733C72.2956 8.41889 73.1067 8.66798 73.7385 8.99625C74.3686 9.32452 74.8295 9.73197 75.1194 10.217C75.4093 10.7019 75.5551 11.2513 75.5551 11.8649C75.5551 13.1648 75.0976 14.1133 74.1843 14.7121C73.2709 15.3109 71.9587 15.6112 70.2477 15.6112C69.6527 15.6112 69.16 15.786 68.7679 16.1357C68.3757 16.4854 68.1796 17.01 68.1796 17.7094V20.2135H71.7693C72.262 20.2135 72.7045 20.3026 73.0966 20.4808C73.4888 20.6589 73.8139 20.9064 74.0753 21.2198C74.3368 21.5332 74.5362 21.9011 74.6736 22.3217C74.811 22.7424 74.8798 23.196 74.8798 23.681C74.8798 24.166 74.811 24.6196 74.6736 25.0403C74.5362 25.4609 74.3368 25.8288 74.0753 26.1422C73.8139 26.4556 73.4871 26.7031 73.0966 26.8812C72.7045 27.0594 72.262 27.1485 71.7693 27.1485H68.1796V46.8876C68.1796 48.7286 67.7238 50.045 66.8088 50.8384C65.8937 51.6319 64.5966 52.0261 62.9157 52.0261C61.2331 52.0261 59.9394 51.6302 59.0327 50.8384C58.1261 50.0466 57.6736 48.7286 57.6736 46.8876V27.1501H56.5206C56.0128 27.1501 55.567 27.061 55.1832 26.8829C54.7995 26.7047 54.476 26.4589 54.2146 26.1439C53.9531 25.8304 53.7537 25.4626 53.6163 25.0419C53.4789 24.6213 53.4102 24.1676 53.4102 23.6827C53.4102 23.1977 53.4789 22.744 53.6163 22.3234C53.7537 21.9027 53.9531 21.5349 54.2146 21.2215C54.476 20.908 54.7978 20.6606 55.1832 20.4824C55.567 20.3043 56.0128 20.2152 56.5206 20.2152H57.6736V17.5593H57.6752Z" fill="#FE976E"/>
<path d="M77.269 24.9231C77.269 24.0389 77.3998 23.2752 77.6612 22.6318C77.9226 21.9901 78.2846 21.4573 78.7488 21.0366C79.2131 20.616 79.7711 20.3009 80.423 20.0947C81.0749 19.8885 81.7855 19.7846 82.5547 19.7846C83.3223 19.7846 84.0295 19.8885 84.6747 20.0947C85.3199 20.3026 85.8746 20.616 86.3389 21.0366C86.8031 21.4573 87.1651 21.9901 87.4265 22.6318C87.6879 23.2735 87.8187 24.0373 87.8187 24.9231V46.9107C87.8187 47.7965 87.6879 48.5586 87.4265 49.202C87.1651 49.8437 86.8031 50.3765 86.3389 50.7971C85.8746 51.2178 85.3199 51.5329 84.6747 51.7391C84.0295 51.9453 83.3223 52.0492 82.5547 52.0492C81.7855 52.0492 81.0749 51.9453 80.423 51.7391C79.7711 51.5329 79.2114 51.2178 78.7488 50.7971C78.2846 50.3765 77.9226 49.8437 77.6612 49.202C77.3998 48.5603 77.269 47.7965 77.269 46.9107V24.9231ZM77.3998 12.848C77.3998 12.1486 77.5338 11.4887 77.802 10.8668C78.0701 10.2466 78.4354 9.71048 78.9013 9.26178C79.3656 8.81144 79.9085 8.45513 80.532 8.19119C81.1554 7.92726 81.8291 7.79529 82.5547 7.79529C83.2653 7.79529 83.9357 7.92726 84.5675 8.19119C85.1976 8.45513 85.7422 8.81144 86.1981 9.26178C86.6556 9.71213 87.0176 10.2466 87.2857 10.8668C87.5539 11.4871 87.6879 12.1486 87.6879 12.848C87.6879 13.5623 87.5539 14.2254 87.2857 14.8391C87.0176 15.4527 86.6556 15.9889 86.1981 16.4442C85.7406 16.9011 85.1976 17.2607 84.5675 17.5263C83.9373 17.7902 83.2653 17.9222 82.5547 17.9222C81.8291 17.9222 81.1554 17.7902 80.532 17.5263C79.9085 17.2624 79.3639 16.9027 78.9013 16.4442C78.4371 15.9872 78.0718 15.4527 77.802 14.8391C77.5322 14.2271 77.3998 13.5623 77.3998 12.848Z" fill="#FE976E"/>
<path d="M91.4707 12.9124C91.4707 12.0282 91.6014 11.2645 91.8629 10.6211C92.1243 9.97944 92.4863 9.44662 92.9505 9.02597C93.4147 8.60533 93.9728 8.29025 94.6247 8.08405C95.2766 7.87785 95.9872 7.77393 96.7564 7.77393C97.5239 7.77393 98.2312 7.87785 98.8764 8.08405C99.5216 8.2919 100.076 8.60533 100.541 9.02597C101.005 9.44662 101.367 9.97944 101.628 10.6211C101.89 11.2628 102.02 12.0266 102.02 12.9124V46.9107C102.02 47.7966 101.89 48.5587 101.628 49.202C101.367 49.8437 101.005 50.3766 100.541 50.7972C100.076 51.2178 99.5216 51.5329 98.8764 51.7391C98.2312 51.9453 97.5239 52.0492 96.7564 52.0492C95.9872 52.0492 95.2766 51.9453 94.6247 51.7391C93.9728 51.5329 93.413 51.2178 92.9505 50.7972C92.4863 50.3766 92.1243 49.8437 91.8629 49.202C91.6014 48.5603 91.4707 47.7966 91.4707 46.9107V12.9124Z" fill="#FE976E"/>
<path d="M105.494 24.9231C105.494 24.0389 105.625 23.2752 105.886 22.6318C106.148 21.9901 106.51 21.4573 106.974 21.0366C107.438 20.616 107.996 20.3009 108.648 20.0947C109.3 19.8885 110.011 19.7846 110.78 19.7846C111.547 19.7846 112.255 19.8885 112.9 20.0947C113.545 20.3026 114.1 20.616 114.564 21.0366C115.028 21.4573 115.39 21.9901 115.652 22.6318C115.913 23.2735 116.044 24.0373 116.044 24.9231V46.9107C116.044 47.7965 115.913 48.5586 115.652 49.202C115.39 49.8437 115.028 50.3765 114.564 50.7971C114.1 51.2178 113.545 51.5329 112.9 51.7391C112.255 51.9453 111.547 52.0492 110.78 52.0492C110.011 52.0492 109.3 51.9453 108.648 51.7391C107.996 51.5329 107.436 51.2178 106.974 50.7971C106.51 50.3765 106.148 49.8437 105.886 49.202C105.625 48.5603 105.494 47.7965 105.494 46.9107V24.9231ZM105.625 12.848C105.625 12.1486 105.759 11.4887 106.027 10.8668C106.295 10.2466 106.661 9.71048 107.126 9.26178C107.591 8.81144 108.134 8.45513 108.757 8.19119C109.38 7.92726 110.054 7.79529 110.78 7.79529C111.49 7.79529 112.161 7.92726 112.793 8.19119C113.423 8.45513 113.967 8.81144 114.423 9.26178C114.881 9.71213 115.243 10.2466 115.511 10.8668C115.779 11.4871 115.913 12.1486 115.913 12.848C115.913 13.5623 115.779 14.2254 115.511 14.8391C115.243 15.4527 114.881 15.9889 114.423 16.4442C113.966 16.9011 113.423 17.2607 112.793 17.5263C112.162 17.7902 111.49 17.9222 110.78 17.9222C110.054 17.9222 109.38 17.7902 108.757 17.5263C108.134 17.2624 107.589 16.9027 107.126 16.4442C106.662 15.9872 106.297 15.4527 106.027 14.8391C105.757 14.2271 105.625 13.5623 105.625 12.848Z" fill="#FE976E"/>
<path d="M28.6186 26.8632C27.2377 24.6115 25.0406 22.2988 21.5548 20.8702C17.764 19.3163 13.5257 19.2981 9.71644 20.8059C5.2469 22.5742 -0.147735 26.7807 0.00309321 36.7724C0.00309321 36.7724 0.29637 43.7931 6.48034 48.1662C8.97906 49.9329 11.9554 50.8534 14.9938 50.9243C17.516 50.9837 20.8995 50.6884 22.7748 48.9646C22.7748 50.6686 24.1306 52.051 25.8015 52.051H27.8896C29.5604 52.051 30.9162 50.6686 30.9162 48.9646V35.2036C30.9162 32.2607 30.1487 29.359 28.6186 26.8632ZM15.458 41.7261C11.937 41.7261 9.08296 38.8162 9.08296 35.2267C9.08296 31.6371 11.937 28.7273 15.458 28.7273C18.979 28.7273 21.833 31.6371 21.833 35.2267C21.833 38.8162 18.979 41.7261 15.458 41.7261Z" fill="#FE976E"/>
<path d="M211.527 44.7678C211.527 45.5596 211.28 46.3795 210.786 47.2257C210.292 48.0736 209.491 48.844 208.383 49.5385C207.275 50.233 205.835 50.8021 204.064 51.2475C202.293 51.6912 200.131 51.9139 197.577 51.9139C195.122 51.9139 192.859 51.5939 190.793 50.9555C188.725 50.3171 186.94 49.3405 185.437 48.0274C183.934 46.7144 182.759 45.0483 181.912 43.0275C181.066 41.0067 180.642 38.6066 180.642 35.8286C180.642 33.0639 181.051 30.672 181.87 28.6512C182.688 26.6305 183.828 24.9627 185.289 23.6513C186.749 22.3382 188.489 21.3666 190.508 20.7348C192.526 20.103 194.728 19.7863 197.113 19.7863C199.159 19.7863 200.972 20.0123 202.552 20.4642C204.133 20.9162 205.515 21.5167 206.702 22.2673C207.887 23.0178 208.882 23.8723 209.687 24.8307C210.491 25.7892 211.143 26.7756 211.644 27.7901C212.145 28.8046 212.505 29.801 212.723 30.7809C212.941 31.7607 213.052 32.6466 213.052 33.4367C213.052 34.2005 212.963 34.8884 212.787 35.5004C212.611 36.1124 212.335 36.632 211.961 37.0625C211.587 37.4931 211.114 37.8263 210.543 38.0622C209.972 38.2981 209.291 38.4169 208.5 38.4169H190.655C190.825 39.5287 191.131 40.4475 191.575 41.1783C192.02 41.9074 192.559 42.4947 193.194 42.9384C193.83 43.3838 194.532 43.6956 195.301 43.8754C196.07 44.0569 196.871 44.1459 197.704 44.1459C199.073 44.1459 200.347 43.9348 201.525 43.5108C202.703 43.0869 203.716 42.5557 204.563 41.9173C205.014 41.5841 205.502 41.3367 206.025 41.1783C206.546 41.0183 207.076 40.9391 207.612 40.9391C208.133 40.9391 208.631 41.0298 209.103 41.2096C209.576 41.3911 209.993 41.6435 210.352 41.9701C210.712 42.2967 210.997 42.6959 211.21 43.1677C211.421 43.6362 211.527 44.1707 211.527 44.7678ZM197.133 26.6618C196.357 26.6618 195.604 26.769 194.879 26.9851C194.151 27.2012 193.493 27.5509 192.899 28.0376C192.306 28.5242 191.812 29.1593 191.418 29.9445C191.022 30.7297 190.769 31.6848 190.655 32.8099H203.715C203.659 31.6436 203.444 30.667 203.07 29.8818C202.697 29.0966 202.212 28.4648 201.621 27.9864C201.027 27.508 200.344 27.1666 199.568 26.9653C198.79 26.7624 197.979 26.6618 197.133 26.6618Z" fill="#FE976E"/>
<path d="M242.003 19.5125C240.564 19.5174 240.26 20.8437 240.26 20.8437L238.201 27.3596C237.765 29.2468 236.29 29.0505 236.29 29.0505H230.731C230.731 29.0505 228.092 29.0505 226.553 29.0505C225.015 29.0505 224.799 30.253 224.799 30.253L223.265 34.7564C223.265 34.7564 221.95 38.6198 221.94 38.6478C221.723 39.2829 221.46 39.7052 221.209 39.9873C220.756 40.4377 220.202 40.5218 219.932 40.5333H217.783L217.792 40.5366C217.374 40.5152 216.233 40.5696 215.97 41.7689C215.97 41.7689 215.734 42.7026 216.595 43.3525C216.719 43.4399 217.075 43.6494 217.639 43.6494C219.652 43.6494 221.757 43.6478 222.399 43.6461C223.734 43.6428 224.068 42.6201 224.068 42.6201L224.375 41.7046L226.679 34.834L227.198 33.2982C227.646 31.9768 228.97 32.1253 228.97 32.1253H235.501C235.501 32.1253 237.217 32.1319 238.556 32.1253C239.893 32.1187 240.225 31.2015 240.225 31.2015L240.446 30.5318L242.863 23.2785L243.35 21.7807C243.902 19.5289 242.003 19.5125 242.003 19.5125Z" fill="#FFE598"/>
<path fill-rule="evenodd" clip-rule="evenodd" d="M215.83 2.50753C216.311 1.01465 217.719 0 219.311 0H227.527C230.02 0 231.782 2.40672 230.989 4.73592C230.989 4.73604 230.989 4.73616 230.989 4.73628L228.621 11.6924H236.044C238.456 11.6924 240.159 14.0164 239.402 16.2692L236.713 24.2467C236.232 25.6698 234.881 26.6315 233.356 26.6315H223.641L220.53 35.7185C220.009 37.2365 218.564 38.2595 216.934 38.2595H215.344C214.682 38.2595 214.145 37.731 214.145 37.0791C214.145 36.4271 214.682 35.8986 215.344 35.8986H216.934C217.533 35.8986 218.066 35.523 218.258 34.9627C218.258 34.9626 218.258 34.9624 218.258 34.9623L221.643 25.0741C221.808 24.594 222.265 24.2706 222.78 24.2706H233.356C233.846 24.2706 234.281 23.9621 234.437 23.5013L237.125 15.5271C237.369 14.8008 236.82 14.0533 236.044 14.0533H226.954C226.568 14.0533 226.206 13.8705 225.981 13.5623C225.756 13.254 225.695 12.8579 225.817 12.4978L228.715 3.98583L228.715 3.98546C228.987 3.18712 228.383 2.36088 227.527 2.36088H219.311C218.764 2.36088 218.281 2.70871 218.116 3.22162C218.116 3.22169 218.116 3.22176 218.116 3.22183L214.87 13.2941C214.712 13.7844 214.249 14.1176 213.727 14.1176H203.06C202.549 14.1176 202.097 14.4411 201.939 14.9173L201.358 16.6709L201.033 17.7204C200.84 18.344 200.169 18.6955 199.536 18.5054C198.902 18.3153 198.545 17.6557 198.738 17.0321L199.067 15.9714C199.069 15.9639 199.072 15.9565 199.074 15.9492L199.659 14.1869C199.659 14.1867 199.659 14.1865 199.659 14.1863C200.138 12.7361 201.513 11.7567 203.06 11.7567H212.849L215.83 2.50753Z" fill="#FE976E"/>
<path d="M161.434 13.4304C161.434 11.4773 161.918 10.0454 162.888 9.1365C163.857 8.22757 165.234 7.77393 167.019 7.77393C168.789 7.77393 170.162 8.22757 171.139 9.1365C172.116 10.0454 172.605 11.4773 172.605 13.4304V18.338H176.436C176.959 18.338 177.425 18.437 177.832 18.6333C178.239 18.8296 178.583 19.0918 178.859 19.4168C179.136 19.7434 179.344 20.1294 179.483 20.5748C179.622 21.0219 179.691 21.4953 179.691 21.9951C179.691 22.495 179.622 22.9717 179.483 23.427C179.344 23.8806 179.136 24.2782 178.859 24.6197C178.583 24.9611 178.239 25.23 177.832 25.4263C177.425 25.6226 176.959 25.7216 176.436 25.7216H172.605V41.3747C172.605 42.1467 172.819 42.7224 173.25 43.1018C173.681 43.4812 174.219 43.6693 174.866 43.6693C175.942 43.6693 176.838 43.7567 177.554 43.9299C178.269 44.1048 178.834 44.3621 179.25 44.7019C179.665 45.0434 179.957 45.4558 180.126 45.9391C180.296 46.4241 180.379 46.9767 180.379 47.597C180.379 48.143 180.264 48.6758 180.032 49.1987C179.801 49.7217 179.379 50.1836 178.764 50.5844C178.149 50.9853 177.302 51.3086 176.225 51.5494C175.147 51.7919 173.755 51.9123 172.047 51.9123C168.631 51.9123 166.007 51.071 164.177 49.3901C162.345 47.7091 161.43 45.1721 161.43 41.7788V25.7167H159.352C158.829 25.7167 158.363 25.6177 157.956 25.4214C157.549 25.2251 157.205 24.9562 156.929 24.6147C156.652 24.2732 156.445 23.8757 156.305 23.4221C156.166 22.9668 156.098 22.49 156.098 21.9902C156.098 21.4904 156.166 21.0169 156.305 20.5699C156.445 20.1228 156.652 19.7368 156.929 19.4119C157.205 19.0869 157.549 18.8246 157.956 18.6283C158.363 18.432 158.829 18.333 159.352 18.333H161.43V13.4304H161.434Z" fill="#FE976E"/>
<path d="M157.671 39.5865C156.655 33.9977 153.27 30.258 147.817 28.3742C147.349 28.2125 147.078 27.9783 146.952 27.5197C147.884 27.4653 148.805 27.5593 149.724 27.4438C152.243 27.1271 153.806 24.2172 152.643 21.9968C151.872 20.5254 150.629 19.8078 148.97 19.7946C147.116 19.7798 145.263 19.788 143.409 19.7897V19.7963H127.891C127.264 19.8474 125.89 20.1179 124.991 21.469C124.993 21.469 124.996 21.469 124.998 21.469C124.091 22.942 124.11 24.3805 124.99 25.8305C124.239 25.8305 123.542 25.8124 122.848 25.8338C121.127 25.8866 119.863 26.6702 119.174 28.229C118.511 29.7318 118.893 31.3286 120.143 32.5163C120.347 32.7093 120.267 32.777 120.113 32.9238C118.454 34.4926 118.444 36.9637 120.098 38.5159C120.304 38.7089 120.306 38.7881 120.098 38.9828C118.457 40.5202 118.45 43.0128 120.084 44.5436C120.309 44.7531 120.297 44.8356 120.081 45.0385C118.579 46.4456 118.46 48.7022 119.789 50.2644C120.621 51.2426 121.703 51.6649 122.975 51.6666C126.143 51.6682 129.31 51.6699 132.477 51.6616C132.722 51.6616 132.901 51.7227 133.074 51.8959C133.9 52.7289 134.814 53.458 135.826 54.0634C139.087 56.0133 142.601 56.6286 146.33 55.8896C149.439 55.2726 152.077 53.7764 154.182 51.429C157.233 48.0259 158.479 44.0289 157.671 39.5865ZM128.01 21.4855C128.15 21.469 128.293 21.469 128.435 21.469C135.264 21.469 142.092 21.4673 148.921 21.469C150.086 21.469 150.939 22.0447 151.235 23.0163C151.648 24.3673 150.689 25.7249 149.246 25.8173C148.807 25.8453 148.366 25.8289 147.926 25.8289C144.83 25.8289 141.737 25.8289 138.641 25.8289C135.234 25.8289 131.827 25.8305 128.42 25.8272C127.282 25.8256 126.433 25.2531 126.133 24.2997C125.719 22.9882 126.614 21.6422 128.01 21.4855ZM120.718 28.9483C121.035 28.0954 121.686 27.6352 122.595 27.523C122.762 27.5015 122.935 27.5081 123.104 27.5081C129.846 27.5081 136.587 27.5081 143.329 27.5065C143.642 27.5065 143.952 27.518 144.257 27.5956C144.326 27.6286 144.395 27.6632 144.582 27.7539C144.274 27.7457 144.09 27.7704 143.912 27.688C139.999 27.617 136.565 28.8295 133.661 31.4309C133.319 31.7377 132.985 31.8862 132.503 31.8829C129.295 31.8582 126.087 31.8779 122.88 31.8664C121.241 31.8598 120.175 30.4114 120.718 28.9483ZM122.757 33.5556C125.71 33.5341 128.663 33.549 131.706 33.549C131.031 34.4909 130.48 35.413 130.069 36.4094C129.898 36.8218 129.744 37.2408 129.603 37.6648C129.54 37.8545 129.446 37.9155 129.241 37.9138C127.096 37.9056 124.951 37.9221 122.808 37.9023C121.541 37.8907 120.575 36.929 120.574 35.7298C120.57 34.5487 121.519 33.5655 122.757 33.5556ZM122.662 39.6047C124.732 39.5634 126.803 39.5931 128.874 39.5799C129.173 39.5783 129.106 39.7465 129.082 39.9C128.976 40.5911 128.928 41.2873 128.923 41.9867C128.918 42.6301 128.992 43.2684 129.06 43.9382C126.892 43.9382 124.763 43.9695 122.638 43.9266C121.472 43.9035 120.577 42.9105 120.572 41.7772C120.567 40.6291 121.475 39.6294 122.662 39.6047ZM131.105 49.9856C128.38 49.9889 125.655 49.9906 122.93 49.9856C121.826 49.984 120.979 49.405 120.679 48.468C120.255 47.1401 121.169 45.7033 122.586 45.6571C124.799 45.5845 127.014 45.6307 129.228 45.6241C129.36 45.6241 129.429 45.6604 129.468 45.7923C129.898 47.2704 130.553 48.6478 131.42 49.9229C131.299 50.0236 131.197 49.9856 131.105 49.9856ZM143.399 54.5154C136.365 54.5006 130.614 48.8293 130.629 41.9224C130.644 35.0006 136.409 29.3376 143.423 29.3524C150.456 29.3672 156.208 35.0402 156.193 41.9455C156.178 48.8705 150.416 54.5303 143.399 54.5154Z" fill="#FE976E"/>
<path fill-rule="evenodd" clip-rule="evenodd" d="M144.643 19.5253C146.085 19.5229 147.529 19.5205 148.972 19.532C149.84 19.539 150.615 19.7307 151.277 20.124C151.94 20.5176 152.475 21.104 152.88 21.8765C154.129 24.2599 152.459 27.3646 149.757 27.7043C149.28 27.7643 148.804 27.7695 148.341 27.7672C148.261 27.7668 148.181 27.7662 148.102 27.7656C147.849 27.7637 147.601 27.7617 147.352 27.767C147.38 27.8052 147.41 27.8392 147.442 27.8701C147.547 27.9705 147.693 28.053 147.905 28.1264C153.444 30.04 156.9 33.8536 157.933 39.5403C158.756 44.0665 157.484 48.1434 154.381 51.6028C152.238 53.9931 149.548 55.5187 146.383 56.1469C142.588 56.8991 139.005 56.2716 135.687 54.2879C134.654 53.6701 133.724 52.9269 132.883 52.0793C132.768 51.9642 132.661 51.9242 132.477 51.9242C129.31 51.9324 126.143 51.9308 122.977 51.9291H122.975C121.635 51.9274 120.473 51.4787 119.585 50.433C118.166 48.7655 118.293 46.3517 119.897 44.8483C119.923 44.824 119.942 44.8047 119.956 44.7893C119.943 44.7749 119.925 44.7567 119.901 44.7342L119.9 44.7338C118.155 43.0986 118.163 40.4326 119.914 38.7926C119.931 38.7761 119.946 38.7618 119.958 38.7493C119.946 38.7369 119.931 38.7227 119.914 38.7062L119.913 38.706C118.148 37.0488 118.161 34.4052 119.928 32.7346C119.931 32.7311 119.935 32.7278 119.938 32.7246C119.945 32.7178 119.952 32.7116 119.958 32.7057L119.958 32.7053C118.635 31.4492 118.217 29.7375 118.93 28.1243C119.292 27.3044 119.811 26.6759 120.478 26.2469C121.143 25.8184 121.939 25.599 122.839 25.5714C123.317 25.5566 123.799 25.5604 124.293 25.5643C124.375 25.5649 124.457 25.5656 124.539 25.5661C124.223 24.938 124.058 24.3027 124.057 23.6588C124.056 22.895 124.285 22.1373 124.739 21.3834C124.746 21.3632 124.756 21.3436 124.768 21.3252C125.731 19.8761 127.205 19.5887 127.868 19.5346C127.876 19.534 127.883 19.5337 127.89 19.5337H143.349C143.368 19.5294 143.388 19.5271 143.409 19.5271C143.82 19.5267 144.232 19.526 144.643 19.5253ZM143.469 20.0522C143.45 20.0565 143.43 20.0588 143.409 20.0588H127.902C127.314 20.1086 126.074 20.3609 125.245 21.5668C125.24 21.5799 125.234 21.5927 125.226 21.605C124.794 22.3075 124.589 22.9888 124.59 23.6579C124.592 24.3274 124.798 25.0036 125.218 25.6959C125.268 25.777 125.269 25.8779 125.221 25.9601C125.174 26.0423 125.085 26.0931 124.989 26.0931C124.745 26.0931 124.508 26.0912 124.276 26.0894C123.788 26.0855 123.323 26.0818 122.856 26.0962C122.035 26.1214 121.339 26.3202 120.77 26.6864C120.202 27.052 119.745 27.5948 119.419 28.3337M143.469 20.0522C143.861 20.0518 144.254 20.0511 144.646 20.0505C146.087 20.048 147.527 20.0456 148.967 20.0572C149.758 20.0634 150.435 20.2371 151.002 20.5737C151.568 20.9101 152.04 21.4182 152.406 22.1172C153.484 24.1745 152.026 26.8896 149.69 27.1834C149.249 27.2387 148.804 27.2443 148.344 27.2421C148.267 27.2417 148.19 27.2411 148.112 27.2405C147.728 27.2375 147.332 27.2344 146.936 27.2576C146.856 27.2623 146.782 27.3022 146.735 27.3663C146.688 27.4304 146.673 27.5118 146.694 27.5881C146.767 27.8548 146.888 28.0721 147.07 28.2464C147.249 28.4183 147.473 28.5337 147.728 28.6219C153.095 30.476 156.41 34.1417 157.408 39.6328C158.201 43.9913 156.983 47.9084 153.981 51.2553C151.915 53.5597 149.329 55.0265 146.277 55.6322C142.615 56.358 139.169 55.7549 135.964 53.839C134.972 53.2459 134.077 52.531 133.265 51.7124L133.264 51.712C133.034 51.481 132.782 51.3991 132.477 51.3991L132.477 51.3991C129.31 51.4073 126.143 51.4057 122.975 51.404C121.771 51.4024 120.768 51.0065 119.994 50.0959C118.754 48.6391 118.866 46.5394 120.265 45.2286L120.265 45.2285C120.322 45.175 120.379 45.1171 120.423 45.0551C120.468 44.9913 120.512 44.9058 120.514 44.8002C120.517 44.6933 120.477 44.6045 120.431 44.536C120.387 44.4705 120.328 44.4098 120.268 44.3534C118.745 42.9269 118.75 40.6078 120.281 39.173C120.337 39.1206 120.393 39.0634 120.436 39.0014C120.48 38.937 120.52 38.8518 120.52 38.7479C120.519 38.6442 120.478 38.5594 120.435 38.4956C120.392 38.4342 120.337 38.3776 120.282 38.3258C120.282 38.3258 120.282 38.3258 120.282 38.3258L120.098 38.5159L120.281 38.3257C120.281 38.3257 120.282 38.3258 120.282 38.3258M120.328 32.3273C119.15 31.2079 118.804 29.7261 119.419 28.3337L120.328 32.3273ZM120.328 32.3273C120.328 32.3273 120.328 32.3274 120.328 32.3274L120.143 32.5163L120.327 32.3268C120.328 32.327 120.328 32.3271 120.328 32.3273ZM135.264 21.7311C132.988 21.7313 130.712 21.7315 128.435 21.7315C128.29 21.7315 128.163 21.7318 128.041 21.7462L128.04 21.7463C126.808 21.8845 126.023 23.0689 126.387 24.2218L126.387 24.222C126.648 25.05 127.382 25.5631 128.42 25.5646C130.976 25.5671 133.531 25.5668 136.087 25.5665C136.938 25.5664 137.79 25.5663 138.641 25.5663H147.925C148.051 25.5663 148.174 25.5675 148.295 25.5687C148.613 25.572 148.919 25.5751 149.229 25.5553C150.502 25.4738 151.342 24.2799 150.98 23.0918C150.722 22.2481 149.987 21.7315 148.921 21.7315C144.368 21.7304 139.816 21.7308 135.264 21.7311ZM148.921 21.2064C150.184 21.2064 151.155 21.8412 151.491 22.9407C151.953 24.4546 150.876 25.9761 149.263 26.0793C148.932 26.1005 148.596 26.0971 148.271 26.0938C148.154 26.0926 148.039 26.0914 147.925 26.0914H138.641C137.79 26.0914 136.939 26.0915 136.087 26.0916C133.532 26.0919 130.976 26.0922 128.42 26.0898C127.183 26.088 126.217 25.4564 125.878 24.3776M148.921 21.2064C144.368 21.2053 139.816 21.2056 135.264 21.206L148.921 21.2064ZM135.264 21.206C132.988 21.2062 130.711 21.2064 128.435 21.2064L135.264 21.206ZM128.435 21.2064L128.428 21.2064L128.435 21.2064ZM128.428 21.2064C128.29 21.2064 128.135 21.2064 127.978 21.2246L128.428 21.2064ZM127.978 21.2246C126.418 21.4002 125.414 22.9077 125.878 24.3773L127.978 21.2246ZM123.112 27.7707H123.104C123.067 27.7707 123.032 27.7705 122.997 27.7702C122.861 27.7693 122.745 27.7685 122.629 27.7834L122.628 27.7835C122.211 27.835 121.867 27.9644 121.595 28.1672C121.324 28.3691 121.111 28.6539 120.968 29.0383M123.112 27.7707C128.811 27.7707 134.508 27.7707 140.206 27.7697L123.112 27.7707ZM143.856 27.9496C143.969 27.9922 144.079 28.0059 144.185 28.011C144.245 28.014 144.309 28.0142 144.372 28.0143L144.383 28.0143C144.444 28.0144 144.506 28.0146 144.575 28.0164C144.7 28.0198 144.811 27.9367 144.841 27.8168C144.871 27.6969 144.812 27.5727 144.7 27.5183C144.596 27.468 144.525 27.4334 144.471 27.4071C144.432 27.3878 144.402 27.3729 144.374 27.3596C144.358 27.3519 144.341 27.3457 144.324 27.3413C143.984 27.2551 143.646 27.2439 143.329 27.2439C136.592 27.2456 129.856 27.2456 123.119 27.2456H123.104C123.076 27.2456 123.047 27.2453 123.017 27.2451C122.878 27.244 122.716 27.2427 122.561 27.2625C122.07 27.3233 121.633 27.48 121.273 27.7486C120.912 28.018 120.641 28.3897 120.467 28.8581C119.856 30.504 121.068 32.1217 122.878 32.129C124.206 32.1337 125.532 32.1332 126.857 32.1326C128.738 32.1318 130.618 32.1309 132.5 32.1454L132.501 32.1454C133.058 32.1493 133.455 31.9706 133.84 31.6251C136.679 29.082 140.029 27.8913 143.856 27.9496ZM140.206 27.7697C137.729 28.3007 135.481 29.4454 133.481 31.2367L133.481 31.2369C133.182 31.5049 132.912 31.6231 132.504 31.6203C130.621 31.6058 128.736 31.6066 126.852 31.6074C125.527 31.608 124.203 31.6086 122.881 31.6038C121.413 31.5979 120.493 30.3188 120.968 29.0383M143.422 29.615C136.556 29.6004 130.91 35.1456 130.895 41.9229C130.881 48.6842 136.513 54.2383 143.399 54.2529C150.268 54.2674 155.911 48.7255 155.926 41.9449C155.941 35.1853 150.309 29.6295 143.422 29.615ZM130.362 41.9218C130.377 34.8557 136.261 29.0747 143.423 29.0898C150.603 29.105 156.475 34.8952 156.459 41.946C156.444 49.0155 150.563 54.7932 143.398 54.778C136.218 54.7628 130.347 48.9743 130.362 41.9218ZM129.059 33.809C126.937 33.806 124.848 33.803 122.759 33.8181L122.757 33.5556L122.759 33.8181C122.759 33.8181 122.759 33.8181 122.759 33.8181C121.671 33.8269 120.837 34.6893 120.84 35.729L120.84 35.7294C120.842 36.7816 121.686 37.6295 122.81 37.6397C124.084 37.6515 125.356 37.6504 126.629 37.6494C127.499 37.6486 128.37 37.6479 129.242 37.6513L129.243 37.6513C129.291 37.6517 129.314 37.6471 129.322 37.6447C129.321 37.646 129.321 37.6469 129.32 37.6475C129.321 37.6469 129.322 37.646 129.323 37.6451C129.324 37.6443 129.325 37.6438 129.326 37.6435C129.325 37.6438 129.324 37.6442 129.322 37.6447C129.327 37.6379 129.337 37.6204 129.35 37.5826C129.35 37.5828 129.35 37.583 129.35 37.5832L129.603 37.6647L129.35 37.5824C129.35 37.5824 129.35 37.5825 129.35 37.5826C129.492 37.1536 129.648 36.7289 129.822 36.3103C129.822 36.3104 129.822 36.3106 129.822 36.3107L130.069 36.4094L129.822 36.3103C129.822 36.3103 129.822 36.3103 129.822 36.3103M129.059 33.809C129.768 33.81 130.481 33.8111 131.199 33.8114L129.059 33.809ZM129.062 33.2839C129.937 33.2852 130.818 33.2864 131.706 33.2864C131.806 33.2864 131.897 33.3411 131.943 33.4282C131.989 33.5153 131.982 33.6203 131.924 33.7004C131.257 34.6314 130.717 35.5357 130.316 36.5081L130.316 36.5086C130.148 36.9145 129.996 37.3276 129.857 37.7463L129.856 37.7471C129.816 37.8668 129.752 37.9918 129.627 38.077C129.503 38.1608 129.364 38.1773 129.24 38.1764C128.373 38.1731 127.505 38.1738 126.635 38.1745C125.358 38.1756 124.08 38.1766 122.805 38.1648C121.395 38.152 120.309 37.0765 120.307 35.7303C120.307 35.7302 120.307 35.7302 120.307 35.7301L120.574 35.7298L120.307 35.7305C120.307 35.7304 120.307 35.7304 120.307 35.7303C120.303 34.408 121.367 33.3041 122.755 33.293L122.755 33.293C124.847 33.2778 126.939 33.2808 129.062 33.2839ZM128.821 39.8428C128.054 39.8474 127.29 39.8463 126.527 39.8452C125.239 39.8434 123.955 39.8415 122.667 39.8672L122.662 39.6047L122.667 39.8672C122.667 39.8672 122.667 39.8672 122.667 39.8672C121.638 39.8888 120.834 40.7597 120.839 41.7761C120.843 42.7816 121.636 43.6442 122.644 43.6641C124.132 43.6942 125.62 43.6877 127.126 43.6812C127.67 43.6788 128.216 43.6765 128.765 43.6758C128.768 43.7086 128.772 43.7415 128.775 43.7744C128.782 43.8377 128.788 43.9011 128.795 43.9646L129.06 43.9382V43.6756C128.962 43.6756 128.863 43.6757 128.765 43.6758C128.706 43.1104 128.652 42.5497 128.656 41.9848C128.656 41.9848 128.656 41.9849 128.656 41.9848M129.346 39.939C129.348 39.9262 129.35 39.9132 129.353 39.896L129.355 39.8882C129.358 39.8689 129.362 39.8443 129.366 39.8188C129.372 39.7724 129.379 39.6935 129.355 39.6101C129.327 39.5122 129.261 39.4267 129.158 39.3744C129.068 39.3287 128.967 39.3168 128.873 39.3174L128.872 39.3174C128.097 39.3223 127.318 39.3212 126.538 39.3201C125.245 39.3183 123.948 39.3164 122.656 39.3422L122.656 39.3422C121.312 39.3702 120.299 40.4985 120.305 41.7783C120.311 43.0394 121.307 44.1629 122.633 44.1891C122.633 44.1891 122.633 44.1891 122.633 44.1891M127.177 45.8827C125.646 45.8761 124.121 45.8694 122.595 45.9195C121.376 45.9592 120.556 47.2059 120.934 48.3893C121.195 49.2044 121.928 49.7216 122.93 49.7231C125.61 49.7279 128.29 49.7264 130.97 49.7232C130.205 48.5299 129.617 47.2505 129.217 45.8867C128.536 45.8887 127.856 45.8857 127.177 45.8827ZM127.191 45.3576C127.871 45.3606 128.55 45.3635 129.227 45.3615L129.228 45.3615C129.312 45.3615 129.427 45.3715 129.532 45.441C129.642 45.5143 129.695 45.6222 129.724 45.7198C130.147 47.1711 130.79 48.5239 131.641 49.777C131.717 49.8879 131.696 50.037 131.592 50.1233C131.384 50.2971 131.132 50.253 131.107 50.2485C131.106 50.2483 131.105 50.2482 131.105 50.2482C128.38 50.2515 125.655 50.2531 122.929 50.2482M127.191 45.3576C125.655 45.3509 124.114 45.3442 122.577 45.3946L127.191 45.3576Z" fill="#FE976E"/>
<path d="M146.98 39.187C146.985 39.6786 146.673 40.0498 146.223 40.0927C145.711 40.1405 145.344 39.8436 145.287 39.2844C145.21 38.5321 144.805 38.0472 144.098 37.8063C143.357 37.5539 142.66 37.6628 142.066 38.1742C141.592 38.5833 141.396 39.1112 141.617 39.7215C141.875 40.4292 142.438 40.7756 143.167 40.8416C144.037 40.9208 144.882 41.0395 145.604 41.5856C146.635 42.3642 147.139 43.3787 146.921 44.6522C146.698 45.952 145.864 46.7802 144.62 47.2107C144.361 47.2998 144.247 47.3872 144.243 47.6874C144.238 48.1889 143.87 48.5172 143.412 48.5205C142.938 48.5254 142.569 48.1823 142.567 47.6577C142.566 47.3724 142.452 47.2899 142.205 47.2156C140.893 46.8181 139.935 45.6551 139.842 44.38C139.797 43.7713 140.094 43.3688 140.615 43.3292C141.119 43.2896 141.46 43.6129 141.537 44.2084C141.642 45.0068 142.212 45.5809 143.023 45.7079C143.94 45.8514 144.808 45.4506 145.142 44.733C145.569 43.8109 144.91 42.7782 143.782 42.5918C143.28 42.5077 142.77 42.5225 142.271 42.3708C140.853 41.9386 139.846 40.6882 139.831 39.2827C139.816 37.9366 140.789 36.6516 142.18 36.226C142.477 36.1353 142.567 36.0099 142.566 35.708C142.562 35.1934 142.936 34.8304 143.399 34.8255C143.856 34.8205 144.265 35.1884 144.243 35.6948C144.227 36.0759 144.413 36.1468 144.704 36.2408C145.991 36.6532 146.968 37.935 146.98 39.187Z" fill="#FE976E"/>
<path fill-rule="evenodd" clip-rule="evenodd" d="M143.977 35.6838C143.992 35.3351 143.714 35.085 143.402 35.0884L143.402 35.0884C143.094 35.0917 142.83 35.3291 142.833 35.7067L142.833 35.707C142.834 35.8773 142.81 36.0528 142.701 36.2011C142.591 36.3497 142.428 36.4257 142.26 36.4771C140.974 36.8704 140.084 38.0573 140.098 39.2802L140.098 39.2803C140.111 40.5617 141.033 41.7187 142.35 42.1202C142.574 42.1883 142.805 42.2205 143.053 42.2458C143.112 42.2519 143.173 42.2576 143.236 42.2634C143.427 42.2813 143.629 42.3002 143.827 42.3333C145.086 42.5416 145.901 43.7272 145.384 44.8423L145.384 44.8426C144.991 45.6883 143.992 46.1257 142.982 45.9676L142.982 45.9676C142.055 45.8224 141.393 45.1574 141.272 44.2427L141.272 44.242C141.239 43.9835 141.152 43.8164 141.051 43.7197C140.955 43.628 140.822 43.5767 140.636 43.5913L140.636 43.5913C140.445 43.6058 140.316 43.6823 140.233 43.7955C140.145 43.9141 140.089 44.1003 140.109 44.3612L140.109 44.3617C140.193 45.5229 141.071 46.5977 142.284 46.9651C142.412 47.0037 142.565 47.0595 142.677 47.183C142.798 47.316 142.833 47.4826 142.834 47.6566L142.834 47.6573C142.836 48.0419 143.089 48.2616 143.409 48.2583L143.41 48.2583C143.726 48.256 143.973 48.0399 143.977 47.6852L143.977 47.6849C143.979 47.5054 144.014 47.3365 144.133 47.1994C144.244 47.0717 144.399 47.0092 144.532 46.9633C145.7 46.559 146.454 45.7994 146.658 44.6089C146.857 43.4466 146.408 42.5237 145.442 41.7942L145.442 41.7942C144.786 41.2984 144.012 41.1825 143.143 41.1034C142.743 41.0672 142.373 40.9525 142.062 40.7371C141.75 40.5204 141.512 40.2112 141.366 39.8106L141.366 39.8101C141.238 39.4567 141.227 39.1141 141.326 38.7959C141.424 38.4801 141.625 38.2064 141.891 37.9771L141.891 37.977C142.561 37.399 143.36 37.2776 144.185 37.5586C144.577 37.6919 144.901 37.8987 145.137 38.1899C145.374 38.4814 145.51 38.841 145.553 39.2584L145.553 39.2585C145.576 39.4873 145.659 39.633 145.759 39.7177C145.857 39.8013 146.001 39.85 146.197 39.8317C146.49 39.8037 146.717 39.5661 146.713 39.19L146.713 39.1898C146.703 38.0572 145.806 36.8705 144.622 36.4909L144.621 36.4907C144.618 36.4896 144.614 36.4885 144.611 36.4874C144.48 36.4451 144.302 36.388 144.173 36.2644C144.018 36.1167 143.967 35.9182 143.977 35.6841M143.396 34.5633C143.999 34.5568 144.539 35.0423 144.51 35.7063L144.51 35.7065C144.504 35.8496 144.535 35.8793 144.543 35.8867C144.544 35.8869 144.544 35.8871 144.544 35.8873C144.573 35.9146 144.628 35.9403 144.787 35.9916C146.177 36.4369 147.234 37.8136 147.247 39.185L146.98 39.1874L147.247 39.1848C147.247 39.1848 147.247 39.1849 147.247 39.185C147.253 39.7919 146.857 40.2965 146.248 40.3544L146.248 40.3544C145.933 40.3839 145.638 40.3081 145.411 40.1154C145.185 39.9238 145.056 39.6415 145.022 39.3111L145.288 39.2847L145.022 39.3109C145.022 39.311 145.022 39.311 145.022 39.3111C144.988 38.9762 144.883 38.7172 144.721 38.518C144.558 38.3184 144.326 38.1623 144.01 38.0548L144.01 38.0548C143.353 37.8309 142.758 37.9274 142.242 38.372L142.067 38.1745L142.242 38.3721C142.242 38.3721 142.242 38.372 142.242 38.372C142.034 38.5518 141.899 38.7466 141.836 38.9496C141.774 39.1501 141.775 39.3766 141.869 39.6335C141.869 39.6334 141.868 39.6333 141.868 39.6332L141.617 39.7219L141.869 39.6336C141.869 39.6336 141.869 39.6335 141.869 39.6335C141.981 39.9403 142.154 40.1582 142.37 40.3079C142.588 40.4592 142.863 40.5507 143.192 40.5805L143.192 40.5805C144.063 40.6597 144.978 40.7814 145.767 41.3777C145.767 41.3777 145.767 41.3776 145.767 41.3776L145.604 41.5859L145.767 41.3777C146.862 42.2054 147.421 43.3115 147.185 44.6961L147.185 44.6962C146.943 46.1055 146.028 47.002 144.709 47.4588L144.708 47.459C144.582 47.5022 144.55 47.528 144.538 47.5411L144.538 47.5413C144.534 47.5458 144.512 47.5717 144.51 47.6905C144.51 47.6905 144.51 47.6904 144.51 47.6904L144.243 47.6878L144.51 47.6907C144.51 47.6906 144.51 47.6906 144.51 47.6905M143.415 48.7834C143.414 48.7834 143.414 48.7834 143.414 48.7834L143.412 48.5208L143.415 48.7834C143.415 48.7834 143.415 48.7834 143.415 48.7834ZM143.415 48.7834C142.787 48.7897 142.303 48.3235 142.301 47.6593C142.301 47.6594 142.301 47.6595 142.301 47.6596L142.568 47.6581L142.301 47.6589C142.301 47.659 142.301 47.6592 142.301 47.6593C142.301 47.6041 142.295 47.5717 142.289 47.5537C142.285 47.5385 142.281 47.5342 142.279 47.5329L142.279 47.5328C142.273 47.5252 142.246 47.5027 142.128 47.4671L142.127 47.467C140.715 47.0393 139.677 45.7882 139.577 44.3992C139.577 44.3993 139.577 44.3994 139.577 44.3995L139.843 44.3803L139.577 44.399C139.577 44.3991 139.577 44.3991 139.577 44.3992C139.551 44.0515 139.62 43.7323 139.8 43.4875C139.984 43.2375 140.264 43.093 140.594 43.0678C140.594 43.0678 140.594 43.0678 140.594 43.0678L140.615 43.3295L140.595 43.0678C140.595 43.0678 140.594 43.0678 140.594 43.0678C140.913 43.0428 141.203 43.1334 141.422 43.3424C141.636 43.5461 141.758 43.8383 141.801 44.1752C141.801 44.1751 141.801 44.175 141.801 44.1749L141.537 44.2088L141.802 44.1756C141.802 44.1755 141.802 44.1753 141.801 44.1752C141.892 44.8572 142.37 45.3401 143.065 45.449L143.023 45.7083L143.065 45.449C143.065 45.449 143.065 45.449 143.065 45.449C143.889 45.5778 144.625 45.2136 144.899 44.6241C144.899 44.6242 144.899 44.6243 144.899 44.6244L145.142 44.7334L144.899 44.6241C145.237 43.8952 144.735 43.0159 143.738 42.8511L143.738 42.851C143.561 42.8214 143.387 42.8051 143.201 42.7878C143.135 42.7816 143.068 42.7753 142.998 42.7682C142.741 42.742 142.468 42.7057 142.192 42.622L142.192 42.6219C140.674 42.159 139.581 40.8153 139.564 39.286L139.831 39.2831L139.564 39.2858C139.548 37.8166 140.605 36.4335 142.101 35.9756L142.101 35.9756C142.23 35.9363 142.26 35.9042 142.269 35.892C142.279 35.8795 142.3 35.8414 142.299 35.7099C142.295 35.0583 142.779 34.5699 143.396 34.5633" fill="#FE976E"/>
<path d="M154.482 41.3136C154.472 43.4762 154.064 45.1703 153.247 46.7655C153.004 47.2406 152.561 47.4369 152.13 47.262C151.668 47.074 151.468 46.5824 151.705 46.0727C152.117 45.1835 152.479 44.2829 152.632 43.3079C153.159 39.9197 152.079 37.1005 149.538 34.7976C148.963 34.2764 148.304 33.864 147.604 33.5192C147.225 33.3311 146.95 33.059 146.996 32.6037C147.053 32.0164 147.661 31.6914 148.239 31.9603C149.39 32.4948 150.413 33.219 151.298 34.118C153.374 36.2262 154.42 38.76 154.482 41.3136Z" fill="#FE976E"/>
<path fill-rule="evenodd" clip-rule="evenodd" d="M148.125 32.1978C147.698 31.9991 147.299 32.2398 147.261 32.6287L147.261 32.6293C147.245 32.7942 147.285 32.9114 147.356 33.0066C147.432 33.1087 147.555 33.2005 147.724 33.2846C148.44 33.6372 149.121 34.0625 149.719 34.6045C152.321 36.9637 153.437 39.8689 152.895 43.3478L152.895 43.348C152.737 44.3593 152.363 45.2865 151.948 46.1817C151.855 46.3812 151.855 46.5598 151.906 46.6978C151.957 46.8354 152.067 46.952 152.232 47.0194C152.381 47.0799 152.523 47.0743 152.649 47.0183C152.779 46.9607 152.909 46.8416 153.008 46.6475L153.009 46.6473C153.805 45.0935 154.205 43.4413 154.215 41.3162C154.154 38.8327 153.137 36.3626 151.106 34.3008L151.106 34.3008C150.243 33.4241 149.247 32.7186 148.125 32.1979L148.125 32.1978ZM148.353 31.7229C147.624 31.384 146.807 31.7931 146.73 32.5785C146.701 32.8688 146.776 33.1151 146.926 33.3168C147.07 33.5116 147.275 33.6498 147.484 33.7537L147.485 33.7541C148.169 34.091 148.806 34.4904 149.357 34.9908L149.357 34.9909C151.836 37.2374 152.882 39.9704 152.368 43.268C152.221 44.2065 151.872 45.0807 151.462 45.9637L151.462 45.9637C151.318 46.274 151.3 46.5961 151.405 46.8783C151.51 47.1609 151.732 47.3841 152.029 47.5048L152.029 47.5048C152.311 47.6192 152.605 47.614 152.869 47.4969C153.129 47.3812 153.341 47.1647 153.485 46.8839C154.323 45.2482 154.738 43.5132 154.749 41.3148C154.749 41.3123 154.749 41.3098 154.749 41.3074C154.685 38.685 153.61 36.0889 151.489 33.9354C150.582 33.014 149.534 32.2712 148.353 31.723" fill="#FE976E"/>
<path d="M134.378 36.2212C134.951 36.2261 135.331 36.7392 135.164 37.2885C135.001 37.823 134.71 38.3046 134.529 38.8342C132.972 43.3838 135.261 48.062 139.163 49.9871C139.476 50.1422 139.751 50.3385 139.809 50.708C139.86 51.0214 139.759 51.2903 139.508 51.4899C139.211 51.7241 138.883 51.7274 138.551 51.5674C137.16 50.8911 135.946 49.9822 134.956 48.8077C132.895 46.3629 132.052 43.5471 132.424 40.3963C132.575 39.1146 132.982 37.8972 133.58 36.7458C133.748 36.4208 133.994 36.2212 134.378 36.2212Z" fill="#FE976E"/>
<path fill-rule="evenodd" clip-rule="evenodd" d="M134.051 36.5764C133.966 36.6353 133.888 36.7281 133.818 36.8647L133.817 36.8654C133.231 37.9929 132.835 39.1802 132.688 40.4267L132.688 40.4268C132.325 43.5066 133.146 46.2508 135.161 48.6401C136.125 49.7837 137.308 50.6704 138.668 51.3319C138.802 51.3967 138.921 51.4212 139.025 51.4146C139.126 51.4082 139.231 51.3715 139.34 51.2854C139.515 51.1467 139.581 50.9726 139.546 50.7491L139.545 50.7487C139.508 50.5126 139.34 50.3692 139.043 50.222C135.029 48.2416 132.674 43.431 134.276 38.7505C134.364 38.492 134.477 38.2453 134.584 38.0125C134.592 37.9934 134.601 37.9744 134.61 37.9556C134.726 37.7015 134.832 37.4619 134.908 37.2133L134.908 37.2131C135.026 36.8279 134.767 36.4879 134.376 36.4839C134.235 36.4841 134.133 36.5198 134.051 36.5764ZM133.744 36.1471C133.923 36.0228 134.135 35.9587 134.378 35.9587H134.38L134.38 35.9588C135.135 35.9653 135.636 36.6509 135.419 37.3639C135.332 37.6498 135.212 37.9183 135.096 38.171C135.088 38.1887 135.08 38.2063 135.072 38.2238C134.963 38.4614 134.861 38.6853 134.781 38.918L134.781 38.9181C133.269 43.3368 135.492 47.8827 139.282 49.7525L139.282 49.7526C139.611 49.9155 139.993 50.1647 140.073 50.6674C140.137 51.0705 140.003 51.434 139.675 51.6944L139.674 51.6948C139.487 51.8429 139.279 51.9248 139.059 51.9387C138.842 51.9523 138.63 51.8985 138.433 51.8034L138.432 51.803C137.011 51.1118 135.767 50.1807 134.75 48.9755L134.75 48.9755C132.642 46.4753 131.778 43.5879 132.158 40.3662M133.744 36.1471C133.568 36.2691 133.439 36.4384 133.342 36.6267L133.744 36.1471ZM133.342 36.6267C132.732 37.8019 132.313 39.0492 132.158 40.3661L133.342 36.6267Z" fill="#FE976E"/>
<path d="M145.583 31.7114C145.576 32.1684 145.165 32.5494 144.689 32.5362C144.23 32.523 143.845 32.1502 143.838 31.7098C143.831 31.2594 144.24 30.8619 144.713 30.8635C145.187 30.8635 145.589 31.2545 145.583 31.7114Z" fill="#FE976E"/>
<path fill-rule="evenodd" clip-rule="evenodd" d="M144.105 31.7057C144.1 31.4089 144.382 31.1248 144.712 31.126L144.105 31.7057ZM144.105 31.7058C144.109 31.9986 144.373 32.2642 144.697 32.2736C145.029 32.2828 145.312 32.0131 145.316 31.7075C145.32 31.4033 145.045 31.126 144.713 31.126H144.712V31.126M144.713 30.6008C144.099 30.599 143.562 31.1098 143.571 31.7135L143.571 31.7136C143.58 32.3015 144.087 32.7815 144.682 32.7986L144.682 32.7986C145.302 32.8157 145.841 32.3233 145.849 31.7151C145.858 31.1056 145.33 30.6011 144.713 30.6008Z" fill="#FE976E"/>
<path d="M142.976 51.8479C142.964 52.3032 142.545 52.6842 142.076 52.6677C141.597 52.6496 141.212 52.2504 141.233 51.7935C141.255 51.353 141.651 50.9918 142.11 50.9934C142.581 50.9967 142.986 51.3959 142.976 51.8479Z" fill="#FE976E"/>
<path fill-rule="evenodd" clip-rule="evenodd" d="M142.109 51.2561C141.787 51.2552 141.515 51.5117 141.5 51.8061C141.486 52.1089 141.747 52.3924 142.087 52.4055C142.412 52.4167 142.702 52.1466 142.71 51.8418C142.717 51.5435 142.438 51.2587 142.109 51.2561ZM140.968 51.7808C140.997 51.1946 141.515 50.7288 142.111 50.731L142.112 50.731V50.731C142.725 50.7353 143.257 51.2484 143.244 51.8538L143.244 51.8547C143.228 52.4602 142.681 52.9518 142.067 52.9303L142.067 52.9303C141.448 52.9068 140.938 52.3922 140.967 51.7813L140.968 51.7808Z" fill="#FE976E"/>
</svg>
