<svg width="26" height="26" viewBox="0 0 26 26" fill="none" xmlns="http://www.w3.org/2000/svg">
<g clip-path="url(#clip0)">
<path d="M24.1024 14.4789C23.3671 14.4789 22.6311 14.4789 21.8958 14.4789C20.1288 14.4789 18.3625 14.4789 16.5955 14.4789C14.4579 14.4789 12.3197 14.4789 10.1822 14.4789C8.33313 14.4789 6.48483 14.4789 4.6358 14.4789C3.73719 14.4789 2.83498 14.5008 1.93637 14.4789C1.92341 14.4789 1.91046 14.4789 1.89751 14.4789C1.08452 14.4789 0.306055 13.7989 0.343468 12.9997C0.38088 12.1985 1.02624 11.5205 1.89751 11.5205C2.63281 11.5205 3.36882 11.5205 4.10411 11.5205C5.87112 11.5205 7.63741 11.5205 9.40442 11.5205C11.5419 11.5205 13.6802 11.5205 15.8177 11.5205C17.6668 11.5205 19.5151 11.5205 21.3641 11.5205C22.2627 11.5205 23.1649 11.4986 24.0635 11.5205C24.0765 11.5205 24.0894 11.5205 24.1024 11.5205C24.9154 11.5205 25.6938 12.2012 25.6564 12.9997C25.6183 13.8016 24.9729 14.4789 24.1024 14.4789Z" fill="url(#paint0_linear)"/>
<path d="M18.9964 8.13909C17.0654 8.13909 15.135 8.13909 13.204 8.13909C10.1535 8.13909 7.10294 8.13909 4.05169 8.13909C3.34949 8.13909 2.64657 8.13909 1.94437 8.13909C1.13137 8.13909 0.352913 7.45907 0.390326 6.65988C0.427738 5.85864 1.0731 5.18066 1.94437 5.18066C3.87542 5.18066 5.80574 5.18066 7.73679 5.18066C10.7873 5.18066 13.8379 5.18066 16.8891 5.18066C17.5913 5.18066 18.2942 5.18066 18.9964 5.18066C19.8094 5.18066 20.5879 5.86069 20.5505 6.65988C20.5123 7.46112 19.8677 8.13909 18.9964 8.13909Z" fill="url(#paint1_linear)"/>
<path d="M24.0558 8.50858C23.0399 8.50858 22.0665 7.65804 22.1133 6.65957C22.1608 5.65767 22.9666 4.81055 24.0558 4.81055C25.0717 4.81055 26.0451 5.6611 25.9984 6.65957C25.9509 7.66146 25.1444 8.50858 24.0558 8.50858Z" fill="url(#paint2_linear)"/>
<path d="M7.00296 17.8618C8.93401 17.8618 10.8643 17.8618 12.7954 17.8618C15.8459 17.8618 18.8964 17.8618 21.9477 17.8618C22.6499 17.8618 23.3528 17.8618 24.055 17.8618C24.868 17.8618 25.6465 18.5418 25.6091 19.341C25.5716 20.1423 24.9263 20.8202 24.055 20.8202C22.124 20.8202 20.1936 20.8202 18.2626 20.8202C15.2121 20.8202 12.1615 20.8202 9.11028 20.8202C8.40808 20.8202 7.70516 20.8202 7.00296 20.8202C6.18997 20.8202 5.4115 20.1402 5.44892 19.341C5.48705 18.5391 6.13169 17.8618 7.00296 17.8618Z" fill="url(#paint3_linear)"/>
<path d="M1.94353 21.1897C0.927644 21.1897 -0.0457902 20.3392 0.000974894 19.3407C0.0484595 18.3388 0.854258 17.4917 1.94353 17.4917C2.95941 17.4917 3.93284 18.3422 3.88608 19.3407C3.83931 20.3419 3.03279 21.1897 1.94353 21.1897Z" fill="url(#paint4_linear)"/>
</g>
<defs>
<linearGradient id="paint0_linear" x1="12.9999" y1="11.5107" x2="12.9999" y2="14.4887" gradientUnits="userSpaceOnUse">
<stop stop-color="#F8AB69"/>
<stop offset="1" stop-color="#FE725C"/>
</linearGradient>
<linearGradient id="paint1_linear" x1="10.4704" y1="5.18066" x2="10.4704" y2="8.13909" gradientUnits="userSpaceOnUse">
<stop stop-color="#F8AB69"/>
<stop offset="1" stop-color="#FE725C"/>
</linearGradient>
<linearGradient id="paint2_linear" x1="24.0558" y1="4.81055" x2="24.0558" y2="8.50858" gradientUnits="userSpaceOnUse">
<stop stop-color="#F8AB69"/>
<stop offset="1" stop-color="#FE725C"/>
</linearGradient>
<linearGradient id="paint3_linear" x1="15.529" y1="17.8618" x2="15.529" y2="20.8202" gradientUnits="userSpaceOnUse">
<stop stop-color="#F8AB69"/>
<stop offset="1" stop-color="#FE725C"/>
</linearGradient>
<linearGradient id="paint4_linear" x1="1.94353" y1="17.4917" x2="1.94353" y2="21.1897" gradientUnits="userSpaceOnUse">
<stop stop-color="#F8AB69"/>
<stop offset="1" stop-color="#FE725C"/>
</linearGradient>
<clipPath id="clip0">
<rect width="26" height="26" fill="white" transform="matrix(-1 0 0 1 26 0)"/>
</clipPath>
</defs>
</svg>
