<svg width="519" height="121" viewBox="0 0 519 121" fill="none" xmlns="http://www.w3.org/2000/svg">
<g clip-path="url(#clip0)">
<path d="M74.2654 37.6344C74.2654 30.7821 76.1054 25.6482 79.7852 22.2397C83.4651 18.8278 88.7348 17.1235 95.5979 17.1235C98.6275 17.1235 101.2 17.3074 103.318 17.6751C105.437 18.0428 107.166 18.5767 108.513 19.2803C109.856 19.9839 110.839 20.8573 111.457 21.8968C112.075 22.9363 112.386 24.1137 112.386 25.429C112.386 28.2151 111.411 30.2482 109.463 31.5317C107.516 32.8151 104.719 33.4586 101.071 33.4586C99.8029 33.4586 98.7526 33.8334 97.9166 34.583C97.0806 35.3326 96.6626 36.457 96.6626 37.9561V43.3234H104.315C105.366 43.3234 106.309 43.5143 107.145 43.8961C107.981 44.278 108.674 44.8084 109.231 45.4802C109.789 46.1519 110.214 46.9404 110.507 47.842C110.8 48.7436 110.946 49.716 110.946 50.7555C110.946 51.795 110.8 52.7673 110.507 53.6689C110.214 54.5705 109.789 55.359 109.231 56.0308C108.674 56.7026 107.977 57.2329 107.145 57.6148C106.309 57.9967 105.366 58.1876 104.315 58.1876H96.6626V100.496C96.6626 104.442 95.6908 107.264 93.7401 108.964C91.7894 110.665 89.0242 111.51 85.4408 111.51C81.8538 111.51 79.0957 110.661 77.1629 108.964C75.23 107.267 74.2654 104.442 74.2654 100.496V58.1911H71.8074C70.7249 58.1911 69.7746 58.0002 68.9564 57.6183C68.1383 57.2365 67.4487 56.7097 66.8914 56.0343C66.3341 55.3625 65.9089 54.5741 65.616 53.6725C65.323 52.7709 65.1765 51.7985 65.1765 50.759C65.1765 49.7195 65.323 48.7472 65.616 47.8456C65.9089 46.944 66.3341 46.1555 66.8914 45.4837C67.4487 44.8119 68.1347 44.2815 68.9564 43.8997C69.7746 43.5178 70.7249 43.3269 71.8074 43.3269H74.2654V37.6344Z" fill="white"/>
<path d="M122.954 37.6344C122.954 30.7821 124.794 25.6482 128.471 22.2397C132.15 18.8278 137.42 17.1235 144.283 17.1235C147.313 17.1235 149.885 17.3074 152.004 17.6751C154.122 18.0428 155.852 18.5767 157.198 19.2803C158.542 19.9839 159.524 20.8573 160.142 21.8968C160.76 22.9363 161.071 24.1137 161.071 25.429C161.071 28.2151 160.096 30.2482 158.149 31.5317C156.202 32.8151 153.404 33.4586 149.757 33.4586C148.488 33.4586 147.438 33.8334 146.602 34.583C145.766 35.3326 145.348 36.457 145.348 37.9561V43.3234H153.001C154.051 43.3234 154.994 43.5143 155.83 43.8961C156.666 44.278 157.359 44.8084 157.917 45.4802C158.474 46.1519 158.899 46.9404 159.192 47.842C159.485 48.7436 159.631 49.716 159.631 50.7555C159.631 51.795 159.485 52.7673 159.192 53.6689C158.899 54.5705 158.474 55.359 157.917 56.0308C157.359 56.7026 156.663 57.2329 155.83 57.6148C154.994 57.9967 154.051 58.1876 153.001 58.1876H145.348V100.496C145.348 104.442 144.376 107.264 142.425 108.964C140.475 110.665 137.709 111.51 134.126 111.51C130.539 111.51 127.781 110.661 125.848 108.964C123.915 107.267 122.951 104.442 122.951 100.496V58.1911H120.493C119.41 58.1911 118.46 58.0002 117.642 57.6183C116.824 57.2365 116.134 56.7097 115.577 56.0343C115.019 55.3625 114.594 54.5741 114.301 53.6725C114.008 52.7709 113.862 51.7985 113.862 50.759C113.862 49.7195 114.008 48.7472 114.301 47.8456C114.594 46.944 115.019 46.1555 115.577 45.4837C116.134 44.8119 116.82 44.2815 117.642 43.8997C118.46 43.5178 119.41 43.3269 120.493 43.3269H122.951V37.6344H122.954Z" fill="white"/>
<path d="M164.726 53.4176C164.726 51.5225 165.004 49.8854 165.562 48.5065C166.119 47.1311 166.891 45.989 167.881 45.0874C168.87 44.1858 170.06 43.5105 171.45 43.0685C172.839 42.6265 174.354 42.4038 175.994 42.4038C177.63 42.4038 179.138 42.6265 180.514 43.0685C181.889 43.514 183.072 44.1858 184.061 45.0874C185.051 45.989 185.823 47.1311 186.38 48.5065C186.937 49.8819 187.216 51.5189 187.216 53.4176V100.545C187.216 102.444 186.937 104.078 186.38 105.457C185.823 106.832 185.051 107.974 184.061 108.876C183.072 109.777 181.889 110.453 180.514 110.895C179.138 111.337 177.63 111.559 175.994 111.559C174.354 111.559 172.839 111.337 171.45 110.895C170.06 110.453 168.867 109.777 167.881 108.876C166.891 107.974 166.119 106.832 165.562 105.457C165.004 104.081 164.726 102.444 164.726 100.545V53.4176ZM165.004 27.536C165.004 26.0369 165.29 24.6226 165.862 23.2896C166.434 21.9602 167.212 20.811 168.206 19.8493C169.195 18.8841 170.353 18.1204 171.682 17.5546C173.011 16.9889 174.447 16.7061 175.994 16.7061C177.509 16.7061 178.938 16.9889 180.285 17.5546C181.628 18.1204 182.789 18.8841 183.761 19.8493C184.736 20.8146 185.508 21.9602 186.08 23.2896C186.651 24.619 186.937 26.0369 186.937 27.536C186.937 29.067 186.651 30.4884 186.08 31.8037C185.508 33.1189 184.736 34.2681 183.761 35.2439C182.786 36.2233 181.628 36.9941 180.285 37.5634C178.942 38.1291 177.509 38.4119 175.994 38.4119C174.447 38.4119 173.011 38.1291 171.682 37.5634C170.353 36.9977 169.192 36.2269 168.206 35.2439C167.216 34.2645 166.437 33.1189 165.862 31.8037C165.287 30.4919 165.004 29.067 165.004 27.536Z" fill="white"/>
<path d="M195 27.674C195 25.7788 195.279 24.1418 195.837 22.7628C196.394 21.3874 197.166 20.2454 198.155 19.3438C199.145 18.4422 200.335 17.7668 201.724 17.3249C203.114 16.8829 204.629 16.6602 206.269 16.6602C207.905 16.6602 209.413 16.8829 210.788 17.3249C212.164 17.7704 213.346 18.4422 214.336 19.3438C215.325 20.2454 216.097 21.3874 216.655 22.7628C217.212 24.1382 217.491 25.7753 217.491 27.674V100.546C217.491 102.444 217.212 104.078 216.655 105.457C216.097 106.832 215.325 107.974 214.336 108.876C213.346 109.777 212.164 110.453 210.788 110.895C209.413 111.337 207.905 111.559 206.269 111.559C204.629 111.559 203.114 111.337 201.724 110.895C200.335 110.453 199.141 109.777 198.155 108.876C197.166 107.974 196.394 106.832 195.837 105.457C195.279 104.081 195 102.444 195 100.546V27.674Z" fill="white"/>
<path d="M224.897 53.4176C224.897 51.5225 225.176 49.8854 225.733 48.5065C226.29 47.1311 227.062 45.989 228.052 45.0874C229.041 44.1858 230.231 43.5105 231.621 43.0685C233.011 42.6265 234.525 42.4038 236.165 42.4038C237.801 42.4038 239.309 42.6265 240.685 43.0685C242.06 43.514 243.243 44.1858 244.232 45.0874C245.222 45.989 245.994 47.1311 246.551 48.5065C247.108 49.8819 247.387 51.5189 247.387 53.4176V100.545C247.387 102.444 247.108 104.078 246.551 105.457C245.994 106.832 245.222 107.974 244.232 108.876C243.243 109.777 242.06 110.453 240.685 110.895C239.309 111.337 237.801 111.559 236.165 111.559C234.525 111.559 233.011 111.337 231.621 110.895C230.231 110.453 229.038 109.777 228.052 108.876C227.062 107.974 226.29 106.832 225.733 105.457C225.176 104.081 224.897 102.444 224.897 100.545V53.4176ZM225.176 27.536C225.176 26.0369 225.461 24.6226 226.033 23.2896C226.605 21.9602 227.384 20.811 228.377 19.8493C229.366 18.8841 230.524 18.1204 231.853 17.5546C233.182 16.9889 234.618 16.7061 236.165 16.7061C237.68 16.7061 239.109 16.9889 240.456 17.5546C241.799 18.1204 242.96 18.8841 243.932 19.8493C244.908 20.8146 245.679 21.9602 246.251 23.2896C246.822 24.619 247.108 26.0369 247.108 27.536C247.108 29.067 246.822 30.4884 246.251 31.8037C245.679 33.1189 244.908 34.2681 243.932 35.2439C242.957 36.2233 241.799 36.9941 240.456 37.5634C239.113 38.1291 237.68 38.4119 236.165 38.4119C234.618 38.4119 233.182 38.1291 231.853 37.5634C230.524 36.9977 229.363 36.2269 228.377 35.2439C227.387 34.2645 226.608 33.1189 226.033 31.8037C225.458 30.4919 225.176 29.067 225.176 27.536Z" fill="white"/>
<path d="M61.0106 57.5763C58.0667 52.75 53.3829 47.7929 45.9518 44.731C37.8704 41.4003 28.8351 41.3614 20.7143 44.5931C11.186 48.3834 -0.314459 57.3995 0.00708249 78.8155C0.00708249 78.8155 0.632301 93.8636 13.8155 103.237C19.1424 107.024 25.4874 108.997 31.9647 109.149C37.3416 109.276 44.5548 108.643 48.5527 104.948C48.5527 108.601 51.443 111.563 55.0049 111.563H59.4565C63.0185 111.563 65.9088 108.601 65.9088 104.948V75.453C65.9088 69.1452 64.2725 62.9259 61.0106 57.5763ZM32.9544 89.4333C25.4481 89.4333 19.3639 83.1962 19.3639 75.5025C19.3639 67.8087 25.4481 61.5717 32.9544 61.5717C40.4606 61.5717 46.5448 67.8087 46.5448 75.5025C46.5448 83.1962 40.4606 89.4333 32.9544 89.4333Z" fill="white"/>
<path d="M450.941 95.9529C450.941 97.6501 450.416 99.4073 449.362 101.221C448.308 103.039 446.6 104.69 444.239 106.178C441.877 107.667 438.808 108.887 435.032 109.841C431.256 110.792 426.647 111.27 421.202 111.27C415.968 111.27 411.145 110.584 406.74 109.215C402.331 107.847 398.526 105.754 395.322 102.94C392.117 100.125 389.612 96.554 387.808 92.2227C386.004 87.8914 385.1 82.7469 385.1 76.7928C385.1 70.8669 385.972 65.74 387.719 61.4088C389.462 57.0775 391.892 53.5029 395.007 50.6919C398.119 47.8775 401.827 45.795 406.132 44.4408C410.434 43.0866 415.129 42.4077 420.212 42.4077C424.575 42.4077 428.44 42.8921 431.809 43.8609C435.178 44.8297 438.126 46.1167 440.655 47.7255C443.181 49.3342 445.303 51.1657 447.018 53.22C448.733 55.2743 450.123 57.3886 451.191 59.5631C452.259 61.7376 453.028 63.8732 453.492 65.9734C453.956 68.0736 454.192 69.9723 454.192 71.6659C454.192 73.303 454.003 74.7774 453.628 76.0891C453.253 77.4009 452.663 78.5147 451.866 79.4375C451.07 80.3603 450.062 81.0745 448.844 81.5801C447.626 82.0858 446.175 82.3403 444.489 82.3403H406.447C406.808 84.7234 407.462 86.6928 408.408 88.2591C409.355 89.8219 410.505 91.0807 411.86 92.0318C413.214 92.9864 414.71 93.6547 416.35 94.0401C417.99 94.429 419.698 94.6199 421.474 94.6199C424.392 94.6199 427.108 94.1674 429.619 93.2587C432.131 92.35 434.289 91.2115 436.097 89.8432C437.058 89.1289 438.097 88.5986 439.212 88.2591C440.323 87.9162 441.452 87.7465 442.595 87.7465C443.706 87.7465 444.767 87.9409 445.775 88.3263C446.782 88.7153 447.672 89.2562 448.437 89.9563C449.205 90.6564 449.812 91.512 450.266 92.5232C450.716 93.5274 450.941 94.673 450.941 95.9529ZM420.255 57.1447C418.601 57.1447 416.997 57.3745 415.45 57.8377C413.899 58.3009 412.495 59.0504 411.231 60.0935C409.966 61.1365 408.912 62.4978 408.072 64.1808C407.229 65.8638 406.69 67.911 406.447 70.3224H434.289C434.167 67.8226 433.71 65.7294 432.913 64.0464C432.117 62.3634 431.084 61.0092 429.823 59.9839C428.558 58.9585 427.101 58.2266 425.446 57.7952C423.789 57.3603 422.06 57.1447 420.255 57.1447Z" fill="white"/>
<path d="M515.912 41.8208C512.843 41.8314 512.196 44.6741 512.196 44.6741L507.805 58.6403C506.876 62.6852 503.732 62.2644 503.732 62.2644H491.882C491.882 62.2644 486.255 62.2644 482.975 62.2644C479.695 62.2644 479.234 64.842 479.234 64.842L475.965 74.4946C475.965 74.4946 473.161 82.7752 473.139 82.8354C472.679 84.1966 472.118 85.1018 471.582 85.7064C470.617 86.6716 469.435 86.852 468.859 86.8767H464.279L464.297 86.8838C463.407 86.8378 460.974 86.9545 460.414 89.525C460.414 89.525 459.91 91.5262 461.746 92.9193C462.011 93.1067 462.768 93.5557 463.972 93.5557C468.263 93.5557 472.75 93.5522 474.118 93.5486C476.966 93.5416 477.677 91.3494 477.677 91.3494L478.331 89.3871L483.243 74.6607L484.351 71.369C485.304 68.5368 488.127 68.8551 488.127 68.8551H502.05C502.05 68.8551 505.708 68.8692 508.563 68.8551C511.414 68.8409 512.121 66.875 512.121 66.875L512.593 65.4395L517.744 49.8929L518.784 46.6824C519.959 41.8562 515.912 41.8208 515.912 41.8208Z" fill="#FFE598"/>
<path fill-rule="evenodd" clip-rule="evenodd" d="M460.114 5.37266C461.141 2.17283 464.141 -0.00195312 467.535 -0.00195312H485.052C490.366 -0.00195312 494.123 5.15659 492.431 10.149C492.431 10.1492 492.431 10.1495 492.431 10.1497L487.383 25.0593H503.208C508.35 25.0593 511.981 30.0406 510.365 34.8693L504.634 51.9682C503.608 55.0183 500.728 57.0796 497.478 57.0796H476.767L470.135 76.5566C469.024 79.8103 465.943 82.003 462.469 82.003H459.078C457.666 82.003 456.522 80.8702 456.522 79.4729C456.522 78.0755 457.666 76.9428 459.078 76.9428H462.469C463.746 76.9428 464.881 76.1375 465.291 74.9366C465.291 74.9364 465.292 74.9361 465.292 74.9359L472.508 53.7416C472.858 52.7124 473.833 52.0193 474.93 52.0193H497.478C498.521 52.0193 499.45 51.3581 499.782 50.3705L505.511 33.2787C506.032 31.7219 504.861 30.1196 503.208 30.1196H483.83C483.007 30.1196 482.235 29.728 481.755 29.0673C481.274 28.4066 481.144 27.5574 481.406 26.7856L487.583 8.54122L487.583 8.54043C488.163 6.82929 486.875 5.05832 485.052 5.05832H467.535C466.37 5.05832 465.341 5.80385 464.988 6.90323C464.988 6.90338 464.988 6.90353 464.988 6.90368L458.068 28.4924C457.731 29.5435 456.745 30.2575 455.631 30.2575H432.891C431.802 30.2575 430.838 30.9509 430.502 31.9716L429.262 35.7301L428.569 37.9798C428.158 39.3164 426.729 40.0697 425.378 39.6623C424.028 39.2548 423.267 37.841 423.678 36.5043L424.379 34.2309C424.384 34.215 424.389 34.1991 424.394 34.1833L425.64 30.4061C425.64 30.4057 425.64 30.4052 425.64 30.4048C426.663 27.2965 429.592 25.1972 432.891 25.1972H453.76L460.114 5.37266Z" fill="white"/>
<path d="M344.15 28.7842C344.15 24.5979 345.182 21.5289 347.251 19.5807C349.316 17.6325 352.252 16.6602 356.057 16.6602C359.83 16.6602 362.756 17.6325 364.839 19.5807C366.922 21.5289 367.965 24.5979 367.965 28.7842V39.303H376.132C377.247 39.303 378.24 39.5152 379.108 39.9359C379.976 40.3567 380.709 40.9188 381.298 41.6154C381.888 42.3155 382.331 43.1428 382.627 44.0975C382.924 45.0557 383.07 46.0704 383.07 47.1417C383.07 48.2131 382.924 49.2349 382.627 50.2108C382.331 51.1831 381.888 52.0352 381.298 52.7671C380.709 53.499 379.976 54.0753 379.108 54.4961C378.24 54.9168 377.247 55.129 376.132 55.129H367.965V88.6796C367.965 90.3343 368.422 91.5683 369.341 92.3815C370.259 93.1947 371.406 93.5978 372.785 93.5978C375.078 93.5978 376.99 93.7852 378.515 94.1564C380.041 94.5312 381.245 95.0828 382.131 95.8112C383.017 96.5431 383.638 97.427 383.999 98.463C384.36 99.5025 384.539 100.687 384.539 102.016C384.539 103.187 384.292 104.329 383.799 105.45C383.306 106.57 382.406 107.56 381.095 108.42C379.783 109.279 377.979 109.972 375.682 110.488C373.385 111.008 370.416 111.266 366.775 111.266C359.494 111.266 353.899 109.463 349.998 105.86C346.093 102.257 344.142 96.8188 344.142 89.5458V55.1184H339.712C338.598 55.1184 337.604 54.9062 336.736 54.4855C335.868 54.0647 335.136 53.4884 334.546 52.7565C333.957 52.0246 333.514 51.1725 333.217 50.2002C332.921 49.2243 332.774 48.2025 332.774 47.1311C332.774 46.0598 332.921 45.0451 333.217 44.0869C333.514 43.1287 333.957 42.3013 334.546 41.6048C335.136 40.9082 335.868 40.3461 336.736 39.9253C337.604 39.5046 338.598 39.2924 339.712 39.2924H344.142V28.7842H344.15Z" fill="white"/>
<path d="M336.129 84.8472C333.964 72.8681 326.747 64.8526 315.122 60.8148C314.125 60.4683 313.546 59.9662 313.278 58.9833C315.265 58.8666 317.23 59.0681 319.188 58.8206C324.557 58.1418 327.891 51.9047 325.411 47.1456C323.768 43.9918 321.117 42.4537 317.58 42.4254C313.629 42.3936 309.677 42.4113 305.726 42.4148V42.429H272.643C271.307 42.5386 268.377 43.1184 266.462 46.0142C266.466 46.0142 266.473 46.0142 266.476 46.0142C264.543 49.1716 264.583 52.2548 266.458 55.3627C264.858 55.3627 263.372 55.3238 261.893 55.3698C258.223 55.4829 255.53 57.1624 254.061 60.5037C252.646 63.7247 253.461 67.1473 256.126 69.693C256.562 70.1067 256.391 70.2517 256.062 70.5664C252.525 73.9289 252.504 79.2254 256.03 82.5525C256.469 82.9662 256.473 83.1359 256.03 83.5531C252.532 86.8484 252.518 92.1909 256.001 95.4721C256.48 95.9211 256.455 96.0979 255.994 96.5328C252.793 99.5488 252.539 104.386 255.372 107.734C257.144 109.831 259.452 110.736 262.164 110.739C268.916 110.743 275.669 110.746 282.421 110.729C282.943 110.729 283.325 110.86 283.693 111.231C285.454 113.016 287.402 114.579 289.559 115.877C296.512 120.056 304.004 121.375 311.953 119.791C318.58 118.469 324.204 115.262 328.691 110.23C335.197 102.936 337.851 94.369 336.129 84.8472ZM272.896 46.0496C273.197 46.0142 273.5 46.0142 273.804 46.0142C288.363 46.0142 302.918 46.0107 317.476 46.0142C319.959 46.0142 321.778 47.2482 322.41 49.3307C323.289 52.2265 321.246 55.1364 318.169 55.3344C317.233 55.3945 316.294 55.3592 315.354 55.3592C308.755 55.3592 302.16 55.3592 295.562 55.3592C288.298 55.3592 281.035 55.3627 273.772 55.3556C271.346 55.3521 269.535 54.1252 268.895 52.0815C268.013 49.2706 269.92 46.3855 272.896 46.0496ZM257.352 62.0452C258.027 60.2173 259.417 59.2308 261.353 58.9904C261.71 58.9444 262.078 58.9585 262.439 58.9585C276.812 58.9585 291.181 58.9585 305.554 58.955C306.222 58.955 306.883 58.9798 307.534 59.1459C307.68 59.2166 307.827 59.2909 308.227 59.4854C307.569 59.4677 307.176 59.5207 306.798 59.3439C298.455 59.1919 291.135 61.7907 284.944 67.3665C284.215 68.0242 283.504 68.3424 282.475 68.3353C275.637 68.2823 268.799 68.3247 261.96 68.3C258.466 68.2858 256.194 65.1814 257.352 62.0452ZM261.7 71.9206C267.995 71.8746 274.29 71.9064 280.778 71.9064C279.338 73.9253 278.163 75.9018 277.287 78.0374C276.923 78.9213 276.594 79.8194 276.294 80.7281C276.158 81.1347 275.958 81.2655 275.522 81.262C270.949 81.2443 266.376 81.2797 261.807 81.2372C259.106 81.2125 257.048 79.1511 257.044 76.5807C257.037 74.0491 259.059 71.9418 261.7 71.9206ZM261.496 84.8861C265.908 84.7977 270.324 84.8614 274.74 84.8331C275.376 84.8295 275.233 85.1902 275.183 85.519C274.958 87.0005 274.854 88.4926 274.844 89.9917C274.833 91.3706 274.99 92.739 275.136 94.1745C270.513 94.1745 265.976 94.2417 261.446 94.1497C258.959 94.1002 257.052 91.9717 257.041 89.5427C257.03 87.0818 258.967 84.9391 261.496 84.8861ZM279.495 107.137C273.686 107.144 267.877 107.147 262.068 107.137C259.713 107.133 257.909 105.892 257.27 103.884C256.366 101.037 258.313 97.9577 261.335 97.8587C266.051 97.7031 270.774 97.8022 275.494 97.788C275.776 97.788 275.922 97.8658 276.005 98.1487C276.923 101.317 278.32 104.269 280.167 107.002C279.91 107.218 279.692 107.137 279.495 107.137ZM305.704 116.846C290.71 116.814 278.448 104.658 278.481 89.8538C278.513 75.0179 290.803 62.8797 305.754 62.9115C320.749 62.9433 333.01 75.1027 332.978 89.9033C332.946 104.746 320.663 116.877 305.704 116.846Z" fill="white"/>
<path fill-rule="evenodd" clip-rule="evenodd" d="M308.357 41.8486C311.431 41.8434 314.508 41.8382 317.584 41.8629C319.436 41.8778 321.087 42.2888 322.499 43.1318C323.912 43.9754 325.053 45.2322 325.916 46.888C328.578 51.9965 325.018 58.6511 319.259 59.3792C318.24 59.508 317.228 59.519 316.24 59.5141C316.069 59.5132 315.899 59.5119 315.73 59.5106C315.191 59.5065 314.661 59.5024 314.132 59.5136C314.191 59.5954 314.254 59.6684 314.323 59.7347C314.546 59.9498 314.857 60.1267 315.31 60.284C327.119 64.3856 334.486 72.5596 336.689 84.7483C338.443 94.4498 335.73 103.188 329.117 110.603C324.547 115.726 318.814 118.996 312.065 120.343C303.974 121.955 296.337 120.61 289.264 116.358C287.062 115.034 285.078 113.441 283.286 111.624C283.041 111.378 282.813 111.292 282.421 111.292C275.669 111.31 268.918 111.306 262.168 111.302H262.163C259.307 111.299 256.83 110.337 254.936 108.096C251.912 104.522 252.181 99.3479 255.601 96.1255C255.657 96.0733 255.698 96.032 255.728 95.9991C255.7 95.9681 255.661 95.9292 255.609 95.8808L255.609 95.88C251.888 92.3752 251.906 86.661 255.637 83.1458C255.675 83.1103 255.706 83.0797 255.731 83.053C255.706 83.0264 255.675 82.9959 255.637 82.9606L255.637 82.9601C251.872 79.4082 251.901 73.742 255.667 70.1612C255.675 70.1537 255.682 70.1466 255.689 70.1398C255.705 70.1252 255.719 70.1118 255.732 70.0992L255.731 70.0983C252.912 67.406 252.021 63.7371 253.539 60.2796C254.312 58.5221 255.419 57.175 256.84 56.2555C258.259 55.3371 259.956 54.8667 261.874 54.8075C262.892 54.7759 263.921 54.7841 264.974 54.7924C265.148 54.7938 265.322 54.7952 265.498 54.7964C264.824 53.4501 264.472 52.0884 264.47 50.7083C264.467 49.0712 264.956 47.4471 265.924 45.8312C265.939 45.7878 265.96 45.7458 265.986 45.7063C268.04 42.6005 271.181 41.9844 272.595 41.8684C272.611 41.8671 272.627 41.8665 272.642 41.8665H305.598C305.639 41.8572 305.681 41.8524 305.725 41.8523C306.602 41.8515 307.479 41.8501 308.357 41.8486ZM305.853 42.9778C305.812 42.9871 305.769 42.992 305.725 42.992H272.666C271.414 43.0987 268.769 43.6396 267.003 46.2242C266.992 46.2523 266.978 46.2797 266.962 46.3061C266.04 47.8119 265.605 49.2721 265.607 50.7063C265.61 52.1412 266.051 53.5907 266.946 55.0744C267.051 55.2483 267.054 55.4646 266.952 55.6407C266.851 55.8169 266.663 55.9258 266.458 55.9258C265.936 55.9258 265.431 55.9217 264.937 55.9178C263.897 55.9095 262.905 55.9016 261.91 55.9326C260.159 55.9865 258.675 56.4125 257.462 57.1974C256.252 57.9812 255.278 59.1446 254.582 60.7283M305.853 42.9778C306.69 42.977 307.526 42.9755 308.362 42.9741C311.435 42.9689 314.505 42.9637 317.575 42.9885C319.26 43.0019 320.703 43.3741 321.911 44.0956C323.119 44.8166 324.125 45.9058 324.905 47.4039C327.203 51.8135 324.096 57.633 319.115 58.2627C318.176 58.3814 317.227 58.3934 316.246 58.3885C316.082 58.3877 315.917 58.3864 315.75 58.3851C314.932 58.3787 314.089 58.3721 313.244 58.4218C313.073 58.4318 312.916 58.5174 312.816 58.6547C312.717 58.7921 312.684 58.9667 312.729 59.1302C312.885 59.7018 313.142 60.1675 313.53 60.5413C313.912 60.9096 314.389 61.1569 314.933 61.3461C326.375 65.3201 333.442 73.1772 335.569 84.9466C337.259 94.2886 334.663 102.684 328.264 109.858C323.859 114.797 318.346 117.941 311.84 119.239C304.032 120.795 296.686 119.503 289.854 115.396C287.74 114.125 285.83 112.592 284.099 110.838L284.098 110.837C283.608 110.342 283.071 110.166 282.421 110.166L282.419 110.166C275.668 110.184 268.917 110.18 262.164 110.177C259.597 110.174 257.458 109.325 255.808 107.373C253.166 104.251 253.404 99.7502 256.386 96.9407L256.386 96.9404C256.507 96.8258 256.629 96.7016 256.723 96.5688C256.819 96.4319 256.912 96.2487 256.918 96.0225C256.924 95.7933 256.839 95.6029 256.741 95.4561C256.647 95.3157 256.522 95.1856 256.393 95.0647C253.147 92.0073 253.157 87.0365 256.421 83.9611C256.54 83.8488 256.659 83.7262 256.75 83.5934C256.844 83.4553 256.93 83.2727 256.929 83.0501C256.928 82.8277 256.841 82.6459 256.748 82.5092C256.657 82.3776 256.539 82.2562 256.421 82.1453C256.422 82.1453 256.421 82.1452 256.421 82.1453L256.029 82.5527L256.421 82.145C256.421 82.1451 256.421 82.1452 256.421 82.1453M256.52 69.2881C254.009 66.8889 253.271 63.7127 254.582 60.7283L256.52 69.2881ZM256.52 69.2881C256.52 69.2882 256.521 69.2883 256.521 69.2884L256.126 69.6933L256.519 69.2871C256.52 69.2874 256.52 69.2877 256.52 69.2881ZM288.362 46.5765C283.509 46.5769 278.656 46.5773 273.803 46.5773C273.494 46.5773 273.224 46.5779 272.963 46.6087L272.96 46.609C270.336 46.9052 268.662 49.4437 269.438 51.9148L269.438 51.9153C269.993 53.69 271.558 54.7899 273.772 54.7931C279.22 54.7984 284.667 54.7978 290.115 54.7971C291.931 54.7969 293.746 54.7967 295.561 54.7967H315.354C315.621 54.7967 315.883 54.7993 316.141 54.8019C316.819 54.8088 317.472 54.8155 318.132 54.7731C320.846 54.5984 322.638 52.0395 321.865 49.4929C321.316 47.6845 319.748 46.5773 317.476 46.5773C307.77 46.5749 298.066 46.5757 288.362 46.5765ZM317.476 45.4517C320.169 45.4517 322.239 46.8124 322.954 49.169C323.939 52.4139 321.644 55.675 318.206 55.8963C317.5 55.9416 316.783 55.9343 316.09 55.9273C315.841 55.9247 315.595 55.9222 315.354 55.9222H295.561C293.746 55.9222 291.932 55.9224 290.117 55.9227C284.668 55.9233 279.219 55.924 273.771 55.9187C271.133 55.9148 269.075 54.5611 268.351 52.2488M317.476 45.4517C307.77 45.4493 298.066 45.4501 288.361 45.4509L317.476 45.4517ZM288.361 45.4509C283.509 45.4513 278.656 45.4517 273.803 45.4517L288.361 45.4509ZM273.803 45.4517L273.789 45.4517L273.803 45.4517ZM273.789 45.4517C273.495 45.4517 273.163 45.4517 272.83 45.4908L273.789 45.4517ZM272.83 45.4908C269.504 45.8671 267.363 49.0982 268.351 52.2483L272.83 45.4908ZM262.455 59.5216H262.439C262.36 59.5216 262.284 59.5211 262.211 59.5206C261.921 59.5186 261.673 59.5169 261.426 59.5487L261.423 59.549C260.534 59.6594 259.802 59.9368 259.222 60.3714C258.645 60.8042 258.19 61.4146 257.885 62.2386M262.455 59.5216C274.604 59.5216 286.75 59.5216 298.898 59.5195L262.455 59.5216ZM306.677 59.9051C306.919 59.9964 307.154 60.0257 307.379 60.0367C307.509 60.043 307.644 60.0435 307.778 60.0437L307.803 60.0438C307.932 60.044 308.064 60.0443 308.211 60.0482C308.478 60.0554 308.714 59.8773 308.778 59.6204C308.842 59.3635 308.717 59.0971 308.477 58.9805C308.255 58.8729 308.105 58.7987 307.99 58.7422C307.906 58.7008 307.841 58.6689 307.782 58.6404C307.748 58.6238 307.712 58.6107 307.675 58.6013C306.952 58.4164 306.23 58.3925 305.554 58.3925C291.192 58.396 276.833 58.396 262.471 58.396H262.439C262.379 58.396 262.317 58.3955 262.252 58.395C261.957 58.3926 261.612 58.3898 261.28 58.4324C260.234 58.5625 259.303 58.8986 258.536 59.4741C257.765 60.0516 257.188 60.8484 256.817 61.8523C255.515 65.38 258.097 68.8474 261.958 68.863C264.788 68.8733 267.614 68.872 270.438 68.8708C274.449 68.869 278.457 68.8672 282.47 68.8984L282.47 68.8984C283.66 68.9065 284.505 68.5236 285.326 67.783C291.378 62.3322 298.52 59.7801 306.677 59.9051ZM298.898 59.5195C293.617 60.6576 288.824 63.1111 284.56 66.9506L284.56 66.9509C283.923 67.5254 283.347 67.7787 282.479 67.7728C278.464 67.7417 274.445 67.7434 270.428 67.7452C267.604 67.7464 264.781 67.7477 261.962 67.7375C258.835 67.7248 256.872 64.9832 257.885 62.2386M305.753 63.4745C291.116 63.4434 279.08 75.3289 279.049 89.8553C279.017 104.347 291.023 116.252 305.705 116.283C320.349 116.314 332.378 104.436 332.409 89.9024C332.441 75.4139 320.434 63.5057 305.753 63.4745ZM277.911 89.8529C277.944 74.7074 290.488 62.3165 305.755 62.349C321.062 62.3815 333.579 74.7921 333.546 89.9048C333.514 105.057 320.977 117.441 305.703 117.409C290.395 117.376 277.878 104.969 277.911 89.8529ZM275.133 72.464C270.609 72.4575 266.157 72.4511 261.703 72.4836L261.699 71.9208L261.704 72.4836C261.704 72.4836 261.703 72.4836 261.703 72.4836C259.383 72.5025 257.606 74.3507 257.613 76.5794L257.613 76.5802C257.616 78.8355 259.416 80.6528 261.812 80.6747C264.527 80.7 267.239 80.6977 269.954 80.6954C271.808 80.6938 273.664 80.6923 275.524 80.6995L275.526 80.6995C275.629 80.7003 275.677 80.6905 275.695 80.6854C275.693 80.6881 275.691 80.6901 275.69 80.6913C275.692 80.6901 275.694 80.6882 275.697 80.6861C275.699 80.6844 275.701 80.6834 275.702 80.6828C275.701 80.6833 275.699 80.6842 275.695 80.6854C275.705 80.6708 275.726 80.6334 275.753 80.5522C275.753 80.5527 275.753 80.5531 275.753 80.5535L276.293 80.7283L275.754 80.5518C275.753 80.5519 275.753 80.5521 275.753 80.5522C276.057 79.6328 276.39 78.7225 276.76 77.8253C276.76 77.8255 276.76 77.8258 276.76 77.8261L277.287 78.0377L276.76 77.8253C276.76 77.8252 276.76 77.8253 276.76 77.8253M275.133 72.464C276.645 72.4662 278.165 72.4684 279.696 72.4692L275.133 72.464ZM275.14 71.3385C277.006 71.3412 278.884 71.3439 280.777 71.3439C280.99 71.3439 281.184 71.4611 281.282 71.6477C281.38 71.8344 281.364 72.0594 281.242 72.2312C279.819 74.2267 278.668 76.165 277.814 78.2492L277.813 78.2503C277.455 79.1204 277.13 80.0057 276.834 80.9032L276.833 80.9049C276.748 81.1614 276.611 81.4293 276.344 81.6121C276.081 81.7916 275.783 81.827 275.519 81.825C273.671 81.8179 271.82 81.8194 269.966 81.821C267.244 81.8232 264.519 81.8255 261.801 81.8003C258.795 81.7727 256.479 79.4675 256.475 76.5821C256.475 76.582 256.475 76.5818 256.475 76.5817L257.044 76.5809L256.475 76.5825C256.475 76.5824 256.475 76.5822 256.475 76.5821C256.467 73.7479 258.735 71.3818 261.694 71.3581L261.695 71.3581C266.154 71.3255 270.614 71.3319 275.14 71.3385ZM274.626 85.3968C272.992 85.4067 271.363 85.4044 269.736 85.402C266.99 85.398 264.252 85.394 261.507 85.449L261.495 84.8864L261.507 85.449C261.507 85.449 261.507 85.449 261.507 85.449C259.313 85.4954 257.599 87.3621 257.609 89.5405C257.618 91.6957 259.31 93.5446 261.457 93.5873C264.629 93.6517 267.802 93.6379 271.012 93.6239C272.171 93.6189 273.335 93.6138 274.506 93.6124C274.514 93.6827 274.521 93.7532 274.528 93.8236C274.542 93.9593 274.556 94.0952 274.57 94.2313L275.136 94.1748V93.612C274.926 93.612 274.716 93.6121 274.506 93.6124C274.382 92.4004 274.265 91.1988 274.274 89.988C274.274 89.9879 274.274 89.9881 274.274 89.988M275.745 85.6029C275.749 85.5754 275.754 85.5476 275.761 85.5107L275.764 85.4941C275.771 85.4528 275.78 85.4 275.788 85.3453C275.801 85.2458 275.816 85.0767 275.765 84.898C275.705 84.6881 275.564 84.5049 275.345 84.3927C275.153 84.2948 274.938 84.2694 274.736 84.2706H274.736C273.082 84.2812 271.422 84.2788 269.759 84.2764C267.002 84.2725 264.238 84.2685 261.484 84.3237L261.483 84.3237C258.619 84.3838 256.46 86.8022 256.472 89.5454C256.484 92.2483 258.608 94.6564 261.434 94.7127C261.434 94.7127 261.434 94.7127 261.434 94.7127M271.121 98.3427C267.858 98.3284 264.607 98.3141 261.354 98.4215C258.754 98.5066 257.006 101.179 257.811 103.715C258.368 105.462 259.932 106.571 262.068 106.574C267.781 106.584 273.494 106.581 279.207 106.574C277.576 104.017 276.323 101.274 275.471 98.3511C274.018 98.3554 272.568 98.349 271.121 98.3427ZM271.151 97.2171C272.601 97.2235 274.049 97.2298 275.492 97.2255L275.493 97.2255C275.672 97.2255 275.918 97.2468 276.141 97.3958C276.377 97.553 276.49 97.7844 276.551 97.9934C277.452 101.104 278.824 104.004 280.639 106.69C280.8 106.927 280.755 107.247 280.534 107.432C280.09 107.804 279.554 107.71 279.499 107.7C279.496 107.7 279.495 107.7 279.495 107.7C273.686 107.707 267.876 107.71 262.066 107.7M271.151 97.2171C267.878 97.2028 264.592 97.1884 261.316 97.2965L271.151 97.2171Z" fill="white"/>
<path d="M313.339 83.9917C313.349 85.0453 312.685 85.8408 311.724 85.9328C310.634 86.0353 309.852 85.3989 309.73 84.2003C309.566 82.588 308.701 81.5485 307.194 81.0322C305.614 80.4913 304.128 80.7246 302.864 81.8207C301.852 82.6976 301.434 83.829 301.906 85.1372C302.456 86.6541 303.657 87.3966 305.211 87.538C307.065 87.7077 308.866 87.9623 310.405 89.1326C312.603 90.8015 313.678 92.976 313.214 95.7055C312.738 98.4917 310.959 100.267 308.308 101.189C307.755 101.38 307.512 101.568 307.504 102.211C307.494 103.286 306.708 103.99 305.732 103.997C304.721 104.007 303.935 103.272 303.932 102.148C303.928 101.536 303.685 101.359 303.16 101.2C300.363 100.348 298.319 97.8553 298.123 95.1221C298.026 93.8175 298.658 92.9547 299.77 92.8699C300.845 92.785 301.57 93.478 301.735 94.7544C301.96 96.4657 303.174 97.6962 304.904 97.9684C306.858 98.276 308.708 97.4168 309.419 95.8788C310.33 93.9023 308.926 91.6889 306.522 91.2894C305.45 91.1091 304.364 91.1409 303.299 90.8156C300.277 89.8893 298.13 87.2092 298.098 84.1967C298.065 81.3116 300.141 78.5572 303.106 77.645C303.739 77.4505 303.932 77.1818 303.928 76.5348C303.921 75.4316 304.718 74.6538 305.704 74.6432C306.679 74.6326 307.551 75.421 307.504 76.5065C307.469 77.3233 307.865 77.4753 308.487 77.6768C311.231 78.5608 313.314 81.308 313.339 83.9917Z" fill="white"/>
<path fill-rule="evenodd" clip-rule="evenodd" d="M306.936 76.4824C306.967 75.7351 306.375 75.199 305.709 75.2062L305.709 75.2062C305.052 75.2133 304.491 75.7221 304.496 76.5315L304.496 76.532C304.498 76.8971 304.449 77.2732 304.215 77.5912C303.98 77.9097 303.633 78.0726 303.275 78.1827C300.534 79.0257 298.636 81.5697 298.665 84.1908L298.665 84.1911C298.695 86.9377 300.659 89.4175 303.466 90.2782C303.944 90.4241 304.437 90.4931 304.966 90.5474C305.092 90.5604 305.223 90.5726 305.356 90.5851C305.762 90.6233 306.194 90.6638 306.617 90.7349C309.3 91.1814 311.038 93.7226 309.936 96.1127L309.936 96.1132C309.098 97.9259 306.967 98.8635 304.814 98.5245L304.813 98.5245C302.837 98.2134 301.428 96.7879 301.17 94.8274L301.17 94.8259C301.098 94.2719 300.914 93.9138 300.697 93.7063C300.492 93.5099 300.209 93.4 299.814 93.4312L299.813 93.4313C299.407 93.4623 299.131 93.6263 298.953 93.869C298.767 94.123 298.648 94.5223 298.689 95.0814L298.689 95.0825C298.868 97.5715 300.741 99.875 303.327 100.662C303.6 100.745 303.926 100.865 304.165 101.13C304.422 101.415 304.498 101.772 304.5 102.145L304.5 102.146C304.502 102.971 305.043 103.442 305.726 103.434L305.728 103.434C306.4 103.429 306.928 102.966 306.935 102.206L306.935 102.205C306.939 101.821 307.014 101.459 307.269 101.165C307.506 100.891 307.834 100.757 308.119 100.659C310.608 99.7922 312.217 98.164 312.652 95.6124C313.076 93.121 312.117 91.143 310.059 89.5794L310.058 89.5792C308.66 88.5167 307.011 88.2683 305.158 88.0987C304.305 88.0211 303.515 87.7752 302.854 87.3136C302.188 86.849 301.682 86.1864 301.37 85.3277L301.37 85.3266C301.097 84.5692 301.073 83.8349 301.284 83.1528C301.494 82.476 301.921 81.8892 302.488 81.3977L302.488 81.3976C303.918 80.1586 305.621 79.8986 307.379 80.5007C308.214 80.7866 308.905 81.2298 309.409 81.8539C309.914 82.4787 310.204 83.2495 310.295 84.1441L310.295 84.1444C310.345 84.6347 310.522 84.947 310.735 85.1285C310.945 85.3077 311.251 85.4121 311.669 85.3728C312.293 85.3129 312.778 84.8037 312.769 83.9976L312.769 83.9971C312.747 81.5695 310.836 79.0258 308.31 78.2123L308.309 78.2119C308.302 78.2096 308.294 78.2071 308.287 78.2047C308.007 78.1141 307.629 77.9917 307.353 77.7268C307.023 77.4103 306.914 76.9847 306.936 76.483M305.697 74.0807C306.982 74.0668 308.133 75.1073 308.072 76.5306L308.072 76.5311C308.058 76.8377 308.126 76.9013 308.143 76.9173C308.143 76.9177 308.144 76.9181 308.144 76.9185C308.205 76.9771 308.323 77.0321 308.663 77.1421C311.625 78.0966 313.879 81.0473 313.907 83.9868L313.338 83.9919L313.907 83.9863C313.907 83.9864 313.907 83.9866 313.907 83.9868C313.92 85.2876 313.075 86.3691 311.778 86.4932L311.777 86.4933C311.106 86.5565 310.476 86.394 309.992 85.9809C309.511 85.5703 309.236 84.9652 309.164 84.257L309.73 84.2006L309.164 84.2567C309.164 84.2568 309.164 84.2569 309.164 84.257C309.091 83.5393 308.866 82.9842 308.521 82.5571C308.175 82.1294 307.68 81.7947 307.007 81.5644L307.007 81.5644C305.606 81.0845 304.337 81.2912 303.238 82.2443L302.863 81.821L303.237 82.2444C303.238 82.2443 303.238 82.2443 303.238 82.2443C302.793 82.6296 302.506 83.0471 302.372 83.4822C302.239 83.912 302.242 84.3974 302.441 84.948C302.441 84.9478 302.441 84.9476 302.441 84.9474L301.905 85.1375L302.441 84.9484C302.441 84.9483 302.441 84.9482 302.441 84.948C302.68 85.6058 303.049 86.0727 303.509 86.3937C303.974 86.7179 304.561 86.9141 305.262 86.9779L305.262 86.9779C307.118 87.1477 309.07 87.4085 310.751 88.6866C310.751 88.6865 310.751 88.6865 310.751 88.6864L310.405 89.1329L310.751 88.6866C313.087 90.4606 314.279 92.8316 313.774 95.7993L313.774 95.7995C313.259 98.82 311.309 100.742 308.496 101.721L308.495 101.721C308.226 101.814 308.157 101.869 308.133 101.897L308.132 101.898C308.124 101.907 308.075 101.963 308.072 102.217C308.072 102.217 308.072 102.217 308.072 102.217L307.504 102.212L308.072 102.218C308.072 102.218 308.072 102.218 308.072 102.217M305.737 104.56C305.736 104.56 305.736 104.56 305.736 104.56L305.732 103.997L305.738 104.56C305.737 104.56 305.737 104.56 305.737 104.56ZM305.737 104.56C304.398 104.573 303.367 103.574 303.362 102.151C303.362 102.151 303.362 102.151 303.362 102.151L303.931 102.148L303.362 102.15C303.362 102.15 303.362 102.15 303.362 102.151C303.362 102.032 303.349 101.963 303.338 101.924C303.328 101.892 303.319 101.882 303.317 101.88L303.317 101.879C303.302 101.863 303.245 101.815 302.993 101.739L302.992 101.738C299.983 100.822 297.769 98.14 297.555 95.1629C297.555 95.1631 297.555 95.1633 297.555 95.1635L298.122 95.1224L297.555 95.1624C297.555 95.1626 297.555 95.1627 297.555 95.1629C297.5 94.4175 297.648 93.7334 298.032 93.2088C298.424 92.6729 299.019 92.3632 299.724 92.3091C299.724 92.3091 299.724 92.3092 299.724 92.3092L299.769 92.8702L299.725 92.3091C299.725 92.3091 299.725 92.3091 299.724 92.3091C300.404 92.2556 301.021 92.4499 301.489 92.8976C301.944 93.3344 302.205 93.9607 302.298 94.6828C302.298 94.6826 302.298 94.6823 302.298 94.6821L301.734 94.7547L302.298 94.6836C302.298 94.6833 302.298 94.6831 302.298 94.6828C302.49 96.1444 303.51 97.1796 304.992 97.4129L304.903 97.9687L304.992 97.4129C304.992 97.4129 304.992 97.4129 304.992 97.4129C306.747 97.6891 308.318 96.9084 308.902 95.645C308.902 95.6452 308.901 95.6453 308.901 95.6455L309.419 95.8791L308.902 95.645C309.621 94.0825 308.552 92.1978 306.427 91.8447L306.426 91.8445C306.049 91.7811 305.677 91.7461 305.282 91.7089C305.141 91.6957 304.997 91.6822 304.849 91.667C304.301 91.6107 303.718 91.533 303.131 91.3537L303.13 91.3535C299.893 90.3613 297.563 87.4813 297.528 84.2032L298.097 84.197L297.528 84.203C297.493 81.0539 299.747 78.0893 302.937 77.1079L302.937 77.1079C303.211 77.0235 303.276 76.9549 303.295 76.9286C303.315 76.9019 303.36 76.8201 303.359 76.5384C303.35 75.1417 304.382 74.0949 305.697 74.0807" fill="white"/>
<path d="M329.331 88.5494C329.309 93.1847 328.441 96.8159 326.698 100.235C326.18 101.253 325.237 101.674 324.318 101.299C323.332 100.896 322.907 99.8425 323.411 98.75C324.29 96.8442 325.062 94.9137 325.387 92.8241C326.512 85.5617 324.208 79.5191 318.791 74.5832C317.566 73.4659 316.162 72.582 314.669 71.843C313.861 71.4399 313.275 70.8565 313.372 69.8807C313.493 68.6219 314.79 67.9254 316.023 68.5017C318.477 69.6473 320.656 71.1995 322.543 73.1265C326.969 77.6452 329.199 83.076 329.331 88.5494Z" fill="white"/>
<path fill-rule="evenodd" clip-rule="evenodd" d="M315.78 69.0106C314.869 68.5847 314.019 69.1007 313.938 69.9342L313.938 69.9355C313.903 70.2889 313.989 70.5402 314.14 70.7443C314.302 70.9631 314.563 71.16 314.924 71.3402C316.451 72.0958 317.903 73.0075 319.177 74.1693C324.726 79.2258 327.104 85.4529 325.949 92.9094L325.949 92.9098C325.612 95.0776 324.813 97.0648 323.929 98.9837C323.731 99.4111 323.731 99.7939 323.84 100.09C323.949 100.385 324.182 100.635 324.536 100.779C324.853 100.909 325.155 100.897 325.424 100.777C325.7 100.653 325.979 100.398 326.19 99.982L326.19 99.9815C327.889 96.6513 328.74 93.1099 328.762 88.5549C328.632 83.2318 326.464 77.9374 322.135 73.5183L322.135 73.5181C320.295 71.6391 318.172 70.127 315.78 69.0108L315.78 69.0106ZM316.266 67.9929C314.712 67.2664 312.969 68.1431 312.806 69.8266C312.745 70.4488 312.903 70.9769 313.223 71.4091C313.531 71.8266 313.967 72.1228 314.413 72.3455L314.415 72.3464C315.874 73.0686 317.23 73.9247 318.406 74.9972L318.407 74.9973C323.69 79.8124 325.92 85.6704 324.825 92.7385C324.512 94.7499 323.767 96.6237 322.894 98.5164L322.894 98.5164C322.587 99.1815 322.549 99.8718 322.772 100.477C322.996 101.082 323.469 101.561 324.102 101.819L324.102 101.82C324.702 102.065 325.331 102.053 325.892 101.802C326.447 101.555 326.899 101.091 327.206 100.489C328.994 96.9827 329.878 93.2639 329.9 88.552C329.9 88.5467 329.9 88.5413 329.9 88.536C329.764 82.9152 327.473 77.3509 322.951 72.7349C321.018 70.7601 318.783 69.1679 316.266 67.9929" fill="white"/>
<path d="M286.473 77.6348C287.695 77.6454 288.506 78.745 288.148 79.9224C287.802 81.068 287.18 82.1004 286.794 83.2354C283.475 92.9869 288.355 103.014 296.673 107.14C297.341 107.473 297.927 107.894 298.052 108.686C298.159 109.357 297.945 109.934 297.409 110.362C296.776 110.864 296.076 110.871 295.369 110.528C292.403 109.078 289.817 107.13 287.705 104.612C283.311 99.3725 281.514 93.337 282.307 86.5837C282.628 83.8364 283.497 81.2271 284.772 78.7591C285.129 78.0626 285.655 77.6348 286.473 77.6348Z" fill="white"/>
<path fill-rule="evenodd" clip-rule="evenodd" d="M285.776 78.3956C285.595 78.5219 285.428 78.7209 285.278 79.0137L285.277 79.0152C284.028 81.4318 283.183 83.9767 282.871 86.6483L282.871 86.6485C282.095 93.2497 283.847 99.1317 288.142 104.253C290.197 106.704 292.718 108.605 295.618 110.022C295.905 110.161 296.158 110.214 296.379 110.2C296.595 110.186 296.819 110.107 297.051 109.923C297.423 109.625 297.565 109.252 297.489 108.773L297.489 108.772C297.409 108.266 297.051 107.959 296.417 107.643C287.86 103.399 282.84 93.0877 286.254 83.0555C286.442 82.5015 286.683 81.9728 286.911 81.4738C286.929 81.4329 286.948 81.3922 286.966 81.3517C287.214 80.8071 287.441 80.2936 287.602 79.7608L287.602 79.7603C287.853 78.9347 287.302 78.206 286.469 78.1973C286.168 78.1978 285.95 78.2743 285.776 78.3956ZM285.121 77.4755C285.503 77.2091 285.955 77.0718 286.471 77.0718H286.476L286.476 77.0718C288.086 77.0858 289.155 78.5554 288.692 80.0836C288.506 80.6963 288.25 81.2718 288.003 81.8136C287.986 81.8514 287.969 81.8891 287.952 81.9266C287.72 82.4359 287.502 82.9158 287.332 83.4146L287.332 83.4148C284.108 92.8857 288.848 102.63 296.926 106.637L296.927 106.637C297.628 106.986 298.442 107.521 298.612 108.598C298.75 109.462 298.464 110.241 297.765 110.799L297.763 110.8C297.364 111.118 296.921 111.293 296.452 111.323C295.989 111.352 295.538 111.237 295.117 111.033L295.116 111.032C292.085 109.551 289.433 107.555 287.266 104.972L287.266 104.972C282.772 99.6129 280.93 93.424 281.741 86.5188M285.121 77.4755C284.746 77.737 284.471 78.0999 284.264 78.5034L285.121 77.4755ZM284.264 78.5034C282.962 81.0224 282.071 83.6959 281.741 86.5185L284.264 78.5034Z" fill="white"/>
<path d="M310.359 67.9678C310.345 68.9472 309.47 69.7639 308.455 69.7356C307.476 69.7073 306.655 68.9083 306.64 67.9642C306.626 66.999 307.498 66.1469 308.505 66.1504C309.516 66.1504 310.374 66.9884 310.359 67.9678Z" fill="white"/>
<path fill-rule="evenodd" clip-rule="evenodd" d="M307.209 67.9561C307.2 67.32 307.8 66.711 308.504 66.7135L307.209 67.9561ZM307.209 67.9563C307.219 68.5839 307.782 69.1532 308.472 69.1734C309.18 69.1931 309.782 68.615 309.791 67.9599C309.801 67.3078 309.213 66.7135 308.506 66.7135H308.504V66.7135M308.507 65.5879C307.196 65.5839 306.053 66.6787 306.072 67.9728L306.072 67.973C306.091 69.2332 307.171 70.2618 308.439 70.2985L308.44 70.2985C309.76 70.3353 310.909 69.2798 310.928 67.9762C310.947 66.6699 309.821 65.5885 308.507 65.5879Z" fill="white"/>
<path d="M304.803 111.129C304.778 112.105 303.885 112.921 302.884 112.886C301.863 112.847 301.041 111.992 301.087 111.012C301.134 110.068 301.977 109.294 302.956 109.297C303.96 109.304 304.824 110.16 304.803 111.129Z" fill="white"/>
<path fill-rule="evenodd" clip-rule="evenodd" d="M302.954 109.86C302.267 109.858 301.688 110.408 301.656 111.039C301.626 111.688 302.183 112.296 302.906 112.324C303.599 112.348 304.218 111.769 304.235 111.115C304.249 110.476 303.654 109.865 302.954 109.86ZM300.52 110.985C300.582 109.728 301.688 108.73 302.959 108.734L302.961 108.734V108.734C304.267 108.744 305.401 109.844 305.372 111.141L305.372 111.143C305.339 112.441 304.172 113.495 302.865 113.448L302.863 113.448C301.544 113.398 300.458 112.295 300.52 110.986L300.52 110.985Z" fill="white"/>
</g>
<defs>
<clipPath id="clip0">
<rect width="519" height="121" fill="white"/>
</clipPath>
</defs>
</svg>
