<svg width="29" height="29" viewBox="0 0 29 29" fill="none" xmlns="http://www.w3.org/2000/svg">
<mask id="mask0" style="mask-type:alpha" maskUnits="userSpaceOnUse" x="0" y="0" width="29" height="29">
<circle cx="14.5" cy="14.5" r="14.5" fill="#C4C4C4"/>
</mask>
<g mask="url(#mask0)">
<path d="M0 0H29V29H0V0Z" fill="#012169"/>
<path d="M0 0V3.23984L25.7573 29H29V25.7601L3.24268 0H0ZM29 0V3.23984L3.24268 29H0V25.7601L25.7573 0H29Z" fill="white"/>
<path d="M12.0843 0V29H16.9157V0H12.0843ZM0 9.66853V19.3314H29V9.66853H0Z" fill="white"/>
<path d="M0 11.6V17.4H29V11.6H0ZM13.05 0V29H15.95V0H13.05ZM0 29L9.66572 19.3314H11.8294L2.16084 29H0ZM0 0L9.66572 9.66853H7.50488L0 2.16367V0ZM17.1734 9.66853L26.8392 0H29L19.3343 9.66853H17.1734ZM29 29L19.3343 19.3314H21.4951L29 26.8362V29Z" fill="#C8102E"/>
</g>
</svg>
