<svg width="91" height="91" viewBox="0 0 91 91" fill="none" xmlns="http://www.w3.org/2000/svg">
<g filter="url(#filter0_d)">
<circle cx="45.5" cy="41.5" r="41.5" fill="url(#paint0_linear)"/>
</g>
<g filter="url(#filter1_d)">
<path d="M61.7594 38.7339C61.9465 38.7274 62.1329 38.759 62.3077 38.8268C62.4824 38.8946 62.6418 38.9973 62.7764 39.1287C62.911 39.2601 63.0181 39.4175 63.0912 39.5916C63.1643 39.7657 63.202 39.9528 63.202 40.142C63.202 40.3311 63.1643 40.5182 63.0912 40.6923C63.0181 40.8664 62.911 41.0238 62.7764 41.1552C62.6418 41.2866 62.4824 41.3893 62.3077 41.4571C62.1329 41.525 61.9465 41.5566 61.7594 41.55H57.8854V44.06H61.7594C61.9476 44.0507 62.1357 44.0801 62.3123 44.1465C62.4889 44.2129 62.6503 44.3148 62.7867 44.446C62.9232 44.5773 63.0318 44.7352 63.106 44.9102C63.1802 45.0852 63.2185 45.2735 63.2185 45.4639C63.2185 45.6542 63.1802 45.8426 63.106 46.0176C63.0318 46.1925 62.9232 46.3505 62.7867 46.4817C62.6503 46.613 62.4889 46.7149 62.3123 46.7813C62.1357 46.8476 61.9476 46.8771 61.7594 46.8678H56.4975C56.1297 46.8665 55.7773 46.718 55.5175 46.4549C55.2577 46.1918 55.1117 45.8355 55.1112 45.4639V34.8217C55.1112 34.047 55.7323 33.4111 56.4975 33.4111H61.7693C62.127 33.4298 62.4638 33.5867 62.71 33.8495C62.9563 34.1122 63.093 34.4605 63.0919 34.8223C63.0909 35.1841 62.9521 35.5317 62.7043 35.7929C62.4566 36.0541 62.1188 36.2091 61.7611 36.2256H57.8871V38.7355L61.7594 38.7339ZM53.2562 45.4622C53.2532 45.8349 53.1046 46.1913 52.8428 46.4539C52.581 46.7165 52.2272 46.864 51.8583 46.8644C51.6399 46.8666 51.424 46.8174 51.2277 46.7207C51.0313 46.6239 50.86 46.4824 50.7271 46.3072L45.336 38.8995V45.4605C45.336 45.8329 45.1896 46.19 44.929 46.4532C44.6684 46.7165 44.315 46.8644 43.9464 46.8644C43.5779 46.8644 43.2244 46.7165 42.9638 46.4532C42.7032 46.19 42.5568 45.8329 42.5568 45.4605V34.8183C42.5568 34.2176 42.9461 33.6788 43.5059 33.4864C43.6441 33.4371 43.7899 33.4127 43.9365 33.4144C44.3671 33.4144 44.7646 33.6504 45.0313 33.9817L50.4654 41.4061V34.8183C50.4654 34.0436 51.0865 33.4078 51.855 33.4078C52.6235 33.4078 53.2529 34.0436 53.2529 34.8183L53.2562 45.4622ZM40.576 45.4622C40.5742 45.8355 40.4261 46.1928 40.1641 46.4559C39.9021 46.7191 39.5475 46.8666 39.1781 46.8661C38.8114 46.863 38.4608 46.7138 38.2024 46.4509C37.944 46.188 37.7989 45.8327 37.7984 45.4622V34.82C37.7984 34.0453 38.4195 33.4094 39.188 33.4094C39.9549 33.4094 40.5776 34.0453 40.5776 34.82L40.576 45.4622ZM35.1319 46.8661H29.86C29.491 46.8652 29.1372 46.7173 28.8755 46.4545C28.6137 46.1916 28.4652 45.835 28.4622 45.4622V34.82C28.4622 34.0453 29.0915 33.4094 29.86 33.4094C30.6285 33.4094 31.2496 34.0453 31.2496 34.82V44.0583H35.1319C35.5004 44.0583 35.8539 44.2062 36.1145 44.4695C36.3751 44.7328 36.5215 45.0899 36.5215 45.4622C36.5215 45.8346 36.3751 46.1916 36.1145 46.4549C35.8539 46.7182 35.5004 46.8661 35.1319 46.8661ZM72 39.7345C72 27.752 60.1032 18 45.5 18C30.8968 18 19 27.752 19 39.7345C19 50.4721 28.429 59.4661 41.1606 61.1745C42.0235 61.3569 43.1962 61.7501 43.4993 62.4914C43.7659 63.1607 43.6715 64.1982 43.5854 64.906L43.2227 67.18C43.1183 67.851 42.6877 69.8221 45.5348 68.619C48.3902 67.4159 60.812 59.5213 66.3754 53.0523C70.1798 48.844 72 44.5201 72 39.7345Z" fill="white"/>
</g>
<defs>
<filter id="filter0_d" x="0" y="0" width="91" height="91" filterUnits="userSpaceOnUse" color-interpolation-filters="sRGB">
<feFlood flood-opacity="0" result="BackgroundImageFix"/>
<feColorMatrix in="SourceAlpha" type="matrix" values="0 0 0 0 0 0 0 0 0 0 0 0 0 0 0 0 0 0 127 0" result="hardAlpha"/>
<feOffset dy="4"/>
<feGaussianBlur stdDeviation="2"/>
<feComposite in2="hardAlpha" operator="out"/>
<feColorMatrix type="matrix" values="0 0 0 0 0 0 0 0 0 0 0 0 0 0 0 0 0 0 0.25 0"/>
<feBlend mode="normal" in2="BackgroundImageFix" result="effect1_dropShadow"/>
<feBlend mode="normal" in="SourceGraphic" in2="effect1_dropShadow" result="shape"/>
</filter>
<filter id="filter1_d" x="15" y="18" width="61" height="59" filterUnits="userSpaceOnUse" color-interpolation-filters="sRGB">
<feFlood flood-opacity="0" result="BackgroundImageFix"/>
<feColorMatrix in="SourceAlpha" type="matrix" values="0 0 0 0 0 0 0 0 0 0 0 0 0 0 0 0 0 0 127 0" result="hardAlpha"/>
<feOffset dy="4"/>
<feGaussianBlur stdDeviation="2"/>
<feComposite in2="hardAlpha" operator="out"/>
<feColorMatrix type="matrix" values="0 0 0 0 0 0 0 0 0 0 0 0 0 0 0 0 0 0 0.1 0"/>
<feBlend mode="normal" in2="BackgroundImageFix" result="effect1_dropShadow"/>
<feBlend mode="normal" in="SourceGraphic" in2="effect1_dropShadow" result="shape"/>
</filter>
<linearGradient id="paint0_linear" x1="45.5" y1="0" x2="45.5" y2="83" gradientUnits="userSpaceOnUse">
<stop stop-color="#44E207"/>
<stop offset="1" stop-color="#009F45"/>
</linearGradient>
</defs>
</svg>
