<svg width="37" height="37" viewBox="0 0 37 37" fill="none" xmlns="http://www.w3.org/2000/svg">
<g opacity="0.5">
<path d="M29.0292 21.5397C27.8207 21.54 26.6302 21.833 25.5595 22.3936C24.4888 22.9541 23.5697 23.7656 22.8809 24.7586L14.5973 20.6168C14.8499 19.8564 14.9783 19.0603 14.9777 18.259C14.9783 17.4578 14.8499 16.6617 14.5973 15.9013L22.8802 11.7595C23.5691 12.7525 24.4881 13.5639 25.5588 14.1245C26.6295 14.685 27.82 14.978 29.0285 14.9784C31.0142 14.9763 32.918 14.1865 34.3221 12.7824C35.7262 11.3783 36.516 9.47456 36.5181 7.48886C36.5158 5.50339 35.726 3.5999 34.3221 2.19596C32.9182 0.79202 31.0147 0.00228447 29.0292 0C27.0437 0.00228447 25.1402 0.79202 23.7363 2.19596C22.3324 3.5999 21.5426 5.50339 21.5403 7.48886C21.5397 8.2901 21.6682 9.08621 21.9208 9.8466L13.6378 13.9884C12.949 12.9954 12.0299 12.1839 10.9592 11.6234C9.88856 11.0628 8.69807 10.7699 7.48952 10.7695C5.50382 10.7716 3.60006 11.5614 2.19596 12.9655C0.791858 14.3696 0.00210908 16.2733 0 18.259C0.00228447 20.2445 0.79202 22.148 2.19596 23.5519C3.5999 24.9559 5.5034 25.7456 7.48886 25.7479C8.69741 25.7475 9.88789 25.4546 10.9586 24.894C12.0293 24.3335 12.9483 23.522 13.6372 22.529L21.9201 26.6708C21.4215 28.1739 21.4121 29.7963 21.8933 31.305C22.3745 32.8138 23.3215 34.1311 24.5984 35.0679C25.8752 36.0046 27.4161 36.5126 28.9997 36.5187C30.5833 36.5248 32.1281 36.0288 33.4122 35.1019C34.6962 34.175 35.6534 32.865 36.1462 31.36C36.6391 29.8551 36.6422 28.2326 36.1551 26.7258C35.6681 25.2189 34.716 23.9052 33.4355 22.9734C32.155 22.0416 30.6122 21.5397 29.0285 21.5397H29.0292ZM29.0292 2.13929C30.4475 2.14088 31.8073 2.705 32.8102 3.70789C33.8131 4.71079 34.3772 6.07055 34.3788 7.48886C34.3772 8.90717 33.8131 10.2669 32.8102 11.2698C31.8073 12.2727 30.4475 12.8368 29.0292 12.8384C27.6109 12.8368 26.2511 12.2727 25.2482 11.2698C24.2453 10.2669 23.6812 8.90717 23.6796 7.48886C23.6814 6.07067 24.2456 4.71107 25.2485 3.70832C26.2514 2.70557 27.611 2.14154 29.0292 2.13996V2.13929ZM7.48886 23.6086C6.07067 23.6068 4.71107 23.0426 3.70832 22.0398C2.70557 21.0369 2.14154 19.6772 2.13996 18.259C2.14155 16.8407 2.70566 15.481 3.70855 14.4781C4.71145 13.4752 6.07122 12.911 7.48952 12.9095C8.90771 12.9112 10.2673 13.4754 11.2701 14.4783C12.2728 15.4812 12.8368 16.8408 12.8384 18.259C12.8368 19.6773 12.2727 21.0371 11.2698 22.04C10.2669 23.0429 8.90717 23.607 7.48886 23.6086ZM29.0285 34.3788C27.9705 34.3788 26.9362 34.065 26.0565 33.4772C25.1768 32.8894 24.4911 32.0539 24.0862 31.0764C23.6813 30.0989 23.5754 29.0233 23.7818 27.9856C23.9882 26.9478 24.4977 25.9946 25.2458 25.2465C25.994 24.4983 26.9472 23.9888 27.9849 23.7824C29.0226 23.576 30.0982 23.682 31.0757 24.0868C32.0532 24.4917 32.8887 25.1774 33.4765 26.0571C34.0644 26.9369 34.3781 27.9712 34.3781 29.0292C34.3764 30.4473 33.8122 31.8068 32.8095 32.8095C31.8068 33.8122 30.4473 34.3763 29.0292 34.3781L29.0285 34.3788Z" fill="#414B5A"/>
</g>
</svg>
