<svg width="38" height="37" viewBox="0 0 38 37" fill="none" xmlns="http://www.w3.org/2000/svg">
<path opacity="0.5" d="M16.4764 7.91842L14.3742 8.269C13.45 8.42061 12.6101 8.89634 12.0047 9.611C11.3993 10.3256 11.0681 11.2325 11.0705 12.1691V21.3511C11.0712 21.9802 11.3215 22.5833 11.7664 23.0281C12.2113 23.4728 12.8144 23.7229 13.4435 23.7234C13.7133 23.7206 13.9805 23.6712 14.2335 23.5774V35.5852C14.2335 35.795 14.317 35.9962 14.4653 36.1446C14.6137 36.2929 14.8148 36.3763 15.0246 36.3763C15.2344 36.3763 15.4356 36.2929 15.584 36.1446C15.7324 35.9962 15.8158 35.795 15.8158 35.5852V13.4433C15.8158 13.2335 15.7324 13.0323 15.584 12.8839C15.4356 12.7355 15.2344 12.6522 15.0246 12.6522C14.8148 12.6522 14.6137 12.7355 14.4653 12.8839C14.317 13.0323 14.2335 13.2335 14.2335 13.4433V21.3518C14.2335 21.5615 14.1502 21.7627 14.0019 21.911C13.8536 22.0593 13.6525 22.1426 13.4428 22.1426C13.2331 22.1426 13.0319 22.0593 12.8836 21.911C12.7353 21.7627 12.6519 21.5615 12.6519 21.3518V12.1691C12.6505 11.6072 12.8493 11.0631 13.2126 10.6343C13.5759 10.2056 14.08 9.92022 14.6346 9.82934L16.7361 9.47807C16.8402 9.46292 16.9403 9.42715 17.0304 9.37283C17.1206 9.3185 17.1989 9.24674 17.2609 9.16173C17.323 9.07673 17.3673 8.98021 17.3916 8.87781C17.4158 8.77541 17.4194 8.6692 17.4021 8.5654C17.3848 8.46161 17.347 8.36232 17.2908 8.27334C17.2346 8.18436 17.1611 8.10746 17.0748 8.04721C16.9886 7.98696 16.8911 7.94455 16.7882 7.92243C16.6854 7.90032 16.5791 7.89894 16.4757 7.91842H16.4764ZM18.9789 23.7208C18.7692 23.7208 18.5681 23.8041 18.4198 23.9524C18.2715 24.1007 18.1882 24.3019 18.1882 24.5116V35.5832C18.1882 35.793 18.2714 35.9942 18.4198 36.1426C18.5682 36.291 18.7694 36.3743 18.9792 36.3743C19.189 36.3743 19.3903 36.291 19.5386 36.1426C19.687 35.9942 19.7704 35.793 19.7704 35.5832V24.5149C19.7705 24.4109 19.7501 24.3079 19.7103 24.2119C19.6705 24.1158 19.612 24.0285 19.5385 23.955C19.4649 23.8816 19.3775 23.8234 19.2814 23.7837C19.1852 23.7441 19.0822 23.7239 18.9782 23.7241L18.9789 23.7208ZM23.5835 8.26637L21.4814 7.91579C21.2767 7.88599 21.0685 7.93761 20.9014 8.05957C20.7343 8.18153 20.6216 8.36411 20.5876 8.56816C20.5535 8.77222 20.6007 8.98146 20.7192 9.15107C20.8376 9.32068 21.0178 9.43715 21.2211 9.47544L23.3232 9.82667C23.8776 9.91768 24.3816 10.2031 24.7448 10.6319C25.108 11.0606 25.3066 11.6046 25.3052 12.1665V21.3485C25.3083 21.4542 25.29 21.5595 25.2517 21.658C25.2134 21.7566 25.1557 21.8465 25.082 21.9224C25.0083 21.9983 24.92 22.0585 24.8226 22.0997C24.7252 22.1409 24.6206 22.1621 24.5148 22.1621C24.409 22.1621 24.3042 22.1409 24.2068 22.0997C24.1094 22.0585 24.0213 21.9983 23.9476 21.9224C23.8739 21.8465 23.8161 21.7566 23.7777 21.658C23.7394 21.5595 23.7212 21.4542 23.7242 21.3485V13.4433C23.7242 13.2336 23.641 13.0324 23.4927 12.8841C23.3444 12.7358 23.1432 12.6525 22.9335 12.6525C22.7238 12.6525 22.5225 12.7358 22.3742 12.8841C22.2259 13.0324 22.1428 13.2336 22.1428 13.4433V35.5859C22.1428 35.7956 22.2259 35.9967 22.3742 36.145C22.5225 36.2933 22.7238 36.3766 22.9335 36.3766C23.1432 36.3766 23.3444 36.2933 23.4927 36.145C23.641 35.9967 23.7242 35.7956 23.7242 35.5859V23.578C23.9772 23.6719 24.2446 23.7214 24.5145 23.7241C25.1434 23.7234 25.7463 23.4732 26.1911 23.0285C26.6358 22.5837 26.8861 21.9808 26.8868 21.3518V12.1691C26.8891 11.2323 26.5576 10.3253 25.9518 9.61071C25.346 8.89612 24.5055 8.42072 23.5809 8.26969L23.5835 8.26637ZM18.9789 7.90448C19.8176 7.9036 20.6218 7.57009 21.2149 6.9771C21.808 6.38411 22.1417 5.58007 22.1428 4.74137V3.1651C22.1428 2.74971 22.0608 2.33842 21.9019 1.95465C21.7429 1.57088 21.5099 1.22216 21.2162 0.928432C20.9225 0.634708 20.5739 0.401708 20.1901 0.242746C19.8063 0.0837838 19.3949 0.00198573 18.9795 0.00198573C18.5641 0.00198573 18.1529 0.0837838 17.7691 0.242746C17.3854 0.401708 17.0366 0.634708 16.7429 0.928432C16.4491 1.22216 16.2161 1.57088 16.0572 1.95465C15.8982 2.33842 15.8165 2.74971 15.8165 3.1651V4.74668C15.818 5.58469 16.1517 6.38792 16.7443 6.98042C17.337 7.57293 18.1402 7.9064 18.9782 7.9078L18.9789 7.90448ZM17.3981 3.15979C17.3938 2.94941 17.4314 2.74032 17.509 2.5447C17.5865 2.34908 17.7023 2.17089 17.8495 2.02059C17.9968 1.87028 18.1725 1.75087 18.3665 1.66935C18.5605 1.58783 18.7688 1.54583 18.9792 1.54583C19.1896 1.54583 19.398 1.58783 19.5919 1.66935C19.7859 1.75087 19.9618 1.87028 20.109 2.02059C20.2563 2.17089 20.3721 2.34908 20.4496 2.5447C20.5271 2.74032 20.5648 2.94941 20.5605 3.15979V4.74137C20.5648 4.95174 20.5271 5.16088 20.4496 5.3565C20.3721 5.55212 20.2563 5.73026 20.109 5.88057C19.9618 6.03088 19.7859 6.15032 19.5919 6.23184C19.398 6.31336 19.1896 6.35532 18.9792 6.35532C18.7688 6.35532 18.5605 6.31336 18.3665 6.23184C18.1725 6.15032 17.9968 6.03088 17.8495 5.88057C17.7023 5.73026 17.5865 5.55212 17.509 5.3565C17.4314 5.16088 17.3938 4.95174 17.3981 4.74137V3.15979ZM18.9789 9.48606C18.7692 9.48606 18.5681 9.56936 18.4198 9.71766C18.2715 9.86596 18.1882 10.0671 18.1882 10.2768V15.0215C18.1882 15.2313 18.2714 15.4326 18.4198 15.5809C18.5682 15.7293 18.7694 15.8126 18.9792 15.8126C19.189 15.8126 19.3903 15.7293 19.5386 15.5809C19.687 15.4326 19.7704 15.2313 19.7704 15.0215V10.2768C19.7695 10.0674 19.6856 9.86698 19.5372 9.71936C19.3887 9.57174 19.1876 9.48903 18.9782 9.48938L18.9789 9.48606ZM7.90723 23.7208C7.69762 23.721 7.49679 23.8044 7.34863 23.9527C7.20048 24.1009 7.11715 24.302 7.11715 24.5116V34.001C7.11715 34.2108 7.2006 34.412 7.34896 34.5604C7.49732 34.7087 7.69855 34.7921 7.90837 34.7921C8.11819 34.7921 8.31942 34.7087 8.46778 34.5604C8.61614 34.412 8.69942 34.2108 8.69942 34.001V24.5149C8.69951 24.4109 8.67912 24.3078 8.63928 24.2117C8.59945 24.1156 8.54095 24.0283 8.46729 23.9548C8.39363 23.8814 8.30625 23.8231 8.21004 23.7835C8.11383 23.744 8.01062 23.7238 7.90659 23.7241L7.90723 23.7208ZM5.40618 7.91842L3.30341 8.269C2.37921 8.42062 1.53911 8.89641 0.93382 9.61108C0.328529 10.3257 -0.0024529 11.2326 0.000119246 12.1691V21.3511C-0.00371605 21.7318 0.0850167 22.1076 0.25867 22.4464C0.432323 22.7851 0.685752 23.0766 0.997039 23.2957C1.30833 23.5149 1.66819 23.655 2.04567 23.7042C2.42315 23.7534 2.80697 23.7101 3.164 23.578V34.0023C3.164 34.212 3.24718 34.4132 3.39548 34.5615C3.54378 34.7098 3.745 34.7931 3.95473 34.7931C4.16446 34.7931 4.36552 34.7098 4.51382 34.5615C4.66212 34.4132 4.74546 34.212 4.74546 34.0023V13.4433C4.74546 13.2336 4.66212 13.0324 4.51382 12.8841C4.36552 12.7358 4.16446 12.6525 3.95473 12.6525C3.745 12.6525 3.54378 12.7358 3.39548 12.8841C3.24718 13.0324 3.164 13.2336 3.164 13.4433V21.3518C3.164 21.5617 3.08062 21.763 2.9322 21.9114C2.78377 22.0598 2.58237 22.1432 2.37246 22.1432C2.16256 22.1432 1.96132 22.0598 1.81289 21.9114C1.66447 21.763 1.58109 21.5617 1.58109 21.3518V12.1691C1.57982 11.6072 1.77853 11.0632 2.14179 10.6345C2.50506 10.2057 3.00907 9.92034 3.56358 9.82934L5.6657 9.47807C5.86849 9.43931 6.04809 9.32282 6.16611 9.15343C6.28413 8.98403 6.33131 8.77518 6.29741 8.57152C6.26351 8.36787 6.15125 8.18553 5.98472 8.0635C5.81819 7.94147 5.61059 7.8894 5.40618 7.91842ZM11.0711 3.16311C11.0711 2.3242 10.7379 1.51965 10.1447 0.926446C9.55151 0.333245 8.74696 0 7.90804 0C7.06913 0 6.26458 0.333245 5.67138 0.926446C5.07818 1.51965 4.74481 2.3242 4.74481 3.16311V4.74469C4.74481 5.5836 5.07818 6.38815 5.67138 6.98136C6.26458 7.57456 7.06913 7.9078 7.90804 7.9078C8.74696 7.9078 9.55151 7.57456 10.1447 6.98136C10.7379 6.38815 11.0711 5.5836 11.0711 4.74469V3.16311ZM9.4895 4.74469C9.4895 5.16415 9.32298 5.56642 9.02638 5.86302C8.72978 6.15962 8.3275 6.32627 7.90804 6.32627C7.48859 6.32627 7.08631 6.15962 6.78971 5.86302C6.49311 5.56642 6.32643 5.16415 6.32643 4.74469V3.1651C6.32643 2.74564 6.49311 2.34337 6.78971 2.04677C7.08631 1.75016 7.48859 1.58356 7.90804 1.58356C8.3275 1.58356 8.72978 1.75016 9.02638 2.04677C9.32298 2.34337 9.4895 2.74564 9.4895 3.1651V4.74469ZM30.0512 23.7241C29.9472 23.724 29.8443 23.7443 29.7482 23.784C29.6521 23.8236 29.5647 23.8818 29.4911 23.9553C29.4175 24.0287 29.3593 24.1159 29.3195 24.212C29.2796 24.308 29.2592 24.4109 29.2592 24.5149V34.0043C29.2592 34.214 29.3423 34.4151 29.4906 34.5634C29.6389 34.7118 29.8402 34.7951 30.0499 34.7951C30.2596 34.7951 30.4607 34.7118 30.609 34.5634C30.7573 34.4151 30.8406 34.214 30.8406 34.0043V24.5149C30.8407 24.4111 30.8203 24.3083 30.7806 24.2123C30.741 24.1164 30.6828 24.0292 30.6095 23.9558C30.5361 23.8823 30.4489 23.8241 30.353 23.7843C30.2571 23.7446 30.1543 23.7241 30.0505 23.7241H30.0512ZM34.6558 8.26969L32.553 7.91911C32.3483 7.88931 32.14 7.94094 31.9729 8.06289C31.8058 8.18485 31.6931 8.36743 31.6591 8.57148C31.625 8.77554 31.6724 8.98479 31.7908 9.1544C31.9093 9.32401 32.0894 9.44047 32.2927 9.47876L34.3942 9.82999C34.9487 9.92087 35.4528 10.2062 35.8161 10.635C36.1794 11.0637 36.3782 11.6078 36.3768 12.1698V21.3518C36.3768 21.5615 36.2935 21.7627 36.1452 21.911C35.9969 22.0593 35.7957 22.1426 35.5859 22.1426C35.3762 22.1426 35.1752 22.0593 35.0269 21.911C34.8786 21.7627 34.7952 21.5615 34.7952 21.3518V13.4433C34.7952 13.2336 34.7119 13.0324 34.5636 12.8841C34.4153 12.7358 34.2142 12.6525 34.0045 12.6525C33.7948 12.6525 33.5935 12.7358 33.4452 12.8841C33.2969 13.0324 33.2136 13.2336 33.2136 13.4433V34.0043C33.2136 34.214 33.2969 34.4151 33.4452 34.5634C33.5935 34.7118 33.7948 34.7951 34.0045 34.7951C34.2142 34.7951 34.4153 34.7118 34.5636 34.5634C34.7119 34.4151 34.7952 34.214 34.7952 34.0043V23.58C35.0484 23.6739 35.3159 23.7233 35.5859 23.7261C36.2149 23.7254 36.818 23.4753 37.2627 23.0305C37.7075 22.5858 37.9576 21.9827 37.9583 21.3538V12.1691C37.9605 11.2327 37.6293 10.326 37.0239 9.61144C36.4186 8.89692 35.5787 8.42128 34.6545 8.26969H34.6558ZM33.2142 4.74469V3.1651C33.2142 2.74971 33.1325 2.33842 32.9735 1.95465C32.8146 1.57088 32.5816 1.22216 32.2878 0.928432C31.9941 0.634708 31.6455 0.401708 31.2617 0.242746C30.878 0.0837838 30.4666 0.00198573 30.0512 0.00198573C29.6358 0.00198573 29.2245 0.0837838 28.8408 0.242746C28.457 0.401708 28.1082 0.634708 27.8145 0.928432C27.5208 1.22216 27.2878 1.57088 27.1288 1.95465C26.9699 2.33842 26.8881 2.74971 26.8881 3.1651V4.74668C26.8881 5.58559 27.2213 6.39014 27.8145 6.98334C28.4077 7.57654 29.2123 7.90979 30.0512 7.90979C30.8901 7.90979 31.6946 7.57654 32.2878 6.98334C32.881 6.39014 33.2142 5.58559 33.2142 4.74668V4.74469ZM28.4696 4.74469V3.1651C28.4696 2.74564 28.6362 2.34337 28.9328 2.04677C29.2294 1.75016 29.6317 1.58356 30.0512 1.58356C30.4706 1.58356 30.8729 1.75016 31.1695 2.04677C31.4661 2.34337 31.6328 2.74564 31.6328 3.1651V4.74668C31.6328 5.16613 31.4661 5.56841 31.1695 5.86501C30.8729 6.16161 30.4706 6.32825 30.0512 6.32825C29.6317 6.32825 29.2294 6.16161 28.9328 5.86501C28.6362 5.56841 28.4696 5.16613 28.4696 4.74668V4.74469Z" fill="#414B5A"/>
</svg>
