<svg width="27" height="42" viewBox="0 0 27 42" fill="none" xmlns="http://www.w3.org/2000/svg">
<path opacity="0.5" d="M23.4399 0H2.6048C1.91431 0.000702765 1.25229 0.275268 0.763981 0.763454C0.27567 1.25164 0.000878797 1.91358 0 2.60407V39.0657C0.000878797 39.7562 0.27567 40.4182 0.763981 40.9063C1.25229 41.3945 1.91431 41.6691 2.6048 41.6698H23.4399C24.1304 41.6691 24.7924 41.3945 25.2808 40.9063C25.7691 40.4182 26.0439 39.7562 26.0447 39.0657V2.60407C26.044 1.91353 25.7693 1.25148 25.2809 0.763252C24.7926 0.275027 24.1305 0.00052731 23.4399 0ZM24.3085 39.0657C24.3083 39.2959 24.2167 39.5167 24.0538 39.6794C23.891 39.8421 23.6702 39.9335 23.4399 39.9335H2.6048C2.37463 39.9334 2.1539 39.8419 1.99108 39.6792C1.82827 39.5165 1.73661 39.2959 1.73626 39.0657V34.7247H24.3111L24.3085 39.0657ZM24.3085 32.9891H1.73367V5.20883H24.3085V32.9891ZM24.3085 3.47256H1.73367V2.60407C1.73384 2.37379 1.82534 2.15302 1.98817 1.99019C2.151 1.82736 2.37176 1.73579 2.60204 1.73561H23.4373C23.6676 1.73579 23.8884 1.82736 24.0512 1.99019C24.214 2.15302 24.3055 2.37379 24.3057 2.60407L24.3085 3.47256ZM12.1545 38.1979H13.8916C14.1218 38.1979 14.3425 38.1064 14.5053 37.9436C14.6681 37.7808 14.7596 37.56 14.7596 37.3298C14.7596 37.0995 14.6681 36.8787 14.5053 36.7159C14.3425 36.5531 14.1218 36.4617 13.8916 36.4617H12.1545C11.9242 36.4617 11.7034 36.5531 11.5406 36.7159C11.3778 36.8787 11.2864 37.0995 11.2864 37.3298C11.2864 37.56 11.3778 37.7808 11.5406 37.9436C11.7034 38.1064 11.9242 38.1979 12.1545 38.1979Z" fill="#414B5A"/>
</svg>
