<svg width="39" height="39" viewBox="0 0 39 39" fill="none" xmlns="http://www.w3.org/2000/svg">
<path opacity="0.5" d="M38.2176 19.1083C38.2175 15.3289 37.0968 11.6344 34.997 8.49204C32.8972 5.34967 29.9126 2.90054 26.4209 1.45435C22.9291 0.00816535 19.0869 -0.370146 15.3802 0.367304C11.6735 1.10475 8.26878 2.92484 5.59645 5.59736C2.92411 8.26989 1.10427 11.6748 0.367076 15.3816C-0.370117 19.0884 0.00834265 22.9306 1.45477 26.4222C2.9012 29.9139 5.35067 32.8981 8.49319 34.9977C11.6357 37.0974 15.3301 38.218 19.1095 38.2178H19.1247H19.1393C24.2005 38.2043 29.0499 36.1856 32.6258 32.6039C36.2016 29.0222 38.2124 24.1694 38.2176 19.1083ZM28.759 28.8194C29.6992 25.94 30.2008 22.9356 30.2474 19.907H36.6083C36.4198 24.0827 34.7392 28.0521 31.8717 31.0935C30.9193 30.2252 29.8757 29.4627 28.759 28.8194ZM36.6083 18.3142H30.2474C30.2015 15.2531 29.6885 12.217 28.7263 9.31081C29.824 8.66325 30.853 7.90551 31.7971 7.04934C34.7077 10.0996 36.4159 14.1003 36.6057 18.3121L36.6083 18.3142ZM19.9083 10.3141V1.67651C22.7488 2.08153 25.1966 4.67431 26.7782 8.56515C24.6331 9.6174 22.2929 10.2123 19.9057 10.3121L19.9083 10.3141ZM27.3228 10.0684C28.1564 12.7394 28.6017 15.5164 28.6452 18.3142H19.9083V11.9069C22.4788 11.8063 25.0013 11.18 27.3202 10.0664L27.3228 10.0684ZM11.4904 8.57576C13.0839 4.71813 15.5328 2.10546 18.3162 1.67521V10.3134C15.9442 10.2131 13.6188 9.62101 11.4878 8.57447L11.4904 8.57576ZM18.3162 11.9062V18.3135H9.56759C9.61921 15.5142 10.0801 12.7376 10.9354 10.0717C13.2437 11.1803 15.7545 11.8041 18.3133 11.9049L18.3162 11.9062ZM10.0827 7.79496C9.20206 7.24625 8.37277 6.61912 7.60488 5.92124C9.34109 4.40237 11.3605 3.24166 13.5468 2.50582C12.0525 4.02181 10.8735 5.81907 10.0782 7.79363L10.0827 7.79496ZM18.3162 19.9057V26.3116C15.7546 26.3996 13.2364 26.9992 10.9101 28.0751C10.0713 25.4318 9.61917 22.6811 9.56759 19.9083L18.3162 19.9057ZM18.3162 27.9038V36.5579C15.5136 36.125 13.0509 33.4771 11.4567 29.573C13.606 28.5588 15.9383 27.9907 18.3133 27.9031L18.3162 27.9038ZM19.9096 36.5619V27.9031C22.2871 27.9888 24.6227 28.5534 26.7769 29.563C25.1787 33.4864 22.7116 36.1416 19.9057 36.5612L19.9096 36.5619ZM19.9096 26.3116V19.9057H28.6566C28.6052 22.6759 28.1557 25.4243 27.3215 28.0665C24.9909 26.994 22.4698 26.3969 19.9057 26.3103L19.9096 26.3116ZM28.1541 7.80493C27.3641 5.83021 26.1905 4.03161 24.7013 2.51311C26.885 3.25184 28.9013 4.41456 30.6345 5.93453C29.8642 6.63093 29.0328 7.25648 28.1502 7.8036L28.1541 7.80493ZM6.44229 7.03337C7.3841 7.89034 8.41072 8.64942 9.50599 9.29885C8.53984 12.208 8.02464 15.2478 7.97868 18.3128H1.61882C1.80771 14.0934 3.52023 10.0856 6.43905 7.03273L6.44229 7.03337ZM1.6159 19.9057H7.97609C8.02321 22.9386 8.52768 25.947 9.4726 28.8294C8.35831 29.4742 7.31728 30.2378 6.3674 31.1068C3.48975 28.0643 1.80209 24.0885 1.61266 19.905L1.6159 19.9057ZM7.52058 32.2255C8.29803 31.515 9.14327 30.8821 10.0438 30.3359C10.8366 32.3404 12.0217 34.1664 13.5297 35.7067C11.3132 34.9591 9.26886 33.7752 7.51734 32.2249L7.52058 32.2255ZM28.1933 30.3253C29.0951 30.8703 29.9414 31.5018 30.7208 32.2109C28.9737 33.7621 26.9343 34.9482 24.7221 35.6994C26.2236 34.156 27.4023 32.3288 28.1897 30.3246L28.1933 30.3253Z" fill="#414B5A"/>
</svg>
