<svg width="42" height="33" viewBox="0 0 42 33" fill="none" xmlns="http://www.w3.org/2000/svg">
<g opacity="0.5">
<path d="M41.9998 23.7482V2.28521C41.9987 1.67947 41.7545 1.09887 41.3207 0.670553C40.8869 0.242234 40.2988 0.00111382 39.6853 0H2.31644C1.70283 0.000743371 1.11457 0.241747 0.680678 0.670145C0.246791 1.09854 0.00270602 1.67936 0.00195312 2.28521V23.7503V25.2356C0.00308122 25.8419 0.247514 26.4231 0.68172 26.8518C1.11593 27.2805 1.70451 27.5218 2.31857 27.5229H15.8114L13.1427 31.1706H6.4148C6.16956 31.1706 5.93437 31.2668 5.76096 31.438C5.58756 31.6092 5.49014 31.8414 5.49014 32.0835C5.49014 32.3257 5.58756 32.5579 5.76096 32.7291C5.93437 32.9003 6.16956 32.9965 6.4148 32.9965H35.5863C35.8315 32.9965 36.0667 32.9003 36.2401 32.7291C36.4135 32.5579 36.5109 32.3257 36.5109 32.0835C36.5109 31.8414 36.4135 31.6092 36.2401 31.438C36.0667 31.2668 35.8315 31.1706 35.5863 31.1706H28.8612L26.1967 27.5229H39.6853C40.2991 27.5215 40.8872 27.2799 41.321 26.8512C41.7548 26.4225 41.9989 25.8416 41.9998 25.2356V23.7468V23.7482ZM39.2173 16.6763H40.5744V18.1286C40.0617 17.7031 39.6057 17.2151 39.2173 16.6763ZM38.4214 15.304C38.1004 14.5873 37.8982 13.8242 37.8225 13.0441H40.5766C40.5766 13.8208 40.5766 14.5891 40.5766 15.304H38.4214ZM40.5766 6.55084V8.04669H39.1953C39.5868 7.48963 40.0515 6.98638 40.5773 6.55013L40.5766 6.55084ZM40.5766 9.41683V11.674H37.8268C37.9048 10.8961 38.1039 10.1347 38.4171 9.41683H40.5766ZM37.5472 8.04669H36.4348C37.0644 7.36192 37.8352 6.81812 38.6952 6.45182C38.256 6.94091 37.8711 7.47512 37.5472 8.04529V8.04669ZM35.4774 9.41683H36.922C36.6604 10.1453 36.4943 10.9038 36.4277 11.674H34.7918C34.8747 10.8855 35.1073 10.1195 35.4774 9.41613V9.41683ZM36.4241 13.0448C36.4871 13.8167 36.6546 14.5768 36.922 15.3047H35.4753C35.1046 14.6007 34.8718 13.834 34.7889 13.0448H36.4241ZM37.5622 16.677C37.9007 17.2553 38.3 17.7967 38.7536 18.2922C37.8721 17.9256 37.0817 17.3745 36.437 16.677H37.5622ZM2.31644 1.37014H39.6846C39.9299 1.37014 40.1651 1.46633 40.3385 1.63754C40.5119 1.80876 40.6093 2.04097 40.6093 2.2831V4.58868C38.6365 4.753 36.7978 5.64173 35.4563 7.07936C34.1148 8.51698 33.3681 10.399 33.3635 12.3538V12.3622V12.3706C33.3684 14.3253 34.1153 16.2071 35.4567 17.6447C36.7981 19.0822 38.6366 19.971 40.6093 20.1357V23.0705H1.38965V20.1357C3.36264 19.9714 5.20157 19.0827 6.54339 17.6452C7.88521 16.2076 8.63243 14.3256 8.63753 12.3706V12.3531C8.63225 10.3982 7.88495 8.51637 6.54315 7.07894C5.20134 5.64152 3.36252 4.75296 1.38965 4.58868V2.28521C1.38936 2.16496 1.41315 2.04585 1.45962 1.9347C1.5061 1.82356 1.57435 1.72257 1.66047 1.63754C1.74659 1.55251 1.84886 1.48512 1.96143 1.43923C2.074 1.39334 2.19465 1.36986 2.31644 1.37014ZM1.42734 7.4631C1.42734 7.11196 1.42734 6.81138 1.42734 6.55013C1.95326 6.98493 2.41782 7.48731 2.80864 8.04388H1.42734V7.4631ZM3.5825 9.41613C3.89738 10.1336 4.09727 10.8951 4.17499 11.6732H1.42734V9.41613H3.5825ZM1.42734 13.0441H4.17713C4.10245 13.8244 3.9002 14.5876 3.57824 15.304H1.42734V13.0441ZM2.78445 16.6763C2.39484 17.2141 1.93897 17.7019 1.42734 18.1286V16.6763H2.78445ZM4.43888 16.6763H5.56482C4.92165 17.3747 4.13174 17.9259 3.25034 18.2915C3.70366 17.7964 4.10211 17.255 4.43888 16.6763ZM6.52646 15.304H5.0776C5.34819 14.5769 5.51574 13.8164 5.57549 13.0441H7.21142C7.12702 13.8326 6.89475 14.5987 6.52646 15.3033V15.304ZM5.57122 11.674C5.50783 10.9034 5.34161 10.1444 5.07689 9.41683H6.52575C6.89344 10.1209 7.12545 10.8862 7.21 11.674H5.57122ZM4.45239 8.04599C4.12962 7.47489 3.74493 6.94012 3.30511 6.45111C4.16583 6.8163 4.93679 7.36027 5.56554 8.04599H4.45239ZM27.147 31.1727H14.8526L17.5192 27.525H24.4811L27.147 31.1727ZM40.6093 25.2377C40.6093 25.4799 40.5119 25.7121 40.3385 25.8833C40.1651 26.0545 39.9299 26.1507 39.6846 26.1507H2.31644C2.0712 26.1507 1.83601 26.0545 1.6626 25.8833C1.4892 25.7121 1.39178 25.4799 1.39178 25.2377V24.454H40.6135L40.6093 25.2377Z" fill="#414B5A"/>
<path d="M27.7247 15.7393H16.234C16.0791 15.7393 15.9285 15.6884 15.8062 15.5945C15.6838 15.5007 15.5966 15.3692 15.5583 15.221L13.7268 7.97839C13.7008 7.87737 13.6987 7.77183 13.7204 7.66984C13.7422 7.56786 13.7873 7.47214 13.8523 7.39004C13.9173 7.30794 14.0005 7.24164 14.0955 7.1962C14.1905 7.15077 14.2948 7.12742 14.4004 7.12794H27.7247C27.8158 7.12775 27.9061 7.1453 27.9903 7.17959C28.0746 7.21387 28.1512 7.26422 28.2157 7.32774C28.2802 7.39127 28.3315 7.46673 28.3664 7.54981C28.4014 7.6329 28.4195 7.72198 28.4196 7.81196V15.0545C28.4196 15.1446 28.4016 15.2337 28.3666 15.3169C28.3317 15.4001 28.2805 15.4756 28.2159 15.5392C28.1514 15.6028 28.0748 15.6532 27.9905 15.6875C27.9062 15.7219 27.8158 15.7394 27.7247 15.7393ZM16.771 14.3691H27.0269V8.49808H15.2873L16.771 14.3691Z" fill="#414B5A"/>
<path d="M20.2318 15.7397C20.077 15.739 19.9268 15.6878 19.8046 15.5941C19.6824 15.5003 19.595 15.3693 19.5561 15.2214L17.7245 7.97883C17.6802 7.80254 17.7086 7.61608 17.8035 7.46048C17.8984 7.30487 18.0521 7.19286 18.2306 7.14909C18.4092 7.10532 18.598 7.13337 18.7556 7.22708C18.9132 7.32079 19.0267 7.47247 19.071 7.64876L20.9046 14.8871C20.9269 14.9744 20.9315 15.0652 20.9181 15.1542C20.9048 15.2433 20.8737 15.3289 20.8268 15.406C20.7799 15.4832 20.718 15.5505 20.6447 15.604C20.5714 15.6575 20.4881 15.6962 20.3996 15.7179C20.3449 15.7324 20.2885 15.7397 20.2318 15.7397Z" fill="#414B5A"/>
<path d="M25.2547 15.7394C25.0996 15.7397 24.949 15.6889 24.8265 15.595C24.7041 15.5011 24.617 15.3695 24.579 15.2211L22.7474 7.97853C22.7255 7.89091 22.7212 7.79989 22.7349 7.71065C22.7486 7.62141 22.7799 7.53571 22.8271 7.45843C22.8744 7.38115 22.9365 7.31382 23.0101 7.26027C23.0837 7.20672 23.1672 7.168 23.256 7.14633C23.3447 7.12466 23.4369 7.12045 23.5273 7.13396C23.6177 7.14746 23.7045 7.17841 23.7827 7.22504C23.861 7.27167 23.9292 7.33306 23.9834 7.40571C24.0377 7.47836 24.0769 7.56084 24.0988 7.64846L25.9304 14.8868C25.9526 14.9743 25.9571 15.0652 25.9436 15.1543C25.9301 15.2435 25.8989 15.3291 25.8518 15.4063C25.8046 15.4835 25.7425 15.5508 25.669 15.6042C25.5954 15.6576 25.5119 15.6962 25.4232 15.7176C25.3683 15.7324 25.3116 15.7397 25.2547 15.7394Z" fill="#414B5A"/>
<path d="M16.112 15.2666C15.9576 15.2668 15.8076 15.2158 15.686 15.1219C15.5644 15.0279 15.4782 14.8964 15.4413 14.7483L13.205 5.92141H11.089C10.9088 5.91571 10.7379 5.84104 10.6125 5.71319C10.4871 5.58534 10.417 5.41433 10.417 5.23634C10.417 5.05836 10.4871 4.88734 10.6125 4.75949C10.7379 4.63164 10.9088 4.55697 11.089 4.55127H13.747C13.902 4.55131 14.0525 4.60257 14.1746 4.69688C14.2967 4.79119 14.3833 4.92312 14.4206 5.07165L16.7877 14.4162C16.8096 14.5034 16.8138 14.5941 16.8002 14.6831C16.7866 14.772 16.7553 14.8574 16.7082 14.9343C16.6611 15.0113 16.5991 15.0783 16.5257 15.1316C16.4523 15.1849 16.369 15.2234 16.2806 15.2448C16.2256 15.2596 16.1689 15.267 16.112 15.2666Z" fill="#414B5A"/>
<path d="M18.3988 20.1678C18.0132 20.1678 17.6363 20.0549 17.3157 19.8433C16.9951 19.6318 16.7452 19.3312 16.5976 18.9795C16.4501 18.6277 16.4115 18.2407 16.4867 17.8673C16.5619 17.4939 16.7476 17.1509 17.0202 16.8817C17.2929 16.6125 17.6403 16.4291 18.0185 16.3549C18.3967 16.2806 18.7887 16.3187 19.1449 16.4644C19.5011 16.6101 19.8056 16.8568 20.0199 17.1734C20.2341 17.4899 20.3484 17.8621 20.3484 18.2428C20.3475 18.7531 20.1418 19.2421 19.7764 19.6029C19.4109 19.9637 18.9156 20.1668 18.3988 20.1678ZM18.3988 17.6859C18.2878 17.6859 18.1792 17.7184 18.0869 17.7793C17.9945 17.8401 17.9225 17.9267 17.8799 18.0279C17.8373 18.1292 17.8261 18.2406 17.8476 18.3482C17.8691 18.4557 17.9224 18.5546 18.0007 18.6323C18.0791 18.7099 18.179 18.7629 18.2879 18.7846C18.3968 18.8062 18.5097 18.7955 18.6124 18.7539C18.7151 18.7122 18.803 18.6414 18.865 18.5505C18.927 18.4595 18.9603 18.3525 18.9607 18.2428C18.9605 18.0955 18.9013 17.9543 18.7961 17.85C18.6908 17.7456 18.548 17.6867 18.3988 17.6859Z" fill="#414B5A"/>
<path d="M26.4701 20.1678C26.0845 20.1678 25.7076 20.0549 25.387 19.8433C25.0664 19.6318 24.8165 19.3312 24.6689 18.9795C24.5214 18.6277 24.4827 18.2407 24.558 17.8673C24.6332 17.4939 24.8189 17.1509 25.0915 16.8817C25.3642 16.6125 25.7116 16.4291 26.0898 16.3549C26.4679 16.2806 26.8599 16.3187 27.2162 16.4644C27.5724 16.6101 27.8769 16.8568 28.0911 17.1734C28.3054 17.4899 28.4197 17.8621 28.4197 18.2428C28.4188 18.7531 28.2131 19.2421 27.8476 19.6029C27.4822 19.9637 26.9869 20.1668 26.4701 20.1678ZM26.4701 17.6859C26.359 17.6855 26.2502 17.7176 26.1576 17.7782C26.0649 17.8389 25.9926 17.9252 25.9497 18.0264C25.9067 18.1277 25.8952 18.2392 25.9165 18.3469C25.9377 18.4546 25.9909 18.5536 26.0691 18.6315C26.1474 18.7094 26.2473 18.7626 26.3563 18.7844C26.4652 18.8062 26.5782 18.7957 26.681 18.7541C26.7839 18.7125 26.8719 18.6417 26.934 18.5507C26.9961 18.4597 27.0295 18.3525 27.0299 18.2428C27.0301 18.0958 26.9713 17.9547 26.8664 17.8503C26.7615 17.7459 26.619 17.6868 26.4701 17.6859Z" fill="#414B5A"/>
<path d="M27.725 12.1215H15.3183C15.1345 12.1215 14.9583 12.0494 14.8284 11.9211C14.6985 11.7928 14.6255 11.6188 14.6255 11.4374C14.6255 11.256 14.6985 11.082 14.8284 10.9538C14.9583 10.8255 15.1345 10.7534 15.3183 10.7534H27.7272C27.9109 10.7534 28.0871 10.8255 28.217 10.9538C28.3469 11.082 28.4199 11.256 28.4199 11.4374C28.4199 11.6188 28.3469 11.7928 28.217 11.9211C28.0871 12.0494 27.9109 12.1215 27.7272 12.1215H27.725Z" fill="#414B5A"/>
</g>
</svg>
