<svg width="26" height="26" viewBox="0 0 26 26" fill="none" xmlns="http://www.w3.org/2000/svg">
<path d="M22.2055 6.90404L16.1785 12.931L22.2055 18.958C22.4426 19.1654 22.6345 19.4192 22.7694 19.7038C22.9043 19.9883 22.9793 20.2975 22.9899 20.6123C23.0004 20.927 22.9461 21.2406 22.8305 21.5335C22.7149 21.8264 22.5404 22.0925 22.3177 22.3152C22.0951 22.5379 21.8291 22.7125 21.5362 22.8282C21.2433 22.944 20.9298 22.9983 20.615 22.9879C20.3003 22.9774 19.991 22.9025 19.7064 22.7677C19.4218 22.6328 19.168 22.441 18.9605 22.204L12.9315 16.177L6.90454 22.205C6.46577 22.5926 5.8957 22.7983 5.31054 22.7802C4.72538 22.762 4.16916 22.5214 3.75525 22.1074C3.34135 21.6933 3.1009 21.137 3.08293 20.5519C3.06496 19.9667 3.27082 19.3967 3.65854 18.958L9.68654 12.931L3.65854 6.90404C3.23419 6.47246 2.99751 5.89073 3.00002 5.28548C3.00253 4.68024 3.24403 4.10048 3.67194 3.67244C4.09985 3.2444 4.67953 3.00272 5.28478 3.00002C5.89002 2.99733 6.47183 3.23383 6.90354 3.65804L12.9315 9.68404L18.9595 3.65804C19.3985 3.2721 19.9679 3.06774 20.552 3.08649C21.1362 3.10523 21.6913 3.34568 22.1046 3.75896C22.5179 4.17225 22.7583 4.72737 22.7771 5.31154C22.7958 5.89571 22.5915 6.46511 22.2055 6.90404Z" fill="white"/>
</svg>
