<svg width="26" height="26" viewBox="0 0 26 26" fill="none" xmlns="http://www.w3.org/2000/svg">
<path d="M0 13.5C0 20.4036 5.8203 26 13 26C20.1797 26 26 20.4036 26 13.5C26 6.59644 20.1797 1 13 1C5.8203 1 0 6.59644 0 13.5Z" fill="#FE976E"/>
<path d="M15.6567 13.7999L11.1127 18.3839C11.043 18.4536 10.9484 18.4928 10.8497 18.4928C10.7511 18.4928 10.6565 18.4536 10.5867 18.3839L9.97371 17.7709C9.90398 17.7011 9.8648 17.6065 9.8648 17.5079C9.8648 17.4093 9.90398 17.3147 9.97371 17.2449L13.6417 13.5369L9.97371 9.8319C9.90398 9.76214 9.8648 9.66754 9.8648 9.5689C9.8648 9.47026 9.90398 9.37566 9.97371 9.3059L10.5867 8.6929C10.6565 8.62316 10.7511 8.58398 10.8497 8.58398C10.9484 8.58398 11.043 8.62316 11.1127 8.6929L15.6567 13.2739C15.7264 13.3437 15.7656 13.4383 15.7656 13.5369C15.7656 13.6355 15.7264 13.7301 15.6567 13.7999Z" fill="white"/>
</svg>
