<svg width="26" height="26" viewBox="0 0 26 26" fill="none" xmlns="http://www.w3.org/2000/svg">
<path d="M21.454 11.384H15.412V5.343C15.412 4.98699 15.2706 4.64554 15.019 4.39371C14.7674 4.14187 14.426 4.00027 14.07 4H12.727C12.3708 4 12.0292 4.14149 11.7774 4.39336C11.5255 4.64522 11.384 4.98681 11.384 5.343V11.385H5.343C4.98699 11.385 4.64554 11.5264 4.39371 11.778C4.14188 12.0296 4.00027 12.371 4 12.727V14.07C4 14.4262 4.14149 14.7678 4.39336 15.0196C4.64522 15.2715 4.98681 15.413 5.343 15.413H11.384V21.455C11.3837 21.6315 11.4183 21.8064 11.4857 21.9696C11.553 22.1327 11.6519 22.281 11.7766 22.4059C11.9014 22.5309 12.0495 22.63 12.2126 22.6976C12.3757 22.7652 12.5505 22.8 12.727 22.8H14.07C14.2464 22.8 14.421 22.7653 14.5839 22.6978C14.7469 22.6303 14.8949 22.5314 15.0196 22.4066C15.1444 22.2819 15.2433 22.1339 15.3108 21.9709C15.3783 21.808 15.413 21.6334 15.413 21.457V15.412H21.455C21.6314 15.4123 21.8062 15.3778 21.9693 15.3104C22.1324 15.2431 22.2807 15.1443 22.4056 15.0197C22.5305 14.8951 22.6296 14.7471 22.6973 14.5841C22.765 14.4211 22.7999 14.2464 22.8 14.07V12.727C22.8 12.5504 22.7652 12.3755 22.6975 12.2124C22.6298 12.0492 22.5306 11.901 22.4056 11.7763C22.2806 11.6515 22.1322 11.5527 21.9689 11.4854C21.8056 11.4181 21.6306 11.3836 21.454 11.384Z" fill="#FE976E"/>
</svg>
