<svg width="29" height="29" viewBox="0 0 29 29" fill="none" xmlns="http://www.w3.org/2000/svg">
<path d="M24.3601 3.86667C21.7501 1.45 18.3185 0 14.5001 0C10.6818 0 7.25014 1.45 4.64014 3.86667H24.3601Z" fill="#EB1D25"/>
<path d="M4.63916 25.1333C7.24916 27.55 10.6808 29 14.4992 29C18.3175 29 21.7492 27.55 24.3592 25.1333H4.63916Z" fill="#EB1D25"/>
<path d="M0 14.5002C0 16.5785 0.435 18.5119 1.20833 20.3002H27.7917C28.565 18.5119 29 16.5785 29 14.5002C29 12.4219 28.565 10.4885 27.7917 8.7002H1.20833C0.435 10.4885 0 12.4219 0 14.5002Z" fill="#241D4F"/>
<path d="M4.64016 25.1331H24.3118C25.7618 23.7798 26.9702 22.1365 27.7435 20.2998H1.16016C2.03016 22.1365 3.19016 23.7798 4.64016 25.1331Z" fill="#F9F9F9"/>
<path d="M24.3602 3.8667H4.64016C3.19016 5.22003 1.98183 6.86337 1.2085 8.70003H27.7918C26.9702 6.86337 25.8102 5.22003 24.3602 3.8667Z" fill="#F9F9F9"/>
</svg>
