<svg width="61" height="54" viewBox="0 0 61 54" fill="none" xmlns="http://www.w3.org/2000/svg">
<g filter="url(#filter0_d)">
<path d="M4 0H34C46.7025 0 57 10.2975 57 23V23C57 35.7025 46.7025 46 34 46H4V0Z" fill="white"/>
<g clip-path="url(#clip0)">
<path d="M42.1024 24.4789C41.3671 24.4789 40.6311 24.4789 39.8958 24.4789C38.1288 24.4789 36.3625 24.4789 34.5955 24.4789C32.4579 24.4789 30.3197 24.4789 28.1822 24.4789C26.3331 24.4789 24.4848 24.4789 22.6358 24.4789C21.7372 24.4789 20.835 24.5008 19.9364 24.4789C19.9234 24.4789 19.9105 24.4789 19.8975 24.4789C19.0845 24.4789 18.3061 23.7989 18.3435 22.9997C18.3809 22.1985 19.0262 21.5205 19.8975 21.5205C20.6328 21.5205 21.3688 21.5205 22.1041 21.5205C23.8711 21.5205 25.6374 21.5205 27.4044 21.5205C29.5419 21.5205 31.6802 21.5205 33.8177 21.5205C35.6668 21.5205 37.5151 21.5205 39.3641 21.5205C40.2627 21.5205 41.1649 21.4986 42.0635 21.5205C42.0765 21.5205 42.0894 21.5205 42.1024 21.5205C42.9154 21.5205 43.6938 22.2012 43.6564 22.9997C43.6183 23.8016 42.9729 24.4789 42.1024 24.4789Z" fill="url(#paint0_linear)"/>
<path d="M36.9964 18.1391C35.0654 18.1391 33.135 18.1391 31.204 18.1391C28.1535 18.1391 25.1029 18.1391 22.0517 18.1391C21.3495 18.1391 20.6466 18.1391 19.9444 18.1391C19.1314 18.1391 18.3529 17.4591 18.3903 16.6599C18.4277 15.8586 19.0731 15.1807 19.9444 15.1807C21.8754 15.1807 23.8057 15.1807 25.7368 15.1807C28.7873 15.1807 31.8379 15.1807 34.8891 15.1807C35.5913 15.1807 36.2942 15.1807 36.9964 15.1807C37.8094 15.1807 38.5879 15.8607 38.5505 16.6599C38.5123 17.4611 37.8677 18.1391 36.9964 18.1391Z" fill="url(#paint1_linear)"/>
<path d="M42.0558 18.5086C41.0399 18.5086 40.0665 17.658 40.1133 16.6596C40.1608 15.6577 40.9666 14.8105 42.0558 14.8105C43.0717 14.8105 44.0451 15.6611 43.9984 16.6596C43.9509 17.6615 43.1444 18.5086 42.0558 18.5086Z" fill="url(#paint2_linear)"/>
<path d="M25.003 27.8618C26.934 27.8618 28.8643 27.8618 30.7954 27.8618C33.8459 27.8618 36.8964 27.8618 39.9477 27.8618C40.6499 27.8618 41.3528 27.8618 42.055 27.8618C42.868 27.8618 43.6465 28.5418 43.6091 29.341C43.5716 30.1423 42.9263 30.8202 42.055 30.8202C40.124 30.8202 38.1936 30.8202 36.2626 30.8202C33.2121 30.8202 30.1615 30.8202 27.1103 30.8202C26.4081 30.8202 25.7052 30.8202 25.003 30.8202C24.19 30.8202 23.4115 30.1402 23.4489 29.341C23.487 28.5391 24.1317 27.8618 25.003 27.8618Z" fill="url(#paint3_linear)"/>
<path d="M19.9435 31.1897C18.9276 31.1897 17.9542 30.3392 18.001 29.3407C18.0485 28.3388 18.8543 27.4917 19.9435 27.4917C20.9594 27.4917 21.9328 28.3422 21.8861 29.3407C21.8393 30.3419 21.0328 31.1897 19.9435 31.1897Z" fill="url(#paint4_linear)"/>
</g>
</g>
<defs>
<filter id="filter0_d" x="0" y="0" width="61" height="54" filterUnits="userSpaceOnUse" color-interpolation-filters="sRGB">
<feFlood flood-opacity="0" result="BackgroundImageFix"/>
<feColorMatrix in="SourceAlpha" type="matrix" values="0 0 0 0 0 0 0 0 0 0 0 0 0 0 0 0 0 0 127 0" result="hardAlpha"/>
<feOffset dy="4"/>
<feGaussianBlur stdDeviation="2"/>
<feComposite in2="hardAlpha" operator="out"/>
<feColorMatrix type="matrix" values="0 0 0 0 0.960784 0 0 0 0 0.513726 0 0 0 0 0.34902 0 0 0 0.75 0"/>
<feBlend mode="normal" in2="BackgroundImageFix" result="effect1_dropShadow"/>
<feBlend mode="normal" in="SourceGraphic" in2="effect1_dropShadow" result="shape"/>
</filter>
<linearGradient id="paint0_linear" x1="30.9999" y1="21.5107" x2="30.9999" y2="24.4887" gradientUnits="userSpaceOnUse">
<stop stop-color="#F8AB69"/>
<stop offset="1" stop-color="#FE725C"/>
</linearGradient>
<linearGradient id="paint1_linear" x1="28.4704" y1="15.1807" x2="28.4704" y2="18.1391" gradientUnits="userSpaceOnUse">
<stop stop-color="#F8AB69"/>
<stop offset="1" stop-color="#FE725C"/>
</linearGradient>
<linearGradient id="paint2_linear" x1="42.0558" y1="14.8105" x2="42.0558" y2="18.5086" gradientUnits="userSpaceOnUse">
<stop stop-color="#F8AB69"/>
<stop offset="1" stop-color="#FE725C"/>
</linearGradient>
<linearGradient id="paint3_linear" x1="33.529" y1="27.8618" x2="33.529" y2="30.8202" gradientUnits="userSpaceOnUse">
<stop stop-color="#F8AB69"/>
<stop offset="1" stop-color="#FE725C"/>
</linearGradient>
<linearGradient id="paint4_linear" x1="19.9435" y1="27.4917" x2="19.9435" y2="31.1897" gradientUnits="userSpaceOnUse">
<stop stop-color="#F8AB69"/>
<stop offset="1" stop-color="#FE725C"/>
</linearGradient>
<clipPath id="clip0">
<rect width="26" height="26" fill="white" transform="matrix(-1 0 0 1 44 10)"/>
</clipPath>
</defs>
</svg>
