<svg width="205" height="71" viewBox="0 0 205 71" fill="none" xmlns="http://www.w3.org/2000/svg">
<g style="mix-blend-mode:multiply" opacity="0.6">
<g style="mix-blend-mode:multiply" opacity="0.6">
<path d="M24.827 65.6558C19.605 65.6558 13.197 61.9558 10.585 57.4328L4.959 47.6848C2.347 43.1628 2.347 35.7608 4.959 31.2358L10.585 21.4898C13.197 16.9688 19.606 13.2678 24.827 13.2678H166.297C171.519 13.2678 177.928 16.9678 180.538 21.4898L186.16 31.2378C188.774 35.7628 188.774 43.1648 186.16 47.6868L180.534 57.4348C177.924 61.9548 171.515 65.6578 166.293 65.6578L24.827 65.6558Z" fill="#F2F6F6"/>
</g>
<g style="mix-blend-mode:multiply" opacity="0.6">
<path d="M25.257 65.1589C20.076 65.1589 13.715 61.4859 11.124 57.0009L5.53798 47.3249C2.94698 42.8389 2.94698 35.4919 5.53798 31.0029L11.121 21.3309C13.712 16.8449 20.073 13.1729 25.254 13.1729H166.313C171.496 13.1729 177.856 16.8449 180.446 21.3309L186.029 31.0029C188.624 35.4929 188.624 42.8389 186.029 47.3249L180.446 57.0009C177.856 61.4859 171.496 65.1589 166.313 65.1589H25.257Z" fill="#F2F6F6"/>
</g>
<g style="mix-blend-mode:multiply" opacity="0.6">
<path d="M25.6893 64.6649C20.5483 64.6649 14.2363 61.0179 11.6643 56.5649L6.12529 46.965C3.55329 42.513 3.55329 35.2239 6.12529 30.7649L11.6643 21.1649C14.2363 16.7129 20.5483 13.0649 25.6893 13.0649H166.329C171.471 13.0649 177.783 16.7099 180.354 21.1649L185.895 30.7649C188.469 35.2209 188.469 42.51 185.895 46.965L180.354 56.5649C177.783 61.0149 171.472 64.6649 166.329 64.6649H25.6893Z" fill="#F2F6F6"/>
</g>
<g style="mix-blend-mode:multiply" opacity="0.6">
<path d="M26.1213 64.17C21.0213 64.17 14.7553 60.551 12.2043 56.135L6.70427 46.609C4.15327 42.191 4.15327 34.958 6.70427 30.536L12.2043 21.014C14.7553 16.596 21.0193 12.98 26.1213 12.98H166.345C171.445 12.98 177.711 16.596 180.262 21.014L185.762 30.536C188.316 34.958 188.316 42.19 185.762 46.609L180.262 56.135C177.711 60.551 171.447 64.17 166.345 64.17H26.1213Z" fill="#F2F6F6"/>
</g>
<g style="mix-blend-mode:multiply" opacity="0.6">
<path d="M26.5529 63.6738C21.4899 63.6738 15.2759 60.0848 12.7449 55.7018L7.28985 46.2508C4.75885 41.8668 4.75885 34.6908 7.28985 30.3038L12.7449 20.8548C15.2759 16.4708 21.4899 12.8838 26.5529 12.8838H166.362C171.424 12.8838 177.64 16.4708 180.169 20.8548L185.623 30.3038C188.157 34.6908 188.157 41.8678 185.623 46.2508L180.174 55.7018C177.645 60.0848 171.429 63.6738 166.367 63.6738H26.5529Z" fill="#F2F6F6"/>
</g>
<g style="mix-blend-mode:multiply" opacity="0.6">
<path d="M26.9843 63.1798C21.9603 63.1798 15.7973 59.6168 13.2843 55.2698L7.87228 45.8928C5.36028 41.5438 5.36028 34.4238 7.87228 30.0708L13.2843 20.6958C15.7973 16.3478 21.9603 12.7888 26.9843 12.7888H166.377C171.4 12.7888 177.565 16.3478 180.077 20.6958L185.489 30.0708C188.003 34.4238 188.003 41.5438 185.489 45.8928L180.077 55.2698C177.565 59.6168 171.399 63.1798 166.377 63.1798H26.9843Z" fill="#F2F6F6"/>
</g>
<g style="mix-blend-mode:multiply" opacity="0.6">
<path d="M27.4152 62.6849C22.4332 62.6849 16.3152 59.1509 13.8242 54.8369L8.45516 45.5369C5.96416 41.2219 5.96416 34.1589 8.45516 29.8369L13.8242 20.5369C16.3162 16.2239 22.4322 12.6919 27.4152 12.6919H166.394C171.377 12.6919 177.494 16.2239 179.986 20.5369L185.355 29.8369C187.848 34.1539 187.848 41.2169 185.355 45.5369L179.986 54.8369C177.495 59.1499 171.378 62.6849 166.394 62.6849H27.4152Z" fill="#F2F6F6"/>
</g>
<g style="mix-blend-mode:multiply" opacity="0.6">
<path d="M27.8463 62.1889C22.9043 62.1889 16.8363 58.6839 14.3633 54.4049L9.03734 45.1769C7.81855 42.7626 7.18359 40.0959 7.18359 37.3914C7.18359 34.6869 7.81855 32.0202 9.03734 29.6059L14.3633 20.3789C15.8449 18.1171 17.8367 16.2346 20.1785 14.8829C22.5203 13.5313 25.1467 12.7483 27.8463 12.5969H166.409C169.109 12.7483 171.735 13.5313 174.076 14.883C176.418 16.2346 178.409 18.1171 179.89 20.3789L185.216 29.6059C186.436 32.02 187.071 34.6868 187.071 37.3914C187.071 40.096 186.436 42.7628 185.216 45.1769L179.89 54.4049C177.418 58.6839 171.351 62.1889 166.409 62.1889H27.8463Z" fill="#F2F6F6"/>
</g>
<g style="mix-blend-mode:multiply" opacity="0.6">
<path d="M28.2793 61.694C25.6012 61.5434 22.9959 60.7663 20.673 59.4251C18.3501 58.0839 16.3745 56.2161 14.9053 53.972L9.62125 44.818C8.41276 42.4231 7.7832 39.778 7.7832 37.0955C7.7832 34.413 8.41276 31.7679 9.62125 29.373L14.9053 20.221C16.3746 17.9772 18.3503 16.1097 20.6732 14.7688C22.9961 13.4279 25.6013 12.6511 28.2793 12.501H166.426C169.104 12.6512 171.709 13.428 174.032 14.7689C176.355 16.1098 178.331 17.9772 179.8 20.221L185.083 29.373C186.293 31.7675 186.923 34.4127 186.923 37.0955C186.923 39.7782 186.293 42.4234 185.083 44.818L179.8 53.972C178.331 56.216 176.355 58.0837 174.032 59.4249C171.71 60.7661 169.104 61.5433 166.426 61.694H28.2793Z" fill="#F2F6F6"/>
</g>
<g style="mix-blend-mode:multiply" opacity="0.6">
<path d="M28.7094 61.1988C26.0535 61.049 23.4697 60.2779 21.166 58.9477C18.8623 57.6175 16.9029 55.7652 15.4454 53.5398L10.2044 44.4598C9.00547 42.0843 8.38086 39.4606 8.38086 36.7998C8.38086 34.1389 9.00547 31.5152 10.2044 29.1398L15.4454 20.0628C16.9025 17.8371 18.8618 15.9846 21.1656 14.6545C23.4694 13.3244 26.0534 12.5538 28.7094 12.4048H166.442C169.099 12.5535 171.683 13.3239 173.987 14.654C176.292 15.9842 178.251 17.8368 179.708 20.0628L184.948 29.1398C186.148 31.5149 186.774 34.1387 186.774 36.7998C186.774 39.4608 186.148 42.0847 184.948 44.4598L179.708 53.5398C178.251 55.7654 176.291 57.6179 173.987 58.9481C171.683 60.2784 169.099 61.0493 166.442 61.1988H28.7094Z" fill="#F2F6F6"/>
</g>
<g style="mix-blend-mode:multiply" opacity="0.6">
<path d="M29.1445 60.704C26.5098 60.5568 23.9465 59.7932 21.6608 58.4746C19.3751 57.1559 17.4308 55.3191 15.9845 53.112L10.7845 44.105C9.59581 41.7494 8.97656 39.1476 8.97656 36.509C8.97656 33.8704 9.59581 31.2687 10.7845 28.913L15.9845 19.913C17.4297 17.7041 19.3735 15.8655 21.6593 14.5452C23.9451 13.225 26.509 12.4601 29.1445 12.312H166.46C169.094 12.4595 171.657 13.2235 173.942 14.5425C176.227 15.8615 178.17 17.6987 179.616 19.906L184.816 28.906C186.005 31.2614 186.625 33.8632 186.625 36.502C186.625 39.1408 186.005 41.7427 184.816 44.098L179.615 53.112C178.17 55.3204 176.227 57.1586 173.942 58.4787C171.656 59.7987 169.093 60.5637 166.459 60.712L29.1445 60.704Z" fill="#F2F6F6"/>
</g>
<g style="mix-blend-mode:multiply" opacity="0.6">
<path d="M29.5723 60.2089C26.9597 60.0619 24.418 59.3036 22.1519 57.995C19.8859 56.6865 17.9586 54.8642 16.5253 52.6749L11.3693 43.7439C10.1897 41.4075 9.5752 38.8267 9.5752 36.2094C9.5752 33.5921 10.1897 31.0113 11.3693 28.6749L16.5253 19.7449C17.9587 17.5558 19.886 15.7338 22.1521 14.4256C24.4182 13.1173 26.9598 12.3595 29.5723 12.2129H166.472C169.085 12.359 171.628 13.1167 173.895 14.4249C176.161 15.7331 178.089 17.5554 179.523 19.7449L184.679 28.6749C185.859 31.0113 186.473 33.5921 186.473 36.2094C186.473 38.8267 185.859 41.4075 184.679 43.7439L179.523 52.6749C178.09 54.8644 176.162 56.6867 173.896 57.9952C171.629 59.3038 169.087 60.062 166.474 60.2089H29.5723Z" fill="#F2F6F6"/>
</g>
<g style="mix-blend-mode:multiply" opacity="0.6">
<path d="M30.0024 59.7129C27.4114 59.5672 24.8908 58.8153 22.6435 57.5177C20.3962 56.2201 18.4848 54.413 17.0634 52.2419L11.9514 43.3849C10.782 41.0681 10.1729 38.5091 10.1729 35.9139C10.1729 33.3187 10.782 30.7598 11.9514 28.4429L17.0634 19.5869C18.4851 17.4162 20.3965 15.6095 22.6438 14.3122C24.8911 13.015 27.4116 12.2634 30.0024 12.1179H166.491C169.082 12.2631 171.603 13.0146 173.85 14.3119C176.097 15.6092 178.009 17.416 179.43 19.5869L184.545 28.4429C185.715 30.7598 186.324 33.3187 186.324 35.9139C186.324 38.5091 185.715 41.0681 184.545 43.3849L179.43 52.2419C178.009 54.4132 176.098 56.2205 173.85 57.5181C171.603 58.8158 169.082 59.5675 166.491 59.7129H30.0024Z" fill="#F2F6F6"/>
</g>
<g style="mix-blend-mode:multiply" opacity="0.6">
<path d="M30.4344 59.218C27.8652 59.0735 25.3658 58.3278 23.1373 57.041C20.9089 55.7541 19.0138 53.962 17.6044 51.809L12.5334 43.027C11.3737 40.7296 10.7695 38.192 10.7695 35.6185C10.7695 33.0449 11.3737 30.5074 12.5334 28.21L17.6044 19.429C19.0139 17.2762 20.9091 15.4844 23.1375 14.1979C25.3659 12.9114 27.8653 12.1661 30.4344 12.022H166.508C169.078 12.1661 171.577 12.9114 173.806 14.1979C176.034 15.4844 177.93 17.2761 179.339 19.429L184.41 28.21C185.57 30.5075 186.173 33.045 186.173 35.6185C186.173 38.1919 185.57 40.7294 184.41 43.027L179.339 51.809C177.93 53.9621 176.035 55.7542 173.806 57.041C171.577 58.3279 169.078 59.0735 166.508 59.218H30.4344Z" fill="#F2F6F6"/>
</g>
<g style="mix-blend-mode:multiply" opacity="0.6">
<path d="M30.8671 58.7228C28.3195 58.5794 25.8411 57.8399 23.6314 56.5638C21.4218 55.2877 19.5426 53.5107 18.1451 51.3758L13.1181 42.6668C11.9682 40.3889 11.3691 37.8729 11.3691 35.3213C11.3691 32.7696 11.9682 30.2536 13.1181 27.9758L18.1451 19.2688C19.543 17.1346 21.4224 15.3583 23.632 14.083C25.8417 12.8076 28.3198 12.0687 30.8671 11.9258H166.523C169.071 12.0684 171.549 12.8072 173.759 14.0825C175.969 15.3579 177.849 17.1343 179.247 19.2688L184.274 27.9758C185.424 30.2536 186.023 32.7696 186.023 35.3213C186.023 37.8729 185.424 40.3889 184.274 42.6668L179.247 51.3758C177.849 53.511 175.97 55.2882 173.76 56.5643C171.55 57.8404 169.071 58.5797 166.523 58.7228H30.8671Z" fill="#F2F6F6"/>
</g>
<g style="mix-blend-mode:multiply" opacity="0.6">
<path d="M31.2976 58.2278C28.7719 58.0858 26.3148 57.3528 24.124 56.0879C21.9333 54.8229 20.0702 53.0613 18.6846 50.9448L13.6996 42.3108C12.5597 40.0521 11.9658 37.5574 11.9658 35.0273C11.9658 32.4973 12.5597 30.0026 13.6996 27.7438L18.6846 19.1108C20.0702 16.9946 21.9334 15.2332 24.1242 13.9686C26.3149 12.704 28.772 11.9714 31.2976 11.8298H166.537C169.063 11.9712 171.52 12.7036 173.711 13.9682C175.903 15.2329 177.766 16.9943 179.153 19.1108L184.138 27.7438C185.277 30.0026 185.871 32.4973 185.871 35.0273C185.871 37.5574 185.277 40.0521 184.138 42.3108L179.153 50.9448C177.767 53.0616 175.903 54.8233 173.712 56.0883C171.52 57.3533 169.063 58.0861 166.537 58.2278H31.2976Z" fill="#F2F6F6"/>
</g>
<g style="mix-blend-mode:multiply" opacity="0.6">
<path d="M31.7303 57.7358C29.2261 57.5952 26.79 56.8686 24.618 55.6144C22.4459 54.3601 20.5988 52.6134 19.2253 50.5148L14.2833 41.9548C13.1532 39.7158 12.5645 37.2428 12.5645 34.7348C12.5645 32.2268 13.1532 29.7538 14.2833 27.5148L19.2253 18.9568C20.5991 16.8586 22.4463 15.1123 24.6183 13.8584C26.7903 12.6046 29.2263 11.8782 31.7303 11.7378H166.556C169.06 11.878 171.496 12.6044 173.668 13.8582C175.84 15.1121 177.688 16.8585 179.061 18.9568L184.004 27.5148C185.134 29.7539 185.722 32.2269 185.722 34.7348C185.722 37.2427 185.134 39.7157 184.004 41.9548L179.061 50.5148C177.688 52.6135 175.841 54.3602 173.669 55.6145C171.497 56.8687 169.061 57.5953 166.556 57.7358H31.7303Z" fill="#F2F6F6"/>
</g>
<g style="mix-blend-mode:multiply" opacity="0.6">
<path d="M32.1598 57.2379C29.6767 57.099 27.261 56.3787 25.1072 55.1353C22.9534 53.8918 21.1217 52.1598 19.7598 50.0789L14.8598 41.5939C13.7397 39.3742 13.1562 36.9227 13.1562 34.4364C13.1562 31.9502 13.7397 29.4986 14.8598 27.2789L19.7598 18.7949C21.122 16.7145 22.9538 14.9831 25.1076 13.7401C27.2614 12.4972 29.677 11.7775 32.1598 11.6389H166.571C169.054 11.7777 171.469 12.4975 173.623 13.7404C175.777 14.9834 177.608 16.7146 178.971 18.7949L183.871 27.2789C184.99 29.4989 185.573 31.9503 185.573 34.4364C185.573 36.9225 184.99 39.374 183.871 41.5939L178.971 50.0789C177.609 52.1597 175.777 53.8916 173.623 55.1351C171.47 56.3785 169.054 57.0988 166.571 57.2379H32.1598Z" fill="#F2F6F6"/>
</g>
<g style="mix-blend-mode:multiply" opacity="0.6">
<path d="M32.5925 56.7428C30.1314 56.6039 27.7374 55.889 25.6031 54.6558C23.4689 53.4226 21.6539 51.7056 20.3045 49.6429L15.4485 41.2309C14.3382 39.0307 13.7598 36.6007 13.7598 34.1364C13.7598 31.672 14.3382 29.242 15.4485 27.0419L20.3045 18.6319C21.6545 16.5701 23.4697 14.8542 25.6039 13.622C27.7382 12.3899 30.1319 11.676 32.5925 11.5378H166.592C169.053 11.6758 171.447 12.3895 173.582 13.6217C175.717 14.8538 177.532 16.5699 178.882 18.6319L183.74 27.0419C184.85 29.2421 185.428 31.6721 185.428 34.1364C185.428 36.6006 184.85 39.0306 183.74 41.2309L178.882 49.6429C177.533 51.7058 175.717 53.423 173.583 54.6561C171.448 55.8893 169.054 56.6041 166.592 56.7428H32.5925Z" fill="#F2F6F6"/>
</g>
<g style="mix-blend-mode:multiply" opacity="0.6">
<path d="M33.0225 56.2468C30.5834 56.1097 28.2106 55.4017 26.0952 54.1797C23.9798 52.9578 22.1809 51.2562 20.8435 49.2118L16.0305 40.8758C14.9298 38.6951 14.3564 36.2865 14.3564 33.8438C14.3564 31.4011 14.9298 28.9925 16.0305 26.8118L20.8435 18.4748C22.1815 16.4314 23.9806 14.7307 26.096 13.5097C28.2113 12.2886 30.5839 11.5814 33.0225 11.4448H166.604C169.042 11.5815 171.415 12.2889 173.531 13.5099C175.646 14.7309 177.446 16.4315 178.785 18.4748L183.599 26.8118C184.699 28.9927 185.272 31.4012 185.272 33.8438C185.272 36.2864 184.699 38.695 183.599 40.8758L178.785 49.2118C177.447 51.2564 175.648 52.9583 173.532 54.1802C171.416 55.4021 169.043 56.11 166.604 56.2468H33.0225Z" fill="#F2F6F6"/>
</g>
<g style="mix-blend-mode:multiply" opacity="0.6">
<path d="M33.4537 55.7528C31.0367 55.6166 28.6853 54.9149 26.5889 53.7041C24.4925 52.4934 22.7096 50.8074 21.3837 48.7818L16.6137 40.5198C15.5232 38.3582 14.9551 35.9709 14.9551 33.5498C14.9551 31.1287 15.5232 28.7414 16.6137 26.5798L21.3837 18.3188C22.7097 16.2936 24.4927 14.608 26.5891 13.3978C28.6855 12.1875 31.0368 11.4864 33.4537 11.3508H166.62C169.037 11.486 171.389 12.1869 173.486 13.3972C175.584 14.6075 177.367 16.2933 178.694 18.3188L183.466 26.5798C184.555 28.7417 185.123 31.1289 185.123 33.5498C185.123 35.9707 184.555 38.3579 183.466 40.5198L178.694 48.7818C177.367 50.8078 175.584 52.494 173.487 53.7048C171.39 54.9156 169.037 55.6171 166.62 55.7528H33.4537Z" fill="#F2F6F6"/>
</g>
<g style="mix-blend-mode:multiply" opacity="0.6">
<path d="M33.8857 55.2568C31.4901 55.1222 29.1596 54.4269 27.0819 53.2268C25.0042 52.0268 23.2373 50.3556 21.9237 48.3478L17.1957 40.1598C16.1148 38.0179 15.5518 35.6523 15.5518 33.2533C15.5518 30.8542 16.1148 28.4886 17.1957 26.3468L21.9237 18.1598C23.2383 16.1536 25.0055 14.4841 27.0832 13.2856C29.1608 12.0872 31.4909 11.3933 33.8857 11.2598H166.637C169.032 11.3933 171.362 12.0872 173.44 13.2856C175.518 14.484 177.286 16.1535 178.601 18.1598L183.329 26.3468C184.409 28.4887 184.972 30.8543 184.972 33.2533C184.972 35.6523 184.409 38.0178 183.329 40.1598L178.601 48.3478C177.287 50.3555 175.519 52.0267 173.441 53.2267C171.363 54.4267 169.033 55.1221 166.637 55.2568H33.8857Z" fill="#F2F6F6"/>
</g>
<g style="mix-blend-mode:multiply" opacity="0.6">
<path d="M34.3184 54.7609C31.9444 54.6275 29.635 53.9384 27.576 52.7491C25.5171 51.5598 23.7662 49.9036 22.4644 47.9139L17.7804 39.8009C16.7093 37.6786 16.1514 35.3346 16.1514 32.9574C16.1514 30.5802 16.7093 28.2362 17.7804 26.1139L22.4644 18.0009C23.7669 16.0123 25.518 14.3573 27.5769 13.1691C29.6358 11.9809 31.945 11.2927 34.3184 11.1599H166.653C169.027 11.2928 171.336 11.9811 173.395 13.1693C175.454 14.3575 177.206 16.0124 178.508 18.0009L183.194 26.1139C184.265 28.2364 184.822 30.5804 184.822 32.9574C184.822 35.3345 184.265 37.6784 183.194 39.8009L178.508 47.9139C177.206 49.9035 175.455 51.5596 173.396 52.7489C171.337 53.9381 169.027 54.6273 166.653 54.7609H34.3184Z" fill="#F2F6F6"/>
</g>
<g style="mix-blend-mode:multiply" opacity="0.6">
<path d="M34.7486 54.2659C32.3965 54.1339 30.1083 53.4513 28.0684 52.2729C26.0285 51.0946 24.294 49.4535 23.0046 47.4819L18.3646 39.4479C17.303 37.3451 16.75 35.0224 16.75 32.6669C16.75 30.3113 17.303 27.9887 18.3646 25.8859L23.0076 17.8459C24.2978 15.8755 26.0327 14.2356 28.0725 13.0582C30.1123 11.8807 32.4 11.1987 34.7516 11.0669H166.665C169.017 11.1984 171.305 11.8803 173.345 13.0577C175.386 14.2351 177.121 15.8752 178.412 17.8459L183.057 25.8859C184.116 27.9892 184.668 30.3116 184.668 32.6669C184.668 35.0221 184.116 37.3446 183.057 39.4479L178.412 47.4869C177.121 49.4578 175.386 51.098 173.345 52.2755C171.305 53.4529 169.017 54.1347 166.665 54.2659H34.7486Z" fill="#F2F6F6"/>
</g>
<g style="mix-blend-mode:multiply" opacity="0.6">
<path d="M35.1796 53.7718C32.8493 53.641 30.5824 52.9647 28.5615 51.7973C26.5405 50.6298 24.822 49.004 23.5446 47.0508L18.9446 39.0858C17.8933 37.0024 17.3457 34.7014 17.3457 32.3678C17.3457 30.0342 17.8933 27.7332 18.9446 25.6498L23.5446 17.6848C24.8225 15.7323 26.5411 14.1072 28.5621 12.9405C30.583 11.7738 32.8497 11.0981 35.1796 10.9678H166.685C169.015 11.0983 171.282 11.7741 173.303 12.9408C175.324 14.1075 177.043 15.7324 178.322 17.6848L182.922 25.6498C183.972 27.7335 184.519 30.0344 184.519 32.3678C184.519 34.7012 183.972 37.0021 182.922 39.0858L178.322 47.0508C177.044 49.0039 175.325 50.6296 173.303 51.797C171.282 52.9643 169.015 53.6408 166.685 53.7718H35.1796Z" fill="#F2F6F6"/>
</g>
<g style="mix-blend-mode:multiply" opacity="0.6">
<path d="M35.6109 53.2769C33.3024 53.1474 31.0565 52.4774 29.0543 51.321C27.0521 50.1645 25.3496 48.5539 24.0839 46.6189L19.5219 38.7229C18.4808 36.6588 17.9385 34.3792 17.9385 32.0674C17.9385 29.7556 18.4808 27.476 19.5219 25.4119L24.0789 17.5219C25.3451 15.5877 27.0478 13.9779 29.05 12.8222C31.0521 11.6664 33.2977 10.9971 35.6059 10.8679H166.696C169.005 10.9964 171.252 11.6656 173.256 12.8215C175.259 13.9775 176.963 15.5879 178.23 17.5229L182.789 25.4129C183.829 27.4774 184.371 29.7568 184.371 32.0684C184.371 34.38 183.829 36.6595 182.789 38.7239L178.23 46.6149C176.964 48.5499 175.261 50.1605 173.258 51.317C171.256 52.4734 169.01 53.1434 166.701 53.2729L35.6109 53.2769Z" fill="#F2F6F6"/>
</g>
</g>
<g filter="url(#filter0_d)">
<path d="M23.6425 61.151L6.85645 32.076L23.6425 3H182.214L198.999 32.076L182.214 61.151H23.6425Z" fill="#F2F6F6"/>
</g>
<path d="M182.208 3H23.637L23.165 3.81799H181.208L197.432 32.118L180.225 61.154H182.208L198.993 32.079L182.208 3Z" fill="#F2F6F6"/>
<path d="M45.52 24.06V19.29L42.145 24.06H45.52ZM45.685 17.25H46.75V24.06H47.89V25.14H46.75V27H45.49V25.14H40.69V24.255L45.685 17.25ZM49.484 26.25C49.484 26 49.564 25.79 49.724 25.62C49.884 25.44 50.109 25.35 50.399 25.35C50.689 25.35 50.914 25.44 51.074 25.62C51.234 25.79 51.314 26 51.314 26.25C51.314 26.5 51.234 26.715 51.074 26.895C50.914 27.065 50.689 27.15 50.399 27.15C50.109 27.15 49.884 27.065 49.724 26.895C49.564 26.715 49.484 26.5 49.484 26.25ZM58.8618 27V21.705C58.8618 20.985 58.6768 20.45 58.3068 20.1C57.9368 19.74 57.4068 19.56 56.7168 19.56C56.1468 19.56 55.6418 19.685 55.2018 19.935C54.7618 20.175 54.4618 20.495 54.3018 20.895L55.4418 21.945C55.1718 22.085 54.9718 22.26 54.8418 22.47C54.7118 22.67 54.6468 22.93 54.6468 23.25V27H53.3568V23.43C53.3568 23.14 53.4268 22.865 53.5668 22.605C53.7068 22.345 53.9068 22.15 54.1668 22.02L52.9368 20.97C53.0168 20.65 53.1668 20.34 53.3868 20.04C53.6168 19.73 53.8968 19.46 54.2268 19.23C54.5568 18.99 54.9318 18.8 55.3518 18.66C55.7818 18.52 56.2368 18.45 56.7168 18.45C57.2868 18.45 57.7868 18.53 58.2168 18.69C58.6468 18.85 59.0018 19.075 59.2818 19.365C59.5718 19.655 59.7868 20 59.9268 20.4C60.0768 20.79 60.1518 21.225 60.1518 21.705V27H58.8618ZM65.9645 27V21.585C65.9645 20.235 65.3695 19.56 64.1795 19.56C63.6995 19.56 63.2495 19.65 62.8295 19.83C62.4095 20 62.0545 20.205 61.7645 20.445L61.4195 19.47C61.5695 19.34 61.7495 19.215 61.9595 19.095C62.1795 18.965 62.4145 18.855 62.6645 18.765C62.9245 18.665 63.1895 18.59 63.4595 18.54C63.7395 18.48 64.0195 18.45 64.2995 18.45C65.2795 18.45 66.0145 18.73 66.5045 19.29C67.0045 19.84 67.2545 20.625 67.2545 21.645V27H65.9645ZM71.749 26.055C72.429 26.055 72.944 25.925 73.294 25.665C73.644 25.395 73.819 25.09 73.819 24.75C73.819 24.54 73.754 24.355 73.624 24.195C73.504 24.035 73.339 23.895 73.129 23.775C72.929 23.645 72.699 23.535 72.439 23.445C72.189 23.355 71.934 23.27 71.674 23.19C71.294 23.08 70.939 22.96 70.609 22.83C70.289 22.69 70.009 22.525 69.769 22.335C69.539 22.135 69.359 21.905 69.229 21.645C69.099 21.375 69.034 21.055 69.034 20.685C69.034 19.975 69.314 19.425 69.874 19.035C70.444 18.645 71.214 18.45 72.184 18.45C72.654 18.45 73.114 18.5 73.564 18.6C74.014 18.69 74.414 18.825 74.764 19.005L74.434 20.025C73.824 19.705 73.114 19.545 72.304 19.545C71.674 19.545 71.179 19.655 70.819 19.875C70.469 20.095 70.294 20.365 70.294 20.685C70.294 20.865 70.344 21.025 70.444 21.165C70.544 21.305 70.679 21.43 70.849 21.54C71.019 21.64 71.214 21.735 71.434 21.825C71.654 21.905 71.889 21.985 72.139 22.065C72.609 22.215 73.024 22.375 73.384 22.545C73.754 22.705 74.064 22.89 74.314 23.1C74.564 23.31 74.754 23.55 74.884 23.82C75.014 24.09 75.079 24.41 75.079 24.78C75.079 25.49 74.809 26.065 74.269 26.505C73.739 26.935 72.919 27.15 71.809 27.15C71.259 27.15 70.749 27.1 70.279 27C69.819 26.9 69.429 26.755 69.109 26.565L69.424 25.56C69.734 25.71 70.089 25.83 70.489 25.92C70.889 26.01 71.309 26.055 71.749 26.055ZM72.9815 17.46C71.9715 17.46 71.4665 17.01 71.4665 16.11V15.51H72.6965V15.96C72.6965 16.26 72.8365 16.41 73.1165 16.41H76.6565V17.46H72.9815ZM78.1865 24C78.1865 24.71 78.3265 25.23 78.6065 25.56C78.8865 25.88 79.3415 26.04 79.9715 26.04C80.2215 26.04 80.4665 25.995 80.7065 25.905C80.9565 25.815 81.1915 25.69 81.4115 25.53C81.6315 25.37 81.8265 25.19 81.9965 24.99C82.1665 24.78 82.3065 24.56 82.4165 24.33V18.6H83.7065V27H82.4915L82.4165 25.77C82.1265 26.19 81.7665 26.525 81.3365 26.775C80.9065 27.025 80.3515 27.15 79.6715 27.15C78.7515 27.15 78.0565 26.885 77.5865 26.355C77.1265 25.815 76.8965 25.035 76.8965 24.015V18.6H78.1865V24ZM88.7832 19.665C88.2532 19.775 87.8082 20.095 87.4482 20.625C87.0882 21.155 86.9082 21.885 86.9082 22.815C86.9082 23.415 86.9732 23.915 87.1032 24.315C87.2432 24.715 87.4182 25.04 87.6282 25.29C87.8482 25.54 88.0882 25.72 88.3482 25.83C88.6082 25.93 88.8682 25.98 89.1282 25.98C89.3382 25.98 89.5182 25.965 89.6682 25.935C89.8282 25.905 89.9882 25.86 90.1482 25.8L90.3882 26.82C90.2182 26.9 90.0182 26.965 89.7882 27.015C89.5582 27.065 89.3182 27.09 89.0682 27.09C88.5882 27.09 88.1382 27.01 87.7182 26.85C87.3082 26.69 86.9432 26.44 86.6232 26.1C86.3132 25.75 86.0682 25.305 85.8882 24.765C85.7082 24.225 85.6182 23.575 85.6182 22.815C85.6182 22.225 85.6932 21.68 85.8432 21.18C85.9932 20.68 86.2032 20.245 86.4732 19.875C86.7532 19.495 87.0832 19.185 87.4632 18.945C87.8432 18.705 88.2582 18.54 88.7082 18.45L89.9682 19.395L91.2582 18.45C91.9282 18.59 92.4382 18.9 92.7882 19.38C93.1482 19.86 93.3282 20.47 93.3282 21.21V27H92.0382V21.12C92.0382 20.74 91.9632 20.43 91.8132 20.19C91.6632 19.95 91.4532 19.775 91.1832 19.665L89.9682 20.43L88.7832 19.665ZM86.8882 17.46V16.41H92.1082V15.03H93.3232V17.46H86.8882ZM100.673 27V22.95H98.5732C97.8632 22.95 97.3032 23.09 96.8932 23.37C96.4832 23.64 96.2782 24.06 96.2782 24.63C96.2782 25.12 96.4232 25.485 96.7132 25.725C97.0032 25.955 97.3682 26.07 97.8082 26.07C98.0182 26.07 98.2382 26.05 98.4682 26.01C98.7082 25.96 98.9182 25.895 99.0982 25.815L99.3082 26.88C99.0882 26.96 98.8332 27.025 98.5432 27.075C98.2532 27.125 97.9632 27.15 97.6732 27.15C97.2932 27.15 96.9382 27.1 96.6082 27C96.2882 26.89 96.0082 26.735 95.7682 26.535C95.5282 26.325 95.3382 26.065 95.1982 25.755C95.0582 25.435 94.9882 25.065 94.9882 24.645C94.9882 23.765 95.2982 23.08 95.9182 22.59C96.5382 22.09 97.4732 21.84 98.7232 21.84H100.673V21.645C100.673 21.335 100.638 21.05 100.568 20.79C100.498 20.53 100.378 20.305 100.208 20.115C100.048 19.925 99.8332 19.78 99.5632 19.68C99.3032 19.58 98.9832 19.53 98.6032 19.53C97.9932 19.53 97.4432 19.615 96.9532 19.785C96.4732 19.955 96.0532 20.165 95.6932 20.415L95.2732 19.5C95.4332 19.37 95.6332 19.24 95.8732 19.11C96.1232 18.98 96.3932 18.87 96.6832 18.78C96.9832 18.68 97.2982 18.6 97.6282 18.54C97.9582 18.48 98.2832 18.45 98.6032 18.45C99.2432 18.45 99.8082 18.56 100.298 18.78L100.943 18.015H102.413L101.228 19.44C101.478 19.71 101.663 20.03 101.783 20.4C101.903 20.77 101.963 21.18 101.963 21.63V27H100.673ZM106.466 26.055C107.146 26.055 107.661 25.925 108.011 25.665C108.361 25.395 108.536 25.09 108.536 24.75C108.536 24.54 108.471 24.355 108.341 24.195C108.221 24.035 108.056 23.895 107.846 23.775C107.646 23.645 107.416 23.535 107.156 23.445C106.906 23.355 106.651 23.27 106.391 23.19C106.011 23.08 105.656 22.96 105.326 22.83C105.006 22.69 104.726 22.525 104.486 22.335C104.256 22.135 104.076 21.905 103.946 21.645C103.816 21.375 103.751 21.055 103.751 20.685C103.751 19.975 104.031 19.425 104.591 19.035C105.161 18.645 105.931 18.45 106.901 18.45C107.371 18.45 107.831 18.5 108.281 18.6C108.731 18.69 109.131 18.825 109.481 19.005L109.151 20.025C108.541 19.705 107.831 19.545 107.021 19.545C106.391 19.545 105.896 19.655 105.536 19.875C105.186 20.095 105.011 20.365 105.011 20.685C105.011 20.865 105.061 21.025 105.161 21.165C105.261 21.305 105.396 21.43 105.566 21.54C105.736 21.64 105.931 21.735 106.151 21.825C106.371 21.905 106.606 21.985 106.856 22.065C107.326 22.215 107.741 22.375 108.101 22.545C108.471 22.705 108.781 22.89 109.031 23.1C109.281 23.31 109.471 23.55 109.601 23.82C109.731 24.09 109.796 24.41 109.796 24.78C109.796 25.49 109.526 26.065 108.986 26.505C108.456 26.935 107.636 27.15 106.526 27.15C105.976 27.15 105.466 27.1 104.996 27C104.536 26.9 104.146 26.755 103.826 26.565L104.141 25.56C104.451 25.71 104.806 25.83 105.206 25.92C105.606 26.01 106.026 26.055 106.466 26.055ZM107.623 17.46C107.453 17.46 107.303 17.4 107.173 17.28C107.043 17.16 106.978 17 106.978 16.8V16.38C106.978 16.27 106.963 16.195 106.933 16.155C106.903 16.105 106.828 16.08 106.708 16.08H105.913V15.03H107.143C107.423 15.03 107.648 15.09 107.818 15.21C107.978 15.33 108.058 15.52 108.058 15.78V16.155C108.058 16.235 108.078 16.3 108.118 16.35C108.148 16.39 108.218 16.41 108.328 16.41H110.353V17.46H107.623ZM115.183 27V21.585C115.183 20.235 114.588 19.56 113.398 19.56C112.918 19.56 112.468 19.65 112.048 19.83C111.628 20 111.273 20.205 110.983 20.445L110.638 19.47C110.788 19.34 110.968 19.215 111.178 19.095C111.398 18.965 111.633 18.855 111.883 18.765C112.143 18.665 112.408 18.59 112.678 18.54C112.958 18.48 113.238 18.45 113.518 18.45C114.498 18.45 115.233 18.73 115.723 19.29C116.223 19.84 116.473 20.625 116.473 21.645V27H115.183ZM120.338 27L117.803 18.6H119.123L121.343 25.89H121.523C121.853 25.89 122.163 25.82 122.453 25.68C122.753 25.53 123.018 25.32 123.248 25.05C123.478 24.77 123.658 24.425 123.788 24.015C123.928 23.605 123.998 23.135 123.998 22.605C123.998 22.055 123.948 21.585 123.848 21.195C123.758 20.805 123.628 20.49 123.458 20.25C123.298 20.01 123.103 19.835 122.873 19.725C122.653 19.615 122.418 19.56 122.168 19.56C121.998 19.56 121.833 19.575 121.673 19.605C121.513 19.625 121.373 19.66 121.253 19.71L121.058 18.675C121.218 18.595 121.408 18.54 121.628 18.51C121.858 18.47 122.058 18.45 122.228 18.45C122.678 18.45 123.088 18.545 123.458 18.735C123.838 18.915 124.163 19.185 124.433 19.545C124.703 19.895 124.913 20.33 125.063 20.85C125.213 21.36 125.288 21.945 125.288 22.605C125.288 23.285 125.188 23.895 124.988 24.435C124.798 24.975 124.533 25.435 124.193 25.815C123.853 26.195 123.453 26.49 122.993 26.7C122.533 26.9 122.033 27 121.493 27H120.338ZM129.42 26.055C130.1 26.055 130.615 25.925 130.965 25.665C131.315 25.395 131.49 25.09 131.49 24.75C131.49 24.54 131.425 24.355 131.295 24.195C131.175 24.035 131.01 23.895 130.8 23.775C130.6 23.645 130.37 23.535 130.11 23.445C129.86 23.355 129.605 23.27 129.345 23.19C128.965 23.08 128.61 22.96 128.28 22.83C127.96 22.69 127.68 22.525 127.44 22.335C127.21 22.135 127.03 21.905 126.9 21.645C126.77 21.375 126.705 21.055 126.705 20.685C126.705 19.975 126.985 19.425 127.545 19.035C128.115 18.645 128.885 18.45 129.855 18.45C130.325 18.45 130.785 18.5 131.235 18.6C131.685 18.69 132.085 18.825 132.435 19.005L132.105 20.025C131.495 19.705 130.785 19.545 129.975 19.545C129.345 19.545 128.85 19.655 128.49 19.875C128.14 20.095 127.965 20.365 127.965 20.685C127.965 20.865 128.015 21.025 128.115 21.165C128.215 21.305 128.35 21.43 128.52 21.54C128.69 21.64 128.885 21.735 129.105 21.825C129.325 21.905 129.56 21.985 129.81 22.065C130.28 22.215 130.695 22.375 131.055 22.545C131.425 22.705 131.735 22.89 131.985 23.1C132.235 23.31 132.425 23.55 132.555 23.82C132.685 24.09 132.75 24.41 132.75 24.78C132.75 25.49 132.48 26.065 131.94 26.505C131.41 26.935 130.59 27.15 129.48 27.15C128.93 27.15 128.42 27.1 127.95 27C127.49 26.9 127.1 26.755 126.78 26.565L127.095 25.56C127.405 25.71 127.76 25.83 128.16 25.92C128.56 26.01 128.98 26.055 129.42 26.055ZM138.137 27V21.585C138.137 20.235 137.542 19.56 136.352 19.56C135.872 19.56 135.422 19.65 135.002 19.83C134.582 20 134.227 20.205 133.937 20.445L133.592 19.47C133.742 19.34 133.922 19.215 134.132 19.095C134.352 18.965 134.587 18.855 134.837 18.765C135.097 18.665 135.362 18.59 135.632 18.54C135.912 18.48 136.192 18.45 136.472 18.45C137.452 18.45 138.187 18.73 138.677 19.29C139.177 19.84 139.427 20.625 139.427 21.645V27H138.137ZM146.832 18.6H148.122V23.865C148.122 24.355 148.057 24.805 147.927 25.215C147.797 25.615 147.587 25.96 147.297 26.25C147.017 26.53 146.652 26.75 146.202 26.91C145.762 27.07 145.222 27.15 144.582 27.15C143.522 27.15 142.697 26.915 142.107 26.445C141.527 25.975 141.237 25.305 141.237 24.435C141.237 23.935 141.362 23.51 141.612 23.16C141.862 22.8 142.202 22.55 142.632 22.41C142.252 22.31 141.922 22.1 141.642 21.78C141.372 21.46 141.237 21.015 141.237 20.445C141.237 19.885 141.427 19.425 141.807 19.065C142.187 18.695 142.712 18.51 143.382 18.51C143.662 18.51 143.912 18.535 144.132 18.585C144.352 18.635 144.542 18.695 144.702 18.765L144.552 19.845C144.452 19.795 144.312 19.745 144.132 19.695C143.962 19.645 143.782 19.62 143.592 19.62C143.222 19.62 142.942 19.715 142.752 19.905C142.572 20.085 142.482 20.32 142.482 20.61C142.482 20.81 142.522 20.985 142.602 21.135C142.692 21.275 142.802 21.4 142.932 21.51C143.062 21.61 143.207 21.685 143.367 21.735C143.527 21.785 143.687 21.81 143.847 21.81H145.122L145.227 22.92H144.042C143.602 22.92 143.232 23.05 142.932 23.31C142.642 23.57 142.497 23.92 142.497 24.36C142.497 24.63 142.552 24.87 142.662 25.08C142.782 25.29 142.937 25.47 143.127 25.62C143.327 25.76 143.552 25.865 143.802 25.935C144.062 26.005 144.332 26.04 144.612 26.04C145.362 26.04 145.917 25.855 146.277 25.485C146.647 25.105 146.832 24.56 146.832 23.85V18.6ZM150.808 27V16.995C150.808 16.385 150.908 15.855 151.108 15.405C151.318 14.955 151.603 14.57 151.963 14.25H148.258V13.185H153.613V14.085C153.133 14.305 152.758 14.635 152.488 15.075C152.228 15.505 152.098 16.05 152.098 16.71V27H150.808ZM160.324 27V22.005C160.324 21.655 160.279 21.33 160.189 21.03C160.109 20.73 159.979 20.475 159.799 20.265C159.619 20.045 159.389 19.875 159.109 19.755C158.839 19.625 158.514 19.56 158.134 19.56C157.244 19.56 156.564 19.855 156.094 20.445C155.634 21.025 155.404 21.84 155.404 22.89C155.404 23.47 155.469 23.96 155.599 24.36C155.739 24.75 155.914 25.065 156.124 25.305C156.344 25.545 156.584 25.72 156.844 25.83C157.104 25.93 157.364 25.98 157.624 25.98C157.834 25.98 158.014 25.965 158.164 25.935C158.324 25.905 158.484 25.86 158.644 25.8L158.884 26.82C158.714 26.9 158.514 26.965 158.284 27.015C158.054 27.065 157.814 27.09 157.564 27.09C157.114 27.09 156.679 27.005 156.259 26.835C155.839 26.665 155.469 26.41 155.149 26.07C154.839 25.72 154.589 25.285 154.399 24.765C154.209 24.235 154.114 23.61 154.114 22.89C154.114 22.26 154.194 21.675 154.354 21.135C154.524 20.595 154.774 20.13 155.104 19.74C155.434 19.34 155.849 19.025 156.349 18.795C156.849 18.565 157.434 18.45 158.104 18.45C158.714 18.45 159.239 18.545 159.679 18.735C160.119 18.925 160.479 19.185 160.759 19.515C161.049 19.845 161.264 20.225 161.404 20.655C161.544 21.085 161.614 21.54 161.614 22.02V27H160.324ZM159.874 17.46C159.704 17.46 159.554 17.4 159.424 17.28C159.294 17.16 159.229 17 159.229 16.8V16.38C159.229 16.27 159.214 16.195 159.184 16.155C159.154 16.105 159.079 16.08 158.959 16.08H158.164V15.03H159.394C159.674 15.03 159.899 15.09 160.069 15.21C160.229 15.33 160.309 15.52 160.309 15.78V16.155C160.309 16.235 160.329 16.3 160.369 16.35C160.399 16.39 160.469 16.41 160.579 16.41H162.604V17.46H159.874Z" fill="#EE5B47"/>
<path d="M65.316 47V42.764C65.316 42.188 65.168 41.76 64.872 41.48C64.576 41.192 64.152 41.048 63.6 41.048C63.144 41.048 62.74 41.148 62.388 41.348C62.036 41.54 61.796 41.796 61.668 42.116L62.58 42.956C62.364 43.068 62.204 43.208 62.1 43.376C61.996 43.536 61.944 43.744 61.944 44V47H60.912V44.144C60.912 43.912 60.968 43.692 61.08 43.484C61.192 43.276 61.352 43.12 61.56 43.016L60.576 42.176C60.64 41.92 60.76 41.672 60.936 41.432C61.12 41.184 61.344 40.968 61.608 40.784C61.872 40.592 62.172 40.44 62.508 40.328C62.852 40.216 63.216 40.16 63.6 40.16C64.056 40.16 64.456 40.224 64.8 40.352C65.144 40.48 65.428 40.66 65.652 40.892C65.884 41.124 66.056 41.4 66.168 41.72C66.288 42.032 66.348 42.38 66.348 42.764V47H65.316ZM65.0102 39.368C64.2022 39.368 63.7982 39.008 63.7982 38.288V37.808H64.7822V38.168C64.7822 38.408 64.8942 38.528 65.1182 38.528H67.9502V39.368H65.0102ZM70.8662 46.232C71.4422 46.232 71.8662 46.08 72.1382 45.776C72.4182 45.472 72.5582 45.056 72.5582 44.528V40.28H73.5902V44.528C73.5902 45.36 73.3582 46 72.8942 46.448C72.4302 46.896 71.7542 47.12 70.8662 47.12C69.9782 47.12 69.3022 46.896 68.8382 46.448C68.3742 46 68.1422 45.36 68.1422 44.528V40.28H69.1742V44.528C69.1742 45.056 69.3102 45.472 69.5822 45.776C69.8622 46.08 70.2902 46.232 70.8662 46.232ZM75.7324 47V39.62C75.7324 39.252 75.6724 38.932 75.5524 38.66C75.4404 38.388 75.3084 38.16 75.1564 37.976C75.0044 37.784 74.8524 37.64 74.7004 37.544C74.5564 37.44 74.4524 37.376 74.3884 37.352L74.3644 37.136C74.4924 36.912 74.6524 36.716 74.8444 36.548C75.0444 36.372 75.2644 36.228 75.5044 36.116C75.7524 35.996 76.0164 35.908 76.2964 35.852C76.5844 35.796 76.8804 35.768 77.1844 35.768C77.6724 35.768 78.0644 35.8 78.3604 35.864C78.6564 35.92 78.9244 35.996 79.1644 36.092L79.0084 37.004C78.7764 36.876 78.5044 36.784 78.1924 36.728C77.8884 36.672 77.5844 36.644 77.2804 36.644C76.8964 36.644 76.5444 36.688 76.2244 36.776C75.9124 36.864 75.6844 37 75.5404 37.184C75.9404 37.4 76.2444 37.74 76.4524 38.204C76.6604 38.66 76.7644 39.164 76.7644 39.716V47H75.7324ZM81.4013 46.232C81.9773 46.232 82.4013 46.08 82.6733 45.776C82.9533 45.472 83.0933 45.056 83.0933 44.528V38H84.1253V44.528C84.1253 45.36 83.8933 46 83.4293 46.448C82.9653 46.896 82.2893 47.12 81.4013 47.12C80.5133 47.12 79.8373 46.896 79.3733 46.448C78.9093 46 78.6773 45.36 78.6773 44.528V40.28H79.7093V44.528C79.7093 45.056 79.8453 45.472 80.1173 45.776C80.3973 46.08 80.8253 46.232 81.4013 46.232ZM87.7195 46.244C88.2635 46.244 88.6755 46.14 88.9555 45.932C89.2355 45.716 89.3755 45.472 89.3755 45.2C89.3755 45.032 89.3235 44.884 89.2195 44.756C89.1235 44.628 88.9915 44.516 88.8235 44.42C88.6635 44.316 88.4795 44.228 88.2715 44.156C88.0715 44.084 87.8675 44.016 87.6595 43.952C87.3555 43.864 87.0715 43.768 86.8075 43.664C86.5515 43.552 86.3275 43.42 86.1355 43.268C85.9515 43.108 85.8075 42.924 85.7035 42.716C85.5995 42.5 85.5475 42.244 85.5475 41.948C85.5475 41.38 85.7715 40.94 86.2195 40.628C86.6755 40.316 87.2915 40.16 88.0675 40.16C88.4435 40.16 88.8115 40.2 89.1715 40.28C89.5315 40.352 89.8515 40.46 90.1315 40.604L89.8675 41.42C89.3795 41.164 88.8115 41.036 88.1635 41.036C87.6595 41.036 87.2635 41.124 86.9755 41.3C86.6955 41.476 86.5555 41.692 86.5555 41.948C86.5555 42.092 86.5955 42.22 86.6755 42.332C86.7555 42.444 86.8635 42.544 86.9995 42.632C87.1355 42.712 87.2915 42.788 87.4675 42.86C87.6435 42.924 87.8315 42.988 88.0315 43.052C88.4075 43.172 88.7395 43.3 89.0275 43.436C89.3235 43.564 89.5715 43.712 89.7715 43.88C89.9715 44.048 90.1235 44.24 90.2275 44.456C90.3315 44.672 90.3835 44.928 90.3835 45.224C90.3835 45.792 90.1675 46.252 89.7355 46.604C89.3115 46.948 88.6555 47.12 87.7675 47.12C87.3275 47.12 86.9195 47.08 86.5435 47C86.1755 46.92 85.8635 46.804 85.6075 46.652L85.8595 45.848C86.1075 45.968 86.3915 46.064 86.7115 46.136C87.0315 46.208 87.3675 46.244 87.7195 46.244ZM96.5055 47V43.004C96.5055 42.724 96.4695 42.464 96.3975 42.224C96.3335 41.984 96.2295 41.78 96.0855 41.612C95.9415 41.436 95.7575 41.3 95.5335 41.204C95.3175 41.1 95.0575 41.048 94.7535 41.048C94.0415 41.048 93.4975 41.284 93.1215 41.756C92.7535 42.22 92.5695 42.872 92.5695 43.712C92.5695 44.176 92.6215 44.568 92.7255 44.888C92.8375 45.2 92.9775 45.452 93.1455 45.644C93.3215 45.836 93.5135 45.976 93.7215 46.064C93.9295 46.144 94.1375 46.184 94.3455 46.184C94.5135 46.184 94.6575 46.172 94.7775 46.148C94.9055 46.124 95.0335 46.088 95.1615 46.04L95.3535 46.856C95.2175 46.92 95.0575 46.972 94.8735 47.012C94.6895 47.052 94.4975 47.072 94.2975 47.072C93.9375 47.072 93.5895 47.004 93.2535 46.868C92.9175 46.732 92.6215 46.528 92.3655 46.256C92.1175 45.976 91.9175 45.628 91.7655 45.212C91.6135 44.788 91.5375 44.288 91.5375 43.712C91.5375 43.208 91.6015 42.74 91.7295 42.308C91.8655 41.876 92.0655 41.504 92.3295 41.192C92.5935 40.872 92.9255 40.62 93.3255 40.436C93.7255 40.252 94.1935 40.16 94.7295 40.16C95.2175 40.16 95.6375 40.236 95.9895 40.388C96.3415 40.54 96.6295 40.748 96.8535 41.012C97.0855 41.276 97.2575 41.58 97.3695 41.924C97.4815 42.268 97.5375 42.632 97.5375 43.016V47H96.5055ZM96.2055 39.368C95.3975 39.368 94.9935 39.008 94.9935 38.288V37.808H95.9775V38.168C95.9775 38.408 96.0895 38.528 96.3135 38.528H99.1455V39.368H96.2055ZM103.754 47V42.764C103.754 42.188 103.606 41.76 103.31 41.48C103.014 41.192 102.59 41.048 102.038 41.048C101.582 41.048 101.178 41.148 100.826 41.348C100.474 41.54 100.234 41.796 100.106 42.116L101.018 42.956C100.802 43.068 100.642 43.208 100.538 43.376C100.434 43.536 100.382 43.744 100.382 44V47H99.3495V44.144C99.3495 43.912 99.4055 43.692 99.5175 43.484C99.6295 43.276 99.7895 43.12 99.9975 43.016L99.0135 42.176C99.0775 41.92 99.1975 41.672 99.3735 41.432C99.5575 41.184 99.7815 40.968 100.046 40.784C100.31 40.592 100.61 40.44 100.946 40.328C101.29 40.216 101.654 40.16 102.038 40.16C102.494 40.16 102.894 40.224 103.238 40.352C103.582 40.48 103.866 40.66 104.09 40.892C104.322 41.124 104.493 41.4 104.605 41.72C104.726 42.032 104.786 42.38 104.786 42.764V47H103.754ZM110.66 47V43.76H108.98C108.412 43.76 107.964 43.872 107.636 44.096C107.308 44.312 107.144 44.648 107.144 45.104C107.144 45.496 107.26 45.788 107.492 45.98C107.724 46.164 108.016 46.256 108.368 46.256C108.536 46.256 108.712 46.24 108.896 46.208C109.088 46.168 109.256 46.116 109.4 46.052L109.568 46.904C109.392 46.968 109.188 47.02 108.956 47.06C108.724 47.1 108.492 47.12 108.26 47.12C107.956 47.12 107.672 47.08 107.408 47C107.152 46.912 106.928 46.788 106.736 46.628C106.544 46.46 106.392 46.252 106.28 46.004C106.168 45.748 106.112 45.452 106.112 45.116C106.112 44.412 106.36 43.864 106.856 43.472C107.352 43.072 108.1 42.872 109.1 42.872H110.66V42.716C110.66 42.468 110.632 42.24 110.576 42.032C110.52 41.824 110.424 41.644 110.288 41.492C110.16 41.34 109.988 41.224 109.772 41.144C109.564 41.064 109.308 41.024 109.004 41.024C108.516 41.024 108.076 41.092 107.684 41.228C107.3 41.364 106.964 41.532 106.676 41.732L106.34 41C106.468 40.896 106.628 40.792 106.82 40.688C107.02 40.584 107.236 40.496 107.468 40.424C107.708 40.344 107.96 40.28 108.224 40.232C108.488 40.184 108.748 40.16 109.004 40.16C109.516 40.16 109.968 40.248 110.36 40.424L110.876 39.812H112.052L111.104 40.952C111.304 41.168 111.452 41.424 111.548 41.72C111.644 42.016 111.692 42.344 111.692 42.704V47H110.66ZM111.478 38.66C111.302 38.66 111.17 38.696 111.082 38.768C110.994 38.84 110.95 38.964 110.95 39.14V39.392H109.81V38.996C109.81 38.612 109.922 38.316 110.146 38.108C110.362 37.892 110.694 37.784 111.142 37.784H112.306V38.66H111.478ZM118.03 42.692C118.03 42.116 117.922 41.7 117.706 41.444C117.49 41.18 117.206 41.048 116.854 41.048C116.598 41.048 116.354 41.088 116.122 41.168C115.898 41.24 115.686 41.34 115.486 41.468C115.286 41.588 115.106 41.732 114.946 41.9C114.786 42.068 114.654 42.24 114.55 42.416V47H113.518V40.28H114.49L114.55 41.264C114.67 41.128 114.81 40.996 114.97 40.868C115.138 40.732 115.322 40.612 115.522 40.508C115.722 40.404 115.938 40.32 116.17 40.256C116.402 40.192 116.646 40.16 116.902 40.16C117.254 40.16 117.562 40.22 117.826 40.34C118.098 40.46 118.326 40.632 118.51 40.856C118.694 41.08 118.83 41.348 118.918 41.66C119.014 41.964 119.062 42.308 119.062 42.692V47H118.03V42.692ZM113.917 39.368V38.528H118.093V37.424H119.065V39.368H113.917ZM118.093 36.836V35.228H119.065V36.836H118.093ZM125.533 47V43.004C125.533 42.724 125.497 42.464 125.425 42.224C125.361 41.984 125.257 41.78 125.113 41.612C124.969 41.436 124.785 41.3 124.561 41.204C124.345 41.1 124.085 41.048 123.781 41.048C123.069 41.048 122.525 41.284 122.149 41.756C121.781 42.22 121.597 42.872 121.597 43.712C121.597 44.176 121.649 44.568 121.753 44.888C121.865 45.2 122.005 45.452 122.173 45.644C122.349 45.836 122.541 45.976 122.749 46.064C122.957 46.144 123.165 46.184 123.373 46.184C123.541 46.184 123.685 46.172 123.805 46.148C123.933 46.124 124.061 46.088 124.189 46.04L124.381 46.856C124.245 46.92 124.085 46.972 123.901 47.012C123.717 47.052 123.525 47.072 123.325 47.072C122.965 47.072 122.617 47.004 122.281 46.868C121.945 46.732 121.649 46.528 121.393 46.256C121.145 45.976 120.945 45.628 120.793 45.212C120.641 44.788 120.565 44.288 120.565 43.712C120.565 43.208 120.629 42.74 120.757 42.308C120.893 41.876 121.093 41.504 121.357 41.192C121.621 40.872 121.953 40.62 122.353 40.436C122.753 40.252 123.221 40.16 123.757 40.16C124.245 40.16 124.665 40.236 125.017 40.388C125.369 40.54 125.657 40.748 125.881 41.012C126.113 41.276 126.285 41.58 126.397 41.924C126.509 42.268 126.565 42.632 126.565 43.016V47H125.533ZM121.417 39.368V38.528H125.593V37.424H126.565V39.368H121.417ZM132.781 47V42.764C132.781 42.188 132.633 41.76 132.337 41.48C132.041 41.192 131.617 41.048 131.065 41.048C130.609 41.048 130.205 41.148 129.853 41.348C129.501 41.54 129.261 41.796 129.133 42.116L130.045 42.956C129.829 43.068 129.669 43.208 129.565 43.376C129.461 43.536 129.409 43.744 129.409 44V47H128.377V44.144C128.377 43.912 128.433 43.692 128.545 43.484C128.657 43.276 128.817 43.12 129.025 43.016L128.041 42.176C128.105 41.92 128.225 41.672 128.401 41.432C128.585 41.184 128.809 40.968 129.073 40.784C129.337 40.592 129.637 40.44 129.973 40.328C130.317 40.216 130.681 40.16 131.065 40.16C131.521 40.16 131.921 40.224 132.265 40.352C132.609 40.48 132.893 40.66 133.117 40.892C133.349 41.124 133.521 41.4 133.633 41.72C133.753 42.032 133.813 42.38 133.813 42.764V47H132.781ZM135.403 45.632C135.691 45.808 135.995 45.952 136.315 46.064C136.643 46.176 136.999 46.232 137.383 46.232C137.991 46.232 138.475 46.024 138.835 45.608C139.203 45.192 139.387 44.552 139.387 43.688C139.387 42.776 139.211 42.108 138.859 41.684C138.515 41.26 138.023 41.048 137.383 41.048C136.959 41.048 136.595 41.104 136.291 41.216C135.987 41.32 135.683 41.472 135.379 41.672L135.139 40.844C135.459 40.636 135.819 40.472 136.219 40.352C136.627 40.224 137.043 40.16 137.467 40.16C138.435 40.16 139.167 40.464 139.663 41.072C140.167 41.672 140.419 42.512 140.419 43.592C140.419 44.744 140.151 45.62 139.615 46.22C139.087 46.82 138.335 47.12 137.359 47.12C136.903 47.12 136.499 47.064 136.147 46.952C135.795 46.84 135.463 46.68 135.151 46.472L135.403 45.632ZM139.115 39.368V37.376H140.123V39.368H139.115ZM144.779 47V42.668C144.779 41.588 144.303 41.048 143.351 41.048C142.967 41.048 142.607 41.12 142.271 41.264C141.935 41.4 141.651 41.564 141.419 41.756L141.143 40.976C141.263 40.872 141.407 40.772 141.575 40.676C141.751 40.572 141.939 40.484 142.139 40.412C142.347 40.332 142.559 40.272 142.775 40.232C142.999 40.184 143.223 40.16 143.447 40.16C144.231 40.16 144.819 40.384 145.211 40.832C145.611 41.272 145.811 41.9 145.811 42.716V47H144.779Z" fill="#414B5A"/>
<defs>
<filter id="filter0_d" x="0.856445" y="0" width="204.143" height="70.151" filterUnits="userSpaceOnUse" color-interpolation-filters="sRGB">
<feFlood flood-opacity="0" result="BackgroundImageFix"/>
<feColorMatrix in="SourceAlpha" type="matrix" values="0 0 0 0 0 0 0 0 0 0 0 0 0 0 0 0 0 0 127 0" result="hardAlpha"/>
<feOffset dy="3"/>
<feGaussianBlur stdDeviation="3"/>
<feColorMatrix type="matrix" values="0 0 0 0 0 0 0 0 0 0 0 0 0 0 0 0 0 0 0.161 0"/>
<feBlend mode="normal" in2="BackgroundImageFix" result="effect1_dropShadow"/>
<feBlend mode="normal" in="SourceGraphic" in2="effect1_dropShadow" result="shape"/>
</filter>
</defs>
</svg>
