<svg width="205" height="71" viewBox="0 0 205 71" fill="none" xmlns="http://www.w3.org/2000/svg">
<g style="mix-blend-mode:multiply" opacity="0.6">
<g style="mix-blend-mode:multiply" opacity="0.6">
<path d="M24.827 65.6558C19.605 65.6558 13.197 61.9558 10.585 57.4328L4.959 47.6848C2.347 43.1628 2.347 35.7608 4.959 31.2358L10.585 21.4898C13.197 16.9688 19.606 13.2678 24.827 13.2678H166.297C171.519 13.2678 177.928 16.9678 180.538 21.4898L186.16 31.2378C188.774 35.7628 188.774 43.1648 186.16 47.6868L180.534 57.4348C177.924 61.9548 171.515 65.6578 166.293 65.6578L24.827 65.6558Z" fill="#F2F6F6"/>
</g>
<g style="mix-blend-mode:multiply" opacity="0.6">
<path d="M25.257 65.1589C20.076 65.1589 13.715 61.4859 11.124 57.0009L5.53798 47.3249C2.94698 42.8389 2.94698 35.4919 5.53798 31.0029L11.121 21.3309C13.712 16.8449 20.073 13.1729 25.254 13.1729H166.313C171.496 13.1729 177.856 16.8449 180.446 21.3309L186.029 31.0029C188.624 35.4929 188.624 42.8389 186.029 47.3249L180.446 57.0009C177.856 61.4859 171.496 65.1589 166.313 65.1589H25.257Z" fill="#F2F6F6"/>
</g>
<g style="mix-blend-mode:multiply" opacity="0.6">
<path d="M25.6893 64.6649C20.5483 64.6649 14.2363 61.0179 11.6643 56.5649L6.12529 46.965C3.55329 42.513 3.55329 35.2239 6.12529 30.7649L11.6643 21.1649C14.2363 16.7129 20.5483 13.0649 25.6893 13.0649H166.329C171.471 13.0649 177.783 16.7099 180.354 21.1649L185.895 30.7649C188.469 35.2209 188.469 42.51 185.895 46.965L180.354 56.5649C177.783 61.0149 171.472 64.6649 166.329 64.6649H25.6893Z" fill="#F2F6F6"/>
</g>
<g style="mix-blend-mode:multiply" opacity="0.6">
<path d="M26.1213 64.17C21.0213 64.17 14.7553 60.551 12.2043 56.135L6.70427 46.609C4.15327 42.191 4.15327 34.958 6.70427 30.536L12.2043 21.014C14.7553 16.596 21.0193 12.98 26.1213 12.98H166.345C171.445 12.98 177.711 16.596 180.262 21.014L185.762 30.536C188.316 34.958 188.316 42.19 185.762 46.609L180.262 56.135C177.711 60.551 171.447 64.17 166.345 64.17H26.1213Z" fill="#F2F6F6"/>
</g>
<g style="mix-blend-mode:multiply" opacity="0.6">
<path d="M26.5529 63.6738C21.4899 63.6738 15.2759 60.0848 12.7449 55.7018L7.28985 46.2508C4.75885 41.8668 4.75885 34.6908 7.28985 30.3038L12.7449 20.8548C15.2759 16.4708 21.4899 12.8838 26.5529 12.8838H166.362C171.424 12.8838 177.64 16.4708 180.169 20.8548L185.623 30.3038C188.157 34.6908 188.157 41.8678 185.623 46.2508L180.174 55.7018C177.645 60.0848 171.429 63.6738 166.367 63.6738H26.5529Z" fill="#F2F6F6"/>
</g>
<g style="mix-blend-mode:multiply" opacity="0.6">
<path d="M26.9843 63.1798C21.9603 63.1798 15.7973 59.6168 13.2843 55.2698L7.87228 45.8928C5.36028 41.5438 5.36028 34.4238 7.87228 30.0708L13.2843 20.6958C15.7973 16.3478 21.9603 12.7888 26.9843 12.7888H166.377C171.4 12.7888 177.565 16.3478 180.077 20.6958L185.489 30.0708C188.003 34.4238 188.003 41.5438 185.489 45.8928L180.077 55.2698C177.565 59.6168 171.399 63.1798 166.377 63.1798H26.9843Z" fill="#F2F6F6"/>
</g>
<g style="mix-blend-mode:multiply" opacity="0.6">
<path d="M27.4152 62.6849C22.4332 62.6849 16.3152 59.1509 13.8242 54.8369L8.45516 45.5369C5.96416 41.2219 5.96416 34.1589 8.45516 29.8369L13.8242 20.5369C16.3162 16.2239 22.4322 12.6919 27.4152 12.6919H166.394C171.377 12.6919 177.494 16.2239 179.986 20.5369L185.355 29.8369C187.848 34.1539 187.848 41.2169 185.355 45.5369L179.986 54.8369C177.495 59.1499 171.378 62.6849 166.394 62.6849H27.4152Z" fill="#F2F6F6"/>
</g>
<g style="mix-blend-mode:multiply" opacity="0.6">
<path d="M27.8463 62.1889C22.9043 62.1889 16.8363 58.6839 14.3633 54.4049L9.03734 45.1769C7.81855 42.7626 7.18359 40.0959 7.18359 37.3914C7.18359 34.6869 7.81855 32.0202 9.03734 29.6059L14.3633 20.3789C15.8449 18.1171 17.8367 16.2346 20.1785 14.8829C22.5203 13.5313 25.1467 12.7483 27.8463 12.5969H166.409C169.109 12.7483 171.735 13.5313 174.076 14.883C176.418 16.2346 178.409 18.1171 179.89 20.3789L185.216 29.6059C186.436 32.02 187.071 34.6868 187.071 37.3914C187.071 40.096 186.436 42.7628 185.216 45.1769L179.89 54.4049C177.418 58.6839 171.351 62.1889 166.409 62.1889H27.8463Z" fill="#F2F6F6"/>
</g>
<g style="mix-blend-mode:multiply" opacity="0.6">
<path d="M28.2793 61.694C25.6012 61.5434 22.9959 60.7663 20.673 59.4251C18.3501 58.0839 16.3745 56.2161 14.9053 53.972L9.62125 44.818C8.41276 42.4231 7.7832 39.778 7.7832 37.0955C7.7832 34.413 8.41276 31.7679 9.62125 29.373L14.9053 20.221C16.3746 17.9772 18.3503 16.1097 20.6732 14.7688C22.9961 13.4279 25.6013 12.6511 28.2793 12.501H166.426C169.104 12.6512 171.709 13.428 174.032 14.7689C176.355 16.1098 178.331 17.9772 179.8 20.221L185.083 29.373C186.293 31.7675 186.923 34.4127 186.923 37.0955C186.923 39.7782 186.293 42.4234 185.083 44.818L179.8 53.972C178.331 56.216 176.355 58.0837 174.032 59.4249C171.71 60.7661 169.104 61.5433 166.426 61.694H28.2793Z" fill="#F2F6F6"/>
</g>
<g style="mix-blend-mode:multiply" opacity="0.6">
<path d="M28.7094 61.1988C26.0535 61.049 23.4697 60.2779 21.166 58.9477C18.8623 57.6175 16.9029 55.7652 15.4454 53.5398L10.2044 44.4598C9.00547 42.0843 8.38086 39.4606 8.38086 36.7998C8.38086 34.1389 9.00547 31.5152 10.2044 29.1398L15.4454 20.0628C16.9025 17.8371 18.8618 15.9846 21.1656 14.6545C23.4694 13.3244 26.0534 12.5538 28.7094 12.4048H166.442C169.099 12.5535 171.683 13.3239 173.987 14.654C176.292 15.9842 178.251 17.8368 179.708 20.0628L184.948 29.1398C186.148 31.5149 186.774 34.1387 186.774 36.7998C186.774 39.4608 186.148 42.0847 184.948 44.4598L179.708 53.5398C178.251 55.7654 176.291 57.6179 173.987 58.9481C171.683 60.2784 169.099 61.0493 166.442 61.1988H28.7094Z" fill="#F2F6F6"/>
</g>
<g style="mix-blend-mode:multiply" opacity="0.6">
<path d="M29.1445 60.704C26.5098 60.5568 23.9465 59.7932 21.6608 58.4746C19.3751 57.1559 17.4308 55.3191 15.9845 53.112L10.7845 44.105C9.59581 41.7494 8.97656 39.1476 8.97656 36.509C8.97656 33.8704 9.59581 31.2687 10.7845 28.913L15.9845 19.913C17.4297 17.7041 19.3735 15.8655 21.6593 14.5452C23.9451 13.225 26.509 12.4601 29.1445 12.312H166.46C169.094 12.4595 171.657 13.2235 173.942 14.5425C176.227 15.8615 178.17 17.6987 179.616 19.906L184.816 28.906C186.005 31.2614 186.625 33.8632 186.625 36.502C186.625 39.1408 186.005 41.7427 184.816 44.098L179.615 53.112C178.17 55.3204 176.227 57.1586 173.942 58.4787C171.656 59.7987 169.093 60.5637 166.459 60.712L29.1445 60.704Z" fill="#F2F6F6"/>
</g>
<g style="mix-blend-mode:multiply" opacity="0.6">
<path d="M29.5723 60.2089C26.9597 60.0619 24.418 59.3036 22.1519 57.995C19.8859 56.6865 17.9586 54.8642 16.5253 52.6749L11.3693 43.7439C10.1897 41.4075 9.5752 38.8267 9.5752 36.2094C9.5752 33.5921 10.1897 31.0113 11.3693 28.6749L16.5253 19.7449C17.9587 17.5558 19.886 15.7338 22.1521 14.4256C24.4182 13.1173 26.9598 12.3595 29.5723 12.2129H166.472C169.085 12.359 171.628 13.1167 173.895 14.4249C176.161 15.7331 178.089 17.5554 179.523 19.7449L184.679 28.6749C185.859 31.0113 186.473 33.5921 186.473 36.2094C186.473 38.8267 185.859 41.4075 184.679 43.7439L179.523 52.6749C178.09 54.8644 176.162 56.6867 173.896 57.9952C171.629 59.3038 169.087 60.062 166.474 60.2089H29.5723Z" fill="#F2F6F6"/>
</g>
<g style="mix-blend-mode:multiply" opacity="0.6">
<path d="M30.0024 59.7129C27.4114 59.5672 24.8908 58.8153 22.6435 57.5177C20.3962 56.2201 18.4848 54.413 17.0634 52.2419L11.9514 43.3849C10.782 41.0681 10.1729 38.5091 10.1729 35.9139C10.1729 33.3187 10.782 30.7598 11.9514 28.4429L17.0634 19.5869C18.4851 17.4162 20.3965 15.6095 22.6438 14.3122C24.8911 13.015 27.4116 12.2634 30.0024 12.1179H166.491C169.082 12.2631 171.603 13.0146 173.85 14.3119C176.097 15.6092 178.009 17.416 179.43 19.5869L184.545 28.4429C185.715 30.7598 186.324 33.3187 186.324 35.9139C186.324 38.5091 185.715 41.0681 184.545 43.3849L179.43 52.2419C178.009 54.4132 176.098 56.2205 173.85 57.5181C171.603 58.8158 169.082 59.5675 166.491 59.7129H30.0024Z" fill="#F2F6F6"/>
</g>
<g style="mix-blend-mode:multiply" opacity="0.6">
<path d="M30.4344 59.218C27.8652 59.0735 25.3658 58.3278 23.1373 57.041C20.9089 55.7541 19.0138 53.962 17.6044 51.809L12.5334 43.027C11.3737 40.7296 10.7695 38.192 10.7695 35.6185C10.7695 33.0449 11.3737 30.5074 12.5334 28.21L17.6044 19.429C19.0139 17.2762 20.9091 15.4844 23.1375 14.1979C25.3659 12.9114 27.8653 12.1661 30.4344 12.022H166.508C169.078 12.1661 171.577 12.9114 173.806 14.1979C176.034 15.4844 177.93 17.2761 179.339 19.429L184.41 28.21C185.57 30.5075 186.173 33.045 186.173 35.6185C186.173 38.1919 185.57 40.7294 184.41 43.027L179.339 51.809C177.93 53.9621 176.035 55.7542 173.806 57.041C171.577 58.3279 169.078 59.0735 166.508 59.218H30.4344Z" fill="#F2F6F6"/>
</g>
<g style="mix-blend-mode:multiply" opacity="0.6">
<path d="M30.8671 58.7228C28.3195 58.5794 25.8411 57.8399 23.6314 56.5638C21.4218 55.2877 19.5426 53.5107 18.1451 51.3758L13.1181 42.6668C11.9682 40.3889 11.3691 37.8729 11.3691 35.3213C11.3691 32.7696 11.9682 30.2536 13.1181 27.9758L18.1451 19.2688C19.543 17.1346 21.4224 15.3583 23.632 14.083C25.8417 12.8076 28.3198 12.0687 30.8671 11.9258H166.523C169.071 12.0684 171.549 12.8072 173.759 14.0825C175.969 15.3579 177.849 17.1343 179.247 19.2688L184.274 27.9758C185.424 30.2536 186.023 32.7696 186.023 35.3213C186.023 37.8729 185.424 40.3889 184.274 42.6668L179.247 51.3758C177.849 53.511 175.97 55.2882 173.76 56.5643C171.55 57.8404 169.071 58.5797 166.523 58.7228H30.8671Z" fill="#F2F6F6"/>
</g>
<g style="mix-blend-mode:multiply" opacity="0.6">
<path d="M31.2976 58.2278C28.7719 58.0858 26.3148 57.3528 24.124 56.0879C21.9333 54.8229 20.0702 53.0613 18.6846 50.9448L13.6996 42.3108C12.5597 40.0521 11.9658 37.5574 11.9658 35.0273C11.9658 32.4973 12.5597 30.0026 13.6996 27.7438L18.6846 19.1108C20.0702 16.9946 21.9334 15.2332 24.1242 13.9686C26.3149 12.704 28.772 11.9714 31.2976 11.8298H166.537C169.063 11.9712 171.52 12.7036 173.711 13.9682C175.903 15.2329 177.766 16.9943 179.153 19.1108L184.138 27.7438C185.277 30.0026 185.871 32.4973 185.871 35.0273C185.871 37.5574 185.277 40.0521 184.138 42.3108L179.153 50.9448C177.767 53.0616 175.903 54.8233 173.712 56.0883C171.52 57.3533 169.063 58.0861 166.537 58.2278H31.2976Z" fill="#F2F6F6"/>
</g>
<g style="mix-blend-mode:multiply" opacity="0.6">
<path d="M31.7303 57.7358C29.2261 57.5952 26.79 56.8686 24.618 55.6144C22.4459 54.3601 20.5988 52.6134 19.2253 50.5148L14.2833 41.9548C13.1532 39.7158 12.5645 37.2428 12.5645 34.7348C12.5645 32.2268 13.1532 29.7538 14.2833 27.5148L19.2253 18.9568C20.5991 16.8586 22.4463 15.1123 24.6183 13.8584C26.7903 12.6046 29.2263 11.8782 31.7303 11.7378H166.556C169.06 11.878 171.496 12.6044 173.668 13.8582C175.84 15.1121 177.688 16.8585 179.061 18.9568L184.004 27.5148C185.134 29.7539 185.722 32.2269 185.722 34.7348C185.722 37.2427 185.134 39.7157 184.004 41.9548L179.061 50.5148C177.688 52.6135 175.841 54.3602 173.669 55.6145C171.497 56.8687 169.061 57.5953 166.556 57.7358H31.7303Z" fill="#F2F6F6"/>
</g>
<g style="mix-blend-mode:multiply" opacity="0.6">
<path d="M32.1598 57.2379C29.6767 57.099 27.261 56.3787 25.1072 55.1353C22.9534 53.8918 21.1217 52.1598 19.7598 50.0789L14.8598 41.5939C13.7397 39.3742 13.1562 36.9227 13.1562 34.4364C13.1562 31.9502 13.7397 29.4986 14.8598 27.2789L19.7598 18.7949C21.122 16.7145 22.9538 14.9831 25.1076 13.7401C27.2614 12.4972 29.677 11.7775 32.1598 11.6389H166.571C169.054 11.7777 171.469 12.4975 173.623 13.7404C175.777 14.9834 177.608 16.7146 178.971 18.7949L183.871 27.2789C184.99 29.4989 185.573 31.9503 185.573 34.4364C185.573 36.9225 184.99 39.374 183.871 41.5939L178.971 50.0789C177.609 52.1597 175.777 53.8916 173.623 55.1351C171.47 56.3785 169.054 57.0988 166.571 57.2379H32.1598Z" fill="#F2F6F6"/>
</g>
<g style="mix-blend-mode:multiply" opacity="0.6">
<path d="M32.5925 56.7428C30.1314 56.6039 27.7374 55.889 25.6031 54.6558C23.4689 53.4226 21.6539 51.7056 20.3045 49.6429L15.4485 41.2309C14.3382 39.0307 13.7598 36.6007 13.7598 34.1364C13.7598 31.672 14.3382 29.242 15.4485 27.0419L20.3045 18.6319C21.6545 16.5701 23.4697 14.8542 25.6039 13.622C27.7382 12.3899 30.1319 11.676 32.5925 11.5378H166.592C169.053 11.6758 171.447 12.3895 173.582 13.6217C175.717 14.8538 177.532 16.5699 178.882 18.6319L183.74 27.0419C184.85 29.2421 185.428 31.6721 185.428 34.1364C185.428 36.6006 184.85 39.0306 183.74 41.2309L178.882 49.6429C177.533 51.7058 175.717 53.423 173.583 54.6561C171.448 55.8893 169.054 56.6041 166.592 56.7428H32.5925Z" fill="#F2F6F6"/>
</g>
<g style="mix-blend-mode:multiply" opacity="0.6">
<path d="M33.0225 56.2468C30.5834 56.1097 28.2106 55.4017 26.0952 54.1797C23.9798 52.9578 22.1809 51.2562 20.8435 49.2118L16.0305 40.8758C14.9298 38.6951 14.3564 36.2865 14.3564 33.8438C14.3564 31.4011 14.9298 28.9925 16.0305 26.8118L20.8435 18.4748C22.1815 16.4314 23.9806 14.7307 26.096 13.5097C28.2113 12.2886 30.5839 11.5814 33.0225 11.4448H166.604C169.042 11.5815 171.415 12.2889 173.531 13.5099C175.646 14.7309 177.446 16.4315 178.785 18.4748L183.599 26.8118C184.699 28.9927 185.272 31.4012 185.272 33.8438C185.272 36.2864 184.699 38.695 183.599 40.8758L178.785 49.2118C177.447 51.2564 175.648 52.9583 173.532 54.1802C171.416 55.4021 169.043 56.11 166.604 56.2468H33.0225Z" fill="#F2F6F6"/>
</g>
<g style="mix-blend-mode:multiply" opacity="0.6">
<path d="M33.4537 55.7528C31.0367 55.6166 28.6853 54.9149 26.5889 53.7041C24.4925 52.4934 22.7096 50.8074 21.3837 48.7818L16.6137 40.5198C15.5232 38.3582 14.9551 35.9709 14.9551 33.5498C14.9551 31.1287 15.5232 28.7414 16.6137 26.5798L21.3837 18.3188C22.7097 16.2936 24.4927 14.608 26.5891 13.3978C28.6855 12.1875 31.0368 11.4864 33.4537 11.3508H166.62C169.037 11.486 171.389 12.1869 173.486 13.3972C175.584 14.6075 177.367 16.2933 178.694 18.3188L183.466 26.5798C184.555 28.7417 185.123 31.1289 185.123 33.5498C185.123 35.9707 184.555 38.3579 183.466 40.5198L178.694 48.7818C177.367 50.8078 175.584 52.494 173.487 53.7048C171.39 54.9156 169.037 55.6171 166.62 55.7528H33.4537Z" fill="#F2F6F6"/>
</g>
<g style="mix-blend-mode:multiply" opacity="0.6">
<path d="M33.8857 55.2568C31.4901 55.1222 29.1596 54.4269 27.0819 53.2268C25.0042 52.0268 23.2373 50.3556 21.9237 48.3478L17.1957 40.1598C16.1148 38.0179 15.5518 35.6523 15.5518 33.2533C15.5518 30.8542 16.1148 28.4886 17.1957 26.3468L21.9237 18.1598C23.2383 16.1536 25.0055 14.4841 27.0832 13.2856C29.1608 12.0872 31.4909 11.3933 33.8857 11.2598H166.637C169.032 11.3933 171.362 12.0872 173.44 13.2856C175.518 14.484 177.286 16.1535 178.601 18.1598L183.329 26.3468C184.409 28.4887 184.972 30.8543 184.972 33.2533C184.972 35.6523 184.409 38.0178 183.329 40.1598L178.601 48.3478C177.287 50.3555 175.519 52.0267 173.441 53.2267C171.363 54.4267 169.033 55.1221 166.637 55.2568H33.8857Z" fill="#F2F6F6"/>
</g>
<g style="mix-blend-mode:multiply" opacity="0.6">
<path d="M34.3184 54.7609C31.9444 54.6275 29.635 53.9384 27.576 52.7491C25.5171 51.5598 23.7662 49.9036 22.4644 47.9139L17.7804 39.8009C16.7093 37.6786 16.1514 35.3346 16.1514 32.9574C16.1514 30.5802 16.7093 28.2362 17.7804 26.1139L22.4644 18.0009C23.7669 16.0123 25.518 14.3573 27.5769 13.1691C29.6358 11.9809 31.945 11.2927 34.3184 11.1599H166.653C169.027 11.2928 171.336 11.9811 173.395 13.1693C175.454 14.3575 177.206 16.0124 178.508 18.0009L183.194 26.1139C184.265 28.2364 184.822 30.5804 184.822 32.9574C184.822 35.3345 184.265 37.6784 183.194 39.8009L178.508 47.9139C177.206 49.9035 175.455 51.5596 173.396 52.7489C171.337 53.9381 169.027 54.6273 166.653 54.7609H34.3184Z" fill="#F2F6F6"/>
</g>
<g style="mix-blend-mode:multiply" opacity="0.6">
<path d="M34.7486 54.2659C32.3965 54.1339 30.1083 53.4513 28.0684 52.2729C26.0285 51.0946 24.294 49.4535 23.0046 47.4819L18.3646 39.4479C17.303 37.3451 16.75 35.0224 16.75 32.6669C16.75 30.3113 17.303 27.9887 18.3646 25.8859L23.0076 17.8459C24.2978 15.8755 26.0327 14.2356 28.0725 13.0582C30.1123 11.8807 32.4 11.1987 34.7516 11.0669H166.665C169.017 11.1984 171.305 11.8803 173.345 13.0577C175.386 14.2351 177.121 15.8752 178.412 17.8459L183.057 25.8859C184.116 27.9892 184.668 30.3116 184.668 32.6669C184.668 35.0221 184.116 37.3446 183.057 39.4479L178.412 47.4869C177.121 49.4578 175.386 51.098 173.345 52.2755C171.305 53.4529 169.017 54.1347 166.665 54.2659H34.7486Z" fill="#F2F6F6"/>
</g>
<g style="mix-blend-mode:multiply" opacity="0.6">
<path d="M35.1796 53.7718C32.8493 53.641 30.5824 52.9647 28.5615 51.7973C26.5405 50.6298 24.822 49.004 23.5446 47.0508L18.9446 39.0858C17.8933 37.0024 17.3457 34.7014 17.3457 32.3678C17.3457 30.0342 17.8933 27.7332 18.9446 25.6498L23.5446 17.6848C24.8225 15.7323 26.5411 14.1072 28.5621 12.9405C30.583 11.7738 32.8497 11.0981 35.1796 10.9678H166.685C169.015 11.0983 171.282 11.7741 173.303 12.9408C175.324 14.1075 177.043 15.7324 178.322 17.6848L182.922 25.6498C183.972 27.7335 184.519 30.0344 184.519 32.3678C184.519 34.7012 183.972 37.0021 182.922 39.0858L178.322 47.0508C177.044 49.0039 175.325 50.6296 173.303 51.797C171.282 52.9643 169.015 53.6408 166.685 53.7718H35.1796Z" fill="#F2F6F6"/>
</g>
<g style="mix-blend-mode:multiply" opacity="0.6">
<path d="M35.6109 53.2769C33.3024 53.1474 31.0565 52.4774 29.0543 51.321C27.0521 50.1645 25.3496 48.5539 24.0839 46.6189L19.5219 38.7229C18.4808 36.6588 17.9385 34.3792 17.9385 32.0674C17.9385 29.7556 18.4808 27.476 19.5219 25.4119L24.0789 17.5219C25.3451 15.5877 27.0478 13.9779 29.05 12.8222C31.0521 11.6664 33.2977 10.9971 35.6059 10.8679H166.696C169.005 10.9964 171.252 11.6656 173.256 12.8215C175.259 13.9775 176.963 15.5879 178.23 17.5229L182.789 25.4129C183.829 27.4774 184.371 29.7568 184.371 32.0684C184.371 34.38 183.829 36.6595 182.789 38.7239L178.23 46.6149C176.964 48.5499 175.261 50.1605 173.258 51.317C171.256 52.4734 169.01 53.1434 166.701 53.2729L35.6109 53.2769Z" fill="#F2F6F6"/>
</g>
</g>
<g filter="url(#filter0_d)">
<path d="M23.6425 61.151L6.85645 32.076L23.6425 3H182.214L198.999 32.076L182.214 61.151H23.6425Z" fill="#F2F6F6"/>
</g>
<path d="M182.208 3H23.637L23.165 3.81799H181.208L197.432 32.118L180.225 61.154H182.208L198.993 32.079L182.208 3Z" fill="#F2F6F6"/>
<path d="M53.99 18.27C53.57 18.27 53.155 18.325 52.745 18.435C52.345 18.535 51.985 18.66 51.665 18.81L51.335 17.73C51.655 17.57 52.045 17.425 52.505 17.295C52.965 17.165 53.465 17.1 54.005 17.1C55.095 17.1 55.895 17.34 56.405 17.82C56.915 18.3 57.17 18.94 57.17 19.74C57.17 20.15 57.09 20.55 56.93 20.94C56.78 21.32 56.575 21.7 56.315 22.08C56.055 22.45 55.745 22.82 55.385 23.19C55.035 23.56 54.665 23.93 54.275 24.3L52.7 25.8H57.5V27H50.93V26.025L53.36 23.565C53.77 23.145 54.13 22.77 54.44 22.44C54.76 22.1 55.025 21.785 55.235 21.495C55.445 21.195 55.605 20.905 55.715 20.625C55.825 20.345 55.88 20.05 55.88 19.74C55.88 19.24 55.705 18.87 55.355 18.63C55.015 18.39 54.56 18.27 53.99 18.27ZM59.484 26.25C59.484 26 59.564 25.79 59.724 25.62C59.884 25.44 60.109 25.35 60.399 25.35C60.689 25.35 60.914 25.44 61.074 25.62C61.234 25.79 61.314 26 61.314 26.25C61.314 26.5 61.234 26.715 61.074 26.895C60.914 27.065 60.689 27.15 60.399 27.15C60.109 27.15 59.884 27.065 59.724 26.895C59.564 26.715 59.484 26.5 59.484 26.25ZM65.5918 26.055C66.2718 26.055 66.7868 25.925 67.1368 25.665C67.4868 25.395 67.6618 25.09 67.6618 24.75C67.6618 24.54 67.5968 24.355 67.4668 24.195C67.3468 24.035 67.1818 23.895 66.9718 23.775C66.7718 23.645 66.5418 23.535 66.2818 23.445C66.0318 23.355 65.7768 23.27 65.5168 23.19C65.1368 23.08 64.7818 22.96 64.4518 22.83C64.1318 22.69 63.8518 22.525 63.6118 22.335C63.3818 22.135 63.2018 21.905 63.0718 21.645C62.9418 21.375 62.8768 21.055 62.8768 20.685C62.8768 19.975 63.1568 19.425 63.7168 19.035C64.2868 18.645 65.0568 18.45 66.0268 18.45C66.4968 18.45 66.9568 18.5 67.4068 18.6C67.8568 18.69 68.2568 18.825 68.6068 19.005L68.2768 20.025C67.6668 19.705 66.9568 19.545 66.1468 19.545C65.5168 19.545 65.0218 19.655 64.6618 19.875C64.3118 20.095 64.1368 20.365 64.1368 20.685C64.1368 20.865 64.1868 21.025 64.2868 21.165C64.3868 21.305 64.5218 21.43 64.6918 21.54C64.8618 21.64 65.0568 21.735 65.2768 21.825C65.4968 21.905 65.7318 21.985 65.9818 22.065C66.4518 22.215 66.8668 22.375 67.2268 22.545C67.5968 22.705 67.9068 22.89 68.1568 23.1C68.4068 23.31 68.5968 23.55 68.7268 23.82C68.8568 24.09 68.9218 24.41 68.9218 24.78C68.9218 25.49 68.6518 26.065 68.1118 26.505C67.5818 26.935 66.7618 27.15 65.6518 27.15C65.1018 27.15 64.5918 27.1 64.1218 27C63.6618 26.9 63.2718 26.755 62.9518 26.565L63.2668 25.56C63.5768 25.71 63.9318 25.83 64.3318 25.92C64.7318 26.01 65.1518 26.055 65.5918 26.055ZM66.8243 17.46C65.8143 17.46 65.3093 17.01 65.3093 16.11V15.51H66.5393V15.96C66.5393 16.26 66.6793 16.41 66.9593 16.41H70.4993V17.46H66.8243ZM74.1443 26.04C74.8643 26.04 75.3943 25.85 75.7343 25.47C76.0843 25.09 76.2593 24.57 76.2593 23.91V18.6H77.5493V23.91C77.5493 24.95 77.2593 25.75 76.6793 26.31C76.0993 26.87 75.2543 27.15 74.1443 27.15C73.0343 27.15 72.1893 26.87 71.6093 26.31C71.0293 25.75 70.7393 24.95 70.7393 23.91V18.6H72.0293V23.91C72.0293 24.57 72.1993 25.09 72.5393 25.47C72.8893 25.85 73.4243 26.04 74.1443 26.04ZM82.042 26.055C82.722 26.055 83.237 25.925 83.587 25.665C83.937 25.395 84.112 25.09 84.112 24.75C84.112 24.54 84.047 24.355 83.917 24.195C83.797 24.035 83.632 23.895 83.422 23.775C83.222 23.645 82.992 23.535 82.732 23.445C82.482 23.355 82.227 23.27 81.967 23.19C81.587 23.08 81.232 22.96 80.902 22.83C80.582 22.69 80.302 22.525 80.062 22.335C79.832 22.135 79.652 21.905 79.522 21.645C79.392 21.375 79.327 21.055 79.327 20.685C79.327 19.975 79.607 19.425 80.167 19.035C80.737 18.645 81.507 18.45 82.477 18.45C82.947 18.45 83.407 18.5 83.857 18.6C84.307 18.69 84.707 18.825 85.057 19.005L84.727 20.025C84.117 19.705 83.407 19.545 82.597 19.545C81.967 19.545 81.472 19.655 81.112 19.875C80.762 20.095 80.587 20.365 80.587 20.685C80.587 20.865 80.637 21.025 80.737 21.165C80.837 21.305 80.972 21.43 81.142 21.54C81.312 21.64 81.507 21.735 81.727 21.825C81.947 21.905 82.182 21.985 82.432 22.065C82.902 22.215 83.317 22.375 83.677 22.545C84.047 22.705 84.357 22.89 84.607 23.1C84.857 23.31 85.047 23.55 85.177 23.82C85.307 24.09 85.372 24.41 85.372 24.78C85.372 25.49 85.102 26.065 84.562 26.505C84.032 26.935 83.212 27.15 82.102 27.15C81.552 27.15 81.042 27.1 80.572 27C80.112 26.9 79.722 26.755 79.402 26.565L79.717 25.56C80.027 25.71 80.382 25.83 80.782 25.92C81.182 26.01 81.602 26.055 82.042 26.055ZM90.7595 27V21.585C90.7595 20.235 90.1645 19.56 88.9745 19.56C88.4945 19.56 88.0445 19.65 87.6245 19.83C87.2045 20 86.8495 20.205 86.5595 20.445L86.2145 19.47C86.3645 19.34 86.5445 19.215 86.7545 19.095C86.9745 18.965 87.2095 18.855 87.4595 18.765C87.7195 18.665 87.9845 18.59 88.2545 18.54C88.5345 18.48 88.8145 18.45 89.0945 18.45C90.0745 18.45 90.8095 18.73 91.2995 19.29C91.7995 19.84 92.0495 20.625 92.0495 21.645V27H90.7595ZM99.4539 18.6H100.744V23.865C100.744 24.355 100.679 24.805 100.549 25.215C100.419 25.615 100.209 25.96 99.9189 26.25C99.6389 26.53 99.2739 26.75 98.8239 26.91C98.3839 27.07 97.8439 27.15 97.2039 27.15C96.1439 27.15 95.3189 26.915 94.7289 26.445C94.1489 25.975 93.8589 25.305 93.8589 24.435C93.8589 23.935 93.9839 23.51 94.2339 23.16C94.4839 22.8 94.8239 22.55 95.2539 22.41C94.8739 22.31 94.5439 22.1 94.2639 21.78C93.9939 21.46 93.8589 21.015 93.8589 20.445C93.8589 19.885 94.0489 19.425 94.4289 19.065C94.8089 18.695 95.3339 18.51 96.0039 18.51C96.2839 18.51 96.5339 18.535 96.7539 18.585C96.9739 18.635 97.1639 18.695 97.3239 18.765L97.1739 19.845C97.0739 19.795 96.9339 19.745 96.7539 19.695C96.5839 19.645 96.4039 19.62 96.2139 19.62C95.8439 19.62 95.5639 19.715 95.3739 19.905C95.1939 20.085 95.1039 20.32 95.1039 20.61C95.1039 20.81 95.1439 20.985 95.2239 21.135C95.3139 21.275 95.4239 21.4 95.5539 21.51C95.6839 21.61 95.8289 21.685 95.9889 21.735C96.1489 21.785 96.3089 21.81 96.4689 21.81H97.7439L97.8489 22.92H96.6639C96.2239 22.92 95.8539 23.05 95.5539 23.31C95.2639 23.57 95.1189 23.92 95.1189 24.36C95.1189 24.63 95.1739 24.87 95.2839 25.08C95.4039 25.29 95.5589 25.47 95.7489 25.62C95.9489 25.76 96.1739 25.865 96.4239 25.935C96.6839 26.005 96.9539 26.04 97.2339 26.04C97.9839 26.04 98.5389 25.855 98.8989 25.485C99.2689 25.105 99.4539 24.56 99.4539 23.85V18.6ZM103.43 27V16.995C103.43 16.385 103.53 15.855 103.73 15.405C103.94 14.955 104.225 14.57 104.585 14.25H100.88V13.185H106.235V14.085C105.755 14.305 105.38 14.635 105.11 15.075C104.85 15.505 104.72 16.05 104.72 16.71V27H103.43ZM112.946 27V22.005C112.946 21.655 112.901 21.33 112.811 21.03C112.731 20.73 112.601 20.475 112.421 20.265C112.241 20.045 112.011 19.875 111.731 19.755C111.461 19.625 111.136 19.56 110.756 19.56C109.866 19.56 109.186 19.855 108.716 20.445C108.256 21.025 108.026 21.84 108.026 22.89C108.026 23.47 108.091 23.96 108.221 24.36C108.361 24.75 108.536 25.065 108.746 25.305C108.966 25.545 109.206 25.72 109.466 25.83C109.726 25.93 109.986 25.98 110.246 25.98C110.456 25.98 110.636 25.965 110.786 25.935C110.946 25.905 111.106 25.86 111.266 25.8L111.506 26.82C111.336 26.9 111.136 26.965 110.906 27.015C110.676 27.065 110.436 27.09 110.186 27.09C109.736 27.09 109.301 27.005 108.881 26.835C108.461 26.665 108.091 26.41 107.771 26.07C107.461 25.72 107.211 25.285 107.021 24.765C106.831 24.235 106.736 23.61 106.736 22.89C106.736 22.26 106.816 21.675 106.976 21.135C107.146 20.595 107.396 20.13 107.726 19.74C108.056 19.34 108.471 19.025 108.971 18.795C109.471 18.565 110.056 18.45 110.726 18.45C111.336 18.45 111.861 18.545 112.301 18.735C112.741 18.925 113.101 19.185 113.381 19.515C113.671 19.845 113.886 20.225 114.026 20.655C114.166 21.085 114.236 21.54 114.236 22.02V27H112.946ZM112.496 17.46C112.326 17.46 112.176 17.4 112.046 17.28C111.916 17.16 111.851 17 111.851 16.8V16.38C111.851 16.27 111.836 16.195 111.806 16.155C111.776 16.105 111.701 16.08 111.581 16.08H110.786V15.03H112.016C112.296 15.03 112.521 15.09 112.691 15.21C112.851 15.33 112.931 15.52 112.931 15.78V16.155C112.931 16.235 112.951 16.3 112.991 16.35C113.021 16.39 113.091 16.41 113.201 16.41H115.226V17.46H112.496ZM124.631 24.06V19.29L121.256 24.06H124.631ZM124.796 17.25H125.861V24.06H127.001V25.14H125.861V27H124.601V25.14H119.801V24.255L124.796 17.25ZM132.615 27V18.6H133.905V27H132.615ZM142.038 27V22.005C142.038 21.655 141.993 21.33 141.903 21.03C141.823 20.73 141.693 20.475 141.513 20.265C141.333 20.045 141.103 19.875 140.823 19.755C140.553 19.625 140.228 19.56 139.848 19.56C138.958 19.56 138.278 19.855 137.808 20.445C137.348 21.025 137.118 21.84 137.118 22.89C137.118 23.47 137.183 23.96 137.313 24.36C137.453 24.75 137.628 25.065 137.838 25.305C138.058 25.545 138.298 25.72 138.558 25.83C138.818 25.93 139.078 25.98 139.338 25.98C139.548 25.98 139.728 25.965 139.878 25.935C140.038 25.905 140.198 25.86 140.358 25.8L140.598 26.82C140.428 26.9 140.228 26.965 139.998 27.015C139.768 27.065 139.528 27.09 139.278 27.09C138.828 27.09 138.393 27.005 137.973 26.835C137.553 26.665 137.183 26.41 136.863 26.07C136.553 25.72 136.303 25.285 136.113 24.765C135.923 24.235 135.828 23.61 135.828 22.89C135.828 22.26 135.908 21.675 136.068 21.135C136.238 20.595 136.488 20.13 136.818 19.74C137.148 19.34 137.563 19.025 138.063 18.795C138.563 18.565 139.148 18.45 139.818 18.45C140.428 18.45 140.953 18.545 141.393 18.735C141.833 18.925 142.193 19.185 142.473 19.515C142.763 19.845 142.978 20.225 143.118 20.655C143.258 21.085 143.328 21.54 143.328 22.02V27H142.038ZM141.588 17.46C141.418 17.46 141.268 17.4 141.138 17.28C141.008 17.16 140.943 17 140.943 16.8V16.38C140.943 16.27 140.928 16.195 140.898 16.155C140.868 16.105 140.793 16.08 140.673 16.08H139.878V15.03H141.108C141.388 15.03 141.613 15.09 141.783 15.21C141.943 15.33 142.023 15.52 142.023 15.78V16.155C142.023 16.235 142.043 16.3 142.083 16.35C142.113 16.39 142.183 16.41 142.293 16.41H144.318V17.46H141.588ZM147.198 27L144.663 18.6H145.983L148.203 25.89H148.383C148.713 25.89 149.023 25.82 149.313 25.68C149.613 25.53 149.878 25.32 150.108 25.05C150.338 24.77 150.518 24.425 150.648 24.015C150.788 23.605 150.858 23.135 150.858 22.605C150.858 22.055 150.808 21.585 150.708 21.195C150.618 20.805 150.488 20.49 150.318 20.25C150.158 20.01 149.963 19.835 149.733 19.725C149.513 19.615 149.278 19.56 149.028 19.56C148.858 19.56 148.693 19.575 148.533 19.605C148.373 19.625 148.233 19.66 148.113 19.71L147.918 18.675C148.078 18.595 148.268 18.54 148.488 18.51C148.718 18.47 148.918 18.45 149.088 18.45C149.538 18.45 149.948 18.545 150.318 18.735C150.698 18.915 151.023 19.185 151.293 19.545C151.563 19.895 151.773 20.33 151.923 20.85C152.073 21.36 152.148 21.945 152.148 22.605C152.148 23.285 152.048 23.895 151.848 24.435C151.658 24.975 151.393 25.435 151.053 25.815C150.713 26.195 150.313 26.49 149.853 26.7C149.393 26.9 148.893 27 148.353 27H147.198Z" fill="#EE5B47"/>
<path d="M69.936 47V40.28H70.944V47H69.936ZM72.288 47V40.28H73.296V47H72.288ZM76.1706 45.824C76.1706 45.92 76.1866 45.996 76.2186 46.052C76.2586 46.108 76.3346 46.136 76.4466 46.136H77.0946V47H76.1706C75.8426 47 75.5866 46.9 75.4026 46.7C75.2266 46.492 75.1386 46.232 75.1386 45.92V44.144C75.1386 43.912 75.1946 43.692 75.3066 43.484C75.4186 43.276 75.5786 43.12 75.7866 43.016L74.8026 42.176C74.8666 41.92 74.9866 41.672 75.1626 41.432C75.3466 41.184 75.5706 40.968 75.8346 40.784C76.1066 40.592 76.4106 40.44 76.7466 40.328C77.0906 40.216 77.4546 40.16 77.8386 40.16C78.2946 40.16 78.6946 40.224 79.0386 40.352C79.3826 40.48 79.6706 40.66 79.9026 40.892C80.1346 41.124 80.3066 41.4 80.4186 41.72C80.5386 42.032 80.5986 42.38 80.5986 42.764V47H79.5666V42.764C79.5666 42.188 79.4146 41.76 79.1106 41.48C78.8146 41.192 78.3906 41.048 77.8386 41.048C77.3826 41.048 76.9746 41.148 76.6146 41.348C76.2626 41.54 76.0226 41.796 75.8946 42.116L76.8066 42.956C76.5906 43.068 76.4306 43.208 76.3266 43.376C76.2226 43.536 76.1706 43.744 76.1706 44V45.824ZM86.8439 40.28H87.8759V44.492C87.8759 45.3 87.6839 45.94 87.2999 46.412C86.9159 46.884 86.3279 47.12 85.5359 47.12C85.0559 47.12 84.6479 47.02 84.3119 46.82C83.9759 46.62 83.6919 46.352 83.4599 46.016L83.3999 47H82.4279V40.28H83.4599V44.864C83.5399 45.048 83.6479 45.224 83.7839 45.392C83.9279 45.552 84.0879 45.696 84.2639 45.824C84.4399 45.952 84.6239 46.052 84.8159 46.124C85.0159 46.196 85.2159 46.232 85.4159 46.232C85.9199 46.232 86.2839 46.084 86.5079 45.788C86.7319 45.484 86.8439 45.048 86.8439 44.48V40.28ZM94.1213 40.28H95.1533V44.492C95.1533 45.3 94.9613 45.94 94.5773 46.412C94.1933 46.884 93.6053 47.12 92.8133 47.12C92.3333 47.12 91.9253 47.02 91.5893 46.82C91.2533 46.62 90.9693 46.352 90.7373 46.016L90.6773 47H89.7053V40.28H90.7373V44.864C90.8173 45.048 90.9253 45.224 91.0613 45.392C91.2053 45.552 91.3653 45.696 91.5413 45.824C91.7173 45.952 91.9013 46.052 92.0933 46.124C92.2933 46.196 92.4933 46.232 92.6933 46.232C93.1973 46.232 93.5613 46.084 93.7853 45.788C94.0093 45.484 94.1213 45.048 94.1213 44.48V40.28ZM90.0106 39.368V38.528H94.1866V37.424H95.1586V39.368H90.0106ZM96.9946 47V40.28H98.0266V47H96.9946ZM101.161 47L99.1328 40.28H100.189L101.965 46.112H102.109C102.373 46.112 102.621 46.056 102.853 45.944C103.093 45.824 103.305 45.656 103.489 45.44C103.673 45.216 103.817 44.94 103.921 44.612C104.033 44.284 104.089 43.908 104.089 43.484C104.089 43.044 104.049 42.668 103.969 42.356C103.897 42.044 103.793 41.792 103.657 41.6C103.529 41.408 103.373 41.268 103.189 41.18C103.013 41.092 102.825 41.048 102.625 41.048C102.489 41.048 102.357 41.06 102.229 41.084C102.101 41.1 101.989 41.128 101.893 41.168L101.737 40.34C101.865 40.276 102.017 40.232 102.193 40.208C102.377 40.176 102.537 40.16 102.673 40.16C103.033 40.16 103.361 40.236 103.657 40.388C103.961 40.532 104.221 40.748 104.437 41.036C104.653 41.316 104.821 41.664 104.941 42.08C105.061 42.488 105.121 42.956 105.121 43.484C105.121 44.028 105.041 44.516 104.881 44.948C104.729 45.38 104.517 45.748 104.245 46.052C103.973 46.356 103.653 46.592 103.285 46.76C102.917 46.92 102.517 47 102.085 47H101.161ZM99.6786 39.368V38.528H104.827V39.368H99.6786ZM107.659 44.6C107.659 45.168 107.771 45.584 107.995 45.848C108.219 46.104 108.583 46.232 109.087 46.232C109.287 46.232 109.483 46.196 109.675 46.124C109.875 46.052 110.063 45.952 110.239 45.824C110.415 45.696 110.571 45.552 110.707 45.392C110.843 45.224 110.955 45.048 111.043 44.864V40.28H112.075V47H111.103L111.043 46.016C110.811 46.352 110.523 46.62 110.179 46.82C109.835 47.02 109.391 47.12 108.847 47.12C108.111 47.12 107.555 46.908 107.179 46.484C106.811 46.052 106.627 45.428 106.627 44.612V40.28H107.659V44.6ZM113.94 47V40.28H114.972V47H113.94ZM121.478 47V43.004C121.478 42.724 121.442 42.464 121.37 42.224C121.306 41.984 121.202 41.78 121.058 41.612C120.914 41.436 120.73 41.3 120.506 41.204C120.29 41.1 120.03 41.048 119.726 41.048C119.014 41.048 118.47 41.284 118.094 41.756C117.726 42.22 117.542 42.872 117.542 43.712C117.542 44.176 117.594 44.568 117.698 44.888C117.81 45.2 117.95 45.452 118.118 45.644C118.294 45.836 118.486 45.976 118.694 46.064C118.902 46.144 119.11 46.184 119.318 46.184C119.486 46.184 119.63 46.172 119.75 46.148C119.878 46.124 120.006 46.088 120.134 46.04L120.326 46.856C120.19 46.92 120.03 46.972 119.846 47.012C119.662 47.052 119.47 47.072 119.27 47.072C118.91 47.072 118.562 47.004 118.226 46.868C117.89 46.732 117.594 46.528 117.338 46.256C117.09 45.976 116.89 45.628 116.738 45.212C116.586 44.788 116.51 44.288 116.51 43.712C116.51 43.208 116.574 42.74 116.702 42.308C116.838 41.876 117.038 41.504 117.302 41.192C117.566 40.872 117.898 40.62 118.298 40.436C118.698 40.252 119.166 40.16 119.702 40.16C120.19 40.16 120.61 40.236 120.962 40.388C121.314 40.54 121.602 40.748 121.826 41.012C122.058 41.276 122.23 41.58 122.342 41.924C122.454 42.268 122.51 42.632 122.51 43.016V47H121.478ZM117.362 39.368V38.528H120.17V37.424H121.022V38.552H121.658V37.424H122.51V39.368H117.362ZM125.354 44.036C125.266 44.036 125.19 44.068 125.126 44.132C125.07 44.188 125.042 44.272 125.042 44.384V44.708C125.042 45.236 125.19 45.624 125.486 45.872C125.782 46.112 126.234 46.232 126.842 46.232C127.482 46.232 127.982 46.028 128.342 45.62C128.702 45.204 128.882 44.532 128.882 43.604C128.882 42.78 128.702 42.148 128.342 41.708C127.982 41.268 127.478 41.048 126.83 41.048C126.302 41.048 125.834 41.124 125.426 41.276C125.026 41.42 124.674 41.608 124.37 41.84L124.034 41.072C124.17 40.96 124.338 40.852 124.538 40.748C124.738 40.636 124.958 40.536 125.198 40.448C125.438 40.36 125.694 40.292 125.966 40.244C126.246 40.188 126.534 40.16 126.83 40.16C127.838 40.16 128.602 40.472 129.122 41.096C129.65 41.72 129.914 42.572 129.914 43.652C129.914 44.788 129.65 45.652 129.122 46.244C128.602 46.828 127.85 47.12 126.866 47.12C125.898 47.12 125.178 46.912 124.706 46.496C124.242 46.08 124.01 45.484 124.01 44.708V44.348C124.01 43.932 124.118 43.628 124.334 43.436C124.558 43.244 124.858 43.148 125.234 43.148H126.314V44.036H125.354ZM132.444 44.6C132.444 45.168 132.556 45.584 132.78 45.848C133.004 46.104 133.368 46.232 133.872 46.232C134.072 46.232 134.268 46.196 134.46 46.124C134.66 46.052 134.848 45.952 135.024 45.824C135.2 45.696 135.356 45.552 135.492 45.392C135.628 45.224 135.74 45.048 135.828 44.864V40.28H136.86V47H135.888L135.828 46.016C135.596 46.352 135.308 46.62 134.964 46.82C134.62 47.02 134.176 47.12 133.632 47.12C132.896 47.12 132.34 46.908 131.964 46.484C131.596 46.052 131.412 45.428 131.412 44.612V40.28H132.444V44.6Z" fill="#414B5A"/>
<defs>
<filter id="filter0_d" x="0.856445" y="0" width="204.143" height="70.151" filterUnits="userSpaceOnUse" color-interpolation-filters="sRGB">
<feFlood flood-opacity="0" result="BackgroundImageFix"/>
<feColorMatrix in="SourceAlpha" type="matrix" values="0 0 0 0 0 0 0 0 0 0 0 0 0 0 0 0 0 0 127 0" result="hardAlpha"/>
<feOffset dy="3"/>
<feGaussianBlur stdDeviation="3"/>
<feColorMatrix type="matrix" values="0 0 0 0 0 0 0 0 0 0 0 0 0 0 0 0 0 0 0.161 0"/>
<feBlend mode="normal" in2="BackgroundImageFix" result="effect1_dropShadow"/>
<feBlend mode="normal" in="SourceGraphic" in2="effect1_dropShadow" result="shape"/>
</filter>
</defs>
</svg>
