<svg width="205" height="71" viewBox="0 0 205 71" fill="none" xmlns="http://www.w3.org/2000/svg">
<g style="mix-blend-mode:multiply" opacity="0.6">
<g style="mix-blend-mode:multiply" opacity="0.6">
<path d="M24.827 65.6558C19.605 65.6558 13.197 61.9558 10.585 57.4328L4.959 47.6848C2.347 43.1628 2.347 35.7608 4.959 31.2358L10.585 21.4898C13.197 16.9688 19.606 13.2678 24.827 13.2678H166.297C171.519 13.2678 177.928 16.9678 180.538 21.4898L186.16 31.2378C188.774 35.7628 188.774 43.1648 186.16 47.6868L180.534 57.4348C177.924 61.9548 171.515 65.6578 166.293 65.6578L24.827 65.6558Z" fill="#F2F6F6"/>
</g>
<g style="mix-blend-mode:multiply" opacity="0.6">
<path d="M25.257 65.1589C20.076 65.1589 13.715 61.4859 11.124 57.0009L5.53798 47.3249C2.94698 42.8389 2.94698 35.4919 5.53798 31.0029L11.121 21.3309C13.712 16.8449 20.073 13.1729 25.254 13.1729H166.313C171.496 13.1729 177.856 16.8449 180.446 21.3309L186.029 31.0029C188.624 35.4929 188.624 42.8389 186.029 47.3249L180.446 57.0009C177.856 61.4859 171.496 65.1589 166.313 65.1589H25.257Z" fill="#F2F6F6"/>
</g>
<g style="mix-blend-mode:multiply" opacity="0.6">
<path d="M25.6893 64.6649C20.5483 64.6649 14.2363 61.0179 11.6643 56.5649L6.12529 46.965C3.55329 42.513 3.55329 35.2239 6.12529 30.7649L11.6643 21.1649C14.2363 16.7129 20.5483 13.0649 25.6893 13.0649H166.329C171.471 13.0649 177.783 16.7099 180.354 21.1649L185.895 30.7649C188.469 35.2209 188.469 42.51 185.895 46.965L180.354 56.5649C177.783 61.0149 171.472 64.6649 166.329 64.6649H25.6893Z" fill="#F2F6F6"/>
</g>
<g style="mix-blend-mode:multiply" opacity="0.6">
<path d="M26.1213 64.17C21.0213 64.17 14.7553 60.551 12.2043 56.135L6.70427 46.609C4.15327 42.191 4.15327 34.958 6.70427 30.536L12.2043 21.014C14.7553 16.596 21.0193 12.98 26.1213 12.98H166.345C171.445 12.98 177.711 16.596 180.262 21.014L185.762 30.536C188.316 34.958 188.316 42.19 185.762 46.609L180.262 56.135C177.711 60.551 171.447 64.17 166.345 64.17H26.1213Z" fill="#F2F6F6"/>
</g>
<g style="mix-blend-mode:multiply" opacity="0.6">
<path d="M26.5529 63.6738C21.4899 63.6738 15.2759 60.0848 12.7449 55.7018L7.28985 46.2508C4.75885 41.8668 4.75885 34.6908 7.28985 30.3038L12.7449 20.8548C15.2759 16.4708 21.4899 12.8838 26.5529 12.8838H166.362C171.424 12.8838 177.64 16.4708 180.169 20.8548L185.623 30.3038C188.157 34.6908 188.157 41.8678 185.623 46.2508L180.174 55.7018C177.645 60.0848 171.429 63.6738 166.367 63.6738H26.5529Z" fill="#F2F6F6"/>
</g>
<g style="mix-blend-mode:multiply" opacity="0.6">
<path d="M26.9843 63.1798C21.9603 63.1798 15.7973 59.6168 13.2843 55.2698L7.87228 45.8928C5.36028 41.5438 5.36028 34.4238 7.87228 30.0708L13.2843 20.6958C15.7973 16.3478 21.9603 12.7888 26.9843 12.7888H166.377C171.4 12.7888 177.565 16.3478 180.077 20.6958L185.489 30.0708C188.003 34.4238 188.003 41.5438 185.489 45.8928L180.077 55.2698C177.565 59.6168 171.399 63.1798 166.377 63.1798H26.9843Z" fill="#F2F6F6"/>
</g>
<g style="mix-blend-mode:multiply" opacity="0.6">
<path d="M27.4152 62.6849C22.4332 62.6849 16.3152 59.1509 13.8242 54.8369L8.45516 45.5369C5.96416 41.2219 5.96416 34.1589 8.45516 29.8369L13.8242 20.5369C16.3162 16.2239 22.4322 12.6919 27.4152 12.6919H166.394C171.377 12.6919 177.494 16.2239 179.986 20.5369L185.355 29.8369C187.848 34.1539 187.848 41.2169 185.355 45.5369L179.986 54.8369C177.495 59.1499 171.378 62.6849 166.394 62.6849H27.4152Z" fill="#F2F6F6"/>
</g>
<g style="mix-blend-mode:multiply" opacity="0.6">
<path d="M27.8463 62.1889C22.9043 62.1889 16.8363 58.6839 14.3633 54.4049L9.03734 45.1769C7.81855 42.7626 7.18359 40.0959 7.18359 37.3914C7.18359 34.6869 7.81855 32.0202 9.03734 29.6059L14.3633 20.3789C15.8449 18.1171 17.8367 16.2346 20.1785 14.8829C22.5203 13.5313 25.1467 12.7483 27.8463 12.5969H166.409C169.109 12.7483 171.735 13.5313 174.076 14.883C176.418 16.2346 178.409 18.1171 179.89 20.3789L185.216 29.6059C186.436 32.02 187.071 34.6868 187.071 37.3914C187.071 40.096 186.436 42.7628 185.216 45.1769L179.89 54.4049C177.418 58.6839 171.351 62.1889 166.409 62.1889H27.8463Z" fill="#F2F6F6"/>
</g>
<g style="mix-blend-mode:multiply" opacity="0.6">
<path d="M28.2793 61.694C25.6012 61.5434 22.9959 60.7663 20.673 59.4251C18.3501 58.0839 16.3745 56.2161 14.9053 53.972L9.62125 44.818C8.41276 42.4231 7.7832 39.778 7.7832 37.0955C7.7832 34.413 8.41276 31.7679 9.62125 29.373L14.9053 20.221C16.3746 17.9772 18.3503 16.1097 20.6732 14.7688C22.9961 13.4279 25.6013 12.6511 28.2793 12.501H166.426C169.104 12.6512 171.709 13.428 174.032 14.7689C176.355 16.1098 178.331 17.9772 179.8 20.221L185.083 29.373C186.293 31.7675 186.923 34.4127 186.923 37.0955C186.923 39.7782 186.293 42.4234 185.083 44.818L179.8 53.972C178.331 56.216 176.355 58.0837 174.032 59.4249C171.71 60.7661 169.104 61.5433 166.426 61.694H28.2793Z" fill="#F2F6F6"/>
</g>
<g style="mix-blend-mode:multiply" opacity="0.6">
<path d="M28.7094 61.1988C26.0535 61.049 23.4697 60.2779 21.166 58.9477C18.8623 57.6175 16.9029 55.7652 15.4454 53.5398L10.2044 44.4598C9.00547 42.0843 8.38086 39.4606 8.38086 36.7998C8.38086 34.1389 9.00547 31.5152 10.2044 29.1398L15.4454 20.0628C16.9025 17.8371 18.8618 15.9846 21.1656 14.6545C23.4694 13.3244 26.0534 12.5538 28.7094 12.4048H166.442C169.099 12.5535 171.683 13.3239 173.987 14.654C176.292 15.9842 178.251 17.8368 179.708 20.0628L184.948 29.1398C186.148 31.5149 186.774 34.1387 186.774 36.7998C186.774 39.4608 186.148 42.0847 184.948 44.4598L179.708 53.5398C178.251 55.7654 176.291 57.6179 173.987 58.9481C171.683 60.2784 169.099 61.0493 166.442 61.1988H28.7094Z" fill="#F2F6F6"/>
</g>
<g style="mix-blend-mode:multiply" opacity="0.6">
<path d="M29.1445 60.704C26.5098 60.5568 23.9465 59.7932 21.6608 58.4746C19.3751 57.1559 17.4308 55.3191 15.9845 53.112L10.7845 44.105C9.59581 41.7494 8.97656 39.1476 8.97656 36.509C8.97656 33.8704 9.59581 31.2687 10.7845 28.913L15.9845 19.913C17.4297 17.7041 19.3735 15.8655 21.6593 14.5452C23.9451 13.225 26.509 12.4601 29.1445 12.312H166.46C169.094 12.4595 171.657 13.2235 173.942 14.5425C176.227 15.8615 178.17 17.6987 179.616 19.906L184.816 28.906C186.005 31.2614 186.625 33.8632 186.625 36.502C186.625 39.1408 186.005 41.7427 184.816 44.098L179.615 53.112C178.17 55.3204 176.227 57.1586 173.942 58.4787C171.656 59.7987 169.093 60.5637 166.459 60.712L29.1445 60.704Z" fill="#F2F6F6"/>
</g>
<g style="mix-blend-mode:multiply" opacity="0.6">
<path d="M29.5723 60.2089C26.9597 60.0619 24.418 59.3036 22.1519 57.995C19.8859 56.6865 17.9586 54.8642 16.5253 52.6749L11.3693 43.7439C10.1897 41.4075 9.5752 38.8267 9.5752 36.2094C9.5752 33.5921 10.1897 31.0113 11.3693 28.6749L16.5253 19.7449C17.9587 17.5558 19.886 15.7338 22.1521 14.4256C24.4182 13.1173 26.9598 12.3595 29.5723 12.2129H166.472C169.085 12.359 171.628 13.1167 173.895 14.4249C176.161 15.7331 178.089 17.5554 179.523 19.7449L184.679 28.6749C185.859 31.0113 186.473 33.5921 186.473 36.2094C186.473 38.8267 185.859 41.4075 184.679 43.7439L179.523 52.6749C178.09 54.8644 176.162 56.6867 173.896 57.9952C171.629 59.3038 169.087 60.062 166.474 60.2089H29.5723Z" fill="#F2F6F6"/>
</g>
<g style="mix-blend-mode:multiply" opacity="0.6">
<path d="M30.0024 59.7129C27.4114 59.5672 24.8908 58.8153 22.6435 57.5177C20.3962 56.2201 18.4848 54.413 17.0634 52.2419L11.9514 43.3849C10.782 41.0681 10.1729 38.5091 10.1729 35.9139C10.1729 33.3187 10.782 30.7598 11.9514 28.4429L17.0634 19.5869C18.4851 17.4162 20.3965 15.6095 22.6438 14.3122C24.8911 13.015 27.4116 12.2634 30.0024 12.1179H166.491C169.082 12.2631 171.603 13.0146 173.85 14.3119C176.097 15.6092 178.009 17.416 179.43 19.5869L184.545 28.4429C185.715 30.7598 186.324 33.3187 186.324 35.9139C186.324 38.5091 185.715 41.0681 184.545 43.3849L179.43 52.2419C178.009 54.4132 176.098 56.2205 173.85 57.5181C171.603 58.8158 169.082 59.5675 166.491 59.7129H30.0024Z" fill="#F2F6F6"/>
</g>
<g style="mix-blend-mode:multiply" opacity="0.6">
<path d="M30.4344 59.218C27.8652 59.0735 25.3658 58.3278 23.1373 57.041C20.9089 55.7541 19.0138 53.962 17.6044 51.809L12.5334 43.027C11.3737 40.7296 10.7695 38.192 10.7695 35.6185C10.7695 33.0449 11.3737 30.5074 12.5334 28.21L17.6044 19.429C19.0139 17.2762 20.9091 15.4844 23.1375 14.1979C25.3659 12.9114 27.8653 12.1661 30.4344 12.022H166.508C169.078 12.1661 171.577 12.9114 173.806 14.1979C176.034 15.4844 177.93 17.2761 179.339 19.429L184.41 28.21C185.57 30.5075 186.173 33.045 186.173 35.6185C186.173 38.1919 185.57 40.7294 184.41 43.027L179.339 51.809C177.93 53.9621 176.035 55.7542 173.806 57.041C171.577 58.3279 169.078 59.0735 166.508 59.218H30.4344Z" fill="#F2F6F6"/>
</g>
<g style="mix-blend-mode:multiply" opacity="0.6">
<path d="M30.8671 58.7228C28.3195 58.5794 25.8411 57.8399 23.6314 56.5638C21.4218 55.2877 19.5426 53.5107 18.1451 51.3758L13.1181 42.6668C11.9682 40.3889 11.3691 37.8729 11.3691 35.3213C11.3691 32.7696 11.9682 30.2536 13.1181 27.9758L18.1451 19.2688C19.543 17.1346 21.4224 15.3583 23.632 14.083C25.8417 12.8076 28.3198 12.0687 30.8671 11.9258H166.523C169.071 12.0684 171.549 12.8072 173.759 14.0825C175.969 15.3579 177.849 17.1343 179.247 19.2688L184.274 27.9758C185.424 30.2536 186.023 32.7696 186.023 35.3213C186.023 37.8729 185.424 40.3889 184.274 42.6668L179.247 51.3758C177.849 53.511 175.97 55.2882 173.76 56.5643C171.55 57.8404 169.071 58.5797 166.523 58.7228H30.8671Z" fill="#F2F6F6"/>
</g>
<g style="mix-blend-mode:multiply" opacity="0.6">
<path d="M31.2976 58.2278C28.7719 58.0858 26.3148 57.3528 24.124 56.0879C21.9333 54.8229 20.0702 53.0613 18.6846 50.9448L13.6996 42.3108C12.5597 40.0521 11.9658 37.5574 11.9658 35.0273C11.9658 32.4973 12.5597 30.0026 13.6996 27.7438L18.6846 19.1108C20.0702 16.9946 21.9334 15.2332 24.1242 13.9686C26.3149 12.704 28.772 11.9714 31.2976 11.8298H166.537C169.063 11.9712 171.52 12.7036 173.711 13.9682C175.903 15.2329 177.766 16.9943 179.153 19.1108L184.138 27.7438C185.277 30.0026 185.871 32.4973 185.871 35.0273C185.871 37.5574 185.277 40.0521 184.138 42.3108L179.153 50.9448C177.767 53.0616 175.903 54.8233 173.712 56.0883C171.52 57.3533 169.063 58.0861 166.537 58.2278H31.2976Z" fill="#F2F6F6"/>
</g>
<g style="mix-blend-mode:multiply" opacity="0.6">
<path d="M31.7303 57.7358C29.2261 57.5952 26.79 56.8686 24.618 55.6144C22.4459 54.3601 20.5988 52.6134 19.2253 50.5148L14.2833 41.9548C13.1532 39.7158 12.5645 37.2428 12.5645 34.7348C12.5645 32.2268 13.1532 29.7538 14.2833 27.5148L19.2253 18.9568C20.5991 16.8586 22.4463 15.1123 24.6183 13.8584C26.7903 12.6046 29.2263 11.8782 31.7303 11.7378H166.556C169.06 11.878 171.496 12.6044 173.668 13.8582C175.84 15.1121 177.688 16.8585 179.061 18.9568L184.004 27.5148C185.134 29.7539 185.722 32.2269 185.722 34.7348C185.722 37.2427 185.134 39.7157 184.004 41.9548L179.061 50.5148C177.688 52.6135 175.841 54.3602 173.669 55.6145C171.497 56.8687 169.061 57.5953 166.556 57.7358H31.7303Z" fill="#F2F6F6"/>
</g>
<g style="mix-blend-mode:multiply" opacity="0.6">
<path d="M32.1598 57.2379C29.6767 57.099 27.261 56.3787 25.1072 55.1353C22.9534 53.8918 21.1217 52.1598 19.7598 50.0789L14.8598 41.5939C13.7397 39.3742 13.1562 36.9227 13.1562 34.4364C13.1562 31.9502 13.7397 29.4986 14.8598 27.2789L19.7598 18.7949C21.122 16.7145 22.9538 14.9831 25.1076 13.7401C27.2614 12.4972 29.677 11.7775 32.1598 11.6389H166.571C169.054 11.7777 171.469 12.4975 173.623 13.7404C175.777 14.9834 177.608 16.7146 178.971 18.7949L183.871 27.2789C184.99 29.4989 185.573 31.9503 185.573 34.4364C185.573 36.9225 184.99 39.374 183.871 41.5939L178.971 50.0789C177.609 52.1597 175.777 53.8916 173.623 55.1351C171.47 56.3785 169.054 57.0988 166.571 57.2379H32.1598Z" fill="#F2F6F6"/>
</g>
<g style="mix-blend-mode:multiply" opacity="0.6">
<path d="M32.5925 56.7428C30.1314 56.6039 27.7374 55.889 25.6031 54.6558C23.4689 53.4226 21.6539 51.7056 20.3045 49.6429L15.4485 41.2309C14.3382 39.0307 13.7598 36.6007 13.7598 34.1364C13.7598 31.672 14.3382 29.242 15.4485 27.0419L20.3045 18.6319C21.6545 16.5701 23.4697 14.8542 25.6039 13.622C27.7382 12.3899 30.1319 11.676 32.5925 11.5378H166.592C169.053 11.6758 171.447 12.3895 173.582 13.6217C175.717 14.8538 177.532 16.5699 178.882 18.6319L183.74 27.0419C184.85 29.2421 185.428 31.6721 185.428 34.1364C185.428 36.6006 184.85 39.0306 183.74 41.2309L178.882 49.6429C177.533 51.7058 175.717 53.423 173.583 54.6561C171.448 55.8893 169.054 56.6041 166.592 56.7428H32.5925Z" fill="#F2F6F6"/>
</g>
<g style="mix-blend-mode:multiply" opacity="0.6">
<path d="M33.0225 56.2468C30.5834 56.1097 28.2106 55.4017 26.0952 54.1797C23.9798 52.9578 22.1809 51.2562 20.8435 49.2118L16.0305 40.8758C14.9298 38.6951 14.3564 36.2865 14.3564 33.8438C14.3564 31.4011 14.9298 28.9925 16.0305 26.8118L20.8435 18.4748C22.1815 16.4314 23.9806 14.7307 26.096 13.5097C28.2113 12.2886 30.5839 11.5814 33.0225 11.4448H166.604C169.042 11.5815 171.415 12.2889 173.531 13.5099C175.646 14.7309 177.446 16.4315 178.785 18.4748L183.599 26.8118C184.699 28.9927 185.272 31.4012 185.272 33.8438C185.272 36.2864 184.699 38.695 183.599 40.8758L178.785 49.2118C177.447 51.2564 175.648 52.9583 173.532 54.1802C171.416 55.4021 169.043 56.11 166.604 56.2468H33.0225Z" fill="#F2F6F6"/>
</g>
<g style="mix-blend-mode:multiply" opacity="0.6">
<path d="M33.4537 55.7528C31.0367 55.6166 28.6853 54.9149 26.5889 53.7041C24.4925 52.4934 22.7096 50.8074 21.3837 48.7818L16.6137 40.5198C15.5232 38.3582 14.9551 35.9709 14.9551 33.5498C14.9551 31.1287 15.5232 28.7414 16.6137 26.5798L21.3837 18.3188C22.7097 16.2936 24.4927 14.608 26.5891 13.3978C28.6855 12.1875 31.0368 11.4864 33.4537 11.3508H166.62C169.037 11.486 171.389 12.1869 173.486 13.3972C175.584 14.6075 177.367 16.2933 178.694 18.3188L183.466 26.5798C184.555 28.7417 185.123 31.1289 185.123 33.5498C185.123 35.9707 184.555 38.3579 183.466 40.5198L178.694 48.7818C177.367 50.8078 175.584 52.494 173.487 53.7048C171.39 54.9156 169.037 55.6171 166.62 55.7528H33.4537Z" fill="#F2F6F6"/>
</g>
<g style="mix-blend-mode:multiply" opacity="0.6">
<path d="M33.8857 55.2568C31.4901 55.1222 29.1596 54.4269 27.0819 53.2268C25.0042 52.0268 23.2373 50.3556 21.9237 48.3478L17.1957 40.1598C16.1148 38.0179 15.5518 35.6523 15.5518 33.2533C15.5518 30.8542 16.1148 28.4886 17.1957 26.3468L21.9237 18.1598C23.2383 16.1536 25.0055 14.4841 27.0832 13.2856C29.1608 12.0872 31.4909 11.3933 33.8857 11.2598H166.637C169.032 11.3933 171.362 12.0872 173.44 13.2856C175.518 14.484 177.286 16.1535 178.601 18.1598L183.329 26.3468C184.409 28.4887 184.972 30.8543 184.972 33.2533C184.972 35.6523 184.409 38.0178 183.329 40.1598L178.601 48.3478C177.287 50.3555 175.519 52.0267 173.441 53.2267C171.363 54.4267 169.033 55.1221 166.637 55.2568H33.8857Z" fill="#F2F6F6"/>
</g>
<g style="mix-blend-mode:multiply" opacity="0.6">
<path d="M34.3184 54.7609C31.9444 54.6275 29.635 53.9384 27.576 52.7491C25.5171 51.5598 23.7662 49.9036 22.4644 47.9139L17.7804 39.8009C16.7093 37.6786 16.1514 35.3346 16.1514 32.9574C16.1514 30.5802 16.7093 28.2362 17.7804 26.1139L22.4644 18.0009C23.7669 16.0123 25.518 14.3573 27.5769 13.1691C29.6358 11.9809 31.945 11.2927 34.3184 11.1599H166.653C169.027 11.2928 171.336 11.9811 173.395 13.1693C175.454 14.3575 177.206 16.0124 178.508 18.0009L183.194 26.1139C184.265 28.2364 184.822 30.5804 184.822 32.9574C184.822 35.3345 184.265 37.6784 183.194 39.8009L178.508 47.9139C177.206 49.9035 175.455 51.5596 173.396 52.7489C171.337 53.9381 169.027 54.6273 166.653 54.7609H34.3184Z" fill="#F2F6F6"/>
</g>
<g style="mix-blend-mode:multiply" opacity="0.6">
<path d="M34.7486 54.2659C32.3965 54.1339 30.1083 53.4513 28.0684 52.2729C26.0285 51.0946 24.294 49.4535 23.0046 47.4819L18.3646 39.4479C17.303 37.3451 16.75 35.0224 16.75 32.6669C16.75 30.3113 17.303 27.9887 18.3646 25.8859L23.0076 17.8459C24.2978 15.8755 26.0327 14.2356 28.0725 13.0582C30.1123 11.8807 32.4 11.1987 34.7516 11.0669H166.665C169.017 11.1984 171.305 11.8803 173.345 13.0577C175.386 14.2351 177.121 15.8752 178.412 17.8459L183.057 25.8859C184.116 27.9892 184.668 30.3116 184.668 32.6669C184.668 35.0221 184.116 37.3446 183.057 39.4479L178.412 47.4869C177.121 49.4578 175.386 51.098 173.345 52.2755C171.305 53.4529 169.017 54.1347 166.665 54.2659H34.7486Z" fill="#F2F6F6"/>
</g>
<g style="mix-blend-mode:multiply" opacity="0.6">
<path d="M35.1796 53.7718C32.8493 53.641 30.5824 52.9647 28.5615 51.7973C26.5405 50.6298 24.822 49.004 23.5446 47.0508L18.9446 39.0858C17.8933 37.0024 17.3457 34.7014 17.3457 32.3678C17.3457 30.0342 17.8933 27.7332 18.9446 25.6498L23.5446 17.6848C24.8225 15.7323 26.5411 14.1072 28.5621 12.9405C30.583 11.7738 32.8497 11.0981 35.1796 10.9678H166.685C169.015 11.0983 171.282 11.7741 173.303 12.9408C175.324 14.1075 177.043 15.7324 178.322 17.6848L182.922 25.6498C183.972 27.7335 184.519 30.0344 184.519 32.3678C184.519 34.7012 183.972 37.0021 182.922 39.0858L178.322 47.0508C177.044 49.0039 175.325 50.6296 173.303 51.797C171.282 52.9643 169.015 53.6408 166.685 53.7718H35.1796Z" fill="#F2F6F6"/>
</g>
<g style="mix-blend-mode:multiply" opacity="0.6">
<path d="M35.6109 53.2769C33.3024 53.1474 31.0565 52.4774 29.0543 51.321C27.0521 50.1645 25.3496 48.5539 24.0839 46.6189L19.5219 38.7229C18.4808 36.6588 17.9385 34.3792 17.9385 32.0674C17.9385 29.7556 18.4808 27.476 19.5219 25.4119L24.0789 17.5219C25.3451 15.5877 27.0478 13.9779 29.05 12.8222C31.0521 11.6664 33.2977 10.9971 35.6059 10.8679H166.696C169.005 10.9964 171.252 11.6656 173.256 12.8215C175.259 13.9775 176.963 15.5879 178.23 17.5229L182.789 25.4129C183.829 27.4774 184.371 29.7568 184.371 32.0684C184.371 34.38 183.829 36.6595 182.789 38.7239L178.23 46.6149C176.964 48.5499 175.261 50.1605 173.258 51.317C171.256 52.4734 169.01 53.1434 166.701 53.2729L35.6109 53.2769Z" fill="#F2F6F6"/>
</g>
</g>
<g filter="url(#filter0_d)">
<path d="M23.6425 61.151L6.85645 32.076L23.6425 3H182.214L198.999 32.076L182.214 61.151H23.6425Z" fill="#F2F6F6"/>
</g>
<path d="M182.208 3H23.637L23.165 3.81799H181.208L197.432 32.118L180.225 61.154H182.208L198.993 32.079L182.208 3Z" fill="#F2F6F6"/>
<path d="M61.825 18.45L59.755 19.11V18.06L62.035 17.25H63.115V25.83H65.41V27H59.44V25.83H61.825V18.45ZM67.484 26.25C67.484 26 67.564 25.79 67.724 25.62C67.884 25.44 68.109 25.35 68.399 25.35C68.689 25.35 68.914 25.44 69.074 25.62C69.234 25.79 69.314 26 69.314 26.25C69.314 26.5 69.234 26.715 69.074 26.895C68.914 27.065 68.689 27.15 68.399 27.15C68.109 27.15 67.884 27.065 67.724 26.895C67.564 26.715 67.484 26.5 67.484 26.25ZM76.4418 27V22.95H74.3418C73.6318 22.95 73.0718 23.09 72.6618 23.37C72.2518 23.64 72.0468 24.06 72.0468 24.63C72.0468 25.12 72.1918 25.485 72.4818 25.725C72.7718 25.955 73.1368 26.07 73.5768 26.07C73.7868 26.07 74.0068 26.05 74.2368 26.01C74.4768 25.96 74.6868 25.895 74.8668 25.815L75.0768 26.88C74.8568 26.96 74.6018 27.025 74.3118 27.075C74.0218 27.125 73.7318 27.15 73.4418 27.15C73.0618 27.15 72.7068 27.1 72.3768 27C72.0568 26.89 71.7768 26.735 71.5368 26.535C71.2968 26.325 71.1068 26.065 70.9668 25.755C70.8268 25.435 70.7568 25.065 70.7568 24.645C70.7568 23.765 71.0668 23.08 71.6868 22.59C72.3068 22.09 73.2418 21.84 74.4918 21.84H76.4418V21.645C76.4418 20.985 76.2868 20.47 75.9768 20.1C75.6668 19.72 75.1168 19.53 74.3268 19.53C73.7568 19.53 73.2268 19.615 72.7368 19.785C72.2468 19.955 71.8218 20.165 71.4618 20.415L71.0418 19.5C71.1918 19.37 71.3818 19.245 71.6118 19.125C71.8518 18.995 72.1168 18.88 72.4068 18.78C72.7068 18.68 73.0268 18.6 73.3668 18.54C73.7068 18.48 74.0618 18.45 74.4318 18.45C75.5118 18.45 76.3318 18.74 76.8918 19.32C77.4518 19.89 77.7318 20.66 77.7318 21.63V27H76.4418ZM81.6044 27L79.0694 18.6H80.3894L82.6094 25.89H82.7894C83.1194 25.89 83.4294 25.82 83.7194 25.68C84.0194 25.53 84.2844 25.32 84.5144 25.05C84.7444 24.77 84.9244 24.425 85.0544 24.015C85.1944 23.605 85.2644 23.135 85.2644 22.605C85.2644 22.055 85.2144 21.585 85.1144 21.195C85.0244 20.805 84.8944 20.49 84.7244 20.25C84.5644 20.01 84.3694 19.835 84.1394 19.725C83.9194 19.615 83.6844 19.56 83.4344 19.56C83.2644 19.56 83.0994 19.575 82.9394 19.605C82.7794 19.625 82.6394 19.66 82.5194 19.71L82.3244 18.675C82.4844 18.595 82.6744 18.54 82.8944 18.51C83.1244 18.47 83.3244 18.45 83.4944 18.45C83.9444 18.45 84.3544 18.545 84.7244 18.735C85.1044 18.915 85.4294 19.185 85.6994 19.545C85.9694 19.895 86.1794 20.33 86.3294 20.85C86.4794 21.36 86.5544 21.945 86.5544 22.605C86.5544 23.285 86.4544 23.895 86.2544 24.435C86.0644 24.975 85.7994 25.435 85.4594 25.815C85.1194 26.195 84.7194 26.49 84.2594 26.7C83.7994 26.9 83.2994 27 82.7594 27H81.6044ZM94.1065 21.615C94.1065 20.895 93.9715 20.375 93.7015 20.055C93.4315 19.725 93.0765 19.56 92.6365 19.56C92.3165 19.56 92.0115 19.61 91.7215 19.71C91.4415 19.8 91.1765 19.925 90.9265 20.085C90.6765 20.235 90.4515 20.415 90.2515 20.625C90.0515 20.835 89.8865 21.05 89.7565 21.27V27H88.4665V18.6H89.6815L89.7565 19.83C89.9065 19.66 90.0815 19.495 90.2815 19.335C90.4915 19.165 90.7215 19.015 90.9715 18.885C91.2215 18.755 91.4915 18.65 91.7815 18.57C92.0715 18.49 92.3765 18.45 92.6965 18.45C93.1365 18.45 93.5215 18.525 93.8515 18.675C94.1915 18.825 94.4765 19.04 94.7065 19.32C94.9365 19.6 95.1065 19.935 95.2165 20.325C95.3365 20.705 95.3965 21.135 95.3965 21.615V27H94.1065V21.615ZM94.1404 30.915V29.43C94.1404 29.22 94.0354 29.115 93.8254 29.115H93.2404V28.035H94.2154C94.6354 28.035 94.9404 28.135 95.1304 28.335C95.3104 28.535 95.4004 28.86 95.4004 29.31V30.915H94.1404ZM98.9404 24C98.9404 24.71 99.0804 25.23 99.3604 25.56C99.6404 25.88 100.095 26.04 100.725 26.04C100.975 26.04 101.22 25.995 101.46 25.905C101.71 25.815 101.945 25.69 102.165 25.53C102.385 25.37 102.58 25.19 102.75 24.99C102.92 24.78 103.06 24.56 103.17 24.33V18.6H104.46V27H103.245L103.17 25.77C102.88 26.19 102.52 26.525 102.09 26.775C101.66 27.025 101.105 27.15 100.425 27.15C99.5054 27.15 98.8104 26.885 98.3404 26.355C97.8804 25.815 97.6504 25.035 97.6504 24.015V18.6H98.9404V24ZM111.382 22.125C111.382 23.465 111.577 24.46 111.967 25.11C112.357 25.75 112.922 26.07 113.662 26.07C114.402 26.07 114.967 25.75 115.357 25.11C115.747 24.46 115.942 23.465 115.942 22.125C115.942 20.785 115.747 19.795 115.357 19.155C114.967 18.505 114.402 18.18 113.662 18.18C112.922 18.18 112.357 18.505 111.967 19.155C111.577 19.795 111.382 20.785 111.382 22.125ZM110.092 22.125C110.092 20.535 110.402 19.3 111.022 18.42C111.652 17.54 112.532 17.1 113.662 17.1C114.792 17.1 115.667 17.54 116.287 18.42C116.917 19.3 117.232 20.535 117.232 22.125C117.232 23.715 116.917 24.95 116.287 25.83C115.667 26.71 114.792 27.15 113.662 27.15C112.532 27.15 111.652 26.71 111.022 25.83C110.402 24.95 110.092 23.715 110.092 22.125ZM126.236 26.04C126.956 26.04 127.486 25.85 127.826 25.47C128.176 25.09 128.351 24.57 128.351 23.91V18.6H129.641V23.91C129.641 24.95 129.351 25.75 128.771 26.31C128.191 26.87 127.346 27.15 126.236 27.15C125.126 27.15 124.281 26.87 123.701 26.31C123.121 25.75 122.831 24.95 122.831 23.91V18.6H124.121V23.91C124.121 24.57 124.291 25.09 124.631 25.47C124.981 25.85 125.516 26.04 126.236 26.04ZM135.454 27V21.585C135.454 20.235 134.859 19.56 133.669 19.56C133.189 19.56 132.739 19.65 132.319 19.83C131.899 20 131.544 20.205 131.254 20.445L130.909 19.47C131.059 19.34 131.239 19.215 131.449 19.095C131.669 18.965 131.904 18.855 132.154 18.765C132.414 18.665 132.679 18.59 132.949 18.54C133.229 18.48 133.509 18.45 133.789 18.45C134.769 18.45 135.504 18.73 135.994 19.29C136.494 19.84 136.744 20.625 136.744 21.645V27H135.454ZM144.658 21.615C144.658 20.895 144.523 20.375 144.253 20.055C143.983 19.725 143.628 19.56 143.188 19.56C142.868 19.56 142.563 19.61 142.273 19.71C141.993 19.8 141.728 19.925 141.478 20.085C141.228 20.235 141.003 20.415 140.803 20.625C140.603 20.835 140.438 21.05 140.308 21.27V27H139.018V18.6H140.233L140.308 19.83C140.458 19.66 140.633 19.495 140.833 19.335C141.043 19.165 141.273 19.015 141.523 18.885C141.773 18.755 142.043 18.65 142.333 18.57C142.623 18.49 142.928 18.45 143.248 18.45C143.688 18.45 144.073 18.525 144.403 18.675C144.743 18.825 145.028 19.04 145.258 19.32C145.488 19.6 145.658 19.935 145.768 20.325C145.888 20.705 145.948 21.135 145.948 21.615V27H144.658V21.615Z" fill="#EE5B47"/>
<path d="M48.936 47V40.28H49.944V47H48.936ZM51.288 47V40.28H52.296V47H51.288ZM56.3586 41.132C55.9346 41.22 55.5786 41.476 55.2906 41.9C55.0026 42.324 54.8586 42.908 54.8586 43.652C54.8586 44.132 54.9106 44.532 55.0146 44.852C55.1266 45.172 55.2666 45.432 55.4346 45.632C55.6106 45.832 55.8026 45.976 56.0106 46.064C56.2186 46.144 56.4266 46.184 56.6346 46.184C56.8026 46.184 56.9466 46.172 57.0666 46.148C57.1946 46.124 57.3226 46.088 57.4506 46.04L57.6426 46.856C57.5066 46.92 57.3466 46.972 57.1626 47.012C56.9786 47.052 56.7866 47.072 56.5866 47.072C56.2026 47.072 55.8426 47.008 55.5066 46.88C55.1786 46.752 54.8866 46.552 54.6306 46.28C54.3826 46 54.1866 45.644 54.0426 45.212C53.8986 44.78 53.8266 44.26 53.8266 43.652C53.8266 43.18 53.8866 42.744 54.0066 42.344C54.1266 41.944 54.2946 41.596 54.5106 41.3C54.7346 40.996 54.9986 40.748 55.3026 40.556C55.6066 40.364 55.9386 40.232 56.2986 40.16L57.3066 40.916L58.3386 40.16C58.8746 40.272 59.2826 40.52 59.5626 40.904C59.8506 41.288 59.9946 41.776 59.9946 42.368V47H58.9626V42.296C58.9626 41.992 58.9026 41.744 58.7826 41.552C58.6626 41.36 58.4946 41.22 58.2786 41.132L57.3066 41.744L56.3586 41.132ZM58.9826 39.368V37.376H59.9906V39.368H58.9826ZM65.8706 47V43.76H64.1906C63.6226 43.76 63.1746 43.872 62.8466 44.096C62.5186 44.312 62.3546 44.648 62.3546 45.104C62.3546 45.496 62.4706 45.788 62.7026 45.98C62.9346 46.164 63.2266 46.256 63.5786 46.256C63.7466 46.256 63.9226 46.24 64.1066 46.208C64.2986 46.168 64.4666 46.116 64.6106 46.052L64.7786 46.904C64.6026 46.968 64.3986 47.02 64.1666 47.06C63.9346 47.1 63.7026 47.12 63.4706 47.12C63.1666 47.12 62.8826 47.08 62.6186 47C62.3626 46.912 62.1386 46.788 61.9466 46.628C61.7546 46.46 61.6026 46.252 61.4906 46.004C61.3786 45.748 61.3226 45.452 61.3226 45.116C61.3226 44.412 61.5706 43.864 62.0666 43.472C62.5626 43.072 63.3106 42.872 64.3106 42.872H65.8706V42.716C65.8706 42.468 65.8426 42.24 65.7866 42.032C65.7306 41.824 65.6346 41.644 65.4986 41.492C65.3706 41.34 65.1986 41.224 64.9826 41.144C64.7746 41.064 64.5186 41.024 64.2146 41.024C63.7266 41.024 63.2866 41.092 62.8946 41.228C62.5106 41.364 62.1746 41.532 61.8866 41.732L61.5506 41C61.6786 40.896 61.8386 40.792 62.0306 40.688C62.2306 40.584 62.4466 40.496 62.6786 40.424C62.9186 40.344 63.1706 40.28 63.4346 40.232C63.6986 40.184 63.9586 40.16 64.2146 40.16C64.7266 40.16 65.1786 40.248 65.5706 40.424L66.0866 39.812H67.2626L66.3146 40.952C66.5146 41.168 66.6626 41.424 66.7586 41.72C66.8546 42.016 66.9026 42.344 66.9026 42.704V47H65.8706ZM70.5047 46.244C71.0487 46.244 71.4607 46.14 71.7407 45.932C72.0207 45.716 72.1607 45.472 72.1607 45.2C72.1607 45.032 72.1087 44.884 72.0047 44.756C71.9087 44.628 71.7767 44.516 71.6087 44.42C71.4487 44.316 71.2647 44.228 71.0567 44.156C70.8567 44.084 70.6527 44.016 70.4447 43.952C70.1407 43.864 69.8567 43.768 69.5927 43.664C69.3367 43.552 69.1127 43.42 68.9207 43.268C68.7367 43.108 68.5927 42.924 68.4887 42.716C68.3847 42.5 68.3327 42.244 68.3327 41.948C68.3327 41.38 68.5567 40.94 69.0047 40.628C69.4607 40.316 70.0767 40.16 70.8527 40.16C71.2287 40.16 71.5967 40.2 71.9567 40.28C72.3167 40.352 72.6367 40.46 72.9167 40.604L72.6527 41.42C72.1647 41.164 71.5967 41.036 70.9487 41.036C70.4447 41.036 70.0487 41.124 69.7607 41.3C69.4807 41.476 69.3407 41.692 69.3407 41.948C69.3407 42.092 69.3807 42.22 69.4607 42.332C69.5407 42.444 69.6487 42.544 69.7847 42.632C69.9207 42.712 70.0767 42.788 70.2527 42.86C70.4287 42.924 70.6167 42.988 70.8167 43.052C71.1927 43.172 71.5247 43.3 71.8127 43.436C72.1087 43.564 72.3567 43.712 72.5567 43.88C72.7567 44.048 72.9087 44.24 73.0127 44.456C73.1167 44.672 73.1687 44.928 73.1687 45.224C73.1687 45.792 72.9527 46.252 72.5207 46.604C72.0967 46.948 71.4407 47.12 70.5527 47.12C70.1127 47.12 69.7047 47.08 69.3287 47C68.9607 46.92 68.6487 46.804 68.3927 46.652L68.6447 45.848C68.8927 45.968 69.1767 46.064 69.4967 46.136C69.8167 46.208 70.1527 46.244 70.5047 46.244ZM71.4307 39.368C71.2947 39.368 71.1747 39.32 71.0707 39.224C70.9667 39.128 70.9147 39 70.9147 38.84V38.504C70.9147 38.416 70.9027 38.356 70.8787 38.324C70.8547 38.284 70.7947 38.264 70.6987 38.264H70.0627V37.424H71.0467C71.2707 37.424 71.4507 37.472 71.5867 37.568C71.7147 37.664 71.7787 37.816 71.7787 38.024V38.324C71.7787 38.388 71.7947 38.44 71.8267 38.48C71.8507 38.512 71.9067 38.528 71.9947 38.528H73.6147V39.368H71.4307ZM77.4787 47V42.668C77.4787 41.588 77.0027 41.048 76.0507 41.048C75.6667 41.048 75.3067 41.12 74.9707 41.264C74.6347 41.4 74.3507 41.564 74.1187 41.756L73.8427 40.976C73.9627 40.872 74.1067 40.772 74.2747 40.676C74.4507 40.572 74.6387 40.484 74.8387 40.412C75.0467 40.332 75.2587 40.272 75.4747 40.232C75.6987 40.184 75.9227 40.16 76.1467 40.16C76.9307 40.16 77.5187 40.384 77.9107 40.832C78.3107 41.272 78.5107 41.9 78.5107 42.716V47H77.4787ZM81.6023 47L79.5743 40.28H80.6303L82.4062 46.112H82.5503C82.8143 46.112 83.0623 46.056 83.2943 45.944C83.5343 45.824 83.7463 45.656 83.9303 45.44C84.1143 45.216 84.2583 44.94 84.3623 44.612C84.4743 44.284 84.5303 43.908 84.5303 43.484C84.5303 43.044 84.4903 42.668 84.4103 42.356C84.3383 42.044 84.2343 41.792 84.0983 41.6C83.9703 41.408 83.8143 41.268 83.6303 41.18C83.4543 41.092 83.2663 41.048 83.0663 41.048C82.9303 41.048 82.7983 41.06 82.6703 41.084C82.5423 41.1 82.4303 41.128 82.3343 41.168L82.1783 40.34C82.3063 40.276 82.4583 40.232 82.6343 40.208C82.8183 40.176 82.9783 40.16 83.1143 40.16C83.4743 40.16 83.8023 40.236 84.0983 40.388C84.4023 40.532 84.6623 40.748 84.8783 41.036C85.0943 41.316 85.2623 41.664 85.3823 42.08C85.5023 42.488 85.5623 42.956 85.5623 43.484C85.5623 44.028 85.4823 44.516 85.3223 44.948C85.1703 45.38 84.9583 45.748 84.6863 46.052C84.4143 46.356 84.0943 46.592 83.7263 46.76C83.3583 46.92 82.9583 47 82.5263 47H81.6023ZM88.868 46.244C89.412 46.244 89.824 46.14 90.104 45.932C90.384 45.716 90.524 45.472 90.524 45.2C90.524 45.032 90.472 44.884 90.368 44.756C90.272 44.628 90.14 44.516 89.972 44.42C89.812 44.316 89.628 44.228 89.42 44.156C89.22 44.084 89.016 44.016 88.808 43.952C88.504 43.864 88.22 43.768 87.956 43.664C87.7 43.552 87.476 43.42 87.284 43.268C87.1 43.108 86.956 42.924 86.852 42.716C86.748 42.5 86.696 42.244 86.696 41.948C86.696 41.38 86.92 40.94 87.368 40.628C87.824 40.316 88.44 40.16 89.216 40.16C89.592 40.16 89.96 40.2 90.32 40.28C90.68 40.352 91 40.46 91.28 40.604L91.016 41.42C90.528 41.164 89.96 41.036 89.312 41.036C88.808 41.036 88.412 41.124 88.124 41.3C87.844 41.476 87.704 41.692 87.704 41.948C87.704 42.092 87.744 42.22 87.824 42.332C87.904 42.444 88.012 42.544 88.148 42.632C88.284 42.712 88.44 42.788 88.616 42.86C88.792 42.924 88.98 42.988 89.18 43.052C89.556 43.172 89.888 43.3 90.176 43.436C90.472 43.564 90.72 43.712 90.92 43.88C91.12 44.048 91.272 44.24 91.376 44.456C91.48 44.672 91.532 44.928 91.532 45.224C91.532 45.792 91.316 46.252 90.884 46.604C90.46 46.948 89.804 47.12 88.916 47.12C88.476 47.12 88.068 47.08 87.692 47C87.324 46.92 87.012 46.804 86.756 46.652L87.008 45.848C87.256 45.968 87.54 46.064 87.86 46.136C88.18 46.208 88.516 46.244 88.868 46.244ZM95.8419 47V42.668C95.8419 41.588 95.3659 41.048 94.4139 41.048C94.0299 41.048 93.6699 41.12 93.3339 41.264C92.9979 41.4 92.7139 41.564 92.4819 41.756L92.2059 40.976C92.3259 40.872 92.4699 40.772 92.6379 40.676C92.8139 40.572 93.0019 40.484 93.2019 40.412C93.4099 40.332 93.6219 40.272 93.8379 40.232C94.0619 40.184 94.2859 40.16 94.5099 40.16C95.2939 40.16 95.8819 40.384 96.2739 40.832C96.6739 41.272 96.8739 41.9 96.8739 42.716V47H95.8419ZM102.798 40.28H103.83V44.492C103.83 44.884 103.778 45.244 103.674 45.572C103.57 45.892 103.402 46.168 103.17 46.4C102.946 46.624 102.654 46.8 102.294 46.928C101.942 47.056 101.51 47.12 100.998 47.12C100.15 47.12 99.4895 46.932 99.0175 46.556C98.5535 46.18 98.3215 45.644 98.3215 44.948C98.3215 44.548 98.4215 44.208 98.6215 43.928C98.8215 43.64 99.0935 43.44 99.4375 43.328C99.1335 43.248 98.8695 43.08 98.6455 42.824C98.4295 42.568 98.3215 42.212 98.3215 41.756C98.3215 41.308 98.4735 40.94 98.7775 40.652C99.0815 40.356 99.5015 40.208 100.038 40.208C100.262 40.208 100.462 40.228 100.638 40.268C100.814 40.308 100.966 40.356 101.094 40.412L100.974 41.276C100.894 41.236 100.782 41.196 100.638 41.156C100.502 41.116 100.358 41.096 100.206 41.096C99.9095 41.096 99.6855 41.172 99.5335 41.324C99.3895 41.468 99.3175 41.656 99.3175 41.888C99.3175 42.048 99.3495 42.188 99.4135 42.308C99.4855 42.42 99.5735 42.52 99.6775 42.608C99.7815 42.688 99.8975 42.748 100.026 42.788C100.154 42.828 100.282 42.848 100.41 42.848H101.43L101.514 43.736H100.566C100.214 43.736 99.9175 43.84 99.6775 44.048C99.4455 44.256 99.3295 44.536 99.3295 44.888C99.3295 45.104 99.3735 45.296 99.4615 45.464C99.5575 45.632 99.6815 45.776 99.8335 45.896C99.9935 46.008 100.174 46.092 100.374 46.148C100.582 46.204 100.798 46.232 101.022 46.232C101.622 46.232 102.066 46.084 102.354 45.788C102.65 45.484 102.798 45.048 102.798 44.48V40.28ZM105.978 47V38.996C105.978 38.508 106.058 38.084 106.218 37.724C106.386 37.364 106.614 37.056 106.902 36.8H103.938V35.948H108.222V36.668C107.838 36.844 107.538 37.108 107.322 37.46C107.114 37.804 107.01 38.24 107.01 38.768V47H105.978ZM113.591 47V43.004C113.591 42.724 113.555 42.464 113.483 42.224C113.419 41.984 113.315 41.78 113.171 41.612C113.027 41.436 112.843 41.3 112.619 41.204C112.403 41.1 112.143 41.048 111.839 41.048C111.127 41.048 110.583 41.284 110.207 41.756C109.839 42.22 109.655 42.872 109.655 43.712C109.655 44.176 109.707 44.568 109.811 44.888C109.923 45.2 110.063 45.452 110.231 45.644C110.407 45.836 110.599 45.976 110.807 46.064C111.015 46.144 111.223 46.184 111.431 46.184C111.599 46.184 111.743 46.172 111.863 46.148C111.991 46.124 112.119 46.088 112.247 46.04L112.439 46.856C112.303 46.92 112.143 46.972 111.959 47.012C111.775 47.052 111.583 47.072 111.383 47.072C111.023 47.072 110.675 47.004 110.339 46.868C110.003 46.732 109.707 46.528 109.451 46.256C109.203 45.976 109.003 45.628 108.851 45.212C108.699 44.788 108.623 44.288 108.623 43.712C108.623 43.208 108.687 42.74 108.815 42.308C108.951 41.876 109.151 41.504 109.415 41.192C109.679 40.872 110.011 40.62 110.411 40.436C110.811 40.252 111.279 40.16 111.815 40.16C112.303 40.16 112.723 40.236 113.075 40.388C113.427 40.54 113.715 40.748 113.939 41.012C114.171 41.276 114.343 41.58 114.455 41.924C114.567 42.268 114.623 42.632 114.623 43.016V47H113.591ZM113.231 39.368C113.095 39.368 112.975 39.32 112.871 39.224C112.767 39.128 112.715 39 112.715 38.84V38.504C112.715 38.416 112.703 38.356 112.679 38.324C112.655 38.284 112.595 38.264 112.499 38.264H111.863V37.424H112.847C113.071 37.424 113.251 37.472 113.387 37.568C113.515 37.664 113.579 37.816 113.579 38.024V38.324C113.579 38.388 113.595 38.44 113.627 38.48C113.651 38.512 113.707 38.528 113.795 38.528H115.415V39.368H113.231ZM121.091 47L120.203 43.952C119.979 43.216 119.571 42.84 118.979 42.824L117.479 44.06V47H116.447V40.28H117.479V42.92L120.671 40.28H122.063L119.711 42.224C120.143 42.288 120.475 42.468 120.707 42.764C120.947 43.06 121.135 43.428 121.271 43.868L122.195 47H121.091ZM127.535 47V43.76H125.855C125.287 43.76 124.839 43.872 124.511 44.096C124.183 44.312 124.019 44.648 124.019 45.104C124.019 45.496 124.135 45.788 124.367 45.98C124.599 46.164 124.891 46.256 125.243 46.256C125.411 46.256 125.587 46.24 125.771 46.208C125.963 46.168 126.131 46.116 126.275 46.052L126.443 46.904C126.267 46.968 126.063 47.02 125.831 47.06C125.599 47.1 125.367 47.12 125.135 47.12C124.831 47.12 124.547 47.08 124.283 47C124.027 46.912 123.803 46.788 123.611 46.628C123.419 46.46 123.267 46.252 123.155 46.004C123.043 45.748 122.987 45.452 122.987 45.116C122.987 44.412 123.235 43.864 123.731 43.472C124.227 43.072 124.975 42.872 125.975 42.872H127.535V42.716C127.535 42.188 127.411 41.776 127.163 41.48C126.915 41.176 126.475 41.024 125.843 41.024C125.387 41.024 124.963 41.092 124.571 41.228C124.179 41.364 123.839 41.532 123.551 41.732L123.215 41C123.335 40.896 123.487 40.796 123.671 40.7C123.863 40.596 124.075 40.504 124.307 40.424C124.547 40.344 124.803 40.28 125.075 40.232C125.347 40.184 125.631 40.16 125.927 40.16C126.791 40.16 127.447 40.392 127.895 40.856C128.343 41.312 128.567 41.928 128.567 42.704V47H127.535ZM127.237 39.368C126.429 39.368 126.025 39.008 126.025 38.288V37.808H127.009V38.168C127.009 38.408 127.121 38.528 127.345 38.528H130.177V39.368H127.237ZM134.785 47V42.764C134.785 42.188 134.637 41.76 134.341 41.48C134.045 41.192 133.621 41.048 133.069 41.048C132.613 41.048 132.209 41.148 131.857 41.348C131.505 41.54 131.265 41.796 131.137 42.116L132.049 42.956C131.833 43.068 131.673 43.208 131.569 43.376C131.465 43.536 131.413 43.744 131.413 44V47H130.381V44.144C130.381 43.912 130.437 43.692 130.549 43.484C130.661 43.276 130.821 43.12 131.029 43.016L130.045 42.176C130.109 41.92 130.229 41.672 130.405 41.432C130.589 41.184 130.813 40.968 131.077 40.784C131.341 40.592 131.641 40.44 131.977 40.328C132.321 40.216 132.685 40.16 133.069 40.16C133.525 40.16 133.925 40.224 134.269 40.352C134.613 40.48 134.897 40.66 135.121 40.892C135.353 41.124 135.525 41.4 135.637 41.72C135.757 42.032 135.817 42.38 135.817 42.764V47H134.785ZM142.279 47L141.391 43.952C141.167 43.216 140.759 42.84 140.167 42.824L138.667 44.06V47H137.635V40.28H138.667V42.92L141.859 40.28H143.251L140.899 42.224C141.331 42.288 141.663 42.468 141.895 42.764C142.135 43.06 142.323 43.428 142.459 43.868L143.383 47H142.279ZM149.082 40.28H150.114V44.492C150.114 45.3 149.922 45.94 149.538 46.412C149.154 46.884 148.566 47.12 147.774 47.12C147.294 47.12 146.886 47.02 146.55 46.82C146.214 46.62 145.93 46.352 145.698 46.016L145.638 47H144.666V40.28H145.698V44.864C145.778 45.048 145.886 45.224 146.022 45.392C146.166 45.552 146.326 45.696 146.502 45.824C146.678 45.952 146.862 46.052 147.054 46.124C147.254 46.196 147.454 46.232 147.654 46.232C148.158 46.232 148.522 46.084 148.746 45.788C148.97 45.484 149.082 45.048 149.082 44.48V40.28ZM144.972 39.368V38.528H147.78V37.424H148.632V38.552H149.268V37.424H150.12V39.368H144.972ZM149.148 36.836V35.228H150.12V36.836H149.148ZM152.952 44.6C152.952 45.168 153.064 45.584 153.288 45.848C153.512 46.104 153.876 46.232 154.38 46.232C154.58 46.232 154.776 46.196 154.968 46.124C155.168 46.052 155.356 45.952 155.532 45.824C155.708 45.696 155.864 45.552 156 45.392C156.136 45.224 156.248 45.048 156.336 44.864V40.28H157.368V47H156.396L156.336 46.016C156.104 46.352 155.816 46.62 155.472 46.82C155.128 47.02 154.684 47.12 154.14 47.12C153.404 47.12 152.848 46.908 152.472 46.484C152.104 46.052 151.92 45.428 151.92 44.612V40.28H152.952V44.6Z" fill="#414B5A"/>
<defs>
<filter id="filter0_d" x="0.856445" y="0" width="204.143" height="70.151" filterUnits="userSpaceOnUse" color-interpolation-filters="sRGB">
<feFlood flood-opacity="0" result="BackgroundImageFix"/>
<feColorMatrix in="SourceAlpha" type="matrix" values="0 0 0 0 0 0 0 0 0 0 0 0 0 0 0 0 0 0 127 0" result="hardAlpha"/>
<feOffset dy="3"/>
<feGaussianBlur stdDeviation="3"/>
<feColorMatrix type="matrix" values="0 0 0 0 0 0 0 0 0 0 0 0 0 0 0 0 0 0 0.161 0"/>
<feBlend mode="normal" in2="BackgroundImageFix" result="effect1_dropShadow"/>
<feBlend mode="normal" in="SourceGraphic" in2="effect1_dropShadow" result="shape"/>
</filter>
</defs>
</svg>
