<svg width="205" height="71" viewBox="0 0 205 71" fill="none" xmlns="http://www.w3.org/2000/svg">
<g style="mix-blend-mode:multiply" opacity="0.6">
<g style="mix-blend-mode:multiply" opacity="0.6">
<path d="M24.827 65.6558C19.605 65.6558 13.197 61.9558 10.585 57.4328L4.959 47.6848C2.347 43.1628 2.347 35.7608 4.959 31.2358L10.585 21.4898C13.197 16.9688 19.606 13.2678 24.827 13.2678H166.297C171.519 13.2678 177.928 16.9678 180.538 21.4898L186.16 31.2378C188.774 35.7628 188.774 43.1648 186.16 47.6868L180.534 57.4348C177.924 61.9548 171.515 65.6578 166.293 65.6578L24.827 65.6558Z" fill="#F2F6F6"/>
</g>
<g style="mix-blend-mode:multiply" opacity="0.6">
<path d="M25.257 65.1589C20.076 65.1589 13.715 61.4859 11.124 57.0009L5.53798 47.3249C2.94698 42.8389 2.94698 35.4919 5.53798 31.0029L11.121 21.3309C13.712 16.8449 20.073 13.1729 25.254 13.1729H166.313C171.496 13.1729 177.856 16.8449 180.446 21.3309L186.029 31.0029C188.624 35.4929 188.624 42.8389 186.029 47.3249L180.446 57.0009C177.856 61.4859 171.496 65.1589 166.313 65.1589H25.257Z" fill="#F2F6F6"/>
</g>
<g style="mix-blend-mode:multiply" opacity="0.6">
<path d="M25.6893 64.6649C20.5483 64.6649 14.2363 61.0179 11.6643 56.5649L6.12529 46.965C3.55329 42.513 3.55329 35.2239 6.12529 30.7649L11.6643 21.1649C14.2363 16.7129 20.5483 13.0649 25.6893 13.0649H166.329C171.471 13.0649 177.783 16.7099 180.354 21.1649L185.895 30.7649C188.469 35.2209 188.469 42.51 185.895 46.965L180.354 56.5649C177.783 61.0149 171.472 64.6649 166.329 64.6649H25.6893Z" fill="#F2F6F6"/>
</g>
<g style="mix-blend-mode:multiply" opacity="0.6">
<path d="M26.1213 64.17C21.0213 64.17 14.7553 60.551 12.2043 56.135L6.70427 46.609C4.15327 42.191 4.15327 34.958 6.70427 30.536L12.2043 21.014C14.7553 16.596 21.0193 12.98 26.1213 12.98H166.345C171.445 12.98 177.711 16.596 180.262 21.014L185.762 30.536C188.316 34.958 188.316 42.19 185.762 46.609L180.262 56.135C177.711 60.551 171.447 64.17 166.345 64.17H26.1213Z" fill="#F2F6F6"/>
</g>
<g style="mix-blend-mode:multiply" opacity="0.6">
<path d="M26.5529 63.6738C21.4899 63.6738 15.2759 60.0848 12.7449 55.7018L7.28985 46.2508C4.75885 41.8668 4.75885 34.6908 7.28985 30.3038L12.7449 20.8548C15.2759 16.4708 21.4899 12.8838 26.5529 12.8838H166.362C171.424 12.8838 177.64 16.4708 180.169 20.8548L185.623 30.3038C188.157 34.6908 188.157 41.8678 185.623 46.2508L180.174 55.7018C177.645 60.0848 171.429 63.6738 166.367 63.6738H26.5529Z" fill="#F2F6F6"/>
</g>
<g style="mix-blend-mode:multiply" opacity="0.6">
<path d="M26.9843 63.1798C21.9603 63.1798 15.7973 59.6168 13.2843 55.2698L7.87228 45.8928C5.36028 41.5438 5.36028 34.4238 7.87228 30.0708L13.2843 20.6958C15.7973 16.3478 21.9603 12.7888 26.9843 12.7888H166.377C171.4 12.7888 177.565 16.3478 180.077 20.6958L185.489 30.0708C188.003 34.4238 188.003 41.5438 185.489 45.8928L180.077 55.2698C177.565 59.6168 171.399 63.1798 166.377 63.1798H26.9843Z" fill="#F2F6F6"/>
</g>
<g style="mix-blend-mode:multiply" opacity="0.6">
<path d="M27.4152 62.6849C22.4332 62.6849 16.3152 59.1509 13.8242 54.8369L8.45516 45.5369C5.96416 41.2219 5.96416 34.1589 8.45516 29.8369L13.8242 20.5369C16.3162 16.2239 22.4322 12.6919 27.4152 12.6919H166.394C171.377 12.6919 177.494 16.2239 179.986 20.5369L185.355 29.8369C187.848 34.1539 187.848 41.2169 185.355 45.5369L179.986 54.8369C177.495 59.1499 171.378 62.6849 166.394 62.6849H27.4152Z" fill="#F2F6F6"/>
</g>
<g style="mix-blend-mode:multiply" opacity="0.6">
<path d="M27.8463 62.1889C22.9043 62.1889 16.8363 58.6839 14.3633 54.4049L9.03734 45.1769C7.81855 42.7626 7.18359 40.0959 7.18359 37.3914C7.18359 34.6869 7.81855 32.0202 9.03734 29.6059L14.3633 20.3789C15.8449 18.1171 17.8367 16.2346 20.1785 14.8829C22.5203 13.5313 25.1467 12.7483 27.8463 12.5969H166.409C169.109 12.7483 171.735 13.5313 174.076 14.883C176.418 16.2346 178.409 18.1171 179.89 20.3789L185.216 29.6059C186.436 32.02 187.071 34.6868 187.071 37.3914C187.071 40.096 186.436 42.7628 185.216 45.1769L179.89 54.4049C177.418 58.6839 171.351 62.1889 166.409 62.1889H27.8463Z" fill="#F2F6F6"/>
</g>
<g style="mix-blend-mode:multiply" opacity="0.6">
<path d="M28.2793 61.694C25.6012 61.5434 22.9959 60.7663 20.673 59.4251C18.3501 58.0839 16.3745 56.2161 14.9053 53.972L9.62125 44.818C8.41276 42.4231 7.7832 39.778 7.7832 37.0955C7.7832 34.413 8.41276 31.7679 9.62125 29.373L14.9053 20.221C16.3746 17.9772 18.3503 16.1097 20.6732 14.7688C22.9961 13.4279 25.6013 12.6511 28.2793 12.501H166.426C169.104 12.6512 171.709 13.428 174.032 14.7689C176.355 16.1098 178.331 17.9772 179.8 20.221L185.083 29.373C186.293 31.7675 186.923 34.4127 186.923 37.0955C186.923 39.7782 186.293 42.4234 185.083 44.818L179.8 53.972C178.331 56.216 176.355 58.0837 174.032 59.4249C171.71 60.7661 169.104 61.5433 166.426 61.694H28.2793Z" fill="#F2F6F6"/>
</g>
<g style="mix-blend-mode:multiply" opacity="0.6">
<path d="M28.7094 61.1988C26.0535 61.049 23.4697 60.2779 21.166 58.9477C18.8623 57.6175 16.9029 55.7652 15.4454 53.5398L10.2044 44.4598C9.00547 42.0843 8.38086 39.4606 8.38086 36.7998C8.38086 34.1389 9.00547 31.5152 10.2044 29.1398L15.4454 20.0628C16.9025 17.8371 18.8618 15.9846 21.1656 14.6545C23.4694 13.3244 26.0534 12.5538 28.7094 12.4048H166.442C169.099 12.5535 171.683 13.3239 173.987 14.654C176.292 15.9842 178.251 17.8368 179.708 20.0628L184.948 29.1398C186.148 31.5149 186.774 34.1387 186.774 36.7998C186.774 39.4608 186.148 42.0847 184.948 44.4598L179.708 53.5398C178.251 55.7654 176.291 57.6179 173.987 58.9481C171.683 60.2784 169.099 61.0493 166.442 61.1988H28.7094Z" fill="#F2F6F6"/>
</g>
<g style="mix-blend-mode:multiply" opacity="0.6">
<path d="M29.1445 60.704C26.5098 60.5568 23.9465 59.7932 21.6608 58.4746C19.3751 57.1559 17.4308 55.3191 15.9845 53.112L10.7845 44.105C9.59581 41.7494 8.97656 39.1476 8.97656 36.509C8.97656 33.8704 9.59581 31.2687 10.7845 28.913L15.9845 19.913C17.4297 17.7041 19.3735 15.8655 21.6593 14.5452C23.9451 13.225 26.509 12.4601 29.1445 12.312H166.46C169.094 12.4595 171.657 13.2235 173.942 14.5425C176.227 15.8615 178.17 17.6987 179.616 19.906L184.816 28.906C186.005 31.2614 186.625 33.8632 186.625 36.502C186.625 39.1408 186.005 41.7427 184.816 44.098L179.615 53.112C178.17 55.3204 176.227 57.1586 173.942 58.4787C171.656 59.7987 169.093 60.5637 166.459 60.712L29.1445 60.704Z" fill="#F2F6F6"/>
</g>
<g style="mix-blend-mode:multiply" opacity="0.6">
<path d="M29.5723 60.2089C26.9597 60.0619 24.418 59.3036 22.1519 57.995C19.8859 56.6865 17.9586 54.8642 16.5253 52.6749L11.3693 43.7439C10.1897 41.4075 9.5752 38.8267 9.5752 36.2094C9.5752 33.5921 10.1897 31.0113 11.3693 28.6749L16.5253 19.7449C17.9587 17.5558 19.886 15.7338 22.1521 14.4256C24.4182 13.1173 26.9598 12.3595 29.5723 12.2129H166.472C169.085 12.359 171.628 13.1167 173.895 14.4249C176.161 15.7331 178.089 17.5554 179.523 19.7449L184.679 28.6749C185.859 31.0113 186.473 33.5921 186.473 36.2094C186.473 38.8267 185.859 41.4075 184.679 43.7439L179.523 52.6749C178.09 54.8644 176.162 56.6867 173.896 57.9952C171.629 59.3038 169.087 60.062 166.474 60.2089H29.5723Z" fill="#F2F6F6"/>
</g>
<g style="mix-blend-mode:multiply" opacity="0.6">
<path d="M30.0024 59.7129C27.4114 59.5672 24.8908 58.8153 22.6435 57.5177C20.3962 56.2201 18.4848 54.413 17.0634 52.2419L11.9514 43.3849C10.782 41.0681 10.1729 38.5091 10.1729 35.9139C10.1729 33.3187 10.782 30.7598 11.9514 28.4429L17.0634 19.5869C18.4851 17.4162 20.3965 15.6095 22.6438 14.3122C24.8911 13.015 27.4116 12.2634 30.0024 12.1179H166.491C169.082 12.2631 171.603 13.0146 173.85 14.3119C176.097 15.6092 178.009 17.416 179.43 19.5869L184.545 28.4429C185.715 30.7598 186.324 33.3187 186.324 35.9139C186.324 38.5091 185.715 41.0681 184.545 43.3849L179.43 52.2419C178.009 54.4132 176.098 56.2205 173.85 57.5181C171.603 58.8158 169.082 59.5675 166.491 59.7129H30.0024Z" fill="#F2F6F6"/>
</g>
<g style="mix-blend-mode:multiply" opacity="0.6">
<path d="M30.4344 59.218C27.8652 59.0735 25.3658 58.3278 23.1373 57.041C20.9089 55.7541 19.0138 53.962 17.6044 51.809L12.5334 43.027C11.3737 40.7296 10.7695 38.192 10.7695 35.6185C10.7695 33.0449 11.3737 30.5074 12.5334 28.21L17.6044 19.429C19.0139 17.2762 20.9091 15.4844 23.1375 14.1979C25.3659 12.9114 27.8653 12.1661 30.4344 12.022H166.508C169.078 12.1661 171.577 12.9114 173.806 14.1979C176.034 15.4844 177.93 17.2761 179.339 19.429L184.41 28.21C185.57 30.5075 186.173 33.045 186.173 35.6185C186.173 38.1919 185.57 40.7294 184.41 43.027L179.339 51.809C177.93 53.9621 176.035 55.7542 173.806 57.041C171.577 58.3279 169.078 59.0735 166.508 59.218H30.4344Z" fill="#F2F6F6"/>
</g>
<g style="mix-blend-mode:multiply" opacity="0.6">
<path d="M30.8671 58.7228C28.3195 58.5794 25.8411 57.8399 23.6314 56.5638C21.4218 55.2877 19.5426 53.5107 18.1451 51.3758L13.1181 42.6668C11.9682 40.3889 11.3691 37.8729 11.3691 35.3213C11.3691 32.7696 11.9682 30.2536 13.1181 27.9758L18.1451 19.2688C19.543 17.1346 21.4224 15.3583 23.632 14.083C25.8417 12.8076 28.3198 12.0687 30.8671 11.9258H166.523C169.071 12.0684 171.549 12.8072 173.759 14.0825C175.969 15.3579 177.849 17.1343 179.247 19.2688L184.274 27.9758C185.424 30.2536 186.023 32.7696 186.023 35.3213C186.023 37.8729 185.424 40.3889 184.274 42.6668L179.247 51.3758C177.849 53.511 175.97 55.2882 173.76 56.5643C171.55 57.8404 169.071 58.5797 166.523 58.7228H30.8671Z" fill="#F2F6F6"/>
</g>
<g style="mix-blend-mode:multiply" opacity="0.6">
<path d="M31.2976 58.2278C28.7719 58.0858 26.3148 57.3528 24.124 56.0879C21.9333 54.8229 20.0702 53.0613 18.6846 50.9448L13.6996 42.3108C12.5597 40.0521 11.9658 37.5574 11.9658 35.0273C11.9658 32.4973 12.5597 30.0026 13.6996 27.7438L18.6846 19.1108C20.0702 16.9946 21.9334 15.2332 24.1242 13.9686C26.3149 12.704 28.772 11.9714 31.2976 11.8298H166.537C169.063 11.9712 171.52 12.7036 173.711 13.9682C175.903 15.2329 177.766 16.9943 179.153 19.1108L184.138 27.7438C185.277 30.0026 185.871 32.4973 185.871 35.0273C185.871 37.5574 185.277 40.0521 184.138 42.3108L179.153 50.9448C177.767 53.0616 175.903 54.8233 173.712 56.0883C171.52 57.3533 169.063 58.0861 166.537 58.2278H31.2976Z" fill="#F2F6F6"/>
</g>
<g style="mix-blend-mode:multiply" opacity="0.6">
<path d="M31.7303 57.7358C29.2261 57.5952 26.79 56.8686 24.618 55.6144C22.4459 54.3601 20.5988 52.6134 19.2253 50.5148L14.2833 41.9548C13.1532 39.7158 12.5645 37.2428 12.5645 34.7348C12.5645 32.2268 13.1532 29.7538 14.2833 27.5148L19.2253 18.9568C20.5991 16.8586 22.4463 15.1123 24.6183 13.8584C26.7903 12.6046 29.2263 11.8782 31.7303 11.7378H166.556C169.06 11.878 171.496 12.6044 173.668 13.8582C175.84 15.1121 177.688 16.8585 179.061 18.9568L184.004 27.5148C185.134 29.7539 185.722 32.2269 185.722 34.7348C185.722 37.2427 185.134 39.7157 184.004 41.9548L179.061 50.5148C177.688 52.6135 175.841 54.3602 173.669 55.6145C171.497 56.8687 169.061 57.5953 166.556 57.7358H31.7303Z" fill="#F2F6F6"/>
</g>
<g style="mix-blend-mode:multiply" opacity="0.6">
<path d="M32.1598 57.2379C29.6767 57.099 27.261 56.3787 25.1072 55.1353C22.9534 53.8918 21.1217 52.1598 19.7598 50.0789L14.8598 41.5939C13.7397 39.3742 13.1562 36.9227 13.1562 34.4364C13.1562 31.9502 13.7397 29.4986 14.8598 27.2789L19.7598 18.7949C21.122 16.7145 22.9538 14.9831 25.1076 13.7401C27.2614 12.4972 29.677 11.7775 32.1598 11.6389H166.571C169.054 11.7777 171.469 12.4975 173.623 13.7404C175.777 14.9834 177.608 16.7146 178.971 18.7949L183.871 27.2789C184.99 29.4989 185.573 31.9503 185.573 34.4364C185.573 36.9225 184.99 39.374 183.871 41.5939L178.971 50.0789C177.609 52.1597 175.777 53.8916 173.623 55.1351C171.47 56.3785 169.054 57.0988 166.571 57.2379H32.1598Z" fill="#F2F6F6"/>
</g>
<g style="mix-blend-mode:multiply" opacity="0.6">
<path d="M32.5925 56.7428C30.1314 56.6039 27.7374 55.889 25.6031 54.6558C23.4689 53.4226 21.6539 51.7056 20.3045 49.6429L15.4485 41.2309C14.3382 39.0307 13.7598 36.6007 13.7598 34.1364C13.7598 31.672 14.3382 29.242 15.4485 27.0419L20.3045 18.6319C21.6545 16.5701 23.4697 14.8542 25.6039 13.622C27.7382 12.3899 30.1319 11.676 32.5925 11.5378H166.592C169.053 11.6758 171.447 12.3895 173.582 13.6217C175.717 14.8538 177.532 16.5699 178.882 18.6319L183.74 27.0419C184.85 29.2421 185.428 31.6721 185.428 34.1364C185.428 36.6006 184.85 39.0306 183.74 41.2309L178.882 49.6429C177.533 51.7058 175.717 53.423 173.583 54.6561C171.448 55.8893 169.054 56.6041 166.592 56.7428H32.5925Z" fill="#F2F6F6"/>
</g>
<g style="mix-blend-mode:multiply" opacity="0.6">
<path d="M33.0225 56.2468C30.5834 56.1097 28.2106 55.4017 26.0952 54.1797C23.9798 52.9578 22.1809 51.2562 20.8435 49.2118L16.0305 40.8758C14.9298 38.6951 14.3564 36.2865 14.3564 33.8438C14.3564 31.4011 14.9298 28.9925 16.0305 26.8118L20.8435 18.4748C22.1815 16.4314 23.9806 14.7307 26.096 13.5097C28.2113 12.2886 30.5839 11.5814 33.0225 11.4448H166.604C169.042 11.5815 171.415 12.2889 173.531 13.5099C175.646 14.7309 177.446 16.4315 178.785 18.4748L183.599 26.8118C184.699 28.9927 185.272 31.4012 185.272 33.8438C185.272 36.2864 184.699 38.695 183.599 40.8758L178.785 49.2118C177.447 51.2564 175.648 52.9583 173.532 54.1802C171.416 55.4021 169.043 56.11 166.604 56.2468H33.0225Z" fill="#F2F6F6"/>
</g>
<g style="mix-blend-mode:multiply" opacity="0.6">
<path d="M33.4537 55.7528C31.0367 55.6166 28.6853 54.9149 26.5889 53.7041C24.4925 52.4934 22.7096 50.8074 21.3837 48.7818L16.6137 40.5198C15.5232 38.3582 14.9551 35.9709 14.9551 33.5498C14.9551 31.1287 15.5232 28.7414 16.6137 26.5798L21.3837 18.3188C22.7097 16.2936 24.4927 14.608 26.5891 13.3978C28.6855 12.1875 31.0368 11.4864 33.4537 11.3508H166.62C169.037 11.486 171.389 12.1869 173.486 13.3972C175.584 14.6075 177.367 16.2933 178.694 18.3188L183.466 26.5798C184.555 28.7417 185.123 31.1289 185.123 33.5498C185.123 35.9707 184.555 38.3579 183.466 40.5198L178.694 48.7818C177.367 50.8078 175.584 52.494 173.487 53.7048C171.39 54.9156 169.037 55.6171 166.62 55.7528H33.4537Z" fill="#F2F6F6"/>
</g>
<g style="mix-blend-mode:multiply" opacity="0.6">
<path d="M33.8857 55.2568C31.4901 55.1222 29.1596 54.4269 27.0819 53.2268C25.0042 52.0268 23.2373 50.3556 21.9237 48.3478L17.1957 40.1598C16.1148 38.0179 15.5518 35.6523 15.5518 33.2533C15.5518 30.8542 16.1148 28.4886 17.1957 26.3468L21.9237 18.1598C23.2383 16.1536 25.0055 14.4841 27.0832 13.2856C29.1608 12.0872 31.4909 11.3933 33.8857 11.2598H166.637C169.032 11.3933 171.362 12.0872 173.44 13.2856C175.518 14.484 177.286 16.1535 178.601 18.1598L183.329 26.3468C184.409 28.4887 184.972 30.8543 184.972 33.2533C184.972 35.6523 184.409 38.0178 183.329 40.1598L178.601 48.3478C177.287 50.3555 175.519 52.0267 173.441 53.2267C171.363 54.4267 169.033 55.1221 166.637 55.2568H33.8857Z" fill="#F2F6F6"/>
</g>
<g style="mix-blend-mode:multiply" opacity="0.6">
<path d="M34.3184 54.7609C31.9444 54.6275 29.635 53.9384 27.576 52.7491C25.5171 51.5598 23.7662 49.9036 22.4644 47.9139L17.7804 39.8009C16.7093 37.6786 16.1514 35.3346 16.1514 32.9574C16.1514 30.5802 16.7093 28.2362 17.7804 26.1139L22.4644 18.0009C23.7669 16.0123 25.518 14.3573 27.5769 13.1691C29.6358 11.9809 31.945 11.2927 34.3184 11.1599H166.653C169.027 11.2928 171.336 11.9811 173.395 13.1693C175.454 14.3575 177.206 16.0124 178.508 18.0009L183.194 26.1139C184.265 28.2364 184.822 30.5804 184.822 32.9574C184.822 35.3345 184.265 37.6784 183.194 39.8009L178.508 47.9139C177.206 49.9035 175.455 51.5596 173.396 52.7489C171.337 53.9381 169.027 54.6273 166.653 54.7609H34.3184Z" fill="#F2F6F6"/>
</g>
<g style="mix-blend-mode:multiply" opacity="0.6">
<path d="M34.7486 54.2659C32.3965 54.1339 30.1083 53.4513 28.0684 52.2729C26.0285 51.0946 24.294 49.4535 23.0046 47.4819L18.3646 39.4479C17.303 37.3451 16.75 35.0224 16.75 32.6669C16.75 30.3113 17.303 27.9887 18.3646 25.8859L23.0076 17.8459C24.2978 15.8755 26.0327 14.2356 28.0725 13.0582C30.1123 11.8807 32.4 11.1987 34.7516 11.0669H166.665C169.017 11.1984 171.305 11.8803 173.345 13.0577C175.386 14.2351 177.121 15.8752 178.412 17.8459L183.057 25.8859C184.116 27.9892 184.668 30.3116 184.668 32.6669C184.668 35.0221 184.116 37.3446 183.057 39.4479L178.412 47.4869C177.121 49.4578 175.386 51.098 173.345 52.2755C171.305 53.4529 169.017 54.1347 166.665 54.2659H34.7486Z" fill="#F2F6F6"/>
</g>
<g style="mix-blend-mode:multiply" opacity="0.6">
<path d="M35.1796 53.7718C32.8493 53.641 30.5824 52.9647 28.5615 51.7973C26.5405 50.6298 24.822 49.004 23.5446 47.0508L18.9446 39.0858C17.8933 37.0024 17.3457 34.7014 17.3457 32.3678C17.3457 30.0342 17.8933 27.7332 18.9446 25.6498L23.5446 17.6848C24.8225 15.7323 26.5411 14.1072 28.5621 12.9405C30.583 11.7738 32.8497 11.0981 35.1796 10.9678H166.685C169.015 11.0983 171.282 11.7741 173.303 12.9408C175.324 14.1075 177.043 15.7324 178.322 17.6848L182.922 25.6498C183.972 27.7335 184.519 30.0344 184.519 32.3678C184.519 34.7012 183.972 37.0021 182.922 39.0858L178.322 47.0508C177.044 49.0039 175.325 50.6296 173.303 51.797C171.282 52.9643 169.015 53.6408 166.685 53.7718H35.1796Z" fill="#F2F6F6"/>
</g>
<g style="mix-blend-mode:multiply" opacity="0.6">
<path d="M35.6109 53.2769C33.3024 53.1474 31.0565 52.4774 29.0543 51.321C27.0521 50.1645 25.3496 48.5539 24.0839 46.6189L19.5219 38.7229C18.4808 36.6588 17.9385 34.3792 17.9385 32.0674C17.9385 29.7556 18.4808 27.476 19.5219 25.4119L24.0789 17.5219C25.3451 15.5877 27.0478 13.9779 29.05 12.8222C31.0521 11.6664 33.2977 10.9971 35.6059 10.8679H166.696C169.005 10.9964 171.252 11.6656 173.256 12.8215C175.259 13.9775 176.963 15.5879 178.23 17.5229L182.789 25.4129C183.829 27.4774 184.371 29.7568 184.371 32.0684C184.371 34.38 183.829 36.6595 182.789 38.7239L178.23 46.6149C176.964 48.5499 175.261 50.1605 173.258 51.317C171.256 52.4734 169.01 53.1434 166.701 53.2729L35.6109 53.2769Z" fill="#F2F6F6"/>
</g>
</g>
<g filter="url(#filter0_d)">
<path d="M23.6425 61.151L6.85645 32.076L23.6425 3H182.214L198.999 32.076L182.214 61.151H23.6425Z" fill="#F2F6F6"/>
</g>
<path d="M182.208 3H23.637L23.165 3.81799H181.208L197.432 32.118L180.225 61.154H182.208L198.993 32.079L182.208 3Z" fill="#F2F6F6"/>
<path d="M51.735 26.01C52.145 26.01 52.5 25.96 52.8 25.86C53.11 25.75 53.365 25.605 53.565 25.425C53.775 25.245 53.93 25.035 54.03 24.795C54.13 24.545 54.18 24.28 54.18 24C54.18 23.37 53.995 22.88 53.625 22.53C53.265 22.18 52.655 22.005 51.795 22.005H49.335V21.12L49.71 17.25H54.87V18.45H50.82L50.595 20.835H51.81C53.01 20.835 53.92 21.115 54.54 21.675C55.16 22.235 55.47 23.005 55.47 23.985C55.47 24.965 55.14 25.74 54.48 26.31C53.82 26.87 52.91 27.15 51.75 27.15C51.13 27.15 50.58 27.095 50.1 26.985C49.63 26.865 49.23 26.72 48.9 26.55L49.23 25.5C49.52 25.64 49.87 25.76 50.28 25.86C50.7 25.96 51.185 26.01 51.735 26.01ZM57.484 26.25C57.484 26 57.564 25.79 57.724 25.62C57.884 25.44 58.109 25.35 58.399 25.35C58.689 25.35 58.914 25.44 59.074 25.62C59.234 25.79 59.314 26 59.314 26.25C59.314 26.5 59.234 26.715 59.074 26.895C58.914 27.065 58.689 27.15 58.399 27.15C58.109 27.15 57.884 27.065 57.724 26.895C57.564 26.715 57.484 26.5 57.484 26.25ZM66.5018 18.6H67.7918V23.865C67.7918 24.355 67.7268 24.805 67.5968 25.215C67.4668 25.615 67.2568 25.96 66.9668 26.25C66.6868 26.53 66.3218 26.75 65.8718 26.91C65.4318 27.07 64.8918 27.15 64.2518 27.15C63.1918 27.15 62.3668 26.915 61.7768 26.445C61.1968 25.975 60.9068 25.305 60.9068 24.435C60.9068 23.935 61.0318 23.51 61.2818 23.16C61.5318 22.8 61.8718 22.55 62.3018 22.41C61.9218 22.31 61.5918 22.1 61.3118 21.78C61.0418 21.46 60.9068 21.015 60.9068 20.445C60.9068 19.885 61.0968 19.425 61.4768 19.065C61.8568 18.695 62.3818 18.51 63.0518 18.51C63.3318 18.51 63.5818 18.535 63.8018 18.585C64.0218 18.635 64.2118 18.695 64.3718 18.765L64.2218 19.845C64.1218 19.795 63.9818 19.745 63.8018 19.695C63.6318 19.645 63.4518 19.62 63.2618 19.62C62.8918 19.62 62.6118 19.715 62.4218 19.905C62.2418 20.085 62.1518 20.32 62.1518 20.61C62.1518 20.81 62.1918 20.985 62.2718 21.135C62.3618 21.275 62.4718 21.4 62.6018 21.51C62.7318 21.61 62.8768 21.685 63.0368 21.735C63.1968 21.785 63.3568 21.81 63.5168 21.81H64.7918L64.8968 22.92H63.7118C63.2718 22.92 62.9018 23.05 62.6018 23.31C62.3118 23.57 62.1668 23.92 62.1668 24.36C62.1668 24.63 62.2218 24.87 62.3318 25.08C62.4518 25.29 62.6068 25.47 62.7968 25.62C62.9968 25.76 63.2218 25.865 63.4718 25.935C63.7318 26.005 64.0018 26.04 64.2818 26.04C65.0318 26.04 65.5868 25.855 65.9468 25.485C66.3168 25.105 66.5018 24.56 66.5018 23.85V18.6ZM61.358 17.46V16.41H67.793V17.46H61.358ZM66.578 14.295V12.285H67.793V14.295H66.578ZM71.663 27L69.128 18.6H70.448L72.668 25.89H72.848C73.178 25.89 73.488 25.82 73.778 25.68C74.078 25.53 74.343 25.32 74.573 25.05C74.803 24.77 74.983 24.425 75.113 24.015C75.253 23.605 75.323 23.135 75.323 22.605C75.323 22.055 75.273 21.585 75.173 21.195C75.083 20.805 74.953 20.49 74.783 20.25C74.623 20.01 74.428 19.835 74.198 19.725C73.978 19.615 73.743 19.56 73.493 19.56C73.323 19.56 73.158 19.575 72.998 19.605C72.838 19.625 72.698 19.66 72.578 19.71L72.383 18.675C72.543 18.595 72.733 18.54 72.953 18.51C73.183 18.47 73.383 18.45 73.553 18.45C74.003 18.45 74.413 18.545 74.783 18.735C75.163 18.915 75.488 19.185 75.758 19.545C76.028 19.895 76.238 20.33 76.388 20.85C76.538 21.36 76.613 21.945 76.613 22.605C76.613 23.285 76.513 23.895 76.313 24.435C76.123 24.975 75.858 25.435 75.518 25.815C75.178 26.195 74.778 26.49 74.318 26.7C73.858 26.9 73.358 27 72.818 27H71.663ZM84.0451 18.6H85.3351V23.865C85.3351 24.875 85.0951 25.675 84.6151 26.265C84.1351 26.855 83.4001 27.15 82.4101 27.15C81.8101 27.15 81.3001 27.025 80.8801 26.775C80.4601 26.525 80.1051 26.19 79.8151 25.77L79.7401 27H78.5251V18.6H79.8151V24.33C79.9151 24.56 80.0501 24.78 80.2201 24.99C80.4001 25.19 80.6001 25.37 80.8201 25.53C81.0401 25.69 81.2701 25.815 81.5101 25.905C81.7601 25.995 82.0101 26.04 82.2601 26.04C82.8901 26.04 83.3451 25.855 83.6251 25.485C83.9051 25.105 84.0451 24.56 84.0451 23.85V18.6ZM78.9068 17.46V16.41H84.1268V15.03H85.3418V17.46H78.9068ZM92.6918 27V22.95H90.5918C89.8818 22.95 89.3218 23.09 88.9118 23.37C88.5018 23.64 88.2968 24.06 88.2968 24.63C88.2968 25.12 88.4418 25.485 88.7318 25.725C89.0218 25.955 89.3868 26.07 89.8268 26.07C90.0368 26.07 90.2568 26.05 90.4868 26.01C90.7268 25.96 90.9368 25.895 91.1168 25.815L91.3268 26.88C91.1068 26.96 90.8518 27.025 90.5618 27.075C90.2718 27.125 89.9818 27.15 89.6918 27.15C89.3118 27.15 88.9568 27.1 88.6268 27C88.3068 26.89 88.0268 26.735 87.7868 26.535C87.5468 26.325 87.3568 26.065 87.2168 25.755C87.0768 25.435 87.0068 25.065 87.0068 24.645C87.0068 23.765 87.3168 23.08 87.9368 22.59C88.5568 22.09 89.4918 21.84 90.7418 21.84H92.6918V21.645C92.6918 21.335 92.6568 21.05 92.5868 20.79C92.5168 20.53 92.3968 20.305 92.2268 20.115C92.0668 19.925 91.8518 19.78 91.5818 19.68C91.3218 19.58 91.0018 19.53 90.6218 19.53C90.0118 19.53 89.4618 19.615 88.9718 19.785C88.4918 19.955 88.0718 20.165 87.7118 20.415L87.2918 19.5C87.4518 19.37 87.6518 19.24 87.8918 19.11C88.1418 18.98 88.4118 18.87 88.7018 18.78C89.0018 18.68 89.3168 18.6 89.6468 18.54C89.9768 18.48 90.3018 18.45 90.6218 18.45C91.2618 18.45 91.8268 18.56 92.3168 18.78L92.9618 18.015H94.4318L93.2468 19.44C93.4968 19.71 93.6818 20.03 93.8018 20.4C93.9218 20.77 93.9818 21.18 93.9818 21.63V27H92.6918ZM101.784 18.6H103.074V23.865C103.074 24.875 102.834 25.675 102.354 26.265C101.874 26.855 101.139 27.15 100.149 27.15C99.5494 27.15 99.0394 27.025 98.6194 26.775C98.1994 26.525 97.8444 26.19 97.5544 25.77L97.4794 27H96.2644V18.6H97.5544V24.33C97.6544 24.56 97.7894 24.78 97.9594 24.99C98.1394 25.19 98.3394 25.37 98.5594 25.53C98.7794 25.69 99.0094 25.815 99.2494 25.905C99.4994 25.995 99.7494 26.04 99.9994 26.04C100.629 26.04 101.084 25.855 101.364 25.485C101.644 25.105 101.784 24.56 101.784 23.85V18.6ZM108.901 27V21.585C108.901 20.235 108.306 19.56 107.116 19.56C106.636 19.56 106.186 19.65 105.766 19.83C105.346 20 104.991 20.205 104.701 20.445L104.356 19.47C104.506 19.34 104.686 19.215 104.896 19.095C105.116 18.965 105.351 18.855 105.601 18.765C105.861 18.665 106.126 18.59 106.396 18.54C106.676 18.48 106.956 18.45 107.236 18.45C108.216 18.45 108.951 18.73 109.441 19.29C109.941 19.84 110.191 20.625 110.191 21.645V27H108.901ZM118.526 24.105C118.526 25.085 118.281 25.84 117.791 26.37C117.311 26.89 116.521 27.15 115.421 27.15C114.871 27.15 114.396 27.08 113.996 26.94C113.606 26.79 113.281 26.585 113.021 26.325C112.771 26.065 112.586 25.765 112.466 25.425C112.346 25.075 112.286 24.695 112.286 24.285V23.13C112.286 22.84 112.361 22.57 112.511 22.32C112.671 22.07 112.846 21.835 113.036 21.615C113.226 21.395 113.396 21.19 113.546 21C113.706 20.8 113.786 20.61 113.786 20.43V20.07C113.786 19.96 113.756 19.875 113.696 19.815C113.646 19.745 113.551 19.71 113.411 19.71H112.376V18.6H113.561C114.101 18.6 114.476 18.725 114.686 18.975C114.906 19.215 115.016 19.545 115.016 19.965V20.415C115.016 20.685 114.936 20.94 114.776 21.18C114.626 21.42 114.461 21.65 114.281 21.87C114.101 22.08 113.931 22.29 113.771 22.5C113.621 22.71 113.546 22.92 113.546 23.13V24.285C113.546 24.825 113.686 25.255 113.966 25.575C114.256 25.895 114.741 26.055 115.421 26.055C116.041 26.055 116.496 25.92 116.786 25.65C117.086 25.37 117.236 24.86 117.236 24.12V22.605C117.236 22.185 117.146 21.885 116.966 21.705C116.796 21.525 116.566 21.435 116.276 21.435H115.991L115.811 20.895L117.401 18.6H118.811L117.116 20.805C117.516 20.885 117.851 21.085 118.121 21.405C118.391 21.715 118.526 22.11 118.526 22.59V24.105ZM112.086 17.46V16.41H118.521V17.46H112.086ZM126.291 27V21.705C126.291 20.985 126.106 20.45 125.736 20.1C125.366 19.74 124.836 19.56 124.146 19.56C123.576 19.56 123.071 19.685 122.631 19.935C122.191 20.175 121.891 20.495 121.731 20.895L122.871 21.945C122.601 22.085 122.401 22.26 122.271 22.47C122.141 22.67 122.076 22.93 122.076 23.25V27H120.786V23.43C120.786 23.14 120.856 22.865 120.996 22.605C121.136 22.345 121.336 22.15 121.596 22.02L120.366 20.97C120.446 20.65 120.596 20.34 120.816 20.04C121.046 19.73 121.326 19.46 121.656 19.23C121.986 18.99 122.361 18.8 122.781 18.66C123.211 18.52 123.666 18.45 124.146 18.45C124.716 18.45 125.216 18.53 125.646 18.69C126.076 18.85 126.431 19.075 126.711 19.365C127.001 19.655 127.216 20 127.356 20.4C127.506 20.79 127.581 21.225 127.581 21.705V27H126.291ZM135.373 18.6H136.663V23.865C136.663 24.875 136.423 25.675 135.943 26.265C135.463 26.855 134.728 27.15 133.738 27.15C133.138 27.15 132.628 27.025 132.208 26.775C131.788 26.525 131.433 26.19 131.143 25.77L131.068 27H129.853V18.6H131.143V24.33C131.243 24.56 131.378 24.78 131.548 24.99C131.728 25.19 131.928 25.37 132.148 25.53C132.368 25.69 132.598 25.815 132.838 25.905C133.088 25.995 133.338 26.04 133.588 26.04C134.218 26.04 134.673 25.855 134.953 25.485C135.233 25.105 135.373 24.56 135.373 23.85V18.6ZM142.49 27V21.585C142.49 20.235 141.895 19.56 140.705 19.56C140.225 19.56 139.775 19.65 139.355 19.83C138.935 20 138.58 20.205 138.29 20.445L137.945 19.47C138.095 19.34 138.275 19.215 138.485 19.095C138.705 18.965 138.94 18.855 139.19 18.765C139.45 18.665 139.715 18.59 139.985 18.54C140.265 18.48 140.545 18.45 140.825 18.45C141.805 18.45 142.54 18.73 143.03 19.29C143.53 19.84 143.78 20.625 143.78 21.645V27H142.49ZM151.544 27V21.705C151.544 20.985 151.359 20.45 150.989 20.1C150.619 19.74 150.089 19.56 149.399 19.56C148.829 19.56 148.324 19.685 147.884 19.935C147.444 20.175 147.144 20.495 146.984 20.895L148.124 21.945C147.854 22.085 147.654 22.26 147.524 22.47C147.394 22.67 147.329 22.93 147.329 23.25V27H146.039V23.43C146.039 23.14 146.109 22.865 146.249 22.605C146.389 22.345 146.589 22.15 146.849 22.02L145.619 20.97C145.699 20.65 145.849 20.34 146.069 20.04C146.299 19.73 146.579 19.46 146.909 19.23C147.239 18.99 147.614 18.8 148.034 18.66C148.464 18.52 148.919 18.45 149.399 18.45C149.969 18.45 150.469 18.53 150.899 18.69C151.329 18.85 151.684 19.075 151.964 19.365C152.254 19.655 152.469 20 152.609 20.4C152.759 20.79 152.834 21.225 152.834 21.705V27H151.544Z" fill="#EE5B47"/>
<path d="M70.7 46.244C71.244 46.244 71.656 46.14 71.936 45.932C72.216 45.716 72.356 45.472 72.356 45.2C72.356 45.032 72.304 44.884 72.2 44.756C72.104 44.628 71.972 44.516 71.804 44.42C71.644 44.316 71.46 44.228 71.252 44.156C71.052 44.084 70.848 44.016 70.64 43.952C70.336 43.864 70.052 43.768 69.788 43.664C69.532 43.552 69.308 43.42 69.116 43.268C68.932 43.108 68.788 42.924 68.684 42.716C68.58 42.5 68.528 42.244 68.528 41.948C68.528 41.38 68.752 40.94 69.2 40.628C69.656 40.316 70.272 40.16 71.048 40.16C71.424 40.16 71.792 40.2 72.152 40.28C72.512 40.352 72.832 40.46 73.112 40.604L72.848 41.42C72.36 41.164 71.792 41.036 71.144 41.036C70.64 41.036 70.244 41.124 69.956 41.3C69.676 41.476 69.536 41.692 69.536 41.948C69.536 42.092 69.576 42.22 69.656 42.332C69.736 42.444 69.844 42.544 69.98 42.632C70.116 42.712 70.272 42.788 70.448 42.86C70.624 42.924 70.812 42.988 71.012 43.052C71.388 43.172 71.72 43.3 72.008 43.436C72.304 43.564 72.552 43.712 72.752 43.88C72.952 44.048 73.104 44.24 73.208 44.456C73.312 44.672 73.364 44.928 73.364 45.224C73.364 45.792 73.148 46.252 72.716 46.604C72.292 46.948 71.636 47.12 70.748 47.12C70.308 47.12 69.9 47.08 69.524 47C69.156 46.92 68.844 46.804 68.588 46.652L68.84 45.848C69.088 45.968 69.372 46.064 69.692 46.136C70.012 46.208 70.348 46.244 70.7 46.244ZM77.674 47V42.668C77.674 41.588 77.198 41.048 76.246 41.048C75.862 41.048 75.502 41.12 75.166 41.264C74.83 41.4 74.546 41.564 74.314 41.756L74.038 40.976C74.158 40.872 74.302 40.772 74.47 40.676C74.646 40.572 74.834 40.484 75.034 40.412C75.242 40.332 75.454 40.272 75.67 40.232C75.894 40.184 76.118 40.16 76.342 40.16C77.126 40.16 77.714 40.384 78.106 40.832C78.506 41.272 78.706 41.9 78.706 42.716V47H77.674ZM84.6296 40.28H85.6616V44.492C85.6616 44.884 85.6096 45.244 85.5056 45.572C85.4016 45.892 85.2336 46.168 85.0016 46.4C84.7776 46.624 84.4856 46.8 84.1256 46.928C83.7736 47.056 83.3416 47.12 82.8296 47.12C81.9816 47.12 81.3216 46.932 80.8496 46.556C80.3856 46.18 80.1536 45.644 80.1536 44.948C80.1536 44.548 80.2536 44.208 80.4536 43.928C80.6536 43.64 80.9256 43.44 81.2696 43.328C80.9656 43.248 80.7016 43.08 80.4776 42.824C80.2616 42.568 80.1536 42.212 80.1536 41.756C80.1536 41.308 80.3056 40.94 80.6096 40.652C80.9136 40.356 81.3336 40.208 81.8696 40.208C82.0936 40.208 82.2936 40.228 82.4696 40.268C82.6456 40.308 82.7976 40.356 82.9256 40.412L82.8056 41.276C82.7256 41.236 82.6136 41.196 82.4696 41.156C82.3336 41.116 82.1896 41.096 82.0376 41.096C81.7416 41.096 81.5176 41.172 81.3656 41.324C81.2216 41.468 81.1496 41.656 81.1496 41.888C81.1496 42.048 81.1816 42.188 81.2456 42.308C81.3176 42.42 81.4056 42.52 81.5096 42.608C81.6136 42.688 81.7296 42.748 81.8576 42.788C81.9856 42.828 82.1136 42.848 82.2416 42.848H83.2616L83.3456 43.736H82.3976C82.0456 43.736 81.7496 43.84 81.5096 44.048C81.2776 44.256 81.1616 44.536 81.1616 44.888C81.1616 45.104 81.2056 45.296 81.2936 45.464C81.3896 45.632 81.5136 45.776 81.6656 45.896C81.8256 46.008 82.0056 46.092 82.2056 46.148C82.4136 46.204 82.6296 46.232 82.8536 46.232C83.4536 46.232 83.8976 46.084 84.1856 45.788C84.4816 45.484 84.6296 45.048 84.6296 44.48V40.28ZM87.8105 47V38.996C87.8105 38.508 87.8905 38.084 88.0505 37.724C88.2185 37.364 88.4465 37.056 88.7345 36.8H85.7705V35.948H90.0545V36.668C89.6705 36.844 89.3705 37.108 89.1545 37.46C88.9465 37.804 88.8425 38.24 88.8425 38.768V47H87.8105ZM95.4235 47V43.004C95.4235 42.724 95.3875 42.464 95.3155 42.224C95.2515 41.984 95.1475 41.78 95.0035 41.612C94.8595 41.436 94.6755 41.3 94.4515 41.204C94.2355 41.1 93.9755 41.048 93.6715 41.048C92.9595 41.048 92.4155 41.284 92.0395 41.756C91.6715 42.22 91.4875 42.872 91.4875 43.712C91.4875 44.176 91.5395 44.568 91.6435 44.888C91.7555 45.2 91.8955 45.452 92.0635 45.644C92.2395 45.836 92.4315 45.976 92.6395 46.064C92.8475 46.144 93.0555 46.184 93.2635 46.184C93.4315 46.184 93.5755 46.172 93.6955 46.148C93.8235 46.124 93.9515 46.088 94.0795 46.04L94.2715 46.856C94.1355 46.92 93.9755 46.972 93.7915 47.012C93.6075 47.052 93.4155 47.072 93.2155 47.072C92.8555 47.072 92.5075 47.004 92.1715 46.868C91.8355 46.732 91.5395 46.528 91.2835 46.256C91.0355 45.976 90.8355 45.628 90.6835 45.212C90.5315 44.788 90.4555 44.288 90.4555 43.712C90.4555 43.208 90.5195 42.74 90.6475 42.308C90.7835 41.876 90.9835 41.504 91.2475 41.192C91.5115 40.872 91.8435 40.62 92.2435 40.436C92.6435 40.252 93.1115 40.16 93.6475 40.16C94.1355 40.16 94.5555 40.236 94.9075 40.388C95.2595 40.54 95.5475 40.748 95.7715 41.012C96.0035 41.276 96.1755 41.58 96.2875 41.924C96.3995 42.268 96.4555 42.632 96.4555 43.016V47H95.4235ZM95.0635 39.368C94.9275 39.368 94.8075 39.32 94.7035 39.224C94.5995 39.128 94.5475 39 94.5475 38.84V38.504C94.5475 38.416 94.5355 38.356 94.5115 38.324C94.4875 38.284 94.4275 38.264 94.3315 38.264H93.6955V37.424H94.6795C94.9035 37.424 95.0835 37.472 95.2195 37.568C95.3475 37.664 95.4115 37.816 95.4115 38.024V38.324C95.4115 38.388 95.4275 38.44 95.4595 38.48C95.4835 38.512 95.5395 38.528 95.6275 38.528H97.2475V39.368H95.0635ZM102.671 47V42.764C102.671 42.188 102.523 41.76 102.227 41.48C101.931 41.192 101.507 41.048 100.955 41.048C100.499 41.048 100.095 41.148 99.7435 41.348C99.3915 41.54 99.1515 41.796 99.0235 42.116L99.9355 42.956C99.7195 43.068 99.5595 43.208 99.4555 43.376C99.3515 43.536 99.2995 43.744 99.2995 44V47H98.2675V44.144C98.2675 43.912 98.3235 43.692 98.4355 43.484C98.5475 43.276 98.7075 43.12 98.9155 43.016L97.9315 42.176C97.9955 41.92 98.1155 41.672 98.2915 41.432C98.4755 41.184 98.6995 40.968 98.9635 40.784C99.2275 40.592 99.5275 40.44 99.8635 40.328C100.207 40.216 100.571 40.16 100.955 40.16C101.411 40.16 101.811 40.224 102.155 40.352C102.499 40.48 102.783 40.66 103.007 40.892C103.239 41.124 103.411 41.4 103.523 41.72C103.643 42.032 103.703 42.38 103.703 42.764V47H102.671ZM102.534 39.368C102.326 39.368 102.146 39.316 101.994 39.212C101.834 39.1 101.714 38.96 101.634 38.792C101.578 38.96 101.466 39.108 101.298 39.236C101.13 39.356 100.902 39.416 100.614 39.416C100.406 39.416 100.222 39.38 100.062 39.308C99.8937 39.236 99.7537 39.14 99.6417 39.02C99.5297 38.9 99.4457 38.764 99.3897 38.612C99.3257 38.46 99.2937 38.3 99.2937 38.132C99.2937 37.956 99.3257 37.788 99.3897 37.628C99.4457 37.468 99.5337 37.324 99.6537 37.196C99.7737 37.068 99.9297 36.968 100.122 36.896C100.314 36.816 100.542 36.776 100.806 36.776H103.266V37.592H100.842C100.626 37.592 100.474 37.648 100.386 37.76C100.298 37.872 100.254 38 100.254 38.144C100.254 38.288 100.298 38.408 100.386 38.504C100.474 38.6 100.606 38.648 100.782 38.648C100.918 38.648 101.038 38.596 101.142 38.492C101.238 38.388 101.298 38.28 101.322 38.168H101.898C101.93 38.28 101.994 38.368 102.09 38.432C102.178 38.496 102.31 38.528 102.486 38.528H103.278V39.368H102.534ZM109.626 40.28H110.658V44.492C110.658 44.884 110.606 45.244 110.502 45.572C110.398 45.892 110.23 46.168 109.998 46.4C109.774 46.624 109.482 46.8 109.122 46.928C108.77 47.056 108.338 47.12 107.826 47.12C106.978 47.12 106.318 46.932 105.846 46.556C105.382 46.18 105.15 45.644 105.15 44.948C105.15 44.548 105.25 44.208 105.45 43.928C105.65 43.64 105.922 43.44 106.266 43.328C105.962 43.248 105.698 43.08 105.474 42.824C105.258 42.568 105.15 42.212 105.15 41.756C105.15 41.308 105.302 40.94 105.606 40.652C105.91 40.356 106.33 40.208 106.866 40.208C107.09 40.208 107.29 40.228 107.466 40.268C107.642 40.308 107.794 40.356 107.922 40.412L107.802 41.276C107.722 41.236 107.61 41.196 107.466 41.156C107.33 41.116 107.186 41.096 107.034 41.096C106.738 41.096 106.514 41.172 106.362 41.324C106.218 41.468 106.146 41.656 106.146 41.888C106.146 42.048 106.178 42.188 106.242 42.308C106.314 42.42 106.402 42.52 106.506 42.608C106.61 42.688 106.726 42.748 106.854 42.788C106.982 42.828 107.11 42.848 107.238 42.848H108.258L108.342 43.736H107.394C107.042 43.736 106.746 43.84 106.506 44.048C106.274 44.256 106.158 44.536 106.158 44.888C106.158 45.104 106.202 45.296 106.29 45.464C106.386 45.632 106.51 45.776 106.662 45.896C106.822 46.008 107.002 46.092 107.202 46.148C107.41 46.204 107.626 46.232 107.85 46.232C108.45 46.232 108.894 46.084 109.182 45.788C109.478 45.484 109.626 45.048 109.626 44.48V40.28ZM105.511 39.368V38.528H110.659V39.368H105.511ZM109.687 36.836V35.228H110.659V36.836H109.687ZM113.755 47L111.727 40.28H112.783L114.559 46.112H114.703C114.967 46.112 115.215 46.056 115.447 45.944C115.687 45.824 115.899 45.656 116.083 45.44C116.267 45.216 116.411 44.94 116.515 44.612C116.627 44.284 116.683 43.908 116.683 43.484C116.683 43.044 116.643 42.668 116.563 42.356C116.491 42.044 116.387 41.792 116.251 41.6C116.123 41.408 115.967 41.268 115.783 41.18C115.607 41.092 115.419 41.048 115.219 41.048C115.083 41.048 114.951 41.06 114.823 41.084C114.695 41.1 114.583 41.128 114.487 41.168L114.331 40.34C114.459 40.276 114.611 40.232 114.787 40.208C114.971 40.176 115.131 40.16 115.267 40.16C115.627 40.16 115.955 40.236 116.251 40.388C116.555 40.532 116.815 40.748 117.031 41.036C117.247 41.316 117.415 41.664 117.535 42.08C117.655 42.488 117.715 42.956 117.715 43.484C117.715 44.028 117.635 44.516 117.475 44.948C117.323 45.38 117.111 45.748 116.839 46.052C116.567 46.356 116.247 46.592 115.879 46.76C115.511 46.92 115.111 47 114.679 47H113.755ZM123.66 40.28H124.692V44.492C124.692 45.3 124.5 45.94 124.116 46.412C123.732 46.884 123.144 47.12 122.352 47.12C121.872 47.12 121.464 47.02 121.128 46.82C120.792 46.62 120.508 46.352 120.276 46.016L120.216 47H119.244V40.28H120.276V44.864C120.356 45.048 120.464 45.224 120.6 45.392C120.744 45.552 120.904 45.696 121.08 45.824C121.256 45.952 121.44 46.052 121.632 46.124C121.832 46.196 122.032 46.232 122.232 46.232C122.736 46.232 123.1 46.084 123.324 45.788C123.548 45.484 123.66 45.048 123.66 44.48V40.28ZM129.354 47V42.668C129.354 41.588 128.878 41.048 127.926 41.048C127.542 41.048 127.182 41.12 126.846 41.264C126.51 41.4 126.226 41.564 125.994 41.756L125.718 40.976C125.838 40.872 125.982 40.772 126.15 40.676C126.326 40.572 126.514 40.484 126.714 40.412C126.922 40.332 127.134 40.272 127.35 40.232C127.574 40.184 127.798 40.16 128.022 40.16C128.806 40.16 129.394 40.384 129.786 40.832C130.186 41.272 130.386 41.9 130.386 42.716V47H129.354ZM136.597 47V42.764C136.597 42.188 136.449 41.76 136.153 41.48C135.857 41.192 135.433 41.048 134.881 41.048C134.425 41.048 134.021 41.148 133.669 41.348C133.317 41.54 133.077 41.796 132.949 42.116L133.861 42.956C133.645 43.068 133.485 43.208 133.381 43.376C133.277 43.536 133.225 43.744 133.225 44V47H132.193V44.144C132.193 43.912 132.249 43.692 132.361 43.484C132.473 43.276 132.633 43.12 132.841 43.016L131.857 42.176C131.921 41.92 132.041 41.672 132.217 41.432C132.401 41.184 132.625 40.968 132.889 40.784C133.153 40.592 133.453 40.44 133.789 40.328C134.133 40.216 134.497 40.16 134.881 40.16C135.337 40.16 135.737 40.224 136.081 40.352C136.425 40.48 136.709 40.66 136.933 40.892C137.165 41.124 137.337 41.4 137.449 41.72C137.569 42.032 137.629 42.38 137.629 42.764V47H136.597Z" fill="#414B5A"/>
<defs>
<filter id="filter0_d" x="0.856445" y="0" width="204.143" height="70.151" filterUnits="userSpaceOnUse" color-interpolation-filters="sRGB">
<feFlood flood-opacity="0" result="BackgroundImageFix"/>
<feColorMatrix in="SourceAlpha" type="matrix" values="0 0 0 0 0 0 0 0 0 0 0 0 0 0 0 0 0 0 127 0" result="hardAlpha"/>
<feOffset dy="3"/>
<feGaussianBlur stdDeviation="3"/>
<feColorMatrix type="matrix" values="0 0 0 0 0 0 0 0 0 0 0 0 0 0 0 0 0 0 0.161 0"/>
<feBlend mode="normal" in2="BackgroundImageFix" result="effect1_dropShadow"/>
<feBlend mode="normal" in="SourceGraphic" in2="effect1_dropShadow" result="shape"/>
</filter>
</defs>
</svg>
