<svg width="205" height="71" viewBox="0 0 205 71" fill="none" xmlns="http://www.w3.org/2000/svg">
<g style="mix-blend-mode:multiply" opacity="0.6">
<g style="mix-blend-mode:multiply" opacity="0.6">
<path d="M24.827 65.6558C19.605 65.6558 13.197 61.9558 10.585 57.4328L4.959 47.6848C2.347 43.1628 2.347 35.7608 4.959 31.2358L10.585 21.4898C13.197 16.9688 19.606 13.2678 24.827 13.2678H166.297C171.519 13.2678 177.928 16.9678 180.538 21.4898L186.16 31.2378C188.774 35.7628 188.774 43.1648 186.16 47.6868L180.534 57.4348C177.924 61.9548 171.515 65.6578 166.293 65.6578L24.827 65.6558Z" fill="#F2F6F6"/>
</g>
<g style="mix-blend-mode:multiply" opacity="0.6">
<path d="M25.257 65.1589C20.076 65.1589 13.715 61.4859 11.124 57.0009L5.53798 47.3249C2.94698 42.8389 2.94698 35.4919 5.53798 31.0029L11.121 21.3309C13.712 16.8449 20.073 13.1729 25.254 13.1729H166.313C171.496 13.1729 177.856 16.8449 180.446 21.3309L186.029 31.0029C188.624 35.4929 188.624 42.8389 186.029 47.3249L180.446 57.0009C177.856 61.4859 171.496 65.1589 166.313 65.1589H25.257Z" fill="#F2F6F6"/>
</g>
<g style="mix-blend-mode:multiply" opacity="0.6">
<path d="M25.6893 64.6649C20.5483 64.6649 14.2363 61.0179 11.6643 56.5649L6.12529 46.965C3.55329 42.513 3.55329 35.2239 6.12529 30.7649L11.6643 21.1649C14.2363 16.7129 20.5483 13.0649 25.6893 13.0649H166.329C171.471 13.0649 177.783 16.7099 180.354 21.1649L185.895 30.7649C188.469 35.2209 188.469 42.51 185.895 46.965L180.354 56.5649C177.783 61.0149 171.472 64.6649 166.329 64.6649H25.6893Z" fill="#F2F6F6"/>
</g>
<g style="mix-blend-mode:multiply" opacity="0.6">
<path d="M26.1213 64.17C21.0213 64.17 14.7553 60.551 12.2043 56.135L6.70427 46.609C4.15327 42.191 4.15327 34.958 6.70427 30.536L12.2043 21.014C14.7553 16.596 21.0193 12.98 26.1213 12.98H166.345C171.445 12.98 177.711 16.596 180.262 21.014L185.762 30.536C188.316 34.958 188.316 42.19 185.762 46.609L180.262 56.135C177.711 60.551 171.447 64.17 166.345 64.17H26.1213Z" fill="#F2F6F6"/>
</g>
<g style="mix-blend-mode:multiply" opacity="0.6">
<path d="M26.5529 63.6738C21.4899 63.6738 15.2759 60.0848 12.7449 55.7018L7.28985 46.2508C4.75885 41.8668 4.75885 34.6908 7.28985 30.3038L12.7449 20.8548C15.2759 16.4708 21.4899 12.8838 26.5529 12.8838H166.362C171.424 12.8838 177.64 16.4708 180.169 20.8548L185.623 30.3038C188.157 34.6908 188.157 41.8678 185.623 46.2508L180.174 55.7018C177.645 60.0848 171.429 63.6738 166.367 63.6738H26.5529Z" fill="#F2F6F6"/>
</g>
<g style="mix-blend-mode:multiply" opacity="0.6">
<path d="M26.9843 63.1798C21.9603 63.1798 15.7973 59.6168 13.2843 55.2698L7.87228 45.8928C5.36028 41.5438 5.36028 34.4238 7.87228 30.0708L13.2843 20.6958C15.7973 16.3478 21.9603 12.7888 26.9843 12.7888H166.377C171.4 12.7888 177.565 16.3478 180.077 20.6958L185.489 30.0708C188.003 34.4238 188.003 41.5438 185.489 45.8928L180.077 55.2698C177.565 59.6168 171.399 63.1798 166.377 63.1798H26.9843Z" fill="#F2F6F6"/>
</g>
<g style="mix-blend-mode:multiply" opacity="0.6">
<path d="M27.4152 62.6849C22.4332 62.6849 16.3152 59.1509 13.8242 54.8369L8.45516 45.5369C5.96416 41.2219 5.96416 34.1589 8.45516 29.8369L13.8242 20.5369C16.3162 16.2239 22.4322 12.6919 27.4152 12.6919H166.394C171.377 12.6919 177.494 16.2239 179.986 20.5369L185.355 29.8369C187.848 34.1539 187.848 41.2169 185.355 45.5369L179.986 54.8369C177.495 59.1499 171.378 62.6849 166.394 62.6849H27.4152Z" fill="#F2F6F6"/>
</g>
<g style="mix-blend-mode:multiply" opacity="0.6">
<path d="M27.8463 62.1889C22.9043 62.1889 16.8363 58.6839 14.3633 54.4049L9.03734 45.1769C7.81855 42.7626 7.18359 40.0959 7.18359 37.3914C7.18359 34.6869 7.81855 32.0202 9.03734 29.6059L14.3633 20.3789C15.8449 18.1171 17.8367 16.2346 20.1785 14.8829C22.5203 13.5313 25.1467 12.7483 27.8463 12.5969H166.409C169.109 12.7483 171.735 13.5313 174.076 14.883C176.418 16.2346 178.409 18.1171 179.89 20.3789L185.216 29.6059C186.436 32.02 187.071 34.6868 187.071 37.3914C187.071 40.096 186.436 42.7628 185.216 45.1769L179.89 54.4049C177.418 58.6839 171.351 62.1889 166.409 62.1889H27.8463Z" fill="#F2F6F6"/>
</g>
<g style="mix-blend-mode:multiply" opacity="0.6">
<path d="M28.2793 61.694C25.6012 61.5434 22.9959 60.7663 20.673 59.4251C18.3501 58.0839 16.3745 56.2161 14.9053 53.972L9.62125 44.818C8.41276 42.4231 7.7832 39.778 7.7832 37.0955C7.7832 34.413 8.41276 31.7679 9.62125 29.373L14.9053 20.221C16.3746 17.9772 18.3503 16.1097 20.6732 14.7688C22.9961 13.4279 25.6013 12.6511 28.2793 12.501H166.426C169.104 12.6512 171.709 13.428 174.032 14.7689C176.355 16.1098 178.331 17.9772 179.8 20.221L185.083 29.373C186.293 31.7675 186.923 34.4127 186.923 37.0955C186.923 39.7782 186.293 42.4234 185.083 44.818L179.8 53.972C178.331 56.216 176.355 58.0837 174.032 59.4249C171.71 60.7661 169.104 61.5433 166.426 61.694H28.2793Z" fill="#F2F6F6"/>
</g>
<g style="mix-blend-mode:multiply" opacity="0.6">
<path d="M28.7094 61.1988C26.0535 61.049 23.4697 60.2779 21.166 58.9477C18.8623 57.6175 16.9029 55.7652 15.4454 53.5398L10.2044 44.4598C9.00547 42.0843 8.38086 39.4606 8.38086 36.7998C8.38086 34.1389 9.00547 31.5152 10.2044 29.1398L15.4454 20.0628C16.9025 17.8371 18.8618 15.9846 21.1656 14.6545C23.4694 13.3244 26.0534 12.5538 28.7094 12.4048H166.442C169.099 12.5535 171.683 13.3239 173.987 14.654C176.292 15.9842 178.251 17.8368 179.708 20.0628L184.948 29.1398C186.148 31.5149 186.774 34.1387 186.774 36.7998C186.774 39.4608 186.148 42.0847 184.948 44.4598L179.708 53.5398C178.251 55.7654 176.291 57.6179 173.987 58.9481C171.683 60.2784 169.099 61.0493 166.442 61.1988H28.7094Z" fill="#F2F6F6"/>
</g>
<g style="mix-blend-mode:multiply" opacity="0.6">
<path d="M29.1445 60.704C26.5098 60.5568 23.9465 59.7932 21.6608 58.4746C19.3751 57.1559 17.4308 55.3191 15.9845 53.112L10.7845 44.105C9.59581 41.7494 8.97656 39.1476 8.97656 36.509C8.97656 33.8704 9.59581 31.2687 10.7845 28.913L15.9845 19.913C17.4297 17.7041 19.3735 15.8655 21.6593 14.5452C23.9451 13.225 26.509 12.4601 29.1445 12.312H166.46C169.094 12.4595 171.657 13.2235 173.942 14.5425C176.227 15.8615 178.17 17.6987 179.616 19.906L184.816 28.906C186.005 31.2614 186.625 33.8632 186.625 36.502C186.625 39.1408 186.005 41.7427 184.816 44.098L179.615 53.112C178.17 55.3204 176.227 57.1586 173.942 58.4787C171.656 59.7987 169.093 60.5637 166.459 60.712L29.1445 60.704Z" fill="#F2F6F6"/>
</g>
<g style="mix-blend-mode:multiply" opacity="0.6">
<path d="M29.5723 60.2089C26.9597 60.0619 24.418 59.3036 22.1519 57.995C19.8859 56.6865 17.9586 54.8642 16.5253 52.6749L11.3693 43.7439C10.1897 41.4075 9.5752 38.8267 9.5752 36.2094C9.5752 33.5921 10.1897 31.0113 11.3693 28.6749L16.5253 19.7449C17.9587 17.5558 19.886 15.7338 22.1521 14.4256C24.4182 13.1173 26.9598 12.3595 29.5723 12.2129H166.472C169.085 12.359 171.628 13.1167 173.895 14.4249C176.161 15.7331 178.089 17.5554 179.523 19.7449L184.679 28.6749C185.859 31.0113 186.473 33.5921 186.473 36.2094C186.473 38.8267 185.859 41.4075 184.679 43.7439L179.523 52.6749C178.09 54.8644 176.162 56.6867 173.896 57.9952C171.629 59.3038 169.087 60.062 166.474 60.2089H29.5723Z" fill="#F2F6F6"/>
</g>
<g style="mix-blend-mode:multiply" opacity="0.6">
<path d="M30.0024 59.7129C27.4114 59.5672 24.8908 58.8153 22.6435 57.5177C20.3962 56.2201 18.4848 54.413 17.0634 52.2419L11.9514 43.3849C10.782 41.0681 10.1729 38.5091 10.1729 35.9139C10.1729 33.3187 10.782 30.7598 11.9514 28.4429L17.0634 19.5869C18.4851 17.4162 20.3965 15.6095 22.6438 14.3122C24.8911 13.015 27.4116 12.2634 30.0024 12.1179H166.491C169.082 12.2631 171.603 13.0146 173.85 14.3119C176.097 15.6092 178.009 17.416 179.43 19.5869L184.545 28.4429C185.715 30.7598 186.324 33.3187 186.324 35.9139C186.324 38.5091 185.715 41.0681 184.545 43.3849L179.43 52.2419C178.009 54.4132 176.098 56.2205 173.85 57.5181C171.603 58.8158 169.082 59.5675 166.491 59.7129H30.0024Z" fill="#F2F6F6"/>
</g>
<g style="mix-blend-mode:multiply" opacity="0.6">
<path d="M30.4344 59.218C27.8652 59.0735 25.3658 58.3278 23.1373 57.041C20.9089 55.7541 19.0138 53.962 17.6044 51.809L12.5334 43.027C11.3737 40.7296 10.7695 38.192 10.7695 35.6185C10.7695 33.0449 11.3737 30.5074 12.5334 28.21L17.6044 19.429C19.0139 17.2762 20.9091 15.4844 23.1375 14.1979C25.3659 12.9114 27.8653 12.1661 30.4344 12.022H166.508C169.078 12.1661 171.577 12.9114 173.806 14.1979C176.034 15.4844 177.93 17.2761 179.339 19.429L184.41 28.21C185.57 30.5075 186.173 33.045 186.173 35.6185C186.173 38.1919 185.57 40.7294 184.41 43.027L179.339 51.809C177.93 53.9621 176.035 55.7542 173.806 57.041C171.577 58.3279 169.078 59.0735 166.508 59.218H30.4344Z" fill="#F2F6F6"/>
</g>
<g style="mix-blend-mode:multiply" opacity="0.6">
<path d="M30.8671 58.7228C28.3195 58.5794 25.8411 57.8399 23.6314 56.5638C21.4218 55.2877 19.5426 53.5107 18.1451 51.3758L13.1181 42.6668C11.9682 40.3889 11.3691 37.8729 11.3691 35.3213C11.3691 32.7696 11.9682 30.2536 13.1181 27.9758L18.1451 19.2688C19.543 17.1346 21.4224 15.3583 23.632 14.083C25.8417 12.8076 28.3198 12.0687 30.8671 11.9258H166.523C169.071 12.0684 171.549 12.8072 173.759 14.0825C175.969 15.3579 177.849 17.1343 179.247 19.2688L184.274 27.9758C185.424 30.2536 186.023 32.7696 186.023 35.3213C186.023 37.8729 185.424 40.3889 184.274 42.6668L179.247 51.3758C177.849 53.511 175.97 55.2882 173.76 56.5643C171.55 57.8404 169.071 58.5797 166.523 58.7228H30.8671Z" fill="#F2F6F6"/>
</g>
<g style="mix-blend-mode:multiply" opacity="0.6">
<path d="M31.2976 58.2278C28.7719 58.0858 26.3148 57.3528 24.124 56.0879C21.9333 54.8229 20.0702 53.0613 18.6846 50.9448L13.6996 42.3108C12.5597 40.0521 11.9658 37.5574 11.9658 35.0273C11.9658 32.4973 12.5597 30.0026 13.6996 27.7438L18.6846 19.1108C20.0702 16.9946 21.9334 15.2332 24.1242 13.9686C26.3149 12.704 28.772 11.9714 31.2976 11.8298H166.537C169.063 11.9712 171.52 12.7036 173.711 13.9682C175.903 15.2329 177.766 16.9943 179.153 19.1108L184.138 27.7438C185.277 30.0026 185.871 32.4973 185.871 35.0273C185.871 37.5574 185.277 40.0521 184.138 42.3108L179.153 50.9448C177.767 53.0616 175.903 54.8233 173.712 56.0883C171.52 57.3533 169.063 58.0861 166.537 58.2278H31.2976Z" fill="#F2F6F6"/>
</g>
<g style="mix-blend-mode:multiply" opacity="0.6">
<path d="M31.7303 57.7358C29.2261 57.5952 26.79 56.8686 24.618 55.6144C22.4459 54.3601 20.5988 52.6134 19.2253 50.5148L14.2833 41.9548C13.1532 39.7158 12.5645 37.2428 12.5645 34.7348C12.5645 32.2268 13.1532 29.7538 14.2833 27.5148L19.2253 18.9568C20.5991 16.8586 22.4463 15.1123 24.6183 13.8584C26.7903 12.6046 29.2263 11.8782 31.7303 11.7378H166.556C169.06 11.878 171.496 12.6044 173.668 13.8582C175.84 15.1121 177.688 16.8585 179.061 18.9568L184.004 27.5148C185.134 29.7539 185.722 32.2269 185.722 34.7348C185.722 37.2427 185.134 39.7157 184.004 41.9548L179.061 50.5148C177.688 52.6135 175.841 54.3602 173.669 55.6145C171.497 56.8687 169.061 57.5953 166.556 57.7358H31.7303Z" fill="#F2F6F6"/>
</g>
<g style="mix-blend-mode:multiply" opacity="0.6">
<path d="M32.1598 57.2379C29.6767 57.099 27.261 56.3787 25.1072 55.1353C22.9534 53.8918 21.1217 52.1598 19.7598 50.0789L14.8598 41.5939C13.7397 39.3742 13.1562 36.9227 13.1562 34.4364C13.1562 31.9502 13.7397 29.4986 14.8598 27.2789L19.7598 18.7949C21.122 16.7145 22.9538 14.9831 25.1076 13.7401C27.2614 12.4972 29.677 11.7775 32.1598 11.6389H166.571C169.054 11.7777 171.469 12.4975 173.623 13.7404C175.777 14.9834 177.608 16.7146 178.971 18.7949L183.871 27.2789C184.99 29.4989 185.573 31.9503 185.573 34.4364C185.573 36.9225 184.99 39.374 183.871 41.5939L178.971 50.0789C177.609 52.1597 175.777 53.8916 173.623 55.1351C171.47 56.3785 169.054 57.0988 166.571 57.2379H32.1598Z" fill="#F2F6F6"/>
</g>
<g style="mix-blend-mode:multiply" opacity="0.6">
<path d="M32.5925 56.7428C30.1314 56.6039 27.7374 55.889 25.6031 54.6558C23.4689 53.4226 21.6539 51.7056 20.3045 49.6429L15.4485 41.2309C14.3382 39.0307 13.7598 36.6007 13.7598 34.1364C13.7598 31.672 14.3382 29.242 15.4485 27.0419L20.3045 18.6319C21.6545 16.5701 23.4697 14.8542 25.6039 13.622C27.7382 12.3899 30.1319 11.676 32.5925 11.5378H166.592C169.053 11.6758 171.447 12.3895 173.582 13.6217C175.717 14.8538 177.532 16.5699 178.882 18.6319L183.74 27.0419C184.85 29.2421 185.428 31.6721 185.428 34.1364C185.428 36.6006 184.85 39.0306 183.74 41.2309L178.882 49.6429C177.533 51.7058 175.717 53.423 173.583 54.6561C171.448 55.8893 169.054 56.6041 166.592 56.7428H32.5925Z" fill="#F2F6F6"/>
</g>
<g style="mix-blend-mode:multiply" opacity="0.6">
<path d="M33.0225 56.2468C30.5834 56.1097 28.2106 55.4017 26.0952 54.1797C23.9798 52.9578 22.1809 51.2562 20.8435 49.2118L16.0305 40.8758C14.9298 38.6951 14.3564 36.2865 14.3564 33.8438C14.3564 31.4011 14.9298 28.9925 16.0305 26.8118L20.8435 18.4748C22.1815 16.4314 23.9806 14.7307 26.096 13.5097C28.2113 12.2886 30.5839 11.5814 33.0225 11.4448H166.604C169.042 11.5815 171.415 12.2889 173.531 13.5099C175.646 14.7309 177.446 16.4315 178.785 18.4748L183.599 26.8118C184.699 28.9927 185.272 31.4012 185.272 33.8438C185.272 36.2864 184.699 38.695 183.599 40.8758L178.785 49.2118C177.447 51.2564 175.648 52.9583 173.532 54.1802C171.416 55.4021 169.043 56.11 166.604 56.2468H33.0225Z" fill="#F2F6F6"/>
</g>
<g style="mix-blend-mode:multiply" opacity="0.6">
<path d="M33.4537 55.7528C31.0367 55.6166 28.6853 54.9149 26.5889 53.7041C24.4925 52.4934 22.7096 50.8074 21.3837 48.7818L16.6137 40.5198C15.5232 38.3582 14.9551 35.9709 14.9551 33.5498C14.9551 31.1287 15.5232 28.7414 16.6137 26.5798L21.3837 18.3188C22.7097 16.2936 24.4927 14.608 26.5891 13.3978C28.6855 12.1875 31.0368 11.4864 33.4537 11.3508H166.62C169.037 11.486 171.389 12.1869 173.486 13.3972C175.584 14.6075 177.367 16.2933 178.694 18.3188L183.466 26.5798C184.555 28.7417 185.123 31.1289 185.123 33.5498C185.123 35.9707 184.555 38.3579 183.466 40.5198L178.694 48.7818C177.367 50.8078 175.584 52.494 173.487 53.7048C171.39 54.9156 169.037 55.6171 166.62 55.7528H33.4537Z" fill="#F2F6F6"/>
</g>
<g style="mix-blend-mode:multiply" opacity="0.6">
<path d="M33.8857 55.2568C31.4901 55.1222 29.1596 54.4269 27.0819 53.2268C25.0042 52.0268 23.2373 50.3556 21.9237 48.3478L17.1957 40.1598C16.1148 38.0179 15.5518 35.6523 15.5518 33.2533C15.5518 30.8542 16.1148 28.4886 17.1957 26.3468L21.9237 18.1598C23.2383 16.1536 25.0055 14.4841 27.0832 13.2856C29.1608 12.0872 31.4909 11.3933 33.8857 11.2598H166.637C169.032 11.3933 171.362 12.0872 173.44 13.2856C175.518 14.484 177.286 16.1535 178.601 18.1598L183.329 26.3468C184.409 28.4887 184.972 30.8543 184.972 33.2533C184.972 35.6523 184.409 38.0178 183.329 40.1598L178.601 48.3478C177.287 50.3555 175.519 52.0267 173.441 53.2267C171.363 54.4267 169.033 55.1221 166.637 55.2568H33.8857Z" fill="#F2F6F6"/>
</g>
<g style="mix-blend-mode:multiply" opacity="0.6">
<path d="M34.3184 54.7609C31.9444 54.6275 29.635 53.9384 27.576 52.7491C25.5171 51.5598 23.7662 49.9036 22.4644 47.9139L17.7804 39.8009C16.7093 37.6786 16.1514 35.3346 16.1514 32.9574C16.1514 30.5802 16.7093 28.2362 17.7804 26.1139L22.4644 18.0009C23.7669 16.0123 25.518 14.3573 27.5769 13.1691C29.6358 11.9809 31.945 11.2927 34.3184 11.1599H166.653C169.027 11.2928 171.336 11.9811 173.395 13.1693C175.454 14.3575 177.206 16.0124 178.508 18.0009L183.194 26.1139C184.265 28.2364 184.822 30.5804 184.822 32.9574C184.822 35.3345 184.265 37.6784 183.194 39.8009L178.508 47.9139C177.206 49.9035 175.455 51.5596 173.396 52.7489C171.337 53.9381 169.027 54.6273 166.653 54.7609H34.3184Z" fill="#F2F6F6"/>
</g>
<g style="mix-blend-mode:multiply" opacity="0.6">
<path d="M34.7486 54.2659C32.3965 54.1339 30.1083 53.4513 28.0684 52.2729C26.0285 51.0946 24.294 49.4535 23.0046 47.4819L18.3646 39.4479C17.303 37.3451 16.75 35.0224 16.75 32.6669C16.75 30.3113 17.303 27.9887 18.3646 25.8859L23.0076 17.8459C24.2978 15.8755 26.0327 14.2356 28.0725 13.0582C30.1123 11.8807 32.4 11.1987 34.7516 11.0669H166.665C169.017 11.1984 171.305 11.8803 173.345 13.0577C175.386 14.2351 177.121 15.8752 178.412 17.8459L183.057 25.8859C184.116 27.9892 184.668 30.3116 184.668 32.6669C184.668 35.0221 184.116 37.3446 183.057 39.4479L178.412 47.4869C177.121 49.4578 175.386 51.098 173.345 52.2755C171.305 53.4529 169.017 54.1347 166.665 54.2659H34.7486Z" fill="#F2F6F6"/>
</g>
<g style="mix-blend-mode:multiply" opacity="0.6">
<path d="M35.1796 53.7718C32.8493 53.641 30.5824 52.9647 28.5615 51.7973C26.5405 50.6298 24.822 49.004 23.5446 47.0508L18.9446 39.0858C17.8933 37.0024 17.3457 34.7014 17.3457 32.3678C17.3457 30.0342 17.8933 27.7332 18.9446 25.6498L23.5446 17.6848C24.8225 15.7323 26.5411 14.1072 28.5621 12.9405C30.583 11.7738 32.8497 11.0981 35.1796 10.9678H166.685C169.015 11.0983 171.282 11.7741 173.303 12.9408C175.324 14.1075 177.043 15.7324 178.322 17.6848L182.922 25.6498C183.972 27.7335 184.519 30.0344 184.519 32.3678C184.519 34.7012 183.972 37.0021 182.922 39.0858L178.322 47.0508C177.044 49.0039 175.325 50.6296 173.303 51.797C171.282 52.9643 169.015 53.6408 166.685 53.7718H35.1796Z" fill="#F2F6F6"/>
</g>
<g style="mix-blend-mode:multiply" opacity="0.6">
<path d="M35.6109 53.2769C33.3024 53.1474 31.0565 52.4774 29.0543 51.321C27.0521 50.1645 25.3496 48.5539 24.0839 46.6189L19.5219 38.7229C18.4808 36.6588 17.9385 34.3792 17.9385 32.0674C17.9385 29.7556 18.4808 27.476 19.5219 25.4119L24.0789 17.5219C25.3451 15.5877 27.0478 13.9779 29.05 12.8222C31.0521 11.6664 33.2977 10.9971 35.6059 10.8679H166.696C169.005 10.9964 171.252 11.6656 173.256 12.8215C175.259 13.9775 176.963 15.5879 178.23 17.5229L182.789 25.4129C183.829 27.4774 184.371 29.7568 184.371 32.0684C184.371 34.38 183.829 36.6595 182.789 38.7239L178.23 46.6149C176.964 48.5499 175.261 50.1605 173.258 51.317C171.256 52.4734 169.01 53.1434 166.701 53.2729L35.6109 53.2769Z" fill="#F2F6F6"/>
</g>
</g>
<g filter="url(#filter0_d)">
<path d="M23.6425 61.151L6.85645 32.076L23.6425 3H182.214L198.999 32.076L182.214 61.151H23.6425Z" fill="#F2F6F6"/>
</g>
<path d="M182.208 3H23.637L23.165 3.81799H181.208L197.432 32.118L180.225 61.154H182.208L198.993 32.079L182.208 3Z" fill="#F2F6F6"/>
<path d="M52.735 27.01C53.505 27.01 54.075 26.85 54.445 26.53C54.815 26.2 55 25.77 55 25.24C55 24.66 54.81 24.23 54.43 23.95C54.05 23.67 53.54 23.53 52.9 23.53H51.475V22.45H52.9C53.43 22.45 53.865 22.305 54.205 22.015C54.545 21.715 54.715 21.28 54.715 20.71C54.715 20.25 54.545 19.89 54.205 19.63C53.875 19.37 53.315 19.24 52.525 19.24C52.055 19.24 51.635 19.285 51.265 19.375C50.895 19.465 50.565 19.58 50.275 19.72L49.945 18.67C50.265 18.51 50.655 18.375 51.115 18.265C51.575 18.155 52.07 18.1 52.6 18.1C53.2 18.1 53.71 18.17 54.13 18.31C54.56 18.44 54.91 18.625 55.18 18.865C55.46 19.095 55.66 19.37 55.78 19.69C55.91 20 55.975 20.335 55.975 20.695C55.975 21.315 55.835 21.795 55.555 22.135C55.285 22.475 54.94 22.74 54.52 22.93C55.03 23.07 55.445 23.335 55.765 23.725C56.095 24.115 56.26 24.625 56.26 25.255C56.26 26.135 55.955 26.84 55.345 27.37C54.745 27.89 53.88 28.15 52.75 28.15C52.15 28.15 51.61 28.095 51.13 27.985C50.66 27.865 50.26 27.72 49.93 27.55L50.26 26.5C50.55 26.64 50.905 26.76 51.325 26.86C51.755 26.96 52.225 27.01 52.735 27.01ZM58.484 27.25C58.484 27 58.564 26.79 58.724 26.62C58.884 26.44 59.109 26.35 59.399 26.35C59.689 26.35 59.914 26.44 60.074 26.62C60.234 26.79 60.314 27 60.314 27.25C60.314 27.5 60.234 27.715 60.074 27.895C59.914 28.065 59.689 28.15 59.399 28.15C59.109 28.15 58.884 28.065 58.724 27.895C58.564 27.715 58.484 27.5 58.484 27.25ZM64.5918 27.055C65.2718 27.055 65.7868 26.925 66.1368 26.665C66.4868 26.395 66.6618 26.09 66.6618 25.75C66.6618 25.54 66.5968 25.355 66.4668 25.195C66.3468 25.035 66.1818 24.895 65.9718 24.775C65.7718 24.645 65.5418 24.535 65.2818 24.445C65.0318 24.355 64.7768 24.27 64.5168 24.19C64.1368 24.08 63.7818 23.96 63.4518 23.83C63.1318 23.69 62.8518 23.525 62.6118 23.335C62.3818 23.135 62.2018 22.905 62.0718 22.645C61.9418 22.375 61.8768 22.055 61.8768 21.685C61.8768 20.975 62.1568 20.425 62.7168 20.035C63.2868 19.645 64.0568 19.45 65.0268 19.45C65.4968 19.45 65.9568 19.5 66.4068 19.6C66.8568 19.69 67.2568 19.825 67.6068 20.005L67.2768 21.025C66.6668 20.705 65.9568 20.545 65.1468 20.545C64.5168 20.545 64.0218 20.655 63.6618 20.875C63.3118 21.095 63.1368 21.365 63.1368 21.685C63.1368 21.865 63.1868 22.025 63.2868 22.165C63.3868 22.305 63.5218 22.43 63.6918 22.54C63.8618 22.64 64.0568 22.735 64.2768 22.825C64.4968 22.905 64.7318 22.985 64.9818 23.065C65.4518 23.215 65.8668 23.375 66.2268 23.545C66.5968 23.705 66.9068 23.89 67.1568 24.1C67.4068 24.31 67.5968 24.55 67.7268 24.82C67.8568 25.09 67.9218 25.41 67.9218 25.78C67.9218 26.49 67.6518 27.065 67.1118 27.505C66.5818 27.935 65.7618 28.15 64.6518 28.15C64.1018 28.15 63.5918 28.1 63.1218 28C62.6618 27.9 62.2718 27.755 61.9518 27.565L62.2668 26.56C62.5768 26.71 62.9318 26.83 63.3318 26.92C63.7318 27.01 64.1518 27.055 64.5918 27.055ZM73.3093 28V22.585C73.3093 21.235 72.7143 20.56 71.5243 20.56C71.0443 20.56 70.5943 20.65 70.1743 20.83C69.7543 21 69.3993 21.205 69.1093 21.445L68.7643 20.47C68.9143 20.34 69.0943 20.215 69.3043 20.095C69.5243 19.965 69.7593 19.855 70.0093 19.765C70.2693 19.665 70.5343 19.59 70.8043 19.54C71.0843 19.48 71.3643 19.45 71.6443 19.45C72.6243 19.45 73.3593 19.73 73.8493 20.29C74.3493 20.84 74.5993 21.625 74.5993 22.645V28H73.3093ZM82.0038 19.6H83.2937V24.865C83.2937 25.355 83.2288 25.805 83.0988 26.215C82.9688 26.615 82.7588 26.96 82.4688 27.25C82.1888 27.53 81.8238 27.75 81.3738 27.91C80.9338 28.07 80.3938 28.15 79.7538 28.15C78.6938 28.15 77.8688 27.915 77.2788 27.445C76.6988 26.975 76.4088 26.305 76.4088 25.435C76.4088 24.935 76.5338 24.51 76.7838 24.16C77.0338 23.8 77.3738 23.55 77.8038 23.41C77.4238 23.31 77.0938 23.1 76.8138 22.78C76.5438 22.46 76.4088 22.015 76.4088 21.445C76.4088 20.885 76.5988 20.425 76.9788 20.065C77.3588 19.695 77.8838 19.51 78.5538 19.51C78.8338 19.51 79.0838 19.535 79.3038 19.585C79.5238 19.635 79.7138 19.695 79.8738 19.765L79.7238 20.845C79.6238 20.795 79.4838 20.745 79.3038 20.695C79.1338 20.645 78.9538 20.62 78.7638 20.62C78.3938 20.62 78.1138 20.715 77.9237 20.905C77.7438 21.085 77.6538 21.32 77.6538 21.61C77.6538 21.81 77.6938 21.985 77.7738 22.135C77.8638 22.275 77.9738 22.4 78.1038 22.51C78.2338 22.61 78.3788 22.685 78.5388 22.735C78.6988 22.785 78.8588 22.81 79.0188 22.81H80.2938L80.3988 23.92H79.2138C78.7738 23.92 78.4038 24.05 78.1038 24.31C77.8138 24.57 77.6688 24.92 77.6688 25.36C77.6688 25.63 77.7238 25.87 77.8338 26.08C77.9538 26.29 78.1088 26.47 78.2988 26.62C78.4988 26.76 78.7238 26.865 78.9738 26.935C79.2338 27.005 79.5038 27.04 79.7838 27.04C80.5338 27.04 81.0888 26.855 81.4488 26.485C81.8188 26.105 82.0038 25.56 82.0038 24.85V19.6ZM85.9799 28V17.995C85.9799 17.385 86.0799 16.855 86.2799 16.405C86.4899 15.955 86.7749 15.57 87.1349 15.25H83.4299V14.185H88.7849V15.085C88.3049 15.305 87.9299 15.635 87.6599 16.075C87.3999 16.505 87.2699 17.05 87.2699 17.71V28H85.9799ZM95.4961 28V23.005C95.4961 22.655 95.4511 22.33 95.3611 22.03C95.2811 21.73 95.1511 21.475 94.9711 21.265C94.7911 21.045 94.5611 20.875 94.2811 20.755C94.0111 20.625 93.6861 20.56 93.3061 20.56C92.4161 20.56 91.7361 20.855 91.2661 21.445C90.8061 22.025 90.5761 22.84 90.5761 23.89C90.5761 24.47 90.6411 24.96 90.7711 25.36C90.9111 25.75 91.0861 26.065 91.2961 26.305C91.5161 26.545 91.7561 26.72 92.0161 26.83C92.2761 26.93 92.5361 26.98 92.7961 26.98C93.0061 26.98 93.1861 26.965 93.3361 26.935C93.4961 26.905 93.6561 26.86 93.8161 26.8L94.0561 27.82C93.8861 27.9 93.6861 27.965 93.4561 28.015C93.2261 28.065 92.9861 28.09 92.7361 28.09C92.2861 28.09 91.8511 28.005 91.4311 27.835C91.0111 27.665 90.6411 27.41 90.3211 27.07C90.0111 26.72 89.7611 26.285 89.5711 25.765C89.3811 25.235 89.2861 24.61 89.2861 23.89C89.2861 23.26 89.3661 22.675 89.5261 22.135C89.6961 21.595 89.9461 21.13 90.2761 20.74C90.6061 20.34 91.0211 20.025 91.5211 19.795C92.0211 19.565 92.6061 19.45 93.2761 19.45C93.8861 19.45 94.4111 19.545 94.8511 19.735C95.2911 19.925 95.6511 20.185 95.9311 20.515C96.2211 20.845 96.4361 21.225 96.5761 21.655C96.7161 22.085 96.7861 22.54 96.7861 23.02V28H95.4961ZM95.0461 18.46C94.8761 18.46 94.7261 18.4 94.5961 18.28C94.4661 18.16 94.4011 18 94.4011 17.8V17.38C94.4011 17.27 94.3861 17.195 94.3561 17.155C94.3261 17.105 94.2511 17.08 94.1311 17.08H93.3361V16.03H94.5661C94.8461 16.03 95.0711 16.09 95.2411 16.21C95.4011 16.33 95.4811 16.52 95.4811 16.78V17.155C95.4811 17.235 95.5011 17.3 95.5411 17.35C95.5711 17.39 95.6411 17.41 95.7511 17.41H97.7761V18.46H95.0461ZM99.0811 28V19.6H100.371V28H99.0811ZM107.769 28V23.95H105.669C104.959 23.95 104.399 24.09 103.989 24.37C103.579 24.64 103.374 25.06 103.374 25.63C103.374 26.12 103.519 26.485 103.809 26.725C104.099 26.955 104.464 27.07 104.904 27.07C105.114 27.07 105.334 27.05 105.564 27.01C105.804 26.96 106.014 26.895 106.194 26.815L106.404 27.88C106.184 27.96 105.929 28.025 105.639 28.075C105.349 28.125 105.059 28.15 104.769 28.15C104.389 28.15 104.034 28.1 103.704 28C103.384 27.89 103.104 27.735 102.864 27.535C102.624 27.325 102.434 27.065 102.294 26.755C102.154 26.435 102.084 26.065 102.084 25.645C102.084 24.765 102.394 24.08 103.014 23.59C103.634 23.09 104.569 22.84 105.819 22.84H107.769V22.645C107.769 22.335 107.734 22.05 107.664 21.79C107.594 21.53 107.474 21.305 107.304 21.115C107.144 20.925 106.929 20.78 106.659 20.68C106.399 20.58 106.079 20.53 105.699 20.53C105.089 20.53 104.539 20.615 104.049 20.785C103.569 20.955 103.149 21.165 102.789 21.415L102.369 20.5C102.529 20.37 102.729 20.24 102.969 20.11C103.219 19.98 103.489 19.87 103.779 19.78C104.079 19.68 104.394 19.6 104.724 19.54C105.054 19.48 105.379 19.45 105.699 19.45C106.339 19.45 106.904 19.56 107.394 19.78L108.039 19.015H109.509L108.324 20.44C108.574 20.71 108.759 21.03 108.879 21.4C108.999 21.77 109.059 22.18 109.059 22.63V28H107.769ZM113.562 27.055C114.242 27.055 114.757 26.925 115.107 26.665C115.457 26.395 115.632 26.09 115.632 25.75C115.632 25.54 115.567 25.355 115.437 25.195C115.317 25.035 115.152 24.895 114.942 24.775C114.742 24.645 114.512 24.535 114.252 24.445C114.002 24.355 113.747 24.27 113.487 24.19C113.107 24.08 112.752 23.96 112.422 23.83C112.102 23.69 111.822 23.525 111.582 23.335C111.352 23.135 111.172 22.905 111.042 22.645C110.912 22.375 110.847 22.055 110.847 21.685C110.847 20.975 111.127 20.425 111.687 20.035C112.257 19.645 113.027 19.45 113.997 19.45C114.467 19.45 114.927 19.5 115.377 19.6C115.827 19.69 116.227 19.825 116.577 20.005L116.247 21.025C115.637 20.705 114.927 20.545 114.117 20.545C113.487 20.545 112.992 20.655 112.632 20.875C112.282 21.095 112.107 21.365 112.107 21.685C112.107 21.865 112.157 22.025 112.257 22.165C112.357 22.305 112.492 22.43 112.662 22.54C112.832 22.64 113.027 22.735 113.247 22.825C113.467 22.905 113.702 22.985 113.952 23.065C114.422 23.215 114.837 23.375 115.197 23.545C115.567 23.705 115.877 23.89 116.127 24.1C116.377 24.31 116.567 24.55 116.697 24.82C116.827 25.09 116.892 25.41 116.892 25.78C116.892 26.49 116.622 27.065 116.082 27.505C115.552 27.935 114.732 28.15 113.622 28.15C113.072 28.15 112.562 28.1 112.092 28C111.632 27.9 111.242 27.755 110.922 27.565L111.237 26.56C111.547 26.71 111.902 26.83 112.302 26.92C112.702 27.01 113.122 27.055 113.562 27.055ZM110.024 18.46V17.41H116.459V18.46H110.024ZM124.259 19.6H125.549V24.865C125.549 25.875 125.309 26.675 124.829 27.265C124.349 27.855 123.614 28.15 122.624 28.15C122.024 28.15 121.514 28.025 121.094 27.775C120.674 27.525 120.319 27.19 120.029 26.77L119.954 28H118.739V19.6H120.029V25.33C120.129 25.56 120.264 25.78 120.434 25.99C120.614 26.19 120.814 26.37 121.034 26.53C121.254 26.69 121.484 26.815 121.724 26.905C121.974 26.995 122.224 27.04 122.474 27.04C123.104 27.04 123.559 26.855 123.839 26.485C124.119 26.105 124.259 25.56 124.259 24.85V19.6ZM127.551 26.29C127.911 26.51 128.291 26.69 128.691 26.83C129.101 26.97 129.546 27.04 130.026 27.04C130.786 27.04 131.391 26.78 131.841 26.26C132.301 25.74 132.531 24.94 132.531 23.86C132.531 22.72 132.311 21.885 131.871 21.355C131.441 20.825 130.826 20.56 130.026 20.56C129.496 20.56 129.041 20.63 128.661 20.77C128.281 20.9 127.901 21.09 127.521 21.34L127.221 20.305C127.621 20.045 128.071 19.84 128.571 19.69C129.081 19.53 129.601 19.45 130.131 19.45C131.341 19.45 132.256 19.83 132.876 20.59C133.506 21.34 133.821 22.39 133.821 23.74C133.821 25.18 133.486 26.275 132.816 27.025C132.156 27.775 131.216 28.15 129.996 28.15C129.426 28.15 128.921 28.08 128.481 27.94C128.041 27.8 127.626 27.6 127.236 27.34L127.551 26.29ZM131.786 18.46C130.776 18.46 130.271 18.01 130.271 17.11V16.51H131.501V16.96C131.501 17.26 131.641 17.41 131.921 17.41H135.461V18.46H131.786ZM136.991 25C136.991 25.71 137.131 26.23 137.411 26.56C137.691 26.88 138.146 27.04 138.776 27.04C139.026 27.04 139.271 26.995 139.511 26.905C139.761 26.815 139.996 26.69 140.216 26.53C140.436 26.37 140.631 26.19 140.801 25.99C140.971 25.78 141.111 25.56 141.221 25.33V19.6H142.511V28H141.296L141.221 26.77C140.931 27.19 140.571 27.525 140.141 27.775C139.711 28.025 139.156 28.15 138.476 28.15C137.556 28.15 136.861 27.885 136.391 27.355C135.931 26.815 135.701 26.035 135.701 25.015V19.6H136.991V25ZM146.088 25C146.088 25.71 146.228 26.23 146.508 26.56C146.788 26.88 147.243 27.04 147.873 27.04C148.123 27.04 148.368 26.995 148.608 26.905C148.858 26.815 149.093 26.69 149.313 26.53C149.533 26.37 149.728 26.19 149.898 25.99C150.068 25.78 150.208 25.56 150.318 25.33V19.6H151.608V28H150.393L150.318 26.77C150.028 27.19 149.668 27.525 149.238 27.775C148.808 28.025 148.253 28.15 147.573 28.15C146.653 28.15 145.958 27.885 145.488 27.355C145.028 26.815 144.798 26.035 144.798 25.015V19.6H146.088V25ZM145.21 18.46V17.41H150.43V16.03H151.645V18.46H145.21ZM150.34 15.295C150.17 15.295 150.025 15.24 149.905 15.13C149.775 15.02 149.71 14.875 149.71 14.695V14.305C149.71 14.225 149.7 14.165 149.68 14.125C149.66 14.085 149.605 14.065 149.515 14.065H148.75V13.015H149.965C150.225 13.015 150.43 13.075 150.58 13.195C150.73 13.305 150.805 13.48 150.805 13.72V14.05C150.805 14.19 150.875 14.26 151.015 14.26H153.04V15.295H150.34Z" fill="#EE5B47"/>
<path d="M60.944 45.036C60.856 45.036 60.78 45.068 60.716 45.132C60.66 45.188 60.632 45.272 60.632 45.384V45.708C60.632 46.236 60.78 46.624 61.076 46.872C61.372 47.112 61.824 47.232 62.432 47.232C63.072 47.232 63.572 47.028 63.932 46.62C64.292 46.204 64.472 45.532 64.472 44.604C64.472 43.78 64.292 43.148 63.932 42.708C63.572 42.268 63.068 42.048 62.42 42.048C61.892 42.048 61.424 42.124 61.016 42.276C60.616 42.42 60.264 42.608 59.96 42.84L59.624 42.072C59.76 41.96 59.928 41.852 60.128 41.748C60.328 41.636 60.548 41.536 60.788 41.448C61.028 41.36 61.284 41.292 61.556 41.244C61.836 41.188 62.124 41.16 62.42 41.16C63.428 41.16 64.192 41.472 64.712 42.096C65.24 42.72 65.504 43.572 65.504 44.652C65.504 45.788 65.24 46.652 64.712 47.244C64.192 47.828 63.44 48.12 62.456 48.12C61.488 48.12 60.768 47.912 60.296 47.496C59.832 47.08 59.6 46.484 59.6 45.708V45.348C59.6 44.932 59.708 44.628 59.924 44.436C60.148 44.244 60.448 44.148 60.824 44.148H61.904V45.036H60.944ZM69.8576 48V43.668C69.8576 42.588 69.3816 42.048 68.4296 42.048C68.0456 42.048 67.6856 42.12 67.3496 42.264C67.0136 42.4 66.7296 42.564 66.4976 42.756L66.2216 41.976C66.3416 41.872 66.4856 41.772 66.6536 41.676C66.8296 41.572 67.0176 41.484 67.2176 41.412C67.4256 41.332 67.6376 41.272 67.8536 41.232C68.0776 41.184 68.3016 41.16 68.5256 41.16C69.3096 41.16 69.8976 41.384 70.2896 41.832C70.6896 42.272 70.8896 42.9 70.8896 43.716V48H69.8576ZM73.8732 48L73.2252 45.3C73.2012 45.196 73.1652 45.128 73.1172 45.096C73.0692 45.056 73.0012 45.036 72.9132 45.036H72.4572V44.148H72.9972C73.3332 44.148 73.5932 44.212 73.7772 44.34C73.9612 44.468 74.0972 44.72 74.1852 45.096L74.6532 47.112H74.8092C75.0492 47.112 75.2772 47.052 75.4932 46.932C75.7172 46.812 75.9132 46.64 76.0812 46.416C76.2572 46.184 76.3972 45.9 76.5012 45.564C76.6052 45.228 76.6572 44.844 76.6572 44.412C76.6572 43.572 76.4772 42.968 76.1172 42.6C75.7572 42.232 75.2492 42.048 74.5932 42.048C74.1372 42.048 73.7092 42.132 73.3092 42.3C72.9092 42.46 72.5652 42.664 72.2772 42.912L71.9532 42.108C72.2892 41.828 72.6852 41.6 73.1412 41.424C73.5972 41.248 74.0772 41.16 74.5812 41.16C75.6212 41.16 76.3972 41.448 76.9092 42.024C77.4292 42.6 77.6892 43.4 77.6892 44.424C77.6892 44.952 77.6172 45.436 77.4732 45.876C77.3292 46.308 77.1252 46.684 76.8612 47.004C76.5972 47.316 76.2812 47.56 75.9132 47.736C75.5532 47.912 75.1532 48 74.7132 48H73.8732ZM79.2251 48V41.28H80.2571V48H79.2251ZM84.8193 47.232C85.3953 47.232 85.8193 47.08 86.0913 46.776C86.3713 46.472 86.5113 46.056 86.5113 45.528V39H87.5433V45.528C87.5433 46.36 87.3113 47 86.8473 47.448C86.3833 47.896 85.7073 48.12 84.8193 48.12C83.9313 48.12 83.2553 47.896 82.7913 47.448C82.3273 47 82.0953 46.36 82.0953 45.528V41.28H83.1273V45.528C83.1273 46.056 83.2633 46.472 83.5353 46.776C83.8153 47.08 84.2433 47.232 84.8193 47.232ZM85.2335 40.368C85.0255 40.368 84.8455 40.316 84.6935 40.212C84.5335 40.1 84.4135 39.96 84.3335 39.792C84.2775 39.96 84.1655 40.108 83.9975 40.236C83.8295 40.356 83.6015 40.416 83.3135 40.416C83.1055 40.416 82.9215 40.38 82.7615 40.308C82.5935 40.236 82.4535 40.14 82.3415 40.02C82.2295 39.9 82.1455 39.764 82.0895 39.612C82.0255 39.46 81.9935 39.3 81.9935 39.132C81.9935 38.956 82.0255 38.788 82.0895 38.628C82.1455 38.468 82.2335 38.324 82.3535 38.196C82.4735 38.068 82.6295 37.968 82.8215 37.896C83.0135 37.816 83.2415 37.776 83.5055 37.776H85.9655V38.592H83.5415C83.3255 38.592 83.1735 38.648 83.0855 38.76C82.9975 38.872 82.9535 39 82.9535 39.144C82.9535 39.288 82.9975 39.408 83.0855 39.504C83.1735 39.6 83.3055 39.648 83.4815 39.648C83.6175 39.648 83.7375 39.596 83.8415 39.492C83.9375 39.388 83.9975 39.28 84.0215 39.168H84.5975C84.6295 39.28 84.6935 39.368 84.7895 39.432C84.8775 39.496 85.0095 39.528 85.1855 39.528H85.9775V40.368H85.2335ZM90.3695 45.6C90.3695 46.168 90.4815 46.584 90.7055 46.848C90.9295 47.104 91.2935 47.232 91.7975 47.232C91.9975 47.232 92.1935 47.196 92.3855 47.124C92.5855 47.052 92.7735 46.952 92.9495 46.824C93.1255 46.696 93.2815 46.552 93.4175 46.392C93.5535 46.224 93.6655 46.048 93.7535 45.864V41.28H94.7855V48H93.8135L93.7535 47.016C93.5215 47.352 93.2335 47.62 92.8895 47.82C92.5455 48.02 92.1015 48.12 91.5575 48.12C90.8215 48.12 90.2655 47.908 89.8895 47.484C89.5215 47.052 89.3375 46.428 89.3375 45.612V41.28H90.3695V45.6ZM98.4148 47.244C98.9588 47.244 99.3708 47.14 99.6508 46.932C99.9308 46.716 100.071 46.472 100.071 46.2C100.071 46.032 100.019 45.884 99.9148 45.756C99.8188 45.628 99.6868 45.516 99.5188 45.42C99.3588 45.316 99.1748 45.228 98.9668 45.156C98.7668 45.084 98.5628 45.016 98.3548 44.952C98.0508 44.864 97.7668 44.768 97.5028 44.664C97.2468 44.552 97.0228 44.42 96.8308 44.268C96.6468 44.108 96.5028 43.924 96.3988 43.716C96.2948 43.5 96.2428 43.244 96.2428 42.948C96.2428 42.38 96.4668 41.94 96.9148 41.628C97.3708 41.316 97.9868 41.16 98.7628 41.16C99.1388 41.16 99.5068 41.2 99.8668 41.28C100.227 41.352 100.547 41.46 100.827 41.604L100.563 42.42C100.075 42.164 99.5068 42.036 98.8588 42.036C98.3548 42.036 97.9588 42.124 97.6708 42.3C97.3908 42.476 97.2508 42.692 97.2508 42.948C97.2508 43.092 97.2908 43.22 97.3708 43.332C97.4508 43.444 97.5588 43.544 97.6948 43.632C97.8308 43.712 97.9868 43.788 98.1628 43.86C98.3388 43.924 98.5268 43.988 98.7268 44.052C99.1028 44.172 99.4348 44.3 99.7228 44.436C100.019 44.564 100.267 44.712 100.467 44.88C100.667 45.048 100.819 45.24 100.923 45.456C101.027 45.672 101.079 45.928 101.079 46.224C101.079 46.792 100.863 47.252 100.431 47.604C100.007 47.948 99.3508 48.12 98.4628 48.12C98.0228 48.12 97.6148 48.08 97.2388 48C96.8708 47.92 96.5588 47.804 96.3028 47.652L96.5548 46.848C96.8028 46.968 97.0868 47.064 97.4068 47.136C97.7268 47.208 98.0628 47.244 98.4148 47.244ZM105.389 48V43.668C105.389 42.588 104.913 42.048 103.961 42.048C103.577 42.048 103.217 42.12 102.881 42.264C102.545 42.4 102.261 42.564 102.029 42.756L101.753 41.976C101.873 41.872 102.017 41.772 102.185 41.676C102.361 41.572 102.549 41.484 102.749 41.412C102.957 41.332 103.169 41.272 103.385 41.232C103.609 41.184 103.833 41.16 104.057 41.16C104.841 41.16 105.429 41.384 105.821 41.832C106.221 42.272 106.421 42.9 106.421 43.716V48H105.389ZM112.344 41.28H113.376V45.492C113.376 45.884 113.324 46.244 113.22 46.572C113.116 46.892 112.948 47.168 112.716 47.4C112.492 47.624 112.2 47.8 111.84 47.928C111.488 48.056 111.056 48.12 110.544 48.12C109.696 48.12 109.036 47.932 108.564 47.556C108.1 47.18 107.868 46.644 107.868 45.948C107.868 45.548 107.968 45.208 108.168 44.928C108.368 44.64 108.64 44.44 108.984 44.328C108.68 44.248 108.416 44.08 108.192 43.824C107.976 43.568 107.868 43.212 107.868 42.756C107.868 42.308 108.02 41.94 108.324 41.652C108.628 41.356 109.048 41.208 109.584 41.208C109.808 41.208 110.008 41.228 110.184 41.268C110.36 41.308 110.512 41.356 110.64 41.412L110.52 42.276C110.44 42.236 110.328 42.196 110.184 42.156C110.048 42.116 109.904 42.096 109.752 42.096C109.456 42.096 109.232 42.172 109.08 42.324C108.936 42.468 108.864 42.656 108.864 42.888C108.864 43.048 108.896 43.188 108.96 43.308C109.032 43.42 109.12 43.52 109.224 43.608C109.328 43.688 109.444 43.748 109.572 43.788C109.7 43.828 109.828 43.848 109.956 43.848H110.976L111.06 44.736H110.112C109.76 44.736 109.464 44.84 109.224 45.048C108.992 45.256 108.876 45.536 108.876 45.888C108.876 46.104 108.92 46.296 109.008 46.464C109.104 46.632 109.228 46.776 109.38 46.896C109.54 47.008 109.72 47.092 109.92 47.148C110.128 47.204 110.344 47.232 110.568 47.232C111.168 47.232 111.612 47.084 111.9 46.788C112.196 46.484 112.344 46.048 112.344 45.48V41.28ZM115.525 48V39.996C115.525 39.508 115.605 39.084 115.765 38.724C115.933 38.364 116.161 38.056 116.449 37.8H113.485V36.948H117.769V37.668C117.385 37.844 117.085 38.108 116.869 38.46C116.661 38.804 116.557 39.24 116.557 39.768V48H115.525ZM123.138 48V44.004C123.138 43.724 123.102 43.464 123.03 43.224C122.966 42.984 122.862 42.78 122.718 42.612C122.574 42.436 122.39 42.3 122.166 42.204C121.95 42.1 121.69 42.048 121.386 42.048C120.674 42.048 120.13 42.284 119.754 42.756C119.386 43.22 119.202 43.872 119.202 44.712C119.202 45.176 119.254 45.568 119.358 45.888C119.47 46.2 119.61 46.452 119.778 46.644C119.954 46.836 120.146 46.976 120.354 47.064C120.562 47.144 120.77 47.184 120.978 47.184C121.146 47.184 121.29 47.172 121.41 47.148C121.538 47.124 121.666 47.088 121.794 47.04L121.986 47.856C121.85 47.92 121.69 47.972 121.506 48.012C121.322 48.052 121.13 48.072 120.93 48.072C120.57 48.072 120.222 48.004 119.886 47.868C119.55 47.732 119.254 47.528 118.998 47.256C118.75 46.976 118.55 46.628 118.398 46.212C118.246 45.788 118.17 45.288 118.17 44.712C118.17 44.208 118.234 43.74 118.362 43.308C118.498 42.876 118.698 42.504 118.962 42.192C119.226 41.872 119.558 41.62 119.958 41.436C120.358 41.252 120.826 41.16 121.362 41.16C121.85 41.16 122.27 41.236 122.622 41.388C122.974 41.54 123.262 41.748 123.486 42.012C123.718 42.276 123.89 42.58 124.002 42.924C124.114 43.268 124.17 43.632 124.17 44.016V48H123.138ZM122.778 40.368C122.642 40.368 122.522 40.32 122.418 40.224C122.314 40.128 122.262 40 122.262 39.84V39.504C122.262 39.416 122.25 39.356 122.226 39.324C122.202 39.284 122.142 39.264 122.046 39.264H121.41V38.424H122.394C122.618 38.424 122.798 38.472 122.934 38.568C123.062 38.664 123.126 38.816 123.126 39.024V39.324C123.126 39.388 123.142 39.44 123.174 39.48C123.198 39.512 123.254 39.528 123.342 39.528H124.962V40.368H122.778ZM130.638 48L129.75 44.952C129.526 44.216 129.118 43.84 128.526 43.824L127.026 45.06V48H125.994V41.28H127.026V43.92L130.218 41.28H131.61L129.258 43.224C129.69 43.288 130.022 43.468 130.254 43.764C130.494 44.06 130.682 44.428 130.818 44.868L131.742 48H130.638ZM137.082 48V44.76H135.402C134.834 44.76 134.386 44.872 134.058 45.096C133.73 45.312 133.566 45.648 133.566 46.104C133.566 46.496 133.682 46.788 133.914 46.98C134.146 47.164 134.438 47.256 134.79 47.256C134.958 47.256 135.134 47.24 135.318 47.208C135.51 47.168 135.678 47.116 135.822 47.052L135.99 47.904C135.814 47.968 135.61 48.02 135.378 48.06C135.146 48.1 134.914 48.12 134.682 48.12C134.378 48.12 134.094 48.08 133.83 48C133.574 47.912 133.35 47.788 133.158 47.628C132.966 47.46 132.814 47.252 132.702 47.004C132.59 46.748 132.534 46.452 132.534 46.116C132.534 45.412 132.782 44.864 133.278 44.472C133.774 44.072 134.522 43.872 135.522 43.872H137.082V43.716C137.082 43.188 136.958 42.776 136.71 42.48C136.462 42.176 136.022 42.024 135.39 42.024C134.934 42.024 134.51 42.092 134.118 42.228C133.726 42.364 133.386 42.532 133.098 42.732L132.762 42C132.882 41.896 133.034 41.796 133.218 41.7C133.41 41.596 133.622 41.504 133.854 41.424C134.094 41.344 134.35 41.28 134.622 41.232C134.894 41.184 135.178 41.16 135.474 41.16C136.338 41.16 136.994 41.392 137.442 41.856C137.89 42.312 138.114 42.928 138.114 43.704V48H137.082ZM136.784 40.368C135.976 40.368 135.572 40.008 135.572 39.288V38.808H136.556V39.168C136.556 39.408 136.668 39.528 136.892 39.528H139.724V40.368H136.784ZM144.332 48V43.764C144.332 43.188 144.184 42.76 143.888 42.48C143.592 42.192 143.168 42.048 142.616 42.048C142.16 42.048 141.756 42.148 141.404 42.348C141.052 42.54 140.812 42.796 140.684 43.116L141.596 43.956C141.38 44.068 141.22 44.208 141.116 44.376C141.012 44.536 140.96 44.744 140.96 45V48H139.928V45.144C139.928 44.912 139.984 44.692 140.096 44.484C140.208 44.276 140.368 44.12 140.576 44.016L139.592 43.176C139.656 42.92 139.776 42.672 139.952 42.432C140.136 42.184 140.36 41.968 140.624 41.784C140.888 41.592 141.188 41.44 141.524 41.328C141.868 41.216 142.232 41.16 142.616 41.16C143.072 41.16 143.472 41.224 143.816 41.352C144.16 41.48 144.444 41.66 144.668 41.892C144.9 42.124 145.072 42.4 145.184 42.72C145.304 43.032 145.364 43.38 145.364 43.764V48H144.332Z" fill="#414B5A"/>
<defs>
<filter id="filter0_d" x="0.856445" y="0" width="204.143" height="70.151" filterUnits="userSpaceOnUse" color-interpolation-filters="sRGB">
<feFlood flood-opacity="0" result="BackgroundImageFix"/>
<feColorMatrix in="SourceAlpha" type="matrix" values="0 0 0 0 0 0 0 0 0 0 0 0 0 0 0 0 0 0 127 0" result="hardAlpha"/>
<feOffset dy="3"/>
<feGaussianBlur stdDeviation="3"/>
<feColorMatrix type="matrix" values="0 0 0 0 0 0 0 0 0 0 0 0 0 0 0 0 0 0 0.161 0"/>
<feBlend mode="normal" in2="BackgroundImageFix" result="effect1_dropShadow"/>
<feBlend mode="normal" in="SourceGraphic" in2="effect1_dropShadow" result="shape"/>
</filter>
</defs>
</svg>
